<svg xmlns="http://www.w3.org/2000/svg" width="60" height="60" viewBox="0 0 60 60">
  <g id="eTicketing" transform="translate(-1666 -1949.39)">
    <g id="Subtraction_3" data-name="Subtraction 3" transform="translate(1664 1974)" fill="#fff">
      <path d="M 60.24990463256836 27.24989891052246 L 3.749703645706177 27.24989891052246 L 3.749703645706177 24.63788032531738 C 4.848062038421631 24.30093193054199 5.652003765106201 23.24534225463867 5.652003765106201 21.99959945678711 C 5.652003765106201 20.75330924987793 4.848104953765869 19.69799423217773 3.749703645706177 19.36172866821289 L 3.749703645706177 16.6378173828125 C 4.848062038421631 16.30097770690918 5.652003765106201 15.24573135375977 5.652003765106201 14.00039958953857 C 5.652003765106201 12.75369930267334 4.848104953765869 11.69804096221924 3.749703645706177 11.36166477203369 L 3.749703645706177 8.637717247009277 C 4.848062038421631 8.300877571105957 5.652003765106201 7.245631217956543 5.652003765106201 6.000299453735352 C 5.652003765106201 4.753599166870117 4.848104953765869 3.697941064834595 3.749703645706177 3.361564636230469 L 3.749703645706177 0.749999463558197 L 60.24990463256836 0.749999463558197 L 60.24990463256836 27.24989891052246 Z" stroke="none"/>
      <path d="M 59.49990463256836 26.49989891052246 L 59.49990463256836 1.499999403953552 L 4.499703407287598 1.499999403953552 L 4.499703407287598 2.858524560928345 C 5.625575065612793 3.429955720901489 6.402003765106201 4.623624801635742 6.402003765106201 6.000299453735352 C 6.402003765106201 7.375700950622559 5.625570774078369 8.56892204284668 4.499703407287598 9.14057731628418 L 4.499703407287598 10.85862445831299 C 5.625575065612793 11.43005561828613 6.402003765106201 12.62372493743896 6.402003765106201 14.00039958953857 C 6.402003765106201 15.37580108642578 5.625570774078369 16.56902313232422 4.499703407287598 17.14067649841309 L 4.499703407287598 18.8586311340332 C 5.625575065612793 19.4299144744873 6.402003765106201 20.6232738494873 6.402003765106201 21.99959945678711 C 6.402003765106201 23.37535858154297 5.625570774078369 24.56888389587402 4.499703407287598 25.14068603515625 L 4.499703407287598 26.49989891052246 L 59.49990463256836 26.49989891052246 M 60.99990463256836 27.99989891052246 L 2.999703645706177 27.99989891052246 L 2.999703645706177 24.00029945373535 C 4.049843311309814 23.99930000305176 4.902003765106201 23.10223960876465 4.902003765106201 21.99959945678711 C 4.902003765106201 20.89690971374512 4.048633575439453 19.99979972839355 2.999703645706177 19.99979972839355 L 2.999703645706177 16.00020027160645 C 4.049843311309814 15.99919986724854 4.902003765106201 15.1025390625 4.902003765106201 14.00039958953857 C 4.902003765106201 12.89720916748047 4.048633575439453 11.99969959259033 2.999703645706177 11.99969959259033 L 2.999703645706177 8.000099182128906 C 4.049843311309814 7.999099254608154 4.902003765106201 7.102439403533936 4.902003765106201 6.000299453735352 C 4.902003765106201 4.897109508514404 4.048633575439453 3.999599456787109 2.999703645706177 3.999599456787109 L 2.999703645706177 -5.447387820822769e-07 L 60.99990463256836 -5.447387820822769e-07 L 60.99990463256836 27.99989891052246 Z" stroke="none" fill="#4d4d4d"/>
    </g>
    <line id="Line_46" data-name="Line 46" y2="27" transform="translate(1716.5 1974)" fill="none" stroke="#4d4d4d" stroke-width="1.5"/>
    <line id="Line_47" data-name="Line 47" y2="27" transform="translate(1677.5 1974)" fill="none" stroke="#4d4d4d" stroke-width="1.5"/>
    <path id="Path_756" data-name="Path 756" d="M0-3.86H60v60H0Z" transform="translate(1666 1953.25)" fill="none"/>
  </g>
</svg>
