<?xml version="1.0" encoding="utf-8"?>
<!-- Generator: Adobe Illustrator 26.0.3, SVG Export Plug-In . SVG Version: 6.00 Build 0)  -->
<svg version="1.1" id="Layer_1" xmlns="http://www.w3.org/2000/svg" xmlns:xlink="http://www.w3.org/1999/xlink" x="0px" y="0px"
	 viewBox="0 0 50 50" style="enable-background:new 0 0 50 50;" xml:space="preserve">
<style type="text/css">
	.st0{fill:#FFFFFF;}
	.st1{fill:none;stroke:#213FFF;stroke-width:2;}
</style>
<g id="get-support" transform="translate(0 1)">
	<g id="Rectangle_137" transform="translate(0 16.454)">
		<path class="st0" d="M6.9,3.3h2.3l0,0v16l0,0l0,0c-2.8,0-5-2.2-5-5V6C4.2,4.5,5.4,3.3,6.9,3.3z"/>
		<path class="st1" d="M6.7,4.3h1.4l0,0v14l0,0l0,0c-1.7,0-3-1.3-3-3V5.8C5.2,5,5.9,4.3,6.7,4.3L6.7,4.3z"/>
	</g>
	<g id="Rectangle_138" transform="translate(34.753 16.454)">
		<path class="st0" d="M4.2,3.3h2.3C8,3.3,9.2,4.5,9.2,6v8.3c0,2.8-2.2,5-5,5l0,0l0,0V3.3L4.2,3.3z"/>
		<path class="st1" d="M5.2,4.3h1.4c0.9,0,1.6,0.7,1.6,1.6l0,0v9.4c0,1.7-1.3,3-3,3l0,0l0,0V4.3L5.2,4.3z"/>
	</g>
	<path id="Path_688" class="st1" d="M43.4,31.3c0,0,4.3,5.1-2.1,9.1s-16.2,3-16.2,3"/>
	<g id="Rectangle_139" transform="translate(17 38.454)">
		<path class="st0" d="M6.2,3.3h2c1.1,0,2,0.9,2,2l0,0c0,1.1-0.9,2-2,2h-2c-1.1,0-2-0.9-2-2l0,0C4.2,4.2,5.1,3.3,6.2,3.3z"/>
		<path class="st1" d="M6.2,4.3h2c0.6,0,1,0.4,1,1l0,0c0,0.6-0.4,1-1,1h-2c-0.6,0-1-0.4-1-1l0,0C5.2,4.7,5.6,4.3,6.2,4.3z"/>
	</g>
	<path id="Path_689" class="st1" d="M7.2,20C8.6,15.2,7.6,4,24.3,3.3c16.3,0.2,15.5,11.6,17.1,16.8"/>
</g>
</svg>
