<?xml version="1.0" encoding="utf-8"?>
<!-- Generator: Adobe Illustrator 26.0.3, SVG Export Plug-In . SVG Version: 6.00 Build 0)  -->
<svg version="1.1" id="Layer_1" xmlns="http://www.w3.org/2000/svg" xmlns:xlink="http://www.w3.org/1999/xlink" x="0px" y="0px"
	 viewBox="0 0 50 50" style="enable-background:new 0 0 50 50;" xml:space="preserve">
<style type="text/css">
	.st0{fill:none;stroke:#213FFF;stroke-width:1.9996;stroke-linecap:round;stroke-linejoin:round;stroke-miterlimit:3.9992;}
	.st1{fill:none;stroke:#00B4EB;stroke-width:2;stroke-linecap:round;stroke-linejoin:round;}
	.st2{fill:none;stroke:#00B4EB;stroke-width:2;stroke-linecap:round;}
</style>
<g id="new-connection" transform="translate(1.412 1.412)">
	<path id="Path_673" class="st0" d="M41.2,19.3l-5,4.5l-8.1-4l1.4-4.7c-3.8-1.5-7.9-1.7-11.8-0.6l0.9,4.8l-8.5,3.1l-4.5-5
		C4.5,16.1,4.6,14,6,12.7c10.6-8.4,25.8-7.6,35.5,1.9C42.7,15.9,42.6,18.1,41.2,19.3"/>
	<path id="Path_674" class="st1" d="M18,34.7c2-2.8,5.9-3.5,8.7-1.4c0.6,0.4,1,0.9,1.4,1.4"/>
	<path id="Path_675" class="st1" d="M12.9,31.2c4-5.6,11.9-6.9,17.5-2.9c1.1,0.8,2.1,1.8,2.9,2.9"/>
	<line id="Line_44" class="st2" x1="23.1" y1="35.6" x2="23.1" y2="42.5"/>
</g>
</svg>
