<?xml version="1.0" encoding="utf-8"?>
<!-- Generator: Adobe Illustrator 26.0.3, SVG Export Plug-In . SVG Version: 6.00 Build 0)  -->
<svg version="1.1" id="Layer_1" xmlns="http://www.w3.org/2000/svg" xmlns:xlink="http://www.w3.org/1999/xlink" x="0px" y="0px"
	 viewBox="0 0 50 50" style="enable-background:new 0 0 50 50;" xml:space="preserve">
<style type="text/css">
	.st0{fill:none;}
	.st1{fill:none;stroke:#00B4EB;stroke-width:1.5;stroke-linecap:round;stroke-linejoin:round;}
	.st2{fill:none;stroke:#00B4EB;stroke-width:1.5;stroke-linecap:round;}
	.st3{fill:#213FFF;}
</style>
<g id="subscribe-ebill" transform="translate(-688.09 -607.762)">
	<g id="Group_955" transform="translate(704 613.793)">
		<path id="Path_683" class="st0" d="M5,8.5h24v24H5V8.5z"/>
		<path id="Path_684" class="st1" d="M17,20.5l9,3l-4,2l-2,4L17,20.5"/>
		<line id="Line_31" class="st2" x1="22.5" y1="26" x2="26.5" y2="30"/>
	</g>
	<path id="Subtraction_2" class="st3" d="M693.1,649.3v-30.9c0-1.2,1-2.1,2.1-2.1H722c1.2,0,2.1,1,2.1,2.1v5.8
		c-0.8,0.4-1.5,0.8-2.1,1.4v-7.2h-26.7v27l3.7-2.4l4.8,3l4.8-3l4.8,3l4.8-3l0.5,0.3c-1.5,1.2-2.9,2.6-3.9,4.2l-0.1,0.2l-1.3,0.8
		l-4.8-3l-4.8,3l-4.8-3L693.1,649.3L693.1,649.3z M717.5,635.5h-17.8v-2.1h17.8V635.5L717.5,635.5z M717.5,627.1h-17.8v-2.2h17.8
		V627.1L717.5,627.1z"/>
</g>
</svg>
