<svg id="Layer_1" data-name="Layer 1" xmlns="http://www.w3.org/2000/svg" xmlns:xlink="http://www.w3.org/1999/xlink" viewBox="0 0 178.36 178.37"><defs><style>.cls-1{fill:none;}.cls-2{clip-path:url(#clip-path);}.cls-3{fill:url(#radial-gradient);}.cls-4{fill:#13b3e8;}.cls-5{fill:#fff;}.cls-6{fill:#51b748;}</style><clipPath id="clip-path" transform="translate(-0.92 -1.67)"><rect class="cls-1" x="0.92" y="1.67" width="178.36" height="178.37" rx="29.24" ry="29.24"/></clipPath><radialGradient id="radial-gradient" cx="89.18" cy="89.18" r="89.18" gradientUnits="userSpaceOnUse"><stop offset="0" stop-color="#0056a2"/><stop offset="1" stop-color="#192c56"/></radialGradient></defs><title>SmartHome-APP</title><g class="cls-2"><rect class="cls-3" width="178.36" height="178.37"/></g><path class="cls-4" d="M39.32,122.38a3.81,3.81,0,0,1-1.93-.52A3.88,3.88,0,0,1,36,116.55L54.49,84.46a3.89,3.89,0,1,1,6.73,3.89L42.7,120.44a3.93,3.93,0,0,1-3.38,1.94" transform="translate(-0.92 -1.67)"/><path class="cls-5" d="M39.32,153.35a3.85,3.85,0,0,1-1.93-.52A3.89,3.89,0,0,1,36,147.52l18.53-32.09a3.89,3.89,0,1,1,6.73,3.89L42.7,151.4a3.92,3.92,0,0,1-3.38,1.95" transform="translate(-0.92 -1.67)"/><path class="cls-6" d="M69.93,153.35a3.85,3.85,0,0,1-1.94-.52,3.9,3.9,0,0,1-1.43-5.31L85.1,115.43a3.89,3.89,0,1,1,6.72,3.89L73.3,151.4a3.89,3.89,0,0,1-3.37,1.95" transform="translate(-0.92 -1.67)"/><path class="cls-6" d="M72.56,125.15a3.89,3.89,0,1,1-3.89-3.89,3.88,3.88,0,0,1,3.89,3.89" transform="translate(-0.92 -1.67)"/><path class="cls-4" d="M137.37,152.38H87.59a2.5,2.5,0,0,1,0-5h49.78a.49.49,0,0,0,.49-.48V81.52a2.5,2.5,0,0,1,2.5-2.5h12.57a.48.48,0,0,0,.3-.86L90.41,27.7a.49.49,0,0,0-.61,0L27,78.15a.49.49,0,0,0,.3.86H39.86a2.5,2.5,0,0,1,2.5,2.5v8.27a2.5,2.5,0,1,1-5,0V84H27.29a5.48,5.48,0,0,1-3.44-9.76L86.67,23.8a5.45,5.45,0,0,1,6.87,0l62.81,50.46A5.48,5.48,0,0,1,152.92,84H142.85V146.9A5.49,5.49,0,0,1,137.37,152.38Z" transform="translate(-0.92 -1.67)"/></svg>