<svg xmlns="http://www.w3.org/2000/svg" width="99" height="99" viewBox="0 0 99 99"><g transform="translate(-333 -991)"><circle cx="49.5" cy="49.5" r="49.5" transform="translate(333 991)" fill="#01f6ab"/><g transform="translate(373 1055)" fill="none" stroke="#fff" stroke-width="1.5"><ellipse cx="9.5" cy="10" rx="9.5" ry="10" stroke="none"/><ellipse cx="9.5" cy="10" rx="8.75" ry="9.25" fill="none"/></g><line x2="5" y2="4" transform="translate(380 1063)" fill="none" stroke="#777" stroke-linecap="round" stroke-width="1.5"/><line x1="5" y2="4" transform="translate(380 1063)" fill="none" stroke="#777" stroke-linecap="round" stroke-width="1.5"/><line y2="6.092" transform="translate(382.682 1049.638)" fill="none" stroke="#fff" stroke-width="2"/><line x2="18.277" transform="translate(355.266 1064.869)" fill="none" stroke="#fff" stroke-linecap="round" stroke-width="2"/><line x2="18.277" transform="translate(391.82 1064.869)" fill="none" stroke="#fff" stroke-linecap="round" stroke-width="2"/><g transform="translate(359.097 1006.722)"><path d="M33.426,12.315a5.12,5.12,0,0,0-8.868,0L5.7,44.976a5.12,5.12,0,0,0,4.434,7.68H47.849a5.12,5.12,0,0,0,4.434-7.68ZM49.514,48.5a1.889,1.889,0,0,1-1.665.961H10.135A1.922,1.922,0,0,1,8.47,46.575L27.327,13.914a1.922,1.922,0,0,1,3.33,0L49.514,46.575A1.889,1.889,0,0,1,49.514,48.5Z" transform="translate(-5.015 -9.755)" fill="#1a737a"/><circle cx="2.04" cy="2.04" r="2.04" transform="translate(21.937 32.85)" fill="#1a737a"/><path d="M48.816,34.427h-2.8A1.549,1.549,0,0,0,44.471,36.1L45.683,50.85a1.237,1.237,0,0,0,1.233,1.136h1a1.237,1.237,0,0,0,1.233-1.136L50.36,36.1a1.549,1.549,0,0,0-1.544-1.676Z" transform="translate(-23.439 -21.277)" fill="#1a737a"/></g></g></svg>