<svg xmlns="http://www.w3.org/2000/svg" width="99" height="99" viewBox="0 0 99 99"><g transform="translate(-277 -698)"><circle cx="49.5" cy="49.5" r="49.5" transform="translate(277 698)" fill="#222b64"/><g transform="translate(294.395 716.231)"><path d="M58.571,19.945a9.1,9.1,0,0,0,.067-1.1A9.414,9.414,0,0,0,47.27,9.629a14.648,14.648,0,0,0-27.523,0,9.415,9.415,0,0,0-11.37,9.219,9.053,9.053,0,0,0,.068,1.1,9.424,9.424,0,0,0,.979,18.8h7.33V36.649H9.424A7.327,7.327,0,1,1,9.5,21.995h.009L9.663,22a1.017,1.017,0,0,0,.855-.391,1.046,1.046,0,0,0,.2-.919,7.317,7.317,0,0,1,9.389-8.8,1.047,1.047,0,0,0,1.335-.7,12.554,12.554,0,0,1,24.136,0,1.046,1.046,0,0,0,1.334.7,7.322,7.322,0,0,1,9.635,6.955A7.448,7.448,0,0,1,56.3,20.7a1.051,1.051,0,0,0,.2.918,1.063,1.063,0,0,0,.853.388l.24-.014a7.33,7.33,0,1,1,0,14.66h-7.33v2.094h7.33a9.424,9.424,0,0,0,.98-18.8Z" transform="translate(-1)" fill="#fff"/></g><g transform="translate(355.787 837.298)"><path d="M40.774,29.288a3.141,3.141,0,0,1-2.221,5.362H37.506v4.188a8.36,8.36,0,0,1-7.33,8.3v1.119a3.107,3.107,0,0,1-2.094,2.951v7.52H25.987v-7.52a3.1,3.1,0,0,1-2.094-2.951v-1.12a8.36,8.36,0,0,1-7.33-8.3V34.65H15.516a3.141,3.141,0,1,1,0-6.283h1.047V18.944a3.118,3.118,0,0,1,.921-2.222,3.215,3.215,0,0,1,4.441,0,3.117,3.117,0,0,1,.92,2.221v9.424h8.377V18.944a3.125,3.125,0,0,1,.92-2.222,3.218,3.218,0,0,1,4.443,0,3.12,3.12,0,0,1,.919,2.221v9.424h1.047A3.123,3.123,0,0,1,40.774,29.288Zm-7.457-.92h2.094V18.944a1.04,1.04,0,0,0-.307-.74,1.07,1.07,0,0,0-1.48,0,1.041,1.041,0,0,0-.308.741Zm-14.66,0h2.094V18.944a1.037,1.037,0,0,0-.306-.739,1.071,1.071,0,0,0-1.482,0,1.038,1.038,0,0,0-.307.74Zm9.424,18.848H25.987v1.047a1.037,1.037,0,0,0,.306.739,1.073,1.073,0,0,0,1.482,0,1.038,1.038,0,0,0,.307-.74Zm7.33-12.565H18.658v4.188a6.283,6.283,0,0,0,6.283,6.283h4.188a6.281,6.281,0,0,0,6.283-6.283ZM39.6,31.509a1.047,1.047,0,0,0-1.047-1.047H15.516a1.047,1.047,0,0,0,0,2.094H38.553A1.047,1.047,0,0,0,39.6,31.509Z" transform="translate(-55.375 -115.832)" fill="#87dec3"/></g></g></svg>