<svg xmlns="http://www.w3.org/2000/svg" width="47.989" height="54.774" viewBox="0 0 47.989 54.774"><g transform="translate(0)"><path d="M15.787,50.6a3.392,3.392,0,1,0,0,6.785h.777V60.8a3.888,3.888,0,0,0,3.889,3.878H56.505A3.882,3.882,0,0,0,60.383,60.8V13.783a3.882,3.882,0,0,0-3.878-3.878H20.452a3.888,3.888,0,0,0-3.889,3.878V17.2h-.777a3.393,3.393,0,0,0,0,6.786h.777v4.35h-.777a3.393,3.393,0,0,0,0,6.786h.777v4.349h-.777a3.393,3.393,0,0,0,0,6.786h.777V50.6h-.777Zm2.968-36.82a1.694,1.694,0,0,1,1.7-1.687H56.505a1.688,1.688,0,0,1,1.687,1.687V60.8a1.688,1.688,0,0,1-1.687,1.687H20.452a1.694,1.694,0,0,1-1.7-1.687V57.388h.784a3.392,3.392,0,1,0,0-6.785h-.784v-4.35h.784a3.393,3.393,0,0,0,0-6.786h-.784V35.118h.784a3.393,3.393,0,0,0,0-6.786h-.784v-4.35h.784a3.393,3.393,0,0,0,0-6.786h-.784Zm-2.968,8.009a1.2,1.2,0,0,1,0-2.4h1.851c.007,0,.014,0,.021,0s.014,0,.021,0h1.859a1.2,1.2,0,0,1,0,2.4Zm0,11.136a1.2,1.2,0,0,1,0-2.4h3.752a1.2,1.2,0,0,1,0,2.4H17.685c-.009,0-.017-.005-.026-.005s-.017.005-.026.005Zm0,11.135a1.2,1.2,0,0,1,0-2.4h1.846c.009,0,.017.005.026.005s.017-.005.026-.005h1.853a1.2,1.2,0,0,1,0,2.4Zm3.752,8.732a1.2,1.2,0,0,1,0,2.4H17.675c-.006,0-.01,0-.016,0s-.01,0-.016,0H15.787a1.2,1.2,0,0,1,0-2.4Z" transform="translate(-12.395 -9.905)" fill="#7a81af"/><path d="M26.15,38.062H43.8a1.1,1.1,0,0,0,1.1-1.1,9.927,9.927,0,0,0-5.876-9.049,6.954,6.954,0,1,0-8.088,0,9.927,9.927,0,0,0-5.876,9.049A1.1,1.1,0,0,0,26.15,38.062Zm4.062-15.778a4.763,4.763,0,1,1,4.763,4.763A4.768,4.768,0,0,1,30.212,22.284Zm4.763,6.954a7.742,7.742,0,0,1,7.652,6.633h-15.3A7.742,7.742,0,0,1,34.975,29.238Z" transform="translate(-7.8 -7.936)" fill="#7a81af"/><path d="M27.87,38.974a1.1,1.1,0,0,0,0,2.191H40.832a1.1,1.1,0,1,0,0-2.191Z" transform="translate(-7.176 0.644)" fill="#7a81af"/><path d="M22.854,45.253H49.488a1.1,1.1,0,1,0,0-2.191H22.854a1.1,1.1,0,1,0,0,2.191Z" transform="translate(-8.997 2.127)" fill="#7a81af"/></g></svg>