<svg xmlns="http://www.w3.org/2000/svg" width="58.453" height="56.826" viewBox="0 0 58.453 56.826"><path d="M40.253,40.2h0a1.958,1.958,0,0,1,0-2.507A17.487,17.487,0,0,0,44.169,27.1,17.839,17.839,0,0,0,27,8.87,17.624,17.624,0,0,0,12.838,37.676a1.958,1.958,0,0,1,0,2.526h0a1.958,1.958,0,0,1-3,0,21.54,21.54,0,1,1,33.388,0,1.958,1.958,0,0,1-2.977,0Z" transform="translate(2.394 2.916)" fill="#7a81af"/><path d="M21.749,33.5A11.749,11.749,0,1,1,33.5,21.749,11.749,11.749,0,0,1,21.749,33.5Zm0-19.582a7.833,7.833,0,1,0,7.833,7.833A7.833,7.833,0,0,0,21.749,13.916Z" transform="translate(7.19 7.661)" fill="#7a81af"/><path d="M16.958,38.624h0A1.958,1.958,0,0,1,15,36.666V21h3.916V36.666A1.958,1.958,0,0,1,16.958,38.624Z" transform="translate(11.981 18.202)" fill="#7a81af"/><path d="M3.216,17.5h0a1.958,1.958,0,0,0-1.958,2.33A29.021,29.021,0,0,0,7.9,33.773a1.958,1.958,0,0,0,2.9.137h0a1.958,1.958,0,0,0,.117-2.624A25.163,25.163,0,0,1,5.037,19.165,1.958,1.958,0,0,0,3.216,17.5Z" transform="translate(-1.222 14.848)" fill="#7a81af"/><path d="M28.615,1.018a29.628,29.628,0,0,0-27.1,22.167,1.958,1.958,0,0,0,1.958,2.467h0A1.958,1.958,0,0,0,5.43,24.125a25.457,25.457,0,1,1,43.864,22.95,1.958,1.958,0,0,0,.117,2.624h0a1.958,1.958,0,0,0,2.9-.137A29.373,29.373,0,0,0,28.615,1.018Z" transform="translate(-1.007 -0.981)" fill="#7a81af"/></svg>