<svg id="Layer_1" data-name="Layer 1" xmlns="http://www.w3.org/2000/svg" viewBox="0 0 661.25 173.34"><defs><style>.cls-1{fill:#00b4eb;}.cls-2{fill:#0056a2;}.cls-3{fill:#50b848;}.cls-4{fill:none;}</style></defs><title>SLT-Storage-logo</title><path class="cls-1" d="M97.51,284.73a7.2,7.2,0,0,1-6.22-10.79l34.27-59.36A7.19,7.19,0,1,1,138,221.76l-34.27,59.36A7.2,7.2,0,0,1,97.51,284.73Z" transform="translate(-90.32 -210.97)"/><path class="cls-2" d="M97.51,342a7.19,7.19,0,0,1-6.22-10.79l34.27-59.36A7.19,7.19,0,1,1,138,279l-34.27,59.36A7.19,7.19,0,0,1,97.51,342Z" transform="translate(-90.32 -210.97)"/><path class="cls-3" d="M154.13,342a7.19,7.19,0,0,1-6.22-10.79l34.27-59.36A7.19,7.19,0,1,1,194.64,279l-34.27,59.36A7.18,7.18,0,0,1,154.13,342Z" transform="translate(-90.32 -210.97)"/><circle class="cls-3" cx="61.48" cy="78.85" r="7.19"/><path class="cls-2" d="M237.53,286c-8.1,0-13.4,3.24-13.4,8.64,0,16.37,35.44,7.83,35.35,30.68,0,10.43-9.27,17.18-22.76,17.18a35.93,35.93,0,0,1-24.11-9.62l3.24-6.21c5.85,5.58,13.85,8.82,21,8.82,9.09,0,14.75-3.69,14.75-9.81.09-16.82-35.35-7.92-35.35-30.5,0-9.9,8.73-16.19,21.77-16.19a37.25,37.25,0,0,1,20,5.85l-3.06,6.39A33.17,33.17,0,0,0,237.53,286Z" transform="translate(-90.32 -210.97)"/><path class="cls-2" d="M351.6,313.07v29.15h-7V314.87c0-8.55-4.95-13.58-13.13-13.58-9.81.27-15.47,7.38-15.47,17.63v23.3h-7.11V314.87c0-8.55-4.86-13.58-13.13-13.58-9.71.27-15.56,7.38-15.56,17.63v23.3h-6.93V294.9h6.93v10.71c3.15-7.38,9.54-10.89,18.08-11,8.9,0,15,4.5,17,12.33,3-8.28,9.62-12.24,18.71-12.33C345,294.63,351.6,301.55,351.6,313.07Z" transform="translate(-90.32 -210.97)"/><path class="cls-2" d="M396.58,342.21v-7.38c-3.78,5.13-9.81,7.65-17.36,7.65-9.81,0-16.1-6.21-16.1-14.3,0-8.28,6.57-13.49,17.72-13.58H396.4v-3c0-6.93-4.32-11.16-12.68-11.16-5.22,0-10.07,2-15,5.49l-3-4.95c6.12-4,11.24-6.39,19.34-6.39,11.69,0,18.17,6.21,18.26,16.28l.09,31.3Zm-.09-16.28v-5.75H381.74c-7.92,0-12.05,2.43-12.05,7.74s4.23,8.73,10.88,8.73C388.57,336.64,394.69,332.68,396.49,325.93Z" transform="translate(-90.32 -210.97)"/><path class="cls-2" d="M443.09,294.63v6.84c-10-.18-16.19,6-17,15.56v25.19h-7V294.9h7v10.53C429.23,298.5,435.08,294.72,443.09,294.63Z" transform="translate(-90.32 -210.97)"/><path class="cls-2" d="M477,339a19,19,0,0,1-10.71,3.51c-6.93.09-12.05-4-12.05-13.4V301.83H447.4v-5.49h6.84V283.92h6.93v12.41h15v5.49h-15v26.09c0,5.76,2.25,8.1,6.3,8.1a16.12,16.12,0,0,0,7.56-2.43Z" transform="translate(-90.32 -210.97)"/><path class="cls-2" d="M500.21,279.25v26.27h28.52V279.25h14.21v63H528.72V317.39H500.21v24.83H486v-63Z" transform="translate(-90.32 -210.97)"/><path class="cls-2" d="M604.29,318c0,14.75-10.43,24.74-25.91,24.74s-26-10-26-24.74,10.44-24.65,26-24.65S604.29,303.17,604.29,318Zm-38,.18c0,7.92,4.95,13.31,12.14,13.31s12.05-5.4,12.05-13.31-4.95-13.31-12.05-13.31S566.24,310.28,566.24,318.2Z" transform="translate(-90.32 -210.97)"/><path class="cls-2" d="M695,311.81v30.41H681.2V315.86c0-6.21-3.6-9.9-9.36-9.9-6.66.09-10.7,5.31-10.7,12.32v23.93H647.38V315.86c0-6.21-3.6-9.9-9.26-9.9-6.75.09-10.8,5.31-10.8,12.32v23.93H613.46v-48.4h13.85v8.37c3.42-5.94,9.09-8.82,16.37-8.91,8.19,0,14,4.14,16.37,11.16,3.15-7.47,9.27-11.07,17.45-11.16C688.21,293.28,695,300.48,695,311.81Z" transform="translate(-90.32 -210.97)"/><path class="cls-2" d="M751.46,322.25H716.73c1.62,6.12,6.3,9.71,12.5,9.71a17.16,17.16,0,0,0,12.23-5.13l7.29,7.38c-4.86,5.4-12,8.55-20.69,8.55-15.47,0-25.28-9.9-25.28-24.56,0-14.93,10.17-24.83,24.92-24.83C744.71,293.37,752.63,304.61,751.46,322.25Zm-13-8.19c-.18-6.39-4.32-10.52-10.71-10.52-6.12,0-10.25,4.14-11.33,10.52Z" transform="translate(-90.32 -210.97)"/><rect class="cls-4" x="525.87" y="145.62" width="19.5" height="21.57"/><path class="cls-2" d="M554.85,370.16c0,4.81-3.14,8.17-7.74,8.17a6.81,6.81,0,0,1-6.32-3.58v3.48h-2.4V355.37h2.4v10.14a6.78,6.78,0,0,1,6.26-3.58C551.64,361.93,554.85,365.32,554.85,370.16Zm-2.44-.06a5.82,5.82,0,1,0-11.62,0c0,3.57,2.4,6.1,5.83,6.1S552.41,373.64,552.41,370.1Z" transform="translate(-90.32 -210.97)"/><path class="cls-2" d="M558.86,384.31a5.14,5.14,0,0,1-3.42-1.17l1-1.91a3.83,3.83,0,0,0,2.28.77,3.26,3.26,0,0,0,3-2.34l.68-1.54L555.66,362h2.53l5.39,13.5,5.15-13.5h2.46l-7.46,18.53C562.71,383,561,384.31,558.86,384.31Z" transform="translate(-90.32 -210.97)"/><path class="cls-2" d="M587.72,365.25c-2.32-.69-4.31-1.28-4.31-2.94s2-1.76,2.9-1.76a13.51,13.51,0,0,1,6.22,2l.22.13,1.82-3.91-.17-.11a14.7,14.7,0,0,0-7.76-2.27c-4.93,0-8.13,2.46-8.13,6.26,0,4.43,3.86,5.53,7,6.43,2.34.67,4.38,1.25,4.38,3,0,1.33-1.24,2.09-3.39,2.09a11.7,11.7,0,0,1-7.15-3.05l-.22-.2-1.91,3.84.13.12a14,14,0,0,0,9.08,3.43c5.05,0,8.32-2.54,8.32-6.47C594.74,367.34,590.84,366.18,587.72,365.25Z" transform="translate(-90.32 -210.97)"/><polygon class="cls-2" points="511.81 163.07 511.81 145.62 507.31 145.62 507.31 167.19 520.92 167.19 520.92 163.07 511.81 163.07"/><polygon class="cls-2" points="535.11 145.62 519.31 145.62 519.31 149.67 525.89 149.67 525.89 167.19 530.42 167.19 530.42 149.67 537.14 149.67 535.11 145.62"/><path class="cls-3" d="M657.68,356.47c-6.55,0-11.48,4.69-11.48,10.91s5,11,11.48,11,11.47-4.83,11.47-11S664.23,356.47,657.68,356.47Zm.06,17.79a6.85,6.85,0,1,1,0-13.71,6.85,6.85,0,0,1,0,13.71Z" transform="translate(-90.32 -210.97)"/><path class="cls-3" d="M685.84,366.74a4.84,4.84,0,0,0,3.07-4.64c0-3.41-2.88-5.51-7.5-5.51H671.8v21.57h9.88c5,0,8-2.32,8-6.05A5.37,5.37,0,0,0,685.84,366.74Zm-4.64-1.53H676.3v-4.66h5c1.89,0,3,.85,3,2.27S683.18,365.21,681.2,365.21Zm-4.89,3.88h5c2.36,0,3.76.93,3.76,2.5a2.21,2.21,0,0,1-1,1.9,4.91,4.91,0,0,1-2.8.71h-5Z" transform="translate(-90.32 -210.97)"/><rect class="cls-3" x="602.4" y="145.62" width="4.5" height="21.57"/><polygon class="cls-3" points="608.82 145.62 608.82 149.67 615.39 149.67 615.39 167.19 619.93 167.19 619.93 149.67 626.51 149.67 626.51 145.62 608.82 145.62"/><polygon class="cls-3" points="632.96 163.2 632.96 158.35 643.21 158.35 643.21 154.36 632.96 154.36 632.96 149.61 644.39 149.61 644.39 145.62 628.45 145.62 628.45 167.19 644.75 167.19 644.75 163.2 632.96 163.2"/><polygon class="cls-3" points="651.96 163.07 651.96 145.62 647.46 145.62 647.46 167.19 661.06 167.19 661.06 163.07 651.96 163.07"/><polygon class="cls-3" points="548.22 145.62 541.75 158.86 538.55 152.46 534.15 152.46 540.28 165.02 543.2 165.02 549.06 152.89 549.09 167.19 553.24 167.19 553.24 145.62 548.22 145.62"/></svg>