<?xml version="1.0" encoding="utf-8"?>
<!-- Generator: Adobe Illustrator 22.0.0, SVG Export Plug-In . SVG Version: 6.00 Build 0)  -->
<svg version="1.1" id="Layer_1" xmlns="http://www.w3.org/2000/svg" xmlns:xlink="http://www.w3.org/1999/xlink" x="0px" y="0px"
	 viewBox="0 0 90.2 90.2" style="enable-background:new 0 0 90.2 90.2;" xml:space="preserve">
<style type="text/css">
	.st0{fill:#C200E6;}
	.st1{fill:#FF457F;}
	.st2{fill:#FF2EA2;}
	.st3{fill:#FFFFFF;}
	.st4{fill:#FF45F0;}
	.st5{fill:#17A5FF;}
	.st6{fill:#9D45FF;}
</style>
<circle class="st6" cx="45.1" cy="45.1" r="45.1"/>
<g>
	<path class="st3" d="M42.9,37.1c0,6.2-3.4,9.5-7.1,9.5c-3.9,0-7-3.4-7-9c0-5.3,2.8-9.4,7.1-9.4C40.4,28.2,42.9,32,42.9,37.1z
		 M33.3,37.4c0,3.1,0.9,5.4,2.6,5.4c1.7,0,2.5-2,2.5-5.4c0-3-0.7-5.4-2.6-5.4C34.1,32,33.3,34.4,33.3,37.4z M36.1,59.1l14.7-30.8H54
		L39.3,59.1H36.1z M61.3,49.5c0,6.2-3.4,9.5-7.1,9.5c-3.8,0-6.9-3.4-7-9c0-5.3,2.8-9.4,7.1-9.4C58.8,40.6,61.3,44.4,61.3,49.5z
		 M51.7,49.8c0,3.1,0.9,5.4,2.6,5.4c1.7,0,2.5-2,2.5-5.4c0-3-0.7-5.4-2.5-5.4C52.5,44.4,51.7,46.8,51.7,49.8z"/>
</g>
</svg>
