<?xml version="1.0" encoding="utf-8"?>
<!-- Generator: Adobe Illustrator 22.0.0, SVG Export Plug-In . SVG Version: 6.00 Build 0)  -->
<svg version="1.1" id="Layer_1" xmlns="http://www.w3.org/2000/svg" xmlns:xlink="http://www.w3.org/1999/xlink" x="0px" y="0px"
	 viewBox="0 0 90.2 90.2" style="enable-background:new 0 0 90.2 90.2;" xml:space="preserve">
<style type="text/css">
	.st0{fill:#C200E6;}
	.st1{fill:#FF457F;}
	.st2{fill:#FF2EA2;}
	.st3{fill:#FFFFFF;}
	.st4{fill:#FF45F0;}
	.st5{fill:#17A5FF;}
	.st6{fill:#9D45FF;}
</style>
<circle class="st2" cx="45.1" cy="45.1" r="45.1"/>
<g>
	<path class="st3" d="M43.8,53.5c-2.3,0-4.6,0-7,0c0.4-1.2-0.6-1.6-1.3-2.2c-6.9-5.8-7.2-16.3-0.5-22.4c4.3-3.9,9.4-5,14.9-3.2
		c5.7,1.9,9.1,6,10,11.9c0.9,5.6-1.1,10.2-5.4,13.8c-0.6,0.5-1.3,1-1,2c-2.4,0-4.7,0-7.1,0c-0.2-1.2-0.1-2.2,0.8-3.2
		c2.3-2.4,4-5.3,4.2-8.7c0.2-3.1-1-5.9-2.8-8.3c-0.7-1-1.6-1.9-2.5-2.8c-0.7-0.7-1.2-0.7-1.9-0.1c-2.9,2.9-5.1,6.1-5.3,10.4
		c-0.1,2.5,0.8,4.8,2.1,6.9c0.5,0.9,1.1,1.8,1.9,2.4C44,51,44.1,52.1,43.8,53.5z"/>
	<path class="st3" d="M53.4,56c0,1.2,0,2.4,0,3.6c0,0.8-0.6,1.1-1.3,1.1c-4.6,0-9.2,0-13.8,0c-1,0-1.4-0.5-1.4-1.4
		c0-1.1,0-2.2,0-3.3C42.3,56,47.8,56,53.4,56z"/>
	<path class="st3" d="M38.5,63c4.5,0,8.9,0,13.3,0c0.4,1.9-0.1,2.4-1.9,2.4c-3.1,0-6.3,0-9.4,0C38.5,65.4,38.2,65,38.5,63z"/>
	<path class="st3" d="M46.3,34.3c3.5,4.3,3.6,9,0,13.2C46.3,43.1,46.3,38.8,46.3,34.3z"/>
	<path class="st3" d="M43.6,42.5c-0.5-0.6-0.9-1.2-1.5-1.7c-0.8-0.7-0.9-1.4-0.4-2.4C42.7,39.6,44.5,40.2,43.6,42.5z"/>
	<path class="st3" d="M43.8,47.6c-0.7-1.3-1.3-2.4-2-3.4C43.7,45.1,44.1,45.8,43.8,47.6z"/>
	<path class="st3" d="M43.8,37c-1.4-1-1.4-1.1,0-2.6C43.8,35.3,43.8,36.1,43.8,37z"/>
</g>
</svg>
