<?xml version="1.0" encoding="utf-8"?>
<!-- Generator: Adobe Illustrator 22.0.0, SVG Export Plug-In . SVG Version: 6.00 Build 0)  -->
<svg version="1.1" id="Layer_1" xmlns="http://www.w3.org/2000/svg" xmlns:xlink="http://www.w3.org/1999/xlink" x="0px" y="0px"
	 viewBox="0 0 90.2 90.2" style="enable-background:new 0 0 90.2 90.2;" xml:space="preserve">
<style type="text/css">
	.st0{fill:#C200E6;}
	.st1{fill:#FF457F;}
	.st2{fill:#FF2EA2;}
	.st3{fill:#FFFFFF;}
	.st4{fill:#FF45F0;}
	.st5{fill:#17A5FF;}
	.st6{fill:#9D45FF;}
</style>
<circle class="st0" cx="45.1" cy="45.1" r="45.1"/>
<g>
	<g>
		<g>
			<path class="st3" d="M53.7,24H36c-1.7,0-3.1,1.4-3.1,3.1V63c0,1.7,1.4,3.1,3.1,3.1h17.7c1.7,0,3.1-1.4,3.1-3.1V27.1
				C56.7,25.4,55.4,24,53.7,24L53.7,24z M40.5,25.9h8.7c0.2,0,0.4,0.3,0.4,0.7c0,0.4-0.2,0.7-0.4,0.7h-8.7c-0.2,0-0.4-0.3-0.4-0.7
				C40.1,26.2,40.2,25.9,40.5,25.9L40.5,25.9z M44.8,63c-1.1,0-2-0.9-2-2c0-1.1,0.9-2,2-2c1.1,0,1.9,0.9,1.9,2
				C46.8,62.1,45.9,63,44.8,63L44.8,63z M54.4,56.3H35.2V29.2h19.2V56.3z M54.4,56.3"/>
		</g>
	</g>
	<g>
		<g>
			<path class="st3" d="M51.6,41.7l-2.1-2.1v-2.4c0-0.4-0.4-0.8-0.8-0.8c-0.4,0-0.8,0.4-0.8,0.8V38l-1.6-1.6c-0.8-0.8-2.1-0.8-2.9,0
				l-5.3,5.3c-0.3,0.3-0.3,0.8,0,1.1c0.3,0.3,0.8,0.3,1.1,0l5.3-5.3c0.2-0.2,0.5-0.2,0.6,0l5.3,5.3c0.2,0.2,0.4,0.2,0.6,0.2
				c0.2,0,0.4-0.1,0.6-0.2C51.9,42.5,51.9,42,51.6,41.7L51.6,41.7z M51.6,41.7"/>
		</g>
		<path class="st3" d="M45.1,39.1c-0.2-0.2-0.4-0.2-0.6,0l-4.6,4.6c-0.1,0.1-0.1,0.2-0.1,0.3v3.4c0,0.8,0.6,1.4,1.4,1.4h2.3v-3.6
			h2.6v3.6h2.3c0.8,0,1.4-0.6,1.4-1.4V44c0-0.1,0-0.2-0.1-0.3L45.1,39.1z M45.1,39.1"/>
	</g>
</g>
</svg>
