<?xml version="1.0" encoding="utf-8"?>
<!-- Generator: Adobe Illustrator 22.0.0, SVG Export Plug-In . SVG Version: 6.00 Build 0)  -->
<svg version="1.1" id="Layer_1" xmlns="http://www.w3.org/2000/svg" xmlns:xlink="http://www.w3.org/1999/xlink" x="0px" y="0px"
	 viewBox="0 0 90.2 90.2" style="enable-background:new 0 0 90.2 90.2;" xml:space="preserve">
<style type="text/css">
	.st0{fill:#C200E6;}
	.st1{fill:#FF457F;}
	.st2{fill:#FF2EA2;}
	.st3{fill:#FFFFFF;}
	.st4{fill:#FF45F0;}
	.st5{fill:#17A5FF;}
	.st6{fill:#9D45FF;}
</style>
<circle class="st4" cx="45.1" cy="45.1" r="45.1"/>
<g>
	<path class="st3" d="M58.3,35.8c0,5.9-4.9,10.8-10.8,10.7c-5.9-0.1-10.7-4.9-10.7-10.8c0-6,4.8-10.8,10.8-10.8
		C53.6,25,58.3,29.8,58.3,35.8z M47.7,36c0-2,0-3.8,0-5.7c0-0.6-0.1-1.1-0.7-1.2c-0.7,0-0.9,0.5-0.9,1.2c0,2,0,4,0,6
		c0,0.8,0.4,1.3,1.2,1.2c1.5,0,3,0,4.5,0c0.4,0,1-0.4,1-0.7c0.1-0.7-0.5-0.8-1.1-0.8C50.5,36,49.2,36,47.7,36z"/>
	<path class="st3" d="M68.6,45.2c-0.2,0.2-0.4,0.5-0.6,0.7c-4.1,4-8.2,8-12.3,12.1c-2.3,2.2-5,3.1-8.2,2.9
		c-3.6-0.2-7.1-0.5-10.7-0.8c-1.9-0.2-3.5,0.2-4.9,1.6c-0.1,0.1-0.3,0.2-0.5,0.3c-0.6-3.2-1.2-6.3-1.7-9.5c0-0.3,0.2-0.7,0.5-0.9
		c2.9-2.5,6.2-3.4,9.9-2.4c2.5,0.7,4.9,0.5,7.4,0.1c1.6-0.3,3.2-0.6,4.9-0.8c2-0.2,3.6,0.8,4.4,2.7c-2.1,0.4-4.1,0.7-6.2,1.1
		c-1.2,0.2-2.5,0.4-3.7,0.7c-0.6,0.1-1.2,0.3-1,1c0.1,0.3,0.8,0.6,1.2,0.6c3.4-0.5,6.8-1.1,10.2-1.7c1.4-0.2,1.4-0.4,1.2-1.7
		c-0.1-0.3,0.1-0.8,0.4-1c2-1.6,4.1-3.1,6.1-4.6C66.3,44.3,67.4,44.3,68.6,45.2z"/>
	<path class="st3" d="M24.2,65.2c-0.9-5-1.7-9.9-2.6-14.9c2-0.3,3.9-0.7,5.9-1c0.9,5,1.7,9.9,2.6,14.9
		C28.1,64.5,26.1,64.9,24.2,65.2z"/>
</g>
</svg>
