<?xml version="1.0" encoding="utf-8"?>
<!-- Generator: Adobe Illustrator 22.0.0, SVG Export Plug-In . SVG Version: 6.00 Build 0)  -->
<svg version="1.1" id="Layer_1" xmlns="http://www.w3.org/2000/svg" xmlns:xlink="http://www.w3.org/1999/xlink" x="0px" y="0px"
	 viewBox="0 0 90.2 90.2" style="enable-background:new 0 0 90.2 90.2;" xml:space="preserve">
<style type="text/css">
	.st0{fill:#C200E6;}
	.st1{fill:#FF457F;}
	.st2{fill:#FF2EA2;}
	.st3{fill:#FFFFFF;}
	.st4{fill:#FF45F0;}
	.st5{fill:#17A5FF;}
	.st6{fill:#9D45FF;}
</style>
<circle class="st1" cx="45.1" cy="45.1" r="45.1"/>
<g>
	<path class="st3" d="M55.6,55.9c-7,0-14,0-21.1,0c0-0.3,0-0.6,0-0.9c0-4,0-8,0-12.1c0-6.3,4.9-11,11.1-10.8
		c5.3,0.2,9.9,4.6,10.1,9.9c0.1,4.5,0,9,0,13.5C55.7,55.6,55.7,55.7,55.6,55.9z M46.2,46.3v-5.9c0-0.6-0.5-1.1-1.1-1.1h0
		c-0.6,0-1.1,0.5-1.1,1.1v5.9H46.2z M46.2,49.9v-1.2H44v1.2c0,0.6,0.5,1.1,1.1,1.1h0C45.7,51,46.2,50.5,46.2,49.9z"/>
	<path class="st3" d="M58.1,62.9c-8.7,0-17.3,0-26,0c0-0.9-0.1-1.8,0-2.7c0.1-1.2,1.1-1.9,2.4-1.9c3.7,0,7.4,0,11.1,0
		c3.3,0,6.5,0,9.8,0c1.7,0,2.6,0.9,2.6,2.6C58.1,61.5,58.1,62.1,58.1,62.9z"/>
	<path class="st3" d="M44,22.6c0.8,0,1.5,0,2.3,0c0,1.6,0,3.1,0,4.7c-0.7,0-1.5,0-2.3,0C44,25.8,44,24.2,44,22.6z"/>
	<path class="st3" d="M29.7,41.6c0,0.8,0,1.5,0,2.3c-1.6,0-3.1,0-4.7,0c0-0.8,0-1.5,0-2.3C26.6,41.6,28.1,41.6,29.7,41.6z"/>
	<path class="st3" d="M60.5,43.9c0-0.8,0-1.5,0-2.3c1.6,0,3.1,0,4.7,0c0,0.8,0,1.5,0,2.3C63.6,43.9,62.1,43.9,60.5,43.9z"/>
	<path class="st3" d="M30.2,29.3c0.5-0.5,1-1,1.4-1.4c1.1,1.1,2.2,2.2,3.3,3.2c-0.5,0.5-1,1-1.4,1.5C32.4,31.5,31.3,30.4,30.2,29.3z
		"/>
	<path class="st3" d="M56.7,32.6c-0.5-0.5-0.9-1-1.4-1.4c1.1-1.1,2.2-2.2,3.3-3.2c0.4,0.4,0.9,0.9,1.4,1.4
		C58.9,30.4,57.9,31.5,56.7,32.6z"/>
</g>
</svg>
