<?xml version="1.0" encoding="utf-8"?>
<!-- Generator: Adobe Illustrator 22.0.0, SVG Export Plug-In . SVG Version: 6.00 Build 0)  -->
<svg version="1.1" id="Layer_1" xmlns="http://www.w3.org/2000/svg" xmlns:xlink="http://www.w3.org/1999/xlink" x="0px" y="0px"
	 viewBox="0 0 90.2 90.2" style="enable-background:new 0 0 90.2 90.2;" xml:space="preserve">
<style type="text/css">
	.st0{fill:#C200E6;}
	.st1{fill:#FF457F;}
	.st2{fill:#FF2EA2;}
	.st3{fill:#FFFFFF;}
	.st4{fill:#FF45F0;}
	.st5{fill:#17A5FF;}
	.st6{fill:#9D45FF;}
</style>
<circle class="st5" cx="45.1" cy="45.1" r="45.1"/>
<g>
	<path class="st3" d="M60.5,46c-5-5.2-10.2-10.5-15.3-15.8c-5.4,5.3-10.6,10.4-15.7,15.4c-0.9-0.8-1.8-1.6-2.7-2.5
		c6.1-6,12.2-12,18.5-18.1c2.3,2.5,4.7,4.9,7,7.4c0.1,0,0.2-0.1,0.2-0.1c0-1.1,0-2.2,0-3.3c1.3,0,2.4,0,3.7,0c0,2,0,4,0,6
		c0,0.9,0.2,1.5,0.9,2.1c2,1.9,3.9,3.9,5.9,5.8c0.2,0.2,0.4,0.4,0.6,0.6C62.6,44.2,61.7,45,60.5,46z"/>
	<path class="st3" d="M61.6,58.8c0-0.5-0.2-0.7-0.7-0.7c-0.9,0-1.9,0-2.9,0c0-0.4,0-0.6,0-0.9c0-3,0-6,0-9c0-0.4-0.2-1-0.5-1.3
		c-3.3-3.3-6.6-6.6-9.9-9.9c-0.8-0.8-1.5-1.6-2.2-2.5c-0.2,0.2-0.3,0.2-0.3,0.3c-4.1,4-8.2,8-12.3,12.1c-0.2,0.2-0.3,0.6-0.3,0.9
		c0,3.1,0,6.2,0,9.2c0,0.3,0,0.6,0,1c-1.2,0-2.4,0-3.6,0c0,1.3,0,2.4,0,3.6c11,0,21.9,0,33,0C61.6,60.7,61.6,59.8,61.6,58.8z
		 M48.6,54.1l-3.5-2.8l-3.5,2.8l1.3-4.6l-3.5-2.8h4.3l1.3-4.6l1.3,4.6h4.3l-3.5,2.8L48.6,54.1z"/>
</g>
</svg>
