<?xml version="1.0" encoding="utf-8"?>
<!-- Generator: Adobe Illustrator 21.0.0, SVG Export Plug-In . SVG Version: 6.00 Build 0)  -->
<svg version="1.1" id="Layer_1" xmlns="http://www.w3.org/2000/svg" xmlns:xlink="http://www.w3.org/1999/xlink" x="0px" y="0px"
	 viewBox="0 0 845.1 2937" style="enable-background:new 0 0 845.1 2937;" xml:space="preserve">
<style type="text/css">
	.st0{opacity:0.4;fill:#CCF4FF;enable-background:new    ;}
	.st1{opacity:0.4;fill:#EFEFEF;enable-background:new    ;}
</style>
<path class="st0" d="M394.9,0c0,0-101.3,104.1,65.5,206.7C628.9,310.2,560.5,447.6,509.3,510C361.5,690.2,632.1,823.2,845.1,615.3V0
	H394.9z"/>
<path class="st1" d="M394.9,2930c0,0-101.3-104.1,65.5-206.7c168.4-103.6,100.1-240.9,48.9-303.3
	c-147.9-180.2,122.8-313.3,335.7-105.4V2930H394.9z"/>
<path class="st0" d="M384.7,1266.3c-168.4-103.6-100.1-240.9-48.9-303.3C483.7,782.8,213,649.8,0.1,857.7V1473h2v610.2
	c211.2,206.2,479.6,74.2,332.9-104.5c-50.8-61.9-118.5-198.1,48.5-300.8C548.9,1576.2,551.5,1368.9,384.7,1266.3z"/>
</svg>
