<?xml version="1.0" encoding="utf-8"?>
<!-- Generator: Adobe Illustrator 22.0.0, SVG Export Plug-In . SVG Version: 6.00 Build 0)  -->
<svg version="1.1" id="Layer_1" xmlns="http://www.w3.org/2000/svg" xmlns:xlink="http://www.w3.org/1999/xlink" x="0px" y="0px"
	 viewBox="0 0 562.8 347.7" style="enable-background:new 0 0 562.8 347.7;" xml:space="preserve">
<style type="text/css">
	.st0{fill:#DDDDDD;}
	.st1{fill:#E2E2E2;}
	.st2{fill:#EDEDED;}
	.st3{opacity:0.5;fill:#EAEAEA;enable-background:new    ;}
	.st4{fill:#BABABA;}
	.st5{fill:#E0E0E0;}
	.st6{fill:#E5E5E5;}
	.st7{opacity:0.27;fill:#C7C7C7;enable-background:new    ;}
	.st8{fill:#263247;}
	.st9{fill:#EAEAEA;}
	.st10{opacity:0.7;fill:#181E2A;enable-background:new    ;}
	.st11{fill:#181E2A;}
	.st12{opacity:0.1;fill:url(#SVGID_1_);enable-background:new    ;}
	.st13{fill:#FFFFFF;}
	.st14{fill:#61D2FF;}
	.st15{fill:#DE4149;}
	.st16{fill:#FDC060;}
	.st17{fill:#FDD63A;}
	.st18{fill:#9B4500;}
	.st19{fill:#686292;}
	.st20{fill:#813902;}
	.st21{fill:#287AB2;}
	.st22{fill:#2C81C6;}
</style>
<path class="st0" d="M285.6,297.8c0,0,24.5,1.6,13.1,6.2s-32.6,13.3-60.5,8.3s-35.6-8-35.6-8s2-3.1,26-3.7
	C252.6,300,285.6,297.8,285.6,297.8z"/>
<g>
	<g>
		<path class="st1" d="M184.6,146.8c2.2-6.4,9.4-8.8,13.1-14.4c4.2-6.4,2.6-15.6-1.8-21.5c-0.3-0.4-21.7-42.4-44-24.1
			c-6.5,5.3-9.5,24.8-10.3,33.6c-1.2,13.4-2.5,26.7-3.7,40.1c-1.6,17.5,12.7,30.7,28.8,26.7c6.7-1.7,17.3-7.2,19.9-14.6
			C189.6,163.6,181.6,155.6,184.6,146.8z"/>
		<g>
			
				<rect x="136" y="212.9" transform="matrix(2.222507e-02 -0.9998 0.9998 2.222507e-02 -54.6941 371.8335)" class="st2" width="53.6" height="2"/>
		</g>
		<g>
			
				<rect x="133.8" y="155.9" transform="matrix(2.222507e-02 -0.9998 0.9998 2.222507e-02 3.5768 317.3576)" class="st2" width="60.5" height="2"/>
		</g>
		<g>
			<polygon class="st2" points="164.6,140.7 148.9,131.2 149.9,129.5 164.3,138.2 180,122.9 181.4,124.3 			"/>
		</g>
		<g>
			<polygon class="st2" points="163.9,163.4 147.5,157.2 148.2,155.3 164,161.3 182,156.4 182.6,158.3 			"/>
		</g>
		<g>
			
				<rect x="167.6" y="153.9" transform="matrix(0.3621 -0.9322 0.9322 0.3621 -33.7251 260.4832)" class="st2" width="11.7" height="2"/>
		</g>
		<g>
			
				<rect x="154.2" y="123.6" transform="matrix(0.9999 -1.101860e-02 1.101860e-02 0.9999 -1.4093 1.7183)" class="st2" width="2" height="10.3"/>
		</g>
	</g>
	<g>
		<path class="st1" d="M133.7,155.2c0.3-5.8,0.5-12.1-3.1-16.6c-3-3.9-8.6-5.7-13.3-4.4c-4.8,1.3-8.6,5.6-9.4,10.5
			c-0.7,4.4,0.7,8.8,1.3,13.3c1.3,10.2-2.2,21.2,1.9,30.7c2.2,5.2,7.9,9.7,13.3,7.8c5.7-2,7.7-9.5,8-14.9
			C132.9,172.8,133.2,164,133.7,155.2z"/>
		<g>
			
				<rect x="120.7" y="196.9" transform="matrix(0.9995 -3.082080e-02 3.082080e-02 0.9995 -6.6407 3.8546)" class="st2" width="2" height="40.9"/>
		</g>
		<g>
			
				<rect x="119.5" y="158.1" transform="matrix(0.9995 -3.081140e-02 3.081140e-02 0.9995 -5.4116 3.7966)" class="st2" width="2" height="38.8"/>
		</g>
		<g>
			<polygon class="st2" points="120.4,171.8 112.3,165.2 113.6,163.6 120.2,169.1 127.8,160.5 129.3,161.9 			"/>
		</g>
		<g>
			
				<rect x="116.3" y="178.6" transform="matrix(0.3679 -0.9298 0.9298 0.3679 -95.3293 224.2521)" class="st2" width="2" height="7.3"/>
		</g>
	</g>
</g>
<path class="st3" d="M459.5,273c-30.1,11.4-65.9,11.2-92.4-4.8c-28.2-17.1-44.6-47.4-46.5-77.9c-1-17.4,2.5-35.3,12.5-50.3
	c27.1-40.9,79.7-27.2,116.5-3.5c18.7,12,37.6,29.2,52.8,44c14.9,14.5,16.6,37.5,6.2,54.6C498.1,252.1,480.1,265.2,459.5,273z"/>
<path class="st3" d="M277.8,248.8c34.3,12.9,75,12.8,105.2-5.5c32.1-19.4,50.8-53.9,52.9-88.6c1.2-19.8-2.9-40.2-14.2-57.2
	c-30.9-46.5-90.7-31-132.6-4c-21.2,13.7-42.8,33.2-60.1,50.1c-17,16.6-18.9,42.7-7,62.1C233.9,225.1,254.3,240,277.8,248.8z"/>
<g>
	<path class="st2" d="M326.9,35.4h2.4c0.2-5.6,4.8-10.2,10.5-10.2h1.2c2.2-7.6,9.2-13.2,17.5-13.2l0,0c8.2,0,15.3,5.6,17.5,13.2h1.2
		c5.7,0,10.3,4.5,10.5,10.2h2.4c5.8,0,10.5,4.8,10.5,10.5c0,5.8-4.8,10.5-10.5,10.5h-62.8c-5.8,0-10.5-4.8-10.5-10.5
		C316.3,40.2,321.1,35.4,326.9,35.4z"/>
	<g>
		<polygon class="st4" points="350.2,41.9 358.2,30.9 366.3,41.9 362.4,41.9 362.4,56.6 354.1,56.6 354.1,41.9 		"/>
	</g>
</g>
<g>
	<rect x="290.9" y="69.3" class="st0" width="137.3" height="223.2"/>
	<rect x="290.9" y="69.3" class="st5" width="137.3" height="175.2"/>
	<rect x="290.9" y="69.3" class="st6" width="137.3" height="130.9"/>
	<rect x="290.9" y="69.3" class="st7" width="137.3" height="84.7"/>
	<g>
		
			<ellipse transform="matrix(0.7071 -0.7071 0.7071 0.7071 21.7071 287.8366)" class="st8" cx="358.3" cy="117.7" rx="22.4" ry="22.4"/>
		<circle class="st9" cx="359.2" cy="116.8" r="21.5"/>
	</g>
	<path class="st8" d="M396.5,118.1c0-2.5,2-4.4,4.4-4.4c2.5,0,4.4,2,4.4,4.4s-2,4.4-4.4,4.4C398.5,122.5,396.5,120.5,396.5,118.1z"
		/>
	<path class="st8" d="M396.5,176.9c0-2.5,2-4.4,4.4-4.4c2.5,0,4.4,2,4.4,4.4c0,2.5-2,4.4-4.4,4.4
		C398.5,181.3,396.5,179.3,396.5,176.9z"/>
	<path class="st8" d="M396.5,222.2c0-2.5,2-4.4,4.4-4.4c2.5,0,4.4,2,4.4,4.4c0,2.5-2,4.4-4.4,4.4
		C398.5,226.7,396.5,224.7,396.5,222.2z"/>
	<path class="st8" d="M314.7,118.1c0-2.5,2-4.4,4.4-4.4c2.5,0,4.4,2,4.4,4.4s-2,4.4-4.4,4.4C316.6,122.5,314.7,120.5,314.7,118.1z"
		/>
	<path class="st10" d="M314.4,182.1h59.2c2.1,0,3.9-1.7,3.9-3.9l0,0c0-2.1-1.7-3.9-3.9-3.9h-59.2c-2.1,0-3.9,1.7-3.9,3.9l0,0
		C310.5,180.4,312.3,182.1,314.4,182.1z"/>
	<path class="st10" d="M314.4,273.5h59.2c2.1,0,3.9-1.7,3.9-3.9l0,0c0-2.1-1.7-3.9-3.9-3.9h-59.2c-2.1,0-3.9,1.7-3.9,3.9l0,0
		C310.5,271.7,312.3,273.5,314.4,273.5z"/>
	<path class="st10" d="M314.4,227.8h59.2c2.1,0,3.9-1.7,3.9-3.9l0,0c0-2.1-1.7-3.9-3.9-3.9h-59.2c-2.1,0-3.9,1.7-3.9,3.9l0,0
		C310.5,226,312.3,227.8,314.4,227.8z"/>
	<path class="st8" d="M314.3,180.6h61.5c1,0,1.8-0.8,1.8-1.8v-2.6c0-1-0.8-1.8-1.8-1.8h-61.5c-1,0-1.8,0.8-1.8,1.8v2.6
		C312.4,179.8,313.2,180.6,314.3,180.6z"/>
	<path class="st11" d="M314.3,226.2h61.5c1,0,1.8-0.8,1.8-1.8v-2.6c0-1-0.8-1.8-1.8-1.8h-61.5c-1,0-1.8,0.8-1.8,1.8v2.6
		C312.4,225.4,313.2,226.2,314.3,226.2z"/>
	<path class="st8" d="M314.3,271.7h61.5c1,0,1.8-0.8,1.8-1.8v-2.6c0-1-0.8-1.8-1.8-1.8h-61.5c-1,0-1.8,0.8-1.8,1.8v2.6
		C312.4,270.9,313.2,271.7,314.3,271.7z"/>
	
		<linearGradient id="SVGID_1_" gradientUnits="userSpaceOnUse" x1="-6028.624" y1="160.98" x2="-5959.9453" y2="160.98" gradientTransform="matrix(-1 0 0 -1 -5643.2397 342)">
		<stop  offset="0" style="stop-color:#000000"/>
		<stop  offset="1" style="stop-color:#000000;stop-opacity:0"/>
	</linearGradient>
	<polygon class="st12" points="290.9,292.6 359.5,292.6 359.5,69.4 290.9,69.4 	"/>
	<g>
		<g>
			<path class="st13" d="M404.3,118.4c0.5-0.9,0-2.1-0.7-2.8c-0.7-0.8-2.3-1.5-3.2-0.7c-0.2,0.2-0.2,0.7,0.1,0.8
				c0.7,0.4,1.6,0.2,2.1,0.9c0.4,0.5,0.6,1.2,0.9,1.7C403.7,118.6,404.1,118.6,404.3,118.4L404.3,118.4z"/>
		</g>
	</g>
	<g>
		<g>
			<path class="st13" d="M404.3,177.4c0.5-0.9,0-2.1-0.7-2.8c-0.7-0.8-2.3-1.5-3.2-0.7c-0.2,0.2-0.2,0.7,0.1,0.8
				c0.7,0.4,1.6,0.2,2.1,0.9c0.4,0.5,0.6,1.2,0.9,1.7C403.7,177.7,404.1,177.7,404.3,177.4L404.3,177.4z"/>
		</g>
	</g>
	<g>
		<g>
			<path class="st13" d="M404.3,222.7c0.5-0.9,0-2.1-0.7-2.8c-0.7-0.8-2.3-1.5-3.2-0.7c-0.2,0.2-0.2,0.7,0.1,0.8
				c0.7,0.4,1.6,0.2,2.1,0.9c0.4,0.5,0.6,1.2,0.9,1.7C403.7,223,404.1,223,404.3,222.7L404.3,222.7z"/>
		</g>
	</g>
	<g>
		<g>
			<path class="st13" d="M322.2,118.4c0.5-0.9,0-2.1-0.7-2.8c-0.7-0.8-2.3-1.5-3.2-0.7c-0.2,0.2-0.2,0.7,0.1,0.8
				c0.7,0.4,1.6,0.2,2.1,0.9c0.4,0.5,0.6,1.2,0.9,1.7C321.7,118.6,322.1,118.6,322.2,118.4L322.2,118.4z"/>
		</g>
	</g>
</g>
<g>
	<g>
		<g>
			<path class="st4" d="M262.5,173.5c4.2,8,16.6,5.8,22.1,0.2c6.8-7.1,8.3-20.8,4.4-29.5c0.1-0.2,0-0.6-0.2-0.7
				c-6.8-6-19.8-6.6-25.9,0.7C256.5,151.6,258.2,165.4,262.5,173.5z"/>
			<g>
				<path class="st14" d="M282.1,169.5c-0.4,0.7-0.9,1.4-1.3,2.1c-1.7,1.6-3.5,3.4-5.4,4.8c-0.8,0.6-1.6,1.2-2.5,1.6
					c-0.2,0.1-0.4,0.2-0.7,0.3c0.7-0.7,1.2-1.3,1.9-2c1.2-1.2,7.1-5.6,7.9-8c0-0.3,0-0.7,0-1.1c-0.1-0.8,0.7-1.3,1.4-1.3
					c0,0.8,0,1.7,0,2.6C282.9,168.7,282.4,169,282.1,169.5z"/>
				<path class="st13" d="M268.1,185.3c0-0.3,0-0.7,0-0.9c0.2,0,0.3,0,0.5,0c3.5-0.5,7.6-4,9.6-5.4c1.5-1.1,3.6-3,5.2-5.4
					c0,0.7,0,1.3,0,2c0,3.6,0,7.2,0,10l15.2,4.1l-1.4,7.8l-17.5,5.8c0,0-18.9-2.4-19-2.5c-0.2-0.1-9.6-12.6-9.6-12.6
					S266.9,185.6,268.1,185.3z"/>
				<path class="st2" d="M278.3,179c-2.1,1.5-6.1,4.9-9.6,5.4c-0.2,0-0.3,0-0.5,0c0-0.5,0-0.9,0-1.4c1.2-1.6,2.6-3.1,4-4.6
					c0.2-0.1,0.4-0.2,0.7-0.3c0.8-0.5,1.7-1.1,2.5-1.6c2-1.5,3.6-3.1,5.4-4.8c0.4-0.7,0.9-1.4,1.3-2.1c0.3-0.6,0.8-0.8,1.3-0.8
					c0,1.6,0,3.2,0,4.9C281.8,175.9,279.7,177.9,278.3,179z"/>
			</g>
			<path class="st15" d="M282,168.5c0-0.3,0-0.7,0-1.1c-0.1-0.8,0.7-1.3,1.4-1.3c0-2.7,0-4.5-0.1-4.6c-0.1-0.8-15.2,10.8-15.2,11.2
				c-0.2,2-0.1,6.4,0,10.5c1.8-2.3,3.9-4.5,6-6.6C275.2,175.3,281.2,170.8,282,168.5z"/>
			<g>
				<path class="st13" d="M254.1,154.5c0.6,7.5,1.5,15.9,4.3,23c3,7.6,11.1,6,15.5,3.3c4.4-2.7,8.1-6.8,10.3-12.8
					c1,0.4,2.2,0.5,3.2,0.2c2.6-0.7,4.5-3.5,4.8-6.1c0.2-2.3-1.2-4.9-3.5-5.4c-0.6-0.2-1.5,0-2.3,0.2c0.1-3-0.2-5.8-0.9-8.2
					c-0.4-1.5-1-3-1.8-4.4c-1.5-4.5-4.2-8.6-9.1-9.8c-0.2-0.1-0.3,0.1-0.3,0.2c-4.9-2.6-10.6-2.8-15.7,1.3
					C253,140.7,253.6,148.2,254.1,154.5z"/>
			</g>
			<g>
				<path class="st4" d="M253.6,153.4c0.2,0.6,1.1,0.3,1.2-0.2c0.2-0.7,0.5-1.5,0.8-2.2c1.9-0.7,3.5-2.7,4.5-4.4
					c0.5-0.7,1.2-1.6,1.7-2.6c0.5,2.5,2.1,4.7,4.5,5.9c2.6,1.3,5.8,1.6,8.6,2.1c2.6,0.5,4.9,1.2,7.2,2.2c0.1,0.1,0.2,0.2,0.2,0.2
					c0.3,1.3,1.3,2.6,1.7,3.9c0.1,0.2,0.2,0.3,0.5,0.4c0.2-0.4,0.4-0.7,0.7-1.1c1-1,3.4-1.7,5.4,0.2c0.5,0.4,1.1-0.5,1.3-2.4
					c0.2-1.3,0.2-5.2-0.2-7.4c-0.2-1.6-1.5-5.5-4-9.1c-3.7-5.4-17.3-9.9-22.3-6.6C254.7,131.5,249,142.6,253.6,153.4z M262.9,142.9
					c1.3,2,3.4,3.5,5.7,4.5c2.3,1.1,4.7,1.6,7.1,2.5c1.6,0.6,3.1,1.3,4.5,2.1C273.2,150.1,264.3,150.3,262.9,142.9z M256.9,148.5
					c1.4-2.8,3-5.4,5-8c0,0.1,0.1,0.2,0.2,0.3c-0.6,1.8-1.8,3.6-2.9,5.2C258.3,147,257.6,147.7,256.9,148.5z"/>
			</g>
		</g>
		<g>
			<path class="st16" d="M242.2,196c1.2-3.5,5.4-7.7,9.8-7.8c0.2,0,0.9-0.2,1.1-0.2c1.7,1.2,3.3,2,5.5,2.4c6,2.2,29.8,0.6,36.2,0.2
				c0.8-0.1,2.1-1.2,2.2-1.3c0.1,0,1.6,0.4,1.7,0.5c6.2,1.1,8.2,5.2,9.6,10.8c2.1,8.1-2.5,15.8-2.6,24.4c0.6,9.3-1,17.6-2.1,26.5
				c-2,15.2-3.8,23.2-10.3,41.4c-0.4,1.2-6.8,0.1-6.3-1.2c4.9-12.6-12.9-14.2-19.6-19.3c-2.5-1.9-3-5.2-4-8c-1.6-4.8-7.5-7-8.9-11.9
				c-2.8-9.3-3.3-19.3-3.9-30.5c-0.2,0-0.2-0.1-0.3-0.2c-0.4-2.6-0.2-5.3-0.3-8c0-0.2,0-0.4,0-0.7c-3.2,0.2-6.5,0.6-9.8,0.7
				C239.9,208,240.2,201.7,242.2,196z"/>
			<g>
				<path class="st13" d="M315.2,211.2c-1-4.1-2.1-8.2-3.9-11.9c-1.8-3.6-4.5-6.8-8.2-8.5c-2.6-1.1-6.7-1.9-8.3,0.9
					c-1.1,1.8-0.5,5-0.4,7c0.2,3.1,0.5,6.3,1.1,9.4c1.2,7,3.1,13.9,5.4,20.7c1.8,5.6,4,11.1,6.7,16.4c0.6,1.2,1.2,2.5,2,3.8
					c-3.2,0.2-6.3,0.3-9.6,0.6c-9.6,0-18.1,1.2-27.4,2.3c-1.3-2-2.8-3.8-3.4-4.4c-1.2-1.6-2.2-3.3-5.7-4.3c-0.3-0.1-3-0.2-2.9,0.1
					c-0.1-0.1-5.8,3.6-6.3,3.7c-0.4,0.1-1,0.2-0.4,0.6c4.4,2.8,5.2,5.7,9.4,8.5c1,0.7,7,1.9,9.3,2.6c3,1.6,6.6,2.6,10.1,3.3
					c7,2,14.2,3.4,21.4,4.1c0.9,0.1,1.9,0.2,3,0.2c6.7,0.8,13.4,0.4,17-4.8c0-0.1,0.1-0.1,0.1-0.2c2.1-2.4,2.1-7,1.3-10.5
					C324.8,245.3,318,220.2,315.2,211.2z"/>
				<path class="st17" d="M308,245.2c-0.2,0-0.3,0-0.4,0c0-0.1-0.1-0.2-0.1-0.2c-2.6-5.3-4.9-10.8-6.7-16.4
					c-2.2-6.8-4.1-13.7-5.4-20.7c-0.6-3.1-0.9-6.2-1.1-9.4c-0.1-2-0.7-5.2,0.4-7c0.9-1.6,1.8-1.3,2.2-2.4c1.4,0.1,4.9,1.1,6.1,1.6
					c3.8,1.6,6.5,4.9,8.2,8.5c1.8,3.7,3,7.8,3.9,11.9c2.5,7.7,7.8,27.6,9.6,36.2C319.3,246.4,313.6,246,308,245.2z"/>
			</g>
		</g>
		<g>
			<polygon class="st7" points="268.8,256.4 269.9,253.9 258.9,246.5 212,235.9 212.1,237.6 226.1,245.9 			"/>
			<path class="st9" d="M265.3,218.8c-1,6.5-2.9,19.9-3.8,27c-0.3,2.4-2.7,4-5,3.4L214.1,238c-1.9-0.5-3.2-2.4-3-4.4l3-26.4
				c0.2-2.4,2.6-4,4.9-3.5l43.2,10.6C264.2,214.7,265.5,216.7,265.3,218.8z"/>
		</g>
		<g>
			<g>
				<path class="st18" d="M80.4,273.7c5.7,1.4,10.1,5.2,13.3,6.8s7.1,3.8,9.3,4.4c17.1-0.1,29.3-2.3,45.6-2.7
					c6.8-0.2,13.4-0.4,20.2-0.7c6-0.4,12.1-0.9,18.1-1.3c0.8-0.1,1.6-0.1,2.5-0.2c13.3-4.1,32-6.3,36.1-6.8
					c6.4-0.7,37.8-4.2,41.4-4.1c5.6,0.1,14.8,2.6,18,13.3s-4.3,19.4-10.5,22.6c-2.1,1.1-28.7,3-43.9,1.5c-12.4-1.3-35.2-4.2-47-9.6
					c-8.9,4.8-18.3,5.6-28,5.4c-8.9-0.2-36.2-6.1-50.4-6.5c-0.5,0-5.6,2.6-5.8,2.3c-2.2-0.4-5.1-3.1-9-5.8
					c-0.2-0.1-10.5-10-11.6-16.8C78.5,274.1,79.4,273.5,80.4,273.7z"/>
				<g>
					<path class="st19" d="M103.4,284.7c-0.1,0-0.2,0-0.3,0c-2.2-0.6-6.1-2.8-9.3-4.4c-3.2-1.6-7.7-5.4-13.3-6.8
						c-1-0.2-1.9,0.5-1.7,1.5c1.2,6.8,11.4,16.7,11.6,16.8c3.9,2.7,6.7,5.4,9,5.8c0.2,0.3,5.4-2.3,5.8-2.3l0,0
						C104.4,291.9,103.1,288.4,103.4,284.7z"/>
				</g>
			</g>
			<g>
				<path class="st18" d="M149.6,326.3c3.8-4.4,9.2-6.7,12.1-8.8c2.9-2.2,6.6-4.6,8.1-6.3c7.7-15.3,11.2-27.2,18.3-41.9
					c2.9-6.1,5.8-12.2,8.6-18.3c0.6-1.3,1.2-2.7,1.7-4l0,0c1.8-4.2,3.5-8.5,5.4-12.7c1.1-2.5,2.1-5,3.4-7.5c0.7-1.5,1.5-2.9,2.4-4.2
					c0.2-0.5,0.6-1.1,0.8-1.6c1-2.7,3.5-4.4,6.7-3c0.4,0.2,6,3.1,8,4.2c8.8,4.7,16.3,11.5,23.1,18.7c2.4,2.5,39.3,36.3,42.6,39
					c4.1,3.5,5.3,8.2,2.7,13.2c-4,7.6-15.3,14.5-24.7,13.8c-2.3,0.2-4.5,0.1-6.6-0.7c-2.2-0.9-4.2-2.5-6-4.2
					c-5.3-3.8-9.6-9.7-13.3-15.2c-9.6-14.2-18.4-29.2-26.1-44.5c0,0.1,0,0.2,0,0.2c0.1,0.5,0.1,1,0.1,1.5c0,0.2,0,0.5,0,0.7
					c0,0.5,0,1.1,0,1.6c0,0.2,0,0.3,0,0.5c-0.1,2.6-0.3,5-0.8,7.4c0,0.1,0,0.1,0,0.2c-0.1,0.6-0.2,1.2-0.4,1.7c0,0.1,0,0.2-0.1,0.2
					c-0.2,0.6-0.3,1.2-0.5,1.8l0,0l0,0c-1.5,4.9-3.6,9.6-6.2,14.2c-4.3,7.8-21.8,29.5-28.7,42c-0.2,0.5-0.2,6.3-0.6,6.3
					c-1.3,1.8-5.1,3.1-9.2,5.4c-0.2,0.1-13.7,4.8-20.3,2.7C149.2,328.2,149,327.1,149.6,326.3z"/>
				<g>
					<path class="st19" d="M170.6,310.8c-0.2-0.1-0.3-0.1-0.4-0.2c-0.1,0.2-0.2,0.3-0.2,0.6c-1.6,1.7-5.3,4.1-8.1,6.3
						c-2.8,2.2-8.3,4.4-12.1,8.8c-0.7,0.7-0.4,1.9,0.6,2.2c6.6,2.1,20.1-2.6,20.3-2.7c4.1-2.2,7.9-3.5,9.2-5.4
						c0.4,0,0.3-5.8,0.6-6.3c0.2-0.3,0.3-0.7,0.5-0.9C177.4,312.5,173.8,311.9,170.6,310.8z"/>
				</g>
			</g>
			<g>
				<path class="st20" d="M233.8,272.1c4.8,5.3,8,11.5,12.3,17.1c4.7,6.2,11.1,11,17,16.1c0.2,0.2-0.1,0.7-0.4,0.5
					c-12.9-7.3-21.9-20.8-29.6-33.1C232.6,272.3,233.4,271.7,233.8,272.1z"/>
				<path class="st20" d="M190.6,298.7c2.1-4.3,5.4-8.2,8.1-12.1c2.4-3.5,4.7-7.3,7.5-10.5c0.2-0.2,0.3,0,0.2,0.2
					c-2.1,4.4-4.9,8.4-7.6,12.4c-2.4,3.5-4.6,7.4-7.5,10.6C191,299.6,190.4,299.1,190.6,298.7z"/>
				<path class="st20" d="M173.6,300c1.9-6.5,4.8-13.3,8-19.3c0.2-0.4,0.9-0.2,0.7,0.2c-2.1,6.5-4.8,13.2-7.7,19.4
					C174.4,300.9,173.4,300.5,173.6,300z"/>
			</g>
		</g>
	</g>
</g>
<path class="st21" d="M95.6,35.9h1.7c0.1-3.9,3.3-7.1,7.3-7.1h0.8c1.5-5.2,6.4-9.2,12.1-9.2l0,0c5.8,0,10.6,3.9,12.2,9.2h0.8
	c3.9,0,7.2,3.2,7.3,7.1h1.7c4,0,7.3,3.3,7.3,7.3s-3.3,7.3-7.3,7.3H95.6c-4,0-7.3-3.3-7.3-7.3C88.3,39.3,91.6,35.9,95.6,35.9z"/>
<path class="st22" d="M406.6,289.4h2.4c0.2-5.7,4.8-10.3,10.5-10.3h1.2c2.2-7.7,9.3-13.3,17.6-13.3l0,0c8.3,0,15.4,5.6,17.6,13.3
	h1.2c5.7,0,10.4,4.6,10.5,10.3h2.4c5.8,0,10.6,4.8,10.6,10.6s-4.8,10.6-10.6,10.6h-63.2c-5.8,0-10.6-4.8-10.6-10.6
	C395.9,294.2,400.7,289.4,406.6,289.4z"/>
<path class="st2" d="M150.9,51.7h2.4c0.1-5.6,4.8-10.2,10.4-10.2h1.1c2.2-7.6,9.2-13.2,17.5-13.2l0,0c8.3,0,15.3,5.6,17.5,13.2h1.1
	c5.7,0,10.3,4.6,10.4,10.2h2.4c5.8,0,10.6,4.8,10.6,10.6s-4.8,10.6-10.6,10.6h-62.9c-5.8,0-10.6-4.8-10.6-10.6
	C140.3,56.5,145.1,51.7,150.9,51.7z"/>
<g id="Layer_2_1_">
</g>
</svg>
