<?xml version="1.0" encoding="utf-8"?>
<!-- Generator: Adobe Illustrator 17.0.0, SVG Export Plug-In . SVG Version: 6.00 Build 0)  -->
<!DOCTYPE svg PUBLIC "-//W3C//DTD SVG 1.1//EN" "http://www.w3.org/Graphics/SVG/1.1/DTD/svg11.dtd">
<svg version="1.1" id="Capa_1" xmlns="http://www.w3.org/2000/svg" xmlns:xlink="http://www.w3.org/1999/xlink" x="0px" y="0px"
	 width="20px" height="20px" viewBox="386 296 20 20" enable-background="new 386 296 20 20" xml:space="preserve">
<g>
	<path fill="#FFFFFF" d="M396.002,296.002c-5.514,0-10,4.486-10,10s4.486,10,10,10s10-4.486,10-10S401.516,296.002,396.002,296.002z
		 M396.002,314.287c-4.569,0-8.286-3.717-8.286-8.286s3.717-8.286,8.286-8.286s8.286,3.717,8.286,8.286
		S400.57,314.287,396.002,314.287z"/>
	<path fill="#FFFFFF" d="M399.871,302.133c-0.335-0.335-0.878-0.335-1.212,0l-2.657,2.658l-2.657-2.658
		c-0.335-0.335-0.877-0.335-1.212,0c-0.335,0.335-0.335,0.877,0,1.212l2.657,2.658l-2.658,2.658c-0.335,0.335-0.335,0.877,0,1.212
		c0.167,0.167,0.387,0.251,0.606,0.251c0.219,0,0.439-0.084,0.606-0.251l2.657-2.658l2.657,2.658
		c0.167,0.167,0.387,0.251,0.606,0.251s0.439-0.084,0.606-0.251c0.335-0.335,0.335-0.877,0-1.212l-2.657-2.658l2.657-2.658
		C400.206,303.01,400.206,302.468,399.871,302.133z"/>
</g>
</svg>
