<?xml version="1.0" encoding="utf-8"?>
<!-- Generator: Adobe Illustrator 22.0.0, SVG Export Plug-In . SVG Version: 6.00 Build 0)  -->
<svg version="1.1" id="Layer_1" xmlns="http://www.w3.org/2000/svg" xmlns:xlink="http://www.w3.org/1999/xlink" x="0px" y="0px"
	 viewBox="0 0 559.6 193.7" style="enable-background:new 0 0 559.6 193.7;" xml:space="preserve">
<style type="text/css">
	.st0{fill:#FFFFFF;}
</style>
<path class="st0" d="M420.4,85.1h0.7c0-1.7,1.5-3.1,3.2-3.1h0.3c0.7-2.3,2.8-4,5.3-4l0,0c2.5,0,4.7,1.7,5.3,4h0.3
	c1.7,0,3.2,1.4,3.2,3.1h0.7c1.8,0,3.2,1.5,3.2,3.2c0,1.8-1.5,3.2-3.2,3.2h-19.2c-1.8,0-3.2-1.5-3.2-3.2
	C417.2,86.6,418.6,85.1,420.4,85.1z"/>
<path class="st0" d="M266.5,111.8h0.5c0-1.1,1-2.1,2.1-2.1h0.2c0.4-1.5,1.9-2.7,3.5-2.7l0,0c1.7,0,3.1,1.1,3.5,2.7h0.2
	c1.1,0,2.1,0.9,2.1,2.1h0.5c1.2,0,2.1,1,2.1,2.1c0,1.2-1,2.1-2.1,2.1h-12.7c-1.2,0-2.1-1-2.1-2.1
	C264.4,112.8,265.4,111.8,266.5,111.8z"/>
</svg>
