<?xml version="1.0" encoding="utf-8"?>
<!-- Generator: Adobe Illustrator 22.0.0, SVG Export Plug-In . SVG Version: 6.00 Build 0)  -->
<svg version="1.1" id="Layer_1" xmlns="http://www.w3.org/2000/svg" xmlns:xlink="http://www.w3.org/1999/xlink" x="0px" y="0px"
	 viewBox="0 0 559.6 184" style="enable-background:new 0 0 559.6 184;" xml:space="preserve">
<style type="text/css">
	.st0{opacity:0.3;fill:#FCE6FF;}
	.st1{fill:#F1D40F;}
	.st2{opacity:0.3;}
	.st3{fill:#FFFFFF;}
	.st4{fill:#FCE6FF;}
</style>
<path class="st0" d="M727.2,165.7c-45.8-13.2-44.2-39.7-124-16.7c-70.5,20.2-54.2-19.2-100.4-12.3c-20.7,3.2-155.1,97.5-155.4,97.8
	c0,0,11.5-5.3,287.4-3.3c78.4,0.6,276.2-1.7,276.2-1.7C877.7,219.1,754.5,173.5,727.2,165.7z"/>
<path class="st0" d="M-111.8,217.9c0,0,197.8,2.3,276.2,1.7c276-2,287.4,3.3,287.4,3.3c-0.4-0.3-134.7-94.6-155.4-97.8
	c-46.2-6.9-29.8,32.5-100.4,12.3c-79.8-23-78.2,3.5-124,16.7C44.7,161.9-78.5,207.5-111.8,217.9z"/>
<g id="Layer_1_3_">
	<path class="st1" d="M983.1,122.3c-57.2-4.4-118.7,2.6-118.7,2.6s-29.4,4.7-108.7,2c-99.6-3.4-97.5-25.2-174.2-21.4
		c-72.5,96-177.9,31.8-345.5,29C124,132.7-1.7,190.7-1.7,190.7V211h1300v-70C1298.3,140.9,1199.8,144.5,983.1,122.3z"/>
</g>
<g id="Layer_2_1_">
</g>
<g class="st2">
	<path class="st3" d="M413.7,115.3c0.9-2.6,3.9-3.6,5.3-5.9c1.8-2.6,1.1-6.3-0.8-8.8c-0.1-0.2-8.8-17.3-17.9-9.8
		c-2.6,2.2-3.9,10.1-4.2,13.7c-0.5,5.4-1,10.9-1.5,16.3c-0.7,7.1,5.2,12.5,11.7,10.9c2.7-0.7,7-2.9,8.1-6
		C415.8,122.2,412.5,118.9,413.7,115.3z"/>
	<g>
		
			<rect x="393.5" y="142.5" transform="matrix(2.222194e-02 -0.9998 0.9998 2.222194e-02 252.983 544.4894)" class="st4" width="22.7" height="0.8"/>
	</g>
	<g>
		
			<rect x="393.2" y="118.9" transform="matrix(2.222194e-02 -0.9998 0.9998 2.222194e-02 277.1765 522.0088)" class="st4" width="24.6" height="0.8"/>
	</g>
	<g>
		<polygon class="st4" points="405.6,112.9 399.2,109 399.6,108.3 405.4,111.8 411.8,105.6 412.4,106.2 		"/>
	</g>
	<g>
		<polygon class="st4" points="405.2,122.1 398.6,119.5 398.9,118.7 405.3,121.2 412.7,119.3 412.9,120.1 		"/>
	</g>
	<g>
		
			<rect x="406.8" y="118.3" transform="matrix(0.3621 -0.9321 0.9321 0.3621 150.378 457.1124)" class="st4" width="4.7" height="0.8"/>
	</g>
	<g>
		
			<rect x="401.4" y="105.9" transform="matrix(0.9999 -1.101989e-02 1.101989e-02 0.9999 -1.1656 4.4346)" class="st4" width="0.8" height="4.2"/>
	</g>
</g>
</svg>
