<?xml version="1.0" encoding="utf-8"?>
<!-- Generator: Adobe Illustrator 18.0.0, SVG Export Plug-In . SVG Version: 6.00 Build 0)  -->
<!DOCTYPE svg PUBLIC "-//W3C//DTD SVG 1.1//EN" "http://www.w3.org/Graphics/SVG/1.1/DTD/svg11.dtd">
<svg version="1.1" id="Capa_1" xmlns="http://www.w3.org/2000/svg" xmlns:xlink="http://www.w3.org/1999/xlink" x="0px" y="0px"
	 viewBox="0 0 512 512" enable-background="new 0 0 512 512" xml:space="preserve">
<g>
	<path fill="#AFAFAF" d="M446.3,207.8c0.7-5.6,1.7-11.1,1.7-16.8c0-70.7-57.3-128-128-128c-41.8,0-78.6,20.3-101.9,51.4
		c-8.4-2-17.1-3.4-26.1-3.4c-61.9,0-112,50.1-112,112c0,1.8,0.4,3.3,0.5,5.1C34.1,241.7,0,284.2,0,335c0,61.9,50.1,112,112,112h272
		c70.7,0,128-57.3,128-128C512,271.1,485.3,229.8,446.3,207.8z M256,383l-96-96h64v-96h64v96h64L256,383z"/>
</g>
</svg>
