<?xml version="1.0" encoding="utf-8"?>
<!-- Generator: Adobe Illustrator 21.0.0, SVG Export Plug-In . SVG Version: 6.00 Build 0)  -->
<svg version="1.1" id="Layer_1" xmlns="http://www.w3.org/2000/svg" xmlns:xlink="http://www.w3.org/1999/xlink" x="0px" y="0px"
	 viewBox="0 0 90.3 90.3" style="enable-background:new 0 0 90.3 90.3;" xml:space="preserve">
<style type="text/css">
	.st0{fill:#0C42ED;}
</style>
<g id="Layer_2">
</g>
<g>
	<path class="st0" d="M44.4,52.6c0-4.3-3.5-7.8-7.8-7.8c-4.3,0-7.8,3.5-7.8,7.8s3.5,7.8,7.8,7.8C40.9,60.4,44.4,56.9,44.4,52.6z
		 M37.7,54.9c0.1-0.3,0.4-0.5,0.7-0.4c0.2,0.1,0.5,0.1,0.7,0.1c0.4,0,0.6-0.2,0.6-0.4s-0.1-0.4-0.7-0.5c-1-0.3-1.3-0.8-1.3-1.4
		c0-0.9,0.7-1.5,1.9-1.5c0.3,0,0.6,0,0.8,0.1c0.3,0.1,0.4,0.3,0.4,0.6c-0.1,0.3-0.4,0.4-0.6,0.4c-0.2,0-0.3-0.1-0.5-0.1
		c-0.4,0-0.6,0.1-0.6,0.4c0,0.2,0.2,0.3,0.7,0.5c0.9,0.3,1.3,0.7,1.3,1.4c0,0.9-0.7,1.5-2,1.5c-0.4,0-0.7-0.1-1-0.1
		C37.8,55.4,37.6,55.2,37.7,54.9z M35.4,55c-0.1-0.3-0.2-0.6-0.3-1c-0.2-0.8-0.4-1-1-1h-0.4v1.8c0,0.4-0.3,0.7-0.7,0.7
		s-0.7-0.3-0.7-0.7v-4.8c0-0.5,0.4-0.9,0.9-0.9c0.3,0,0.7,0,1,0c0.9,0,1.6,0.1,2.1,0.5c0.4,0.3,0.6,0.7,0.6,1.3
		c0,0.8-0.6,1.4-1.1,1.6v0c0.4,0.2,0.7,0.6,0.9,1.2c0.1,0.3,0.2,0.6,0.2,0.9c0.1,0.5-0.2,0.9-0.7,0.9C35.8,55.6,35.5,55.4,35.4,55z"
		/>
	<path class="st0" d="M34.4,50.2c-0.4,0-0.6,0-0.7,0V52h0.6c0.7,0,1.1-0.4,1.1-0.9C35.4,50.5,35,50.2,34.4,50.2z"/>
	<path class="st0" d="M45.1,0C20.2,0,0,20.2,0,45.1s20.2,45.1,45.1,45.1C70,90.2,90.2,70,90.2,45.1S70,0,45.1,0z M26.3,52.6
		c0-5.7,4.6-10.3,10.3-10.3c5.7,0,10.3,4.6,10.3,10.3c0,5.7-4.6,10.3-10.3,10.3C30.9,62.8,26.3,58.2,26.3,52.6z M40.7,38.2h15.7
		c0.7,0,1.2,0.5,1.2,1.2c0,0.7-0.5,1.2-1.2,1.2H40.7c-0.7,0-1.2-0.5-1.2-1.2C39.5,38.7,40,38.2,40.7,38.2z M39.5,31.6
		c0-0.7,0.5-1.2,1.2-1.2h15.7c0.7,0,1.2,0.5,1.2,1.2c0,0.7-0.5,1.2-1.2,1.2H40.7C40,32.8,39.5,32.2,39.5,31.6z M56.4,49H50
		c-0.7,0-1.2-0.5-1.2-1.2s0.5-1.2,1.2-1.2h6.3c0.7,0,1.2,0.5,1.2,1.2S57,49,56.4,49z M57.6,56.2c0,0.7-0.5,1.2-1.2,1.2H50
		c-0.7,0-1.2-0.5-1.2-1.2c0-0.7,0.5-1.2,1.2-1.2h6.3C57,55,57.6,55.5,57.6,56.2z M64.1,64.9c0,1.9-1.5,3.5-3.5,3.5H36.4
		c-1.9,0-3.5-1.5-3.5-3.5c0-0.7,0.5-1.2,1.2-1.2c0.7,0,1.2,0.5,1.2,1.2c0,0.6,0.5,1,1,1h24.3c0.6,0,1-0.5,1-1V28.3
		c0-1.8-1.5-3.3-3.3-3.3H34.3c0.7,1,1,2.1,1,3.3V40c0,0.7-0.5,1.2-1.2,1.2c-0.7,0-1.2-0.5-1.2-1.2V28.3c0-1.8-1.5-3.3-3.3-3.3
		c-1.8,0-3.3,1.5-3.3,3.3v9.5c0,0.6,0.5,1,1,1h3.2c0.7,0,1.2,0.5,1.2,1.2c0,0.7-0.5,1.2-1.2,1.2h-3.2c-1.9,0-3.5-1.5-3.5-3.5v-9.5
		c0-3.1,2.6-5.7,5.7-5.7h28.8c3.1,0,5.7,2.6,5.7,5.7V64.9z"/>
</g>
</svg>
