<?xml version="1.0" encoding="utf-8"?>
<!-- Generator: Adobe Illustrator 17.0.0, SVG Export Plug-In . SVG Version: 6.00 Build 0)  -->
<!DOCTYPE svg PUBLIC "-//W3C//DTD SVG 1.1//EN" "http://www.w3.org/Graphics/SVG/1.1/DTD/svg11.dtd">
<svg version="1.1" id="Layer_1" xmlns="http://www.w3.org/2000/svg" xmlns:xlink="http://www.w3.org/1999/xlink" x="0px" y="0px"
	 width="50px" height="50px" viewBox="0 0 50 50" enable-background="new 0 0 50 50" xml:space="preserve">
<path fill="#FFFFFF" d="M49.503,10.675l-5.572-5.958c-0.66-0.706-1.729-0.706-2.388,0L18.33,29.536L8.457,18.981
	c-0.659-0.706-1.729-0.706-2.388,0l-5.572,5.958c-0.66,0.706-0.66,1.849,0,2.554l16.639,17.791c0.33,0.353,0.762,0.529,1.194,0.529
	c0.432,0,0.864-0.176,1.194-0.529l29.979-32.055c0.317-0.338,0.495-0.798,0.495-1.277C49.998,11.473,49.82,11.014,49.503,10.675z"/>
</svg>
