<?xml version="1.0" encoding="utf-8"?>
<!-- Generator: Adobe Illustrator 17.0.0, SVG Export Plug-In . SVG Version: 6.00 Build 0)  -->
<!DOCTYPE svg PUBLIC "-//W3C//DTD SVG 1.1//EN" "http://www.w3.org/Graphics/SVG/1.1/DTD/svg11.dtd">
<svg version="1.1" id="Layer_1" xmlns="http://www.w3.org/2000/svg" xmlns:xlink="http://www.w3.org/1999/xlink" x="0px" y="0px"
	 width="50px" height="50px" viewBox="0 0 50 50" enable-background="new 0 0 50 50" xml:space="preserve">
<path fill="#FFFFFF" d="M33.454,24.999L48.209,11.43c2.335-2.148,2.335-5.628,0-7.774c-2.332-2.146-6.12-2.146-8.453,0L25,17.226
	L10.243,3.656c-2.332-2.146-6.12-2.146-8.452,0c-2.335,2.148-2.335,5.628,0,7.774l14.756,13.569L1.79,38.569
	c-2.335,2.147-2.335,5.628,0,7.774c1.167,1.073,2.697,1.61,4.226,1.61s3.06-0.536,4.226-1.61L25,32.773l14.757,13.571
	c1.167,1.072,2.697,1.61,4.226,1.61c1.529,0,3.061-0.537,4.226-1.61c2.335-2.148,2.335-5.629,0-7.775L33.454,24.999z"/>
</svg>
