<svg id="Layer_1" data-name="Layer 1" xmlns="http://www.w3.org/2000/svg" viewBox="0 0 16.74 16.74"><defs><style>.cls-1{fill:#f73746;}</style></defs><title>info-icon</title><path class="cls-1" d="M8.37,0a8.37,8.37,0,1,0,8.37,8.37A8.37,8.37,0,0,0,8.37,0Zm1.74,13-1,.39a2.68,2.68,0,0,1-.89.14A1.77,1.77,0,0,1,7,13.11a1.23,1.23,0,0,1-.43-1,3.67,3.67,0,0,1,0-.47,5.46,5.46,0,0,1,.1-.54l.54-1.91c0-.18.09-.36.12-.52a2.41,2.41,0,0,0,0-.45.69.69,0,0,0-.15-.51.84.84,0,0,0-.57-.14,1.57,1.57,0,0,0-.43.06l-.37.12L6,7.22c.35-.15.69-.27,1-.37a3,3,0,0,1,.91-.16,1.74,1.74,0,0,1,1.2.38,1.25,1.25,0,0,1,.42,1c0,.08,0,.23,0,.44a3,3,0,0,1-.11.57L8.87,11c0,.15-.08.33-.12.52a2.75,2.75,0,0,0-.05.44.64.64,0,0,0,.17.52.94.94,0,0,0,.59.14,1.7,1.7,0,0,0,.44-.07,2.55,2.55,0,0,0,.36-.12ZM10,5.27a1.35,1.35,0,0,1-1.81,0,1.12,1.12,0,0,1-.38-.85,1.13,1.13,0,0,1,.38-.85,1.35,1.35,0,0,1,1.81,0,1.13,1.13,0,0,1,.37.85,1.12,1.12,0,0,1-.37.85Zm0,0"/></svg>