<?xml version="1.0" encoding="utf-8"?>
<!-- Generator: Adobe Illustrator 17.0.0, SVG Export Plug-In . SVG Version: 6.00 Build 0)  -->
<!DOCTYPE svg PUBLIC "-//W3C//DTD SVG 1.1//EN" "http://www.w3.org/Graphics/SVG/1.1/DTD/svg11.dtd">
<svg version="1.1" id="Capa_1" xmlns="http://www.w3.org/2000/svg" xmlns:xlink="http://www.w3.org/1999/xlink" x="0px" y="0px"
	 width="50px" height="50px" viewBox="0 0 50 50" enable-background="new 0 0 50 50" xml:space="preserve">
<path fill="#2162B1" d="M46.448,29.908v-9.674h-2.383v9.533h-1.654h-0.729V6.934c0-0.55-0.448-0.999-1.016-0.999H2.185
	c-0.559,0-1.017,0.449-1.017,0.999v29.165c0,0.549,0.457,0.999,1.017,0.999h18.049v1.297c0,0.259,0.094,0.494,0.175,0.732v2.94
	h-7.216c-0.559,0-1.016,0.449-1.016,0.999c0,0.549,0.457,0.999,1.016,0.999h11.418h3.502h1.544c0.559,0,1.017-0.45,1.017-0.999
	c0-0.549-0.457-0.999-1.017-0.999h-0.669v-0.96h11.088v2.219c0,0.408,0.392,0.739,0.875,0.739h3.502
	c0.484,0,0.876-0.331,0.876-0.739c0-0.408-0.392-0.74-0.876-0.74h-2.626v-1.479h3.794c1.77,0,3.21-1.217,3.21-2.712v-5.917
	C48.832,31.23,47.809,30.222,46.448,29.908z M3.202,35.1V7.933h36.457l0.001,21.833H26.654h-1.751h-1.459
	c-1.77,0-3.21,1.217-3.21,2.712V35.1H3.202z M22.441,42.067v-1.131c0.32,0.09,0.647,0.171,1.002,0.171h3.794v0.96H22.441z"/>
</svg>
