<?xml version="1.0" encoding="utf-8"?>
<!-- Generator: Adobe Illustrator 17.0.0, SVG Export Plug-In . SVG Version: 6.00 Build 0)  -->
<!DOCTYPE svg PUBLIC "-//W3C//DTD SVG 1.1//EN" "http://www.w3.org/Graphics/SVG/1.1/DTD/svg11.dtd">
<svg version="1.1" id="Capa_1" xmlns="http://www.w3.org/2000/svg" xmlns:xlink="http://www.w3.org/1999/xlink" x="0px" y="0px"
	 width="50px" height="50px" viewBox="0 0 50 50" enable-background="new 0 0 50 50" xml:space="preserve">
<g>
	<path fill="#92BF4C" d="M37.625,23.45c-1.885-3.068-4.164-5.544-7.443-6.967c-1.634-0.709-3.357-1.064-5.181-1.064h-0.049
		c-5.279,0-9.727,2.899-12.869,8.38c-1.31,2.286-7.498,4.735-8.106,7.338c-0.608,2.608-0.924,4.989-0.924,7.142
		c0,4.74,1.484,7.565,3.941,7.565h36.014c2.432,0,3.929-2.825,3.94-7.512c0.006-2.097-0.262-4.417-0.821-6.755
		C45.457,28.772,39.158,25.944,37.625,23.45z M43.007,43.093H6.994c-0.438,0.122-1.265-1.566-1.265-4.815
		c0-1.931,0.283-4.089,0.852-6.443c0.575-2.386,6.685-4.608,7.862-6.671c1.012-1.777,2.177-3.237,3.892-4.666
		c1.739-1.444,4.063-2.328,6.617-2.328H25c2.554,0,4.884,0.899,6.616,2.354c1.747,1.471,2.905,2.921,3.941,4.714
		c1.202,2.074,7.276,4.312,7.839,6.692c0.556,2.36,0.812,4.492,0.802,6.401C44.184,41.48,43.396,43.241,43.007,43.093z"/>
	<path fill="#92BF4C" d="M25,24.318c-2.238,0-4.136,0.793-5.717,2.407s-2.36,3.545-2.36,5.804c0,2.254,0.778,4.216,2.36,5.825
		c1.581,1.614,3.479,2.407,5.717,2.407c2.213,0,4.111-0.794,5.692-2.407c1.581-1.608,2.384-3.571,2.384-5.825
		c0-2.259-0.803-4.169-2.384-5.778C29.111,25.138,27.214,24.318,25,24.318z M28.795,36.422C27.755,37.49,26.484,38.03,25,38.03
		s-2.78-0.54-3.82-1.608c-1.052-1.085-1.557-2.381-1.557-3.894s0.511-2.804,1.557-3.867h7.614c1.046,1.063,1.581,2.354,1.581,3.867
		C30.376,34.041,29.847,35.338,28.795,36.422z"/>
	<path fill="#92BF4C" d="M47.486,10.779c-1.484-1.561-3.437-2.809-5.887-3.746c-4.896-1.867-10.874-2.878-17.174-2.878
		c-4.914,0-9.294,0.545-13.136,1.614c-3.821,1.063-6.66,2.587-8.539,4.513c-1.673,1.719-2.477,3.624-2.433,5.756
		c0.004,0.196-0.044,0.719-0.048,0.915c-0.02,0.82-0.025,1.466,0,1.957c0.023,0.476,0.122,1.069,0.341,1.788
		c0.219,0.72,0.567,1.28,0.997,1.735c0.884,0.936,2.213,1.413,3.989,1.413c0.511,0,0.901-0.011,1.192-0.048
		c3.578-0.482,5.261-1.46,5.936-3.053c0.494-1.159,0.559-1.984,0.559-3.497v-0.566c0-0.201,0.097-0.397,0.292-0.598
		c0.705-0.719,2.119-1.275,4.233-1.735c2.119-0.46,4.501-0.693,7.128-0.693c2.311,0,4.403,0.174,6.276,0.492
		c1.873,0.323,3.28,0.73,4.208,1.19c0.92,0.46,1.411,0.894,1.411,1.344V17.1c0,1.566-0.006,2.407,0.486,3.598
		c0.238,0.571,0.583,1.069,1.046,1.439c0.899,0.719,2.554,1.392,4.963,1.661c2.262,0.254,3.972-0.19,5.06-1.317
		c0.883-0.91,1.306-2.577,1.338-3.592c0.016-0.524,0.024-1.164,0.024-1.984v-0.82C49.748,14.102,48.97,12.34,47.486,10.779z
		 M47.048,16.953c0,1.91-0.116,3.106-0.584,3.597c-0.36,0.376-1.046,0.572-1.995,0.572c-0.365,0-0.656-0.032-0.851-0.053
		c-2.019-0.201-3.297-0.635-3.795-1.338c-0.256-0.36-0.292-1.211-0.292-2.577v-0.471c0-1.513-1.028-2.767-2.457-3.571
		c-1.392-0.783-3.602-1.381-5.377-1.661c-0.877-0.143-1.825-0.264-2.821-0.349c-0.999-0.09-1.8-0.148-2.36-0.175
		c-0.56-0.026-1.07-0.026-1.581-0.026c-0.9,0-1.824,0.037-2.774,0.101c-0.948,0.063-2.14,0.18-3.6,0.37
		c-2.894,0.381-5.582,1.354-6.933,2.777c-0.766,0.809-1.046,1.662-1.046,2.534v0.566c0,1.021-0.006,1.291-0.17,1.962
		c-0.079,0.318-0.173,0.566-0.34,0.72c-0.514,0.466-1.536,0.952-3.576,1.138c-1.536,0.138-2.503,0-2.943-0.519
		c-0.339-0.401-0.503-1.068-0.56-1.761c-0.016-0.201-0.024-0.693-0.024-0.868v-0.915c0-0.201,0.054-0.773,0.048-0.968
		c-0.043-1.391,0.487-2.656,1.63-3.82c1.63-1.661,4.212-2.941,7.736-3.894c3.53-0.958,7.541-1.439,12.042-1.439
		c6.349,0,11.649,0.879,15.909,2.603c1.675,0.682,3.085,1.397,4.452,2.481c1.382,1.095,2.262,2.555,2.262,4.116V16.953z"/>
</g>
</svg>
