<?xml version="1.0" encoding="utf-8"?>
<!-- Generator: Adobe Illustrator 17.0.0, SVG Export Plug-In . SVG Version: 6.00 Build 0)  -->
<!DOCTYPE svg PUBLIC "-//W3C//DTD SVG 1.1//EN" "http://www.w3.org/Graphics/SVG/1.1/DTD/svg11.dtd">
<svg version="1.1" id="Capa_1" xmlns="http://www.w3.org/2000/svg" xmlns:xlink="http://www.w3.org/1999/xlink" x="0px" y="0px"
	 width="50px" height="50px" viewBox="0 0 50 50" enable-background="new 0 0 50 50" xml:space="preserve">
<g>
	<path fill="#FD7FB4" d="M25,2.167c-12.267,0-22.248,8.899-22.248,19.837c0,6.896,4.011,13.265,10.544,16.872l-2.219,6.985
		c-0.219,0.69,0.175,1.421,0.893,1.657c0.086,0.028,1.004,0.317,2.487,0.317c2.004,0,5.039-0.528,8.444-2.94
		c0.627-0.444,0.755-1.286,0.286-1.881c-0.468-0.594-1.357-0.715-1.983-0.271c-2.974,2.107-5.486,2.442-6.943,2.415l2.056-6.471
		c0.018-0.048,0.034-0.097,0.047-0.148c0.154-0.603-0.147-1.227-0.729-1.51C9.437,34.005,5.586,28.248,5.586,22.003
		c0-9.457,8.709-17.15,19.414-17.15s19.414,7.694,19.414,17.15c0,9.321-8.259,16.848-18.803,17.136
		c-0.714,0.02-1.301,0.539-1.369,1.214c-0.069,0.674,0.403,1.291,1.1,1.439l0.069,0.015c0.196,0.043,0.389,0.043,0.571,0.008
		C37.93,41.354,47.249,32.7,47.249,22.003C47.248,11.066,37.267,2.167,25,2.167z"/>
	<path fill="#FD7FB4" d="M25.52,23.049c-1.306,1.227-1.958,2.612-1.958,4.156c0,0.386,0.137,0.706,0.411,0.958
		c0.274,0.253,0.616,0.38,1.027,0.38c0.411,0,0.751-0.127,1.021-0.38c0.269-0.253,0.404-0.572,0.404-0.958
		c0-0.815,0.365-1.565,1.096-2.252l2.15-1.866c1.305-1.252,1.958-2.728,1.958-4.427c0-0.841-0.176-1.638-0.528-2.393
		c-0.351-0.755-0.828-1.415-1.431-1.982c-0.602-0.566-1.306-1.016-2.109-1.351c-0.804-0.335-1.657-0.502-2.561-0.502
		c-0.904,0-1.758,0.163-2.561,0.489c-0.804,0.326-1.506,0.772-2.109,1.338c-0.603,0.566-1.08,1.227-1.431,1.982
		c-0.352,0.755-0.528,1.562-0.528,2.419c0,0.386,0.135,0.708,0.404,0.965s0.61,0.386,1.021,0.386c0.2,0,0.388-0.034,0.561-0.103
		c0.173-0.068,0.324-0.165,0.452-0.29c0.128-0.124,0.231-0.267,0.309-0.431c0.077-0.163,0.116-0.339,0.116-0.528
		c0-0.497,0.098-0.96,0.294-1.39c0.196-0.429,0.466-0.802,0.807-1.12c0.343-0.317,0.742-0.568,1.199-0.753
		c0.456-0.184,0.945-0.276,1.465-0.276c0.511,0,0.995,0.095,1.452,0.283c0.456,0.189,0.856,0.444,1.198,0.765
		c0.343,0.323,0.614,0.698,0.815,1.126c0.2,0.429,0.301,0.884,0.301,1.364c0,0.961-0.365,1.797-1.095,2.509L25.52,23.049z"/>
	<path fill="#FD7FB4" d="M25,33.233c0.538,0,0.997-0.178,1.377-0.534c0.379-0.356,0.568-0.787,0.568-1.294
		c0-0.506-0.189-0.937-0.568-1.294c-0.379-0.356-0.838-0.534-1.377-0.534c-0.539,0-0.997,0.178-1.377,0.534
		c-0.379,0.356-0.568,0.788-0.568,1.294c0,0.507,0.19,0.937,0.568,1.294C24.003,33.055,24.461,33.233,25,33.233z"/>
</g>
</svg>
