<?xml version="1.0" encoding="utf-8"?>
<!-- Generator: Adobe Illustrator 17.0.0, SVG Export Plug-In . SVG Version: 6.00 Build 0)  -->
<!DOCTYPE svg PUBLIC "-//W3C//DTD SVG 1.1//EN" "http://www.w3.org/Graphics/SVG/1.1/DTD/svg11.dtd">
<svg version="1.1" id="Capa_1" xmlns="http://www.w3.org/2000/svg" xmlns:xlink="http://www.w3.org/1999/xlink" x="0px" y="0px"
	 width="50px" height="50px" viewBox="0 0 50 50" enable-background="new 0 0 50 50" xml:space="preserve">
<path fill="#45BAEE" d="M27.211,30.684c1.289-0.162,2.468-0.671,3.446-1.431l6.78,6.78c-0.312,0.527-0.502,1.131-0.502,1.786
	c0,1.95,1.586,3.536,3.536,3.536s3.536-1.586,3.536-3.536s-1.586-3.536-3.536-3.536c-0.654,0-1.259,0.19-1.785,0.501l-6.78-6.78
	c0.932-1.199,1.492-2.698,1.492-4.33s-0.56-3.131-1.492-4.329l8.544-8.544c0.941,0.855,2.187,1.381,3.556,1.381
	c2.925,0,5.304-2.379,5.304-5.304s-2.379-5.304-5.304-5.304s-5.304,2.379-5.304,5.304c0,0.915,0.232,1.776,0.642,2.529l-8.689,8.689
	c-1.198-0.933-2.697-1.493-4.329-1.493s-3.131,0.56-4.33,1.492l-6.78-6.78c0.311-0.526,0.501-1.131,0.501-1.785
	c0-1.95-1.586-3.536-3.536-3.536S8.645,7.579,8.645,9.529s1.586,3.536,3.536,3.536c0.654,0,1.259-0.19,1.785-0.501l6.78,6.78
	c-0.932,1.199-1.492,2.698-1.492,4.33s0.561,3.131,1.492,4.329L9.551,39.199c-0.943-0.855-2.188-1.381-3.558-1.381
	c-2.925,0-5.304,2.379-5.304,5.304s2.379,5.304,5.304,5.304c2.926,0,5.304-2.379,5.304-5.304c0-0.915-0.232-1.776-0.642-2.528
	l11.341-11.341c0.978,0.76,2.157,1.27,3.446,1.431 M26.326,28.978c-2.925,0-5.304-2.379-5.304-5.304s2.379-5.304,5.304-5.304
	s5.304,2.379,5.304,5.304S29.251,28.978,26.326,28.978z"/>
</svg>
