<?xml version="1.0" encoding="utf-8"?>
<!-- Generator: Adobe Illustrator 17.0.0, SVG Export Plug-In . SVG Version: 6.00 Build 0)  -->
<!DOCTYPE svg PUBLIC "-//W3C//DTD SVG 1.1//EN" "http://www.w3.org/Graphics/SVG/1.1/DTD/svg11.dtd">
<svg version="1.1" id="Capa_1" xmlns="http://www.w3.org/2000/svg" xmlns:xlink="http://www.w3.org/1999/xlink" x="0px" y="0px"
	 width="50px" height="50px" viewBox="0 0 50 50" enable-background="new 0 0 50 50" xml:space="preserve">
<g>
	<polygon fill="#45BAEE" points="34.538,20.794 36.272,20.794 36.272,12.971 44.508,12.971 44.508,11.324 36.272,11.324 36.272,3.5 
		34.538,3.5 34.538,11.324 26.303,11.324 26.303,12.971 34.538,12.971 	"/>
	<path fill="#45BAEE" d="M48.257,27.377c-1.887-1.733-4.982-1.757-6.901-0.055l-4.535,4.024c-0.007,0.006-0.013,0.012-0.02,0.018
		c-1.715,1.577-3.995,2.445-6.421,2.445h-1.053c0.007-0.055,0.012-0.11,0.012-0.166V33.09l0.117-0.047
		c0.04-0.016,0.079-0.033,0.117-0.052c2.565-1.28,3.595-4.18,2.344-6.602c-0.227-0.439-1.087-1.791-2.206-2.308
		c-1.544-0.713-3.427-0.539-3.427-0.539c-0.692,0.078-1.369,0.273-1.989,0.588l-10.16,4.46l-4.931-0.003
		c-2.506-0.004-4.892,0.981-6.557,2.697c-1.516,1.562-2.35,3.575-2.35,5.669v4.491c0,0.7,0.562,1.293,1.317,1.39l19.024,2.438
		c1.194,0.153,2.387,0.229,3.574,0.229c4.102,0,8.133-0.906,11.822-2.676c1.221-0.585,2.404-1.27,3.518-2.035
		c2.408-1.654,4.723-3.469,6.882-5.392l1.77-1.578c0.954-0.85,1.485-1.991,1.495-3.211C49.709,29.388,49.197,28.24,48.257,27.377z
		 M46.077,31.805l-1.771,1.578c-2.065,1.84-4.28,3.576-6.584,5.158c-0.983,0.675-2.027,1.28-3.102,1.795
		c-4.19,2.01-8.879,2.755-13.56,2.155L3.352,40.223v-3.27c0-1.404,0.56-2.753,1.576-3.802c1.084-1.117,2.639-1.758,4.268-1.758
		c0.002,0,0.003,0,0.005,0l5.278,0.004h0.001c0.228,0,0.453-0.047,0.658-0.137l10.517-4.619c0.031-0.014,0.062-0.029,0.092-0.044
		c0.597-0.31,1.286-0.376,1.94-0.185c0.653,0.19,1.175,0.609,1.469,1.177c0.548,1.06,0.111,2.327-0.991,2.908l-8.534,3.429
		c-0.662,0.266-1.031,0.922-0.883,1.573c0.148,0.65,0.772,1.116,1.495,1.116H30.38c3.238,0,6.282-1.157,8.573-3.259l4.526-4.016
		c0.728-0.646,1.902-0.636,2.617,0.021c0.357,0.328,0.55,0.763,0.547,1.226C46.64,31.05,46.438,31.483,46.077,31.805z"/>
</g>
</svg>
