<?xml version="1.0" encoding="utf-8"?>
<!-- Generator: Adobe Illustrator 17.0.0, SVG Export Plug-In . SVG Version: 6.00 Build 0)  -->
<!DOCTYPE svg PUBLIC "-//W3C//DTD SVG 1.1//EN" "http://www.w3.org/Graphics/SVG/1.1/DTD/svg11.dtd">
<svg version="1.1" id="Capa_1" xmlns="http://www.w3.org/2000/svg" xmlns:xlink="http://www.w3.org/1999/xlink" x="0px" y="0px"
	 width="50px" height="50px" viewBox="0 0 50 50" enable-background="new 0 0 50 50" xml:space="preserve">
<g>
	<path fill="#92BF4C" d="M4.455,37.897c0,0.959,0.788,1.736,1.76,1.736h37.57c0.972,0,1.76-0.777,1.76-1.736
		s-0.788-1.736-1.76-1.736h-3.883V21.933h3.883c0.774,0,1.457-0.499,1.683-1.229c0.226-0.73-0.057-1.52-0.699-1.947l-18.785-12.5
		c-0.595-0.396-1.374-0.396-1.969,0L5.23,18.757c-0.641,0.427-0.925,1.217-0.699,1.947c0.226,0.73,0.909,1.228,1.683,1.228h3.883
		V36.16H6.215l0,0C5.243,36.16,4.455,36.938,4.455,37.897z M18.859,36.161h-5.241V21.933h5.241V36.161z M27.62,36.161h-5.241V21.933
		h5.241C27.62,21.933,27.62,36.161,27.62,36.161z M36.382,36.16h-5.241V21.933h5.241V36.16z M25,9.791l13.029,8.67H11.972L25,9.791z
		"/>
	<path fill="#92BF4C" d="M47.688,41.725H2.312c-0.648,0-1.173,0.518-1.173,1.158c0,0.639,0.525,1.157,1.173,1.157h45.376
		c0.648,0,1.174-0.518,1.174-1.157C48.861,42.243,48.336,41.725,47.688,41.725z"/>
</g>
</svg>
