<?xml version="1.0" encoding="utf-8"?>
<!-- Generator: Adobe Illustrator 17.0.0, SVG Export Plug-In . SVG Version: 6.00 Build 0)  -->
<!DOCTYPE svg PUBLIC "-//W3C//DTD SVG 1.1//EN" "http://www.w3.org/Graphics/SVG/1.1/DTD/svg11.dtd">
<svg version="1.1" id="Capa_1" xmlns="http://www.w3.org/2000/svg" xmlns:xlink="http://www.w3.org/1999/xlink" x="0px" y="0px"
	 width="50px" height="50px" viewBox="0 0 50 50" enable-background="new 0 0 50 50" xml:space="preserve">
<path fill="#92BF4C" d="M39,46.964c-1.634,1.662-3.891,2.577-6.355,2.577h-5.72c-2.466,0-4.942-0.926-6.793-2.541
	c-1.862-1.624-2.913-3.738-2.977-5.974l-7.97-10.569c-0.74-0.934-1.184-2.774,0.603-4.051c0.37-0.307,2.627-1.97,5.25,0.493
	l2.115,1.987V9.272c0-1.852,1.604-3.359,3.576-3.359s3.576,1.507,3.576,3.359v9.149c0.598-0.422,1.341-0.673,2.144-0.673
	c1.972,0,3.576,1.507,3.576,3.359c0.598-0.422,1.341-0.673,2.144-0.673c1.672,0,3.08,1.083,3.469,2.542
	c0.615-0.469,1.399-0.751,2.252-0.751c1.972,0,3.576,1.506,3.576,3.359v15.224C41.465,43.161,40.589,45.347,39,46.964z
	 M40.032,40.809V25.585c0-1.111-0.962-2.014-2.144-2.014s-2.144,0.903-2.144,2.014v6.269h-1.432v-8.06
	c0-1.111-0.962-2.014-2.144-2.014s-2.144,0.904-2.144,2.014v5.373h-1.432v-8.06c0-1.111-0.962-2.014-2.144-2.014
	c-1.182,0-2.144,0.904-2.144,2.014v5.373h-1.432V9.272c0-1.11-0.962-2.014-2.145-2.014c-1.182,0-2.144,0.903-2.144,2.014v22.862
	l-4.559-4.282c-0.658-0.618-1.313-0.929-1.952-0.929c-0.141,0-0.28,0.015-0.42,0.045c-0.55,0.119-0.903,0.433-0.906,0.436
	l-0.036,0.034l-0.041,0.029c-1.297,0.914-0.436,2.065-0.334,2.193l0.011,0.015l8.236,10.921v0.214c0,1.938,0.896,3.787,2.523,5.206
	c1.589,1.386,3.71,2.181,5.819,2.181h5.72C36.294,47.773,40.033,45.021,40.032,40.809L40.032,40.809z M20.727,1.803
	c-4.337,0-7.865,3.306-7.865,7.38c0,2.098,0.955,4.101,2.621,5.502l-0.955,0.998c-1.968-1.655-3.097-4.027-3.097-6.507
	c0-4.815,4.17-8.717,9.297-8.717s9.297,3.906,9.297,8.748h-1.432C28.592,5.082,25.064,1.803,20.727,1.803z"/>
</svg>
