<?xml version="1.0" encoding="utf-8"?>
<!-- Generator: Adobe Illustrator 17.0.0, SVG Export Plug-In . SVG Version: 6.00 Build 0)  -->
<!DOCTYPE svg PUBLIC "-//W3C//DTD SVG 1.1//EN" "http://www.w3.org/Graphics/SVG/1.1/DTD/svg11.dtd">
<svg version="1.1" id="Capa_1" xmlns="http://www.w3.org/2000/svg" xmlns:xlink="http://www.w3.org/1999/xlink" x="0px" y="0px"
	 width="50px" height="50px" viewBox="0 0 50 50" enable-background="new 0 0 50 50" xml:space="preserve">
<g>
	<path fill="#FBC932" d="M24.943,37.903c-2.957,0-5.376,2.505-5.376,5.566s2.419,5.566,5.376,5.566s5.377-2.505,5.377-5.566
		C30.319,40.408,27.9,37.903,24.943,37.903z"/>
	<path fill="#FBC932" d="M11.343,23.734c-2.957,0-5.377,2.505-5.377,5.566s2.42,5.566,5.377,5.566s5.376-2.505,5.376-5.566
		C16.72,26.239,14.3,23.734,11.343,23.734z"/>
	<path fill="#FBC932" d="M11.343,37.903c-2.957,0-5.377,2.505-5.377,5.566s2.42,5.566,5.377,5.566s5.376-2.505,5.376-5.566
		C16.72,40.408,14.3,37.903,11.343,37.903z"/>
	<path fill="#FBC932" d="M38.542,37.903c-2.957,0-5.376,2.505-5.376,5.566s2.419,5.566,5.376,5.566s5.377-2.505,5.377-5.566
		S41.499,37.903,38.542,37.903z"/>
	<path fill="#FBC932" d="M46.511,8.256C43.057,3.083,36.837,0.97,25.04,0.964C11.868,0.963,5.733,6.017,4.167,7.566
		C3.841,7.889,3.664,8.103,3.618,8.161c-2.712,3.394-2.446,5.831-2.253,7.61c0.251,2.306,1.954,3.984,4.051,3.988l7.91,0.004
		c1.059-0.003,2.061-0.418,2.821-1.169c0.79-0.782,1.225-1.828,1.225-2.945l-0.001-3.044c1.861-0.525,4.365-1.192,7.665-1.191
		c3.297,0.002,5.797,0.665,7.668,1.194v3.046c0.003,2.267,1.821,4.112,4.053,4.112l7.906,0.002c1.061,0.002,2.064-0.412,2.826-1.165
		c0.773-0.764,1.206-1.781,1.225-2.872C48.78,15.125,48.979,11.953,46.511,8.256z M46.327,15.479l-0.013,0.087v0.088
		c0,0.485-0.186,0.936-0.523,1.27c-0.307,0.304-0.707,0.471-1.127,0.47l-7.908-0.002c-0.909,0-1.65-0.78-1.651-1.739l0.001-3.445
		l-0.001-0.058c-0.046-0.943-0.776-1.559-1.466-1.747c-2.024-0.575-4.797-1.362-8.601-1.363c-3.792-0.001-6.56,0.783-8.579,1.354
		c-0.203,0.056-0.594,0.201-0.93,0.533c-0.397,0.392-0.593,0.919-0.556,1.488v3.234c0,0.483-0.185,0.933-0.522,1.266
		c-0.308,0.305-0.709,0.473-1.127,0.474L5.42,17.385c-1.006-0.002-1.569-0.969-1.666-1.866c-0.182-1.673-0.354-3.253,1.75-5.886
		c0.001-0.001,0.117-0.145,0.363-0.388c1.401-1.386,6.926-5.908,19.176-5.907C35.92,3.344,41.56,5.147,44.508,9.564
		C46.66,12.788,46.341,15.379,46.327,15.479z"/>
	<path fill="#FBC932" d="M38.542,23.734c-2.957,0-5.376,2.505-5.376,5.566s2.419,5.566,5.376,5.566s5.377-2.505,5.377-5.566
		S41.499,23.734,38.542,23.734z"/>
	<path fill="#FBC932" d="M24.943,23.734c-2.957,0-5.376,2.505-5.376,5.566s2.419,5.566,5.376,5.566s5.377-2.505,5.377-5.566
		C30.319,26.239,27.9,23.734,24.943,23.734z"/>
</g>
</svg>
