<?xml version="1.0" encoding="utf-8"?>
<!-- Generator: Adobe Illustrator 17.0.0, SVG Export Plug-In . SVG Version: 6.00 Build 0)  -->
<!DOCTYPE svg PUBLIC "-//W3C//DTD SVG 1.1//EN" "http://www.w3.org/Graphics/SVG/1.1/DTD/svg11.dtd">
<svg version="1.1" id="Capa_1" xmlns="http://www.w3.org/2000/svg" xmlns:xlink="http://www.w3.org/1999/xlink" x="0px" y="0px"
	 width="50px" height="50px" viewBox="0 0 50 50" enable-background="new 0 0 50 50" xml:space="preserve">
<path fill="#45BAEE" d="M48.557,41.506v0.464h-0.362c-0.619,0.681-1.495,1.113-2.473,1.113H4.278c-0.978,0-1.854-0.432-2.473-1.113
	H1.443v-0.464c-0.348-0.544-0.554-1.192-0.554-1.889V10.383c0-1.911,1.52-3.466,3.389-3.466h41.444c1.869,0,3.389,1.555,3.389,3.466
	v29.234C49.111,40.314,48.905,40.961,48.557,41.506z M45.722,8.56H4.278c-0.983,0-1.782,0.818-1.782,1.823v25.652h45.008V10.383
	C47.504,9.378,46.705,8.56,45.722,8.56z M43.485,29.459c-0.209,0-0.419-0.09-0.57-0.239c-0.146-0.156-0.233-0.362-0.233-0.583
	c0-0.222,0.088-1.792,0.241-1.948c0.289-0.304,0.836-0.304,1.133,0.008c0.145,0.148,0.233,1.727,0.233,1.94
	c0,0.214-0.088,0.427-0.233,0.583C43.903,29.368,43.694,29.459,43.485,29.459z M43.485,23.984h-7.233
	c-0.444,0-0.804-1.733-0.804-2.187s0.359-0.822,0.804-0.822h7.233c0.444,0,0.804,0.368,0.804,0.822S43.93,23.984,43.485,23.984z
	 M36.252,28.637c0,0.454-0.359,0.822-0.804,0.822h-0.804c-0.445,0-0.804-0.368-0.804-0.822s0.359-2.187,0.804-2.187h0.804
	C35.893,26.45,36.252,28.183,36.252,28.637z M33.037,23.984h-7.233c-0.445,0-0.804-1.733-0.804-2.187s0.359-0.822,0.804-0.822h7.233
	c0.444,0,0.804,0.368,0.804,0.822S33.481,23.984,33.037,23.984z M14.834,29.695l-2.402,0.001c-4.615-0.083-7.41,0.244-7.41-0.331
	c0-2.802,1.824-2.925,3.851-3.617c1.249-0.424,2.797-0.665,2.464-2.911c-0.823-0.785-1.111-2.404-1.111-2.404
	s-1.094-0.576-1.219-1.682c-0.093-0.842,0.328-1.233,0.328-1.233s0-0.061,0-1.07c0-2.377,1.949-4.251,4.297-4.251
	s4.297,1.875,4.297,4.251c0,1.01,0,1.07,0,1.07s0.421,0.39,0.328,1.233c-0.125,1.105-1.219,1.682-1.219,1.682
	s-0.288,1.619-1.111,2.404c-0.331,2.247,1.217,2.487,2.466,2.911c2.027,0.691,3.851,0.815,3.851,3.617
	C22.244,29.94,19.449,29.613,14.834,29.695z M25.804,26.45h0.804c0.444,0,0.804,1.733,0.804,2.187s-0.359,0.822-0.804,0.822h-0.804
	c-0.445,0-0.804-0.368-0.804-0.822S25.359,26.45,25.804,26.45z M29.822,26.45h1.607c0.444,0,0.804,1.733,0.804,2.187
	s-0.359,0.822-0.804,0.822h-1.607c-0.445,0-0.804-0.368-0.804-0.822S29.378,26.45,29.822,26.45z M38.663,26.45h1.607
	c0.445,0,0.804,1.733,0.804,2.187s-0.359,0.822-0.804,0.822h-1.607c-0.444,0-0.804-0.368-0.804-0.822
	C37.859,28.183,38.219,26.45,38.663,26.45z"/>
</svg>
