<?xml version="1.0" encoding="utf-8"?>
<!-- Generator: Adobe Illustrator 17.0.0, SVG Export Plug-In . SVG Version: 6.00 Build 0)  -->
<!DOCTYPE svg PUBLIC "-//W3C//DTD SVG 1.1//EN" "http://www.w3.org/Graphics/SVG/1.1/DTD/svg11.dtd">
<svg version="1.1" id="Capa_1" xmlns="http://www.w3.org/2000/svg" xmlns:xlink="http://www.w3.org/1999/xlink" x="0px" y="0px"
	 width="50px" height="50px" viewBox="0 0 50 50" enable-background="new 0 0 50 50" xml:space="preserve">
<path fill="#FBC932" d="M48.874,14.756L37.293,3.465c-0.554-0.54-1.291-0.838-2.076-0.838c-0.619,0-1.221,0.191-1.72,0.543
	l-0.321,0.178L18.273,5.343c-0.341,0.012-0.672,0.065-0.988,0.152l-0.523-0.479c-0.021-0.019-0.043-0.039-0.066-0.057
	c-0.532-0.446-1.211-0.69-1.912-0.69c-0.785,0-1.523,0.298-2.077,0.839L1.126,16.396c-1.035,1.01-1.143,2.624-0.25,3.755
	c0.031,0.039,0.063,0.077,0.096,0.113l4.969,5.399c0.161,0.653,0.382,1.326,0.658,2.016c-1.205,1.413-1.129,3.519,0.23,4.843
	c0.002,0.002,0.005,0.004,0.007,0.007l0.016,0.016c0.682,0.662,1.584,1.03,2.544,1.047c-0.018,0.145-0.03,0.291-0.03,0.439
	c0,0.96,0.383,1.862,1.079,2.542l0.015,0.015c0.002,0.002,0.004,0.004,0.007,0.007c0.699,0.68,1.628,1.055,2.616,1.055
	c0.114,0,0.228-0.006,0.341-0.016c0.011,0.012,0.023,0.024,0.034,0.037c-0.002,0.049-0.007,0.097-0.007,0.146
	c0,0.96,0.383,1.862,1.08,2.542l0.016,0.015c0.002,0.002,0.004,0.004,0.006,0.006c0.699,0.68,1.628,1.054,2.616,1.054
	c0.003,0,0.005-0.001,0.007-0.001l0.353,0.344c0.041,0.9,0.416,1.742,1.076,2.384c0.004,0.004,0.008,0.008,0.013,0.012l0.013,0.012
	c0.658,0.637,1.52,0.999,2.441,1.039l0.975,0.949c0.796,0.775,1.858,1.202,2.988,1.202c1.301,0,2.51-0.569,3.317-1.562
	c0.439-0.539,0.715-1.159,0.833-1.8l0.612,0.596c0.809,0.787,1.926,1.238,3.065,1.238c0.94,0,1.86-0.31,2.59-0.872
	c0.81-0.624,1.354-1.514,1.537-2.493c0.782,0.651,1.792,1.019,2.821,1.019c0.94,0,1.86-0.31,2.59-0.872
	c0.946-0.729,1.528-1.818,1.598-2.989c0.065-1.088-0.316-2.154-1.05-2.963c0.679-0.116,1.322-0.394,1.862-0.81
	c0.946-0.728,1.528-1.817,1.598-2.988c0.07-1.173-0.378-2.32-1.228-3.148l-1.571-1.529c0.057-0.055,0.112-0.113,0.162-0.176
	c2.941-3.647,4.525-6.361,5.109-8.761c0.046-0.078,0.086-0.16,0.121-0.244l0.325-0.796C49.993,17.12,49.825,15.682,48.874,14.756z
	 M9.463,31.65c-0.436,0-0.871-0.162-1.203-0.485l-0.018-0.017c-0.664-0.646-0.664-1.695,0-2.342l1.331-1.295
	c0.332-0.323,0.768-0.485,1.203-0.485c0.436,0,0.871,0.162,1.204,0.485l0.017,0.017c0.665,0.647,0.665,1.695,0,2.342l-1.331,1.295
	C10.334,31.488,9.899,31.65,9.463,31.65z M14.287,35.217c-0.332,0.324-0.768,0.485-1.203,0.485s-0.871-0.161-1.203-0.485
	L11.863,35.2c-0.665-0.647-0.665-1.695,0-2.342l3.148-3.065c0.333-0.323,0.768-0.485,1.204-0.485c0.435,0,0.871,0.162,1.203,0.485
	l0.018,0.017c0.664,0.647,0.664,1.695,0,2.342L14.287,35.217z M18.371,39.002c-0.332,0.323-0.767,0.485-1.203,0.485
	s-0.871-0.161-1.203-0.485l-0.018-0.018c-0.664-0.646-0.664-1.695,0-2.342l2.037-1.984c0.332-0.323,0.768-0.485,1.203-0.485
	s0.871,0.162,1.203,0.485l0.018,0.017c0.664,0.647,0.664,1.696,0,2.342L18.371,39.002z M21.238,43.285
	c-0.435,0-0.871-0.162-1.203-0.485l-0.018-0.017c-0.665-0.646-0.665-1.695,0-2.342l0.927-0.902c0.332-0.323,0.768-0.485,1.203-0.485
	c0.436,0,0.871,0.162,1.203,0.485l0.018,0.017c0.664,0.647,0.664,1.695,0,2.342L22.441,42.8
	C22.109,43.124,21.673,43.285,21.238,43.285z M26.785,44.604c-0.447,0.549-1.099,0.824-1.751,0.824
	c-0.571,0-1.142-0.211-1.575-0.632l-0.172-0.167c0.202-0.131,0.392-0.282,0.567-0.453l0.926-0.902
	c0.652-0.635,1.007-1.451,1.069-2.284l0.713,0.693C27.369,42.468,27.493,43.733,26.785,44.604z M43.765,31.104
	c0.928,0.903,0.862,2.421-0.197,3.237c-0.397,0.306-0.872,0.452-1.35,0.452c-0.6,0-1.202-0.231-1.652-0.669l-8.078-7.862
	c-0.21-0.204-0.485-0.306-0.759-0.306c-0.275,0-0.55,0.102-0.759,0.306l0,0c-0.425,0.413-0.425,1.083,0,1.496l10.385,10.107
	c0.928,0.903,0.862,2.421-0.197,3.237c-0.397,0.306-0.873,0.452-1.35,0.452c-0.6,0-1.202-0.232-1.652-0.669L27.82,30.826
	c-0.212-0.207-0.491-0.31-0.77-0.31c-0.278,0-0.557,0.104-0.77,0.31c-0.419,0.408-0.419,1.069,0,1.476l8.127,7.909
	c0.928,0.903,0.862,2.421-0.197,3.237c-0.397,0.305-0.872,0.451-1.349,0.451c-0.6,0-1.202-0.231-1.652-0.669l-8.398-8.173
	c-0.148-0.644-0.475-1.257-0.989-1.756l-0.018-0.018c-0.58-0.564-1.318-0.914-2.116-1.018c0.159-0.405,0.245-0.838,0.245-1.284
	c0-0.962-0.385-1.866-1.083-2.546c-0.002-0.002-0.004-0.004-0.006-0.006l-0.016-0.015c-0.698-0.678-1.626-1.051-2.612-1.051
	c-0.654,0-1.28,0.167-1.831,0.475c-0.158-0.629-0.485-1.208-0.967-1.679l-0.012-0.012c-0.004-0.004-0.009-0.008-0.013-0.013
	c-0.699-0.68-1.628-1.055-2.616-1.055s-1.917,0.375-2.616,1.055L8.155,26.14c-0.129-0.391-0.238-0.778-0.324-1.16
	c-0.031-0.134-0.088-0.259-0.174-0.368L2.46,18.967c-0.286-0.362-0.252-0.874,0.079-1.197L14.121,6.48
	c0.182-0.177,0.421-0.267,0.662-0.267c0.217,0,0.434,0.073,0.61,0.22l0.092,0.083C14.71,7.259,14.227,8.29,14.227,9.43
	c0,2.251,1.878,4.083,4.189,4.091l7.378,0.091L43.765,31.104z"/>
</svg>
