<?xml version="1.0" encoding="utf-8"?>
<!-- Generator: Adobe Illustrator 17.0.0, SVG Export Plug-In . SVG Version: 6.00 Build 0)  -->
<!DOCTYPE svg PUBLIC "-//W3C//DTD SVG 1.1//EN" "http://www.w3.org/Graphics/SVG/1.1/DTD/svg11.dtd">
<svg version="1.1" id="Capa_1" xmlns="http://www.w3.org/2000/svg" xmlns:xlink="http://www.w3.org/1999/xlink" x="0px" y="0px"
	 width="50px" height="50px" viewBox="0 0 50 50" enable-background="new 0 0 50 50" xml:space="preserve">
<g>
	<path fill="#FD7FB4" d="M3.785,16.417c0,1.777,1.519,3.278,3.318,3.278h13.004c1.86,0,3.318-1.44,3.318-3.278v-2.332h8.435
		c0.605,0,1.098-0.477,1.098-1.064s-0.493-1.064-1.098-1.064h-8.435v-2.25c0-1.838-1.458-3.277-3.318-3.277H7.096
		c-1.86,0-3.318,1.439-3.318,3.277V12.2l0.007,2.079V16.417z M5.904,9.703c0.01-0.669,0.545-1.212,1.192-1.212h13.011
		c0.646,0,1.192,0.558,1.192,1.219v6.702c0,0.661-0.546,1.218-1.192,1.218H7.096c-0.646,0-1.192-0.558-1.192-1.218
		C5.904,16.412,5.904,9.703,5.904,9.703z"/>
	<path fill="#FD7FB4" d="M11.201,13.748c0-1.19-0.957-2.154-2.138-2.154s-2.138,0.964-2.138,2.154v1.05H11.2v-1.05H11.201z"/>
	<path fill="#FD7FB4" d="M19.137,13.748c0-1.19-0.957-2.154-2.138-2.154c-1.18,0-2.138,0.964-2.138,2.154v1.05h4.275v-1.05H19.137z"
		/>
	<path fill="#FD7FB4" d="M32.997,21.656h9.309c0.138-0.234,0.218-0.504,0.218-0.793c0-0.898-0.763-1.626-1.706-1.626h-1.461V2.751
		c0-0.898-0.764-1.626-1.706-1.626s-1.706,0.728-1.706,1.626v16.486h-1.461c-0.943,0-1.706,0.728-1.706,1.626
		C32.778,21.152,32.858,21.422,32.997,21.656z"/>
	<path fill="#FD7FB4" d="M1.125,22.844v19.643c0,3.528,3,6.388,6.701,6.388h34.347c3.701,0,6.702-2.86,6.702-6.388V22.844H1.125z
		 M46.53,41.338c0,3.193-2.716,5.781-6.067,5.781H9.37c-3.351,0-6.067-2.588-6.067-5.781V25H46.53V41.338z"/>
	<path fill="#FD7FB4" d="M8.916,44.084h3.351c0.925,0,1.676-0.715,1.676-1.597v-0.08c0-0.882-0.75-1.597-1.676-1.597H8.916
		c-0.926,0-1.675,0.715-1.675,1.597v0.08C7.24,43.369,7.99,44.084,8.916,44.084z"/>
	<path fill="#FD7FB4" d="M27.848,44.084h3.351c0.925,0,1.675-0.715,1.675-1.597v-0.08c0-0.882-0.75-1.597-1.675-1.597h-3.351
		c-0.926,0-1.676,0.715-1.676,1.597v0.08C26.173,43.369,26.923,44.084,27.848,44.084z"/>
	<path fill="#FD7FB4" d="M18.382,44.084h3.35c0.925,0,1.676-0.715,1.676-1.597v-0.08c0-0.882-0.75-1.597-1.676-1.597h-3.35
		c-0.926,0-1.676,0.715-1.676,1.597v0.08C16.707,43.369,17.457,44.084,18.382,44.084z"/>
</g>
</svg>
