<?xml version="1.0" encoding="utf-8"?>
<!-- Generator: Adobe Illustrator 17.0.0, SVG Export Plug-In . SVG Version: 6.00 Build 0)  -->
<!DOCTYPE svg PUBLIC "-//W3C//DTD SVG 1.1//EN" "http://www.w3.org/Graphics/SVG/1.1/DTD/svg11.dtd">
<svg version="1.1" id="Capa_1" xmlns="http://www.w3.org/2000/svg" xmlns:xlink="http://www.w3.org/1999/xlink" x="0px" y="0px"
	 width="50px" height="50px" viewBox="0 0 50 50" enable-background="new 0 0 50 50" xml:space="preserve">
<path fill-rule="evenodd" clip-rule="evenodd" fill="#2162B1" d="M46.46,38.659H3.54c-0.492,0-0.891-0.414-0.891-0.925V12.266
	c0-0.511,0.399-0.925,0.891-0.925H46.46c0.492,0,0.891,0.414,0.891,0.925v25.467C47.351,38.245,46.952,38.659,46.46,38.659z
	 M32.596,14.718v-0.903v-0.624H4.43v23.616h28.166V14.718z M45.57,13.192H34.377v0.624v0.903v20.563c0,0,0,0,0,0v1.526H45.57V13.192
	z M36.863,21.445h6.309c0.492,0,0.89,0.414,0.89,0.925c0,0.511-0.399,0.925-0.89,0.925h-6.309c-0.492,0-0.89-0.414-0.89-0.925
	C35.973,21.859,36.371,21.445,36.863,21.445z M43.173,17.209h-6.309c-0.492,0-0.891-0.414-0.891-0.925s0.399-0.925,0.891-0.925
	h6.309c0.492,0,0.89,0.414,0.89,0.925S43.664,17.209,43.173,17.209z M7.538,15.45c0.492,0,0.89,0.414,0.89,0.925v17.249
	c0,0.511-0.399,0.925-0.89,0.925c-0.492,0-0.891-0.414-0.891-0.925V16.376C6.648,15.865,7.046,15.45,7.538,15.45z M14.203,20.337
	c2.206,0,4.001,1.865,4.001,4.158s-1.795,4.158-4.001,4.158s-4.001-1.865-4.001-4.158S11.997,20.337,14.203,20.337z M14.203,26.801
	c1.224,0,2.22-1.035,2.22-2.307c0-1.272-0.996-2.307-2.22-2.307c-1.224,0-2.22,1.035-2.22,2.307
	C11.983,25.766,12.979,26.801,14.203,26.801z M20.601,24.585h8.264c0.492,0,0.891,0.414,0.891,0.925
	c0,0.511-0.399,0.925-0.891,0.925h-8.264c-0.492,0-0.891-0.414-0.891-0.925C19.711,24.999,20.109,24.585,20.601,24.585z
	 M28.821,23.48h-8.175c-0.492,0-0.891-0.414-0.891-0.925c0-0.511,0.399-0.925,0.891-0.925h8.175c0.492,0,0.89,0.414,0.89,0.925
	C29.712,23.066,29.313,23.48,28.821,23.48z"/>
</svg>
