<?xml version="1.0" encoding="utf-8"?>
<!-- Generator: Adobe Illustrator 17.0.0, SVG Export Plug-In . SVG Version: 6.00 Build 0)  -->
<!DOCTYPE svg PUBLIC "-//W3C//DTD SVG 1.1//EN" "http://www.w3.org/Graphics/SVG/1.1/DTD/svg11.dtd">
<svg version="1.1" id="Capa_1" xmlns="http://www.w3.org/2000/svg" xmlns:xlink="http://www.w3.org/1999/xlink" x="0px" y="0px"
	 width="50px" height="50px" viewBox="0 0 50 50" enable-background="new 0 0 50 50" xml:space="preserve">
<path fill="#92BF4C" d="M47.128,32.211l-8.394,1.388c-0.719,0.115-1.349-0.374-1.459-1.086l2.036-3.485
	c7.105-9.384,1.322-17.269-1.552-19.645c-5.886-4.94-14.782-4.238-19.774,1.593c-0.493,0.555-1.285,0.605-1.846,0.118
	c-0.56-0.488-0.611-1.273-0.118-1.828c5.914-6.937,16.495-7.778,23.468-1.893c7.97,6.73,6.963,17.943,1.952,23.17l5.256-0.866
	c0.725-0.11,1.485,0.416,1.537,1.213C48.275,31.545,47.783,32.106,47.128,32.211z M28.731,25.345h-7.955
	c0.086-0.795,0.345-1.549,0.775-2.261c0.431-0.712,1.281-1.656,2.552-2.833c1.023-0.951,1.65-1.596,1.882-1.934
	c0.312-0.468,0.468-0.929,0.468-1.386c0-0.505-0.136-0.893-0.408-1.165s-0.647-0.407-1.127-0.407c-0.474,0-0.851,0.142-1.131,0.427
	c-0.28,0.285-0.442,0.758-0.485,1.419l-2.261-0.226c0.134-1.246,0.557-2.141,1.268-2.684s1.599-0.814,2.665-0.814
	c1.168,0,2.086,0.314,2.754,0.943c0.667,0.629,1.001,1.41,1.001,2.345c0,0.532-0.096,1.038-0.287,1.519s-0.494,0.985-0.908,1.511
	c-0.275,0.349-0.77,0.852-1.486,1.507c-0.716,0.656-1.17,1.091-1.361,1.306s-0.346,0.425-0.464,0.629h4.506v2.104H28.731z
	 M35.129,25.345v-2.377h-4.846v-1.983l5.137-7.503h1.906v7.495h1.47v1.991h-1.47v2.377C37.326,25.345,35.129,25.345,35.129,25.345z
	 M35.129,16.939l-2.722,4.038h2.722V16.939z M17.208,20.888l-2.202,2.18c0.955,1.703,2.262,3.948,4.617,6.283
	c2.358,2.337,4.63,3.632,6.339,4.574l2.2-2.179c0.807-0.8,1.874-1.241,3.004-1.241c1.086,0,2.102,0.412,2.861,1.16l5.65,5.602
	c1.496,1.488,1.501,3.894,0.014,5.723c-1.148,1.411-2.72,3.343-7.11,3.853c-0.075,0.009-0.356,0.037-0.822,0.037
	c-2.239,0-10.275-0.725-19.689-10.052C3.642,28.473,0.723,22.557,1.993,16.408C2.9,12.015,5.335,9.885,5.82,9.498
	c0.802-0.767,1.847-1.189,2.952-1.189c1.089,0,2.105,0.414,2.862,1.166l5.649,5.599C18.878,16.654,18.845,19.262,17.208,20.888z
	 M15.568,16.774l-5.65-5.6c-0.3-0.298-0.706-0.461-1.145-0.461c-0.482,0-0.941,0.192-1.292,0.539l-0.064,0.063l-0.073,0.053
	c-0.082,0.062-2.183,1.69-2.974,5.522c-1.084,5.249,1.643,10.533,9.415,18.238c8.754,8.673,15.97,9.348,17.974,9.348
	c0.352,0,0.538-0.021,0.54-0.021c3.406-0.396,4.425-1.648,5.504-2.975c0.579-0.711,0.875-1.802,0.158-2.516l-5.647-5.598
	c-0.299-0.295-0.707-0.458-1.147-0.458c-0.482,0-0.939,0.191-1.288,0.536l-2.337,2.315c-0.385,0.434-0.906,0.672-1.473,0.672
	c-0.48,0-0.864-0.173-1.049-0.277c-1.856-1.02-4.401-2.419-7.11-5.104c-2.718-2.695-4.131-5.221-5.162-7.065
	c-0.358-0.623-0.434-1.581,0.215-2.289l0.041-0.043l2.49-2.465C16.183,18.501,16.218,17.418,15.568,16.774z"/>
</svg>
