<?xml version="1.0" encoding="utf-8"?>
<!-- Generator: Adobe Illustrator 17.0.0, SVG Export Plug-In . SVG Version: 6.00 Build 0)  -->
<!DOCTYPE svg PUBLIC "-//W3C//DTD SVG 1.1//EN" "http://www.w3.org/Graphics/SVG/1.1/DTD/svg11.dtd">
<svg version="1.1" id="Capa_1" xmlns="http://www.w3.org/2000/svg" xmlns:xlink="http://www.w3.org/1999/xlink" x="0px" y="0px"
	 width="50px" height="50px" viewBox="0 0 50 50" enable-background="new 0 0 50 50" xml:space="preserve">
<g>
	<path fill="#92BF4C" d="M45.629,4.488H4.371c-0.599,0-1.09,0.483-1.09,1.075v31.38c0,0.591,0.49,1.075,1.09,1.075H23.91v5.346
		h-7.736c-0.599,0-1.09,0.483-1.09,1.075c0,0.591,0.49,1.075,1.09,1.075h17.651c0.599,0,1.09-0.484,1.09-1.075
		s-0.49-1.075-1.09-1.075h-7.736v-5.346h19.539c0.599,0,1.09-0.483,1.09-1.075V5.563C46.718,4.971,46.237,4.488,45.629,4.488z
		 M44.549,35.868h-0.01H5.461V6.638h39.087L44.549,35.868L44.549,35.868z"/>
	<path fill="#92BF4C" d="M11.394,17.08c0.176,0.631,0.441,1.333,0.794,2.108c0.352,0.775,0.818,1.619,1.398,2.532
		c0.579,0.912,1.31,1.869,2.192,2.868c1.109,1.289,2.154,2.303,3.136,3.042s1.862,1.293,2.635,1.663
		c0.775,0.37,1.43,0.601,1.965,0.695c0.536,0.094,0.923,0.141,1.162,0.141c0.101,0,0.182-0.003,0.245-0.01
		c0.063-0.008,0.101-0.01,0.113-0.01c0.176-0.029,0.356-0.094,0.538-0.195c0.183-0.101,0.331-0.225,0.444-0.369l2.513-2.868
		c0.214-0.247,0.303-0.537,0.264-0.869c-0.051-0.291-0.208-0.529-0.473-0.717l-3.647-2.477h-0.019
		c-0.126-0.087-0.296-0.131-0.51-0.131c-0.303,0-0.567,0.116-0.794,0.347l-1.077,1.261c-0.025,0.029-0.066,0.054-0.123,0.076
		s-0.098,0.032-0.123,0.032l-0.236-0.054c-0.157-0.037-0.384-0.141-0.68-0.315s-0.665-0.446-1.105-0.815
		c-0.441-0.369-0.945-0.887-1.511-1.554c-0.579-0.652-1.027-1.227-1.342-1.727c-0.315-0.499-0.548-0.923-0.699-1.271
		c-0.176-0.391-0.29-0.739-0.34-1.042c0-0.044,0.01-0.098,0.029-0.163s0.041-0.113,0.066-0.141l0.926-1.064
		c0.164-0.188,0.271-0.42,0.321-0.695c0.051-0.275,0.019-0.529-0.094-0.761l-2.019-4.413c-0.088-0.16-0.195-0.293-0.321-0.402
		c-0.126-0.108-0.27-0.163-0.434-0.163c-0.227,0-0.428,0.102-0.605,0.304l-2.512,2.89c-0.126,0.131-0.233,0.301-0.321,0.51
		c-0.088,0.21-0.145,0.416-0.17,0.619c0,0.029-0.006,0.174-0.019,0.434c-0.012,0.261,0.012,0.619,0.076,1.076
		C11.098,15.906,11.217,16.45,11.394,17.08z"/>
	<polygon fill="#92BF4C" points="36.498,27.564 38.202,26.762 36.192,22.351 39.053,21.154 31.387,14.744 31.387,24.359 
		34.457,23.075 	"/>
</g>
</svg>
