<?xml version="1.0" encoding="utf-8"?>
<!-- Generator: Adobe Illustrator 17.0.0, SVG Export Plug-In . SVG Version: 6.00 Build 0)  -->
<!DOCTYPE svg PUBLIC "-//W3C//DTD SVG 1.1//EN" "http://www.w3.org/Graphics/SVG/1.1/DTD/svg11.dtd">
<svg version="1.1" id="Capa_1" xmlns="http://www.w3.org/2000/svg" xmlns:xlink="http://www.w3.org/1999/xlink" x="0px" y="0px"
	 width="50px" height="50px" viewBox="0 0 50 50" enable-background="new 0 0 50 50" xml:space="preserve">
<path fill="#FBC932" d="M45.027,11.892V8.913l-0.394-0.169c-0.135-0.058-3.354-1.416-7.65-1.416c-4.601,0-8.565,1.525-11.789,4.531
	c-3.225-3.007-7.189-4.531-11.788-4.531c-4.297,0-7.515,1.358-7.65,1.416L5.361,8.913v2.759C4.06,11.935,3.25,12.41,3.25,13.182
	c0,4.023,0,28.431,0,28.431s4.987-2.061,9.886-2.061c4.729,0,9.376,2.061,9.376,2.061c0.666,0.649,1.641,1.058,2.73,1.058
	c1.089,0,2.062-0.409,2.729-1.058c0,0,5.313-2.061,9.88-2.061c4.816,0,8.898,2.061,8.898,2.061s0-27.019,0-28.431
	C46.75,12.553,46.094,12.145,45.027,11.892z M24.986,39.373c-1.6-0.718-7.108-2.993-12.624-2.993c-2.179,0-4.11,0.361-5.757,1.08
	V9.854h0.002c0.961-0.349,3.576-1.171,6.799-1.171c4.235,0,7.875,1.394,10.847,4.106v16.479l0.733-0.879V39.373z M43.781,37.468
	c-1.767-0.772-3.795-1.162-6.043-1.162c-5.513,0-10.759,2.297-12.336,3.053V28.39l0.735,0.879V12.791
	c2.97-2.714,6.61-4.106,10.847-4.106c3.21,0,5.835,0.825,6.798,1.171v27.612H43.781z"/>
</svg>
