<?xml version="1.0" encoding="utf-8"?>
<!-- Generator: Adobe Illustrator 17.0.0, SVG Export Plug-In . SVG Version: 6.00 Build 0)  -->
<!DOCTYPE svg PUBLIC "-//W3C//DTD SVG 1.1//EN" "http://www.w3.org/Graphics/SVG/1.1/DTD/svg11.dtd">
<svg version="1.1" id="Capa_1" xmlns="http://www.w3.org/2000/svg" xmlns:xlink="http://www.w3.org/1999/xlink" x="0px" y="0px"
	 width="50px" height="50px" viewBox="0 0 50 50" enable-background="new 0 0 50 50" xml:space="preserve">
<path fill="#45BAEE" d="M43.323,41.239C47.162,36.913,49.5,31.226,49.5,25c0-6.477-2.531-12.371-6.65-16.756V8.243
	c-0.003-0.005-0.009-0.007-0.011-0.011c-4.291-4.561-10.303-7.481-16.99-7.71l-0.001-0.001l-0.477-0.012
	C25.248,0.504,25.124,0.5,25,0.5s-0.247,0.004-0.371,0.009l-0.476,0.012l-0.001,0.001c-6.687,0.229-12.699,3.149-16.989,7.71
	C7.16,8.236,7.155,8.238,7.152,8.243c0,0,0,0.001-0.001,0.002C3.031,12.629,0.5,18.523,0.5,25c0,6.226,2.339,11.913,6.177,16.239
	c0.005,0.008,0.005,0.016,0.011,0.024c0.015,0.021,0.037,0.031,0.053,0.05c4.314,4.822,10.503,7.929,17.41,8.166l0.001,0.001
	l0.476,0.012C24.752,49.496,24.876,49.5,25,49.5s0.248-0.004,0.371-0.008l0.476-0.012l0.001-0.001
	c6.915-0.237,13.111-3.349,17.425-8.182c0.011-0.014,0.029-0.018,0.039-0.034C43.318,41.256,43.318,41.247,43.323,41.239z
	 M2.211,25.845h10.141c0.095,3.581,0.795,7.061,2.04,10.321c-2.402,0.869-4.7,2.035-6.852,3.49
	C4.374,35.891,2.403,31.091,2.211,25.845z M8.001,9.812c2.102,1.367,4.34,2.462,6.674,3.28c-1.429,3.47-2.22,7.211-2.323,11.063
	H2.211C2.413,18.658,4.565,13.652,8.001,9.812z M47.789,24.155h-10.14c-0.103-3.853-0.894-7.594-2.323-11.063
	c2.334-0.818,4.572-1.913,6.674-3.28C45.435,13.652,47.587,18.658,47.789,24.155z M24.155,13.141
	c-2.442-0.069-4.84-0.433-7.156-1.084c1.713-3.513,4.13-6.683,7.156-9.323V13.141z M24.155,14.831v9.324H14.041
	c0.104-3.674,0.874-7.236,2.252-10.539C18.833,14.352,21.469,14.759,24.155,14.831z M25.845,14.831
	c2.686-0.072,5.322-0.478,7.863-1.215c1.378,3.303,2.148,6.866,2.252,10.539H25.845V14.831z M25.845,13.141V2.734
	c3.026,2.64,5.444,5.811,7.156,9.323C30.685,12.708,28.287,13.072,25.845,13.141z M34.639,11.544
	c-1.623-3.401-3.875-6.499-6.664-9.154c4.947,0.647,9.399,2.884,12.827,6.182C38.855,9.807,36.79,10.801,34.639,11.544z
	 M15.361,11.544c-2.152-0.743-4.217-1.737-6.162-2.971c3.428-3.298,7.88-5.535,12.827-6.182
	C19.237,5.045,16.984,8.143,15.361,11.544z M14.041,25.845h10.114v8.48c-2.794,0.074-5.531,0.51-8.162,1.302
	C14.805,32.539,14.136,29.24,14.041,25.845z M24.155,36.015v11.251c-3.239-2.826-5.779-6.259-7.505-10.068
	C19.072,36.485,21.588,36.088,24.155,36.015z M25.845,47.266V36.015c2.567,0.072,5.083,0.469,7.506,1.182
	C31.623,41.007,29.084,44.441,25.845,47.266z M25.845,34.325v-8.48h10.114c-0.096,3.395-0.764,6.694-1.953,9.783
	C31.376,34.835,28.639,34.4,25.845,34.325z M37.649,25.845h10.14c-0.192,5.246-2.162,10.046-5.328,13.811
	c-2.153-1.455-4.449-2.621-6.852-3.49C36.854,32.906,37.553,29.426,37.649,25.845z M8.687,40.922
	c1.999-1.328,4.127-2.396,6.351-3.194c1.643,3.683,4.002,7.04,6.988,9.883C16.829,46.93,12.178,44.497,8.687,40.922z M27.975,47.61
	c2.986-2.842,5.344-6.199,6.987-9.883c2.224,0.798,4.351,1.866,6.351,3.194C37.822,44.497,33.171,46.93,27.975,47.61z"/>
</svg>
