<?xml version="1.0" encoding="utf-8"?>
<!-- Generator: Adobe Illustrator 17.0.0, SVG Export Plug-In . SVG Version: 6.00 Build 0)  -->
<!DOCTYPE svg PUBLIC "-//W3C//DTD SVG 1.1//EN" "http://www.w3.org/Graphics/SVG/1.1/DTD/svg11.dtd">
<svg version="1.1" id="Capa_1" xmlns="http://www.w3.org/2000/svg" xmlns:xlink="http://www.w3.org/1999/xlink" x="0px" y="0px"
	 width="50px" height="50px" viewBox="0 0 50 50" enable-background="new 0 0 50 50" xml:space="preserve">
<path fill="#FBC932" d="M44.285,36.226c-0.417,0.349-1.031,0.284-1.37-0.145s-0.277-1.06,0.141-1.409
	c2.462-2.06,3.874-5.111,3.874-8.371c0-5.741-4.371-10.465-9.95-10.756c-0.518-0.027-0.925-0.467-0.925-1
	c0-0.015,0.001-0.036,0.001-0.055C36.043,8.221,31.08,3.125,24.982,3.125c-6.097,0-11.059,5.095-11.074,11.362
	c0.001,0.02,0.002,0.039,0.002,0.059c0,0.532-0.405,0.972-0.922,1C7.427,15.855,3.07,20.579,3.07,26.301
	c0,5.947,4.704,10.785,10.487,10.785h1.545c0.538,0,0.974,0.448,0.974,1.002c0,0.553-0.436,1.001-0.974,1.001h-1.545
	c-6.857,0-12.435-5.737-12.435-12.788c0-6.477,4.704-11.875,10.866-12.672c0.445-6.973,6.103-12.507,12.994-12.507
	c6.89,0,12.547,5.531,12.994,12.502c6.182,0.78,10.902,6.18,10.902,12.677C48.878,30.167,47.204,33.784,44.285,36.226z
	 M24.293,13.399c0.38-0.391,0.997-0.391,1.378,0l5.571,5.73c0.381,0.391,0.381,1.026,0,1.417c-0.19,0.196-0.439,0.293-0.689,0.293
	s-0.499-0.098-0.689-0.293l-4.883-5.021l-4.882,5.021c-0.38,0.391-0.997,0.391-1.378,0c-0.38-0.391-0.38-1.026,0-1.417
	L24.293,13.399z M24.008,24.735V18.98c0-0.553,0.436-1.002,0.974-1.002c0.538,0,0.974,0.449,0.974,1.002v5.754
	c0,0.553-0.436,1.002-0.974,1.002C24.444,25.737,24.008,25.288,24.008,24.735z M19.2,36.102c1.044,0,1.956-0.581,2.325-1.482
	c0.386-0.945,0.146-2.044-0.597-2.735c-0.232-0.217-0.261-0.581-0.064-0.833c0.506-0.647,1.088-1.238,1.729-1.753
	c0.245-0.196,0.596-0.167,0.807,0.069c0.635,0.717,1.772,0.984,2.645,0.618c0.911-0.383,1.498-1.323,1.463-2.339
	c-0.011-0.319,0.219-0.592,0.529-0.627c0.801-0.091,1.606-0.088,2.404,0.006c0.313,0.037,0.543,0.318,0.524,0.64
	c-0.057,1.027,0.523,1.983,1.443,2.38c0.884,0.379,2.028,0.11,2.665-0.614c0.212-0.24,0.569-0.267,0.812-0.067
	c0.622,0.511,1.192,1.101,1.693,1.754c0.193,0.25,0.165,0.611-0.065,0.827c-0.73,0.687-0.97,1.777-0.597,2.711
	c0.364,0.912,1.233,1.502,2.213,1.502c0.303,0,0.653,0.231,0.687,0.54c0.09,0.83,0.089,1.669-0.005,2.493
	c-0.037,0.321-0.319,0.563-0.626,0.538l-0.132-0.004c-0.945,0-1.823,0.597-2.186,1.486c-0.387,0.945-0.145,2.044,0.599,2.735
	c0.233,0.216,0.261,0.582,0.064,0.833c-0.508,0.649-1.09,1.239-1.729,1.753c-0.246,0.195-0.596,0.166-0.807-0.069
	c-0.636-0.717-1.767-0.987-2.646-0.618c-0.91,0.382-1.498,1.322-1.462,2.338c0.01,0.319-0.219,0.593-0.529,0.628
	c-0.391,0.044-0.782,0.066-1.173,0.066c-0.412,0-0.823-0.024-1.231-0.073c-0.312-0.037-0.543-0.318-0.524-0.641
	c0.057-1.027-0.523-1.984-1.446-2.379c-0.881-0.379-2.024-0.111-2.664,0.615c-0.212,0.24-0.568,0.269-0.813,0.066
	c-0.624-0.515-1.194-1.106-1.69-1.755c-0.193-0.25-0.164-0.611,0.065-0.826c0.731-0.687,0.971-1.777,0.597-2.711
	c-0.375-0.936-1.268-1.527-2.199-1.502c-0.306,0-0.667-0.23-0.701-0.539c-0.09-0.83-0.09-1.67,0.005-2.493
	C18.62,36.324,18.861,36.091,19.2,36.102z M29.214,41.595c1.965,0,3.564-1.64,3.564-3.657c0-2.016-1.599-3.656-3.564-3.656
	c-1.966,0-3.564,1.64-3.564,3.656C25.649,39.955,27.248,41.595,29.214,41.595z"/>
</svg>
