<?xml version="1.0" encoding="utf-8"?>
<!-- Generator: Adobe Illustrator 17.0.0, SVG Export Plug-In . SVG Version: 6.00 Build 0)  -->
<!DOCTYPE svg PUBLIC "-//W3C//DTD SVG 1.1//EN" "http://www.w3.org/Graphics/SVG/1.1/DTD/svg11.dtd">
<svg version="1.1" id="Capa_1" xmlns="http://www.w3.org/2000/svg" xmlns:xlink="http://www.w3.org/1999/xlink" x="0px" y="0px"
	 width="50px" height="50px" viewBox="0 0 50 50" enable-background="new 0 0 50 50" xml:space="preserve">
<path fill="#45BAEE" d="M48.637,25.761l-6.077,6.077v9.624c0,0.606-0.492,1.097-1.098,1.097h-9.623l-6.077,6.076
	c-0.42,0.422-1.102,0.422-1.524,0l-6.076-6.076H8.539c-0.606,0-1.098-0.492-1.098-1.097v-9.624l-6.077-6.077
	c-0.421-0.421-0.421-1.104,0-1.524l6.077-6.077V8.538c0-0.607,0.492-1.097,1.098-1.097h9.622l6.076-6.077
	c0.421-0.421,1.103-0.421,1.524,0l6.077,6.077h9.623c0.606,0,1.098,0.491,1.098,1.097v9.621l6.077,6.077
	C49.057,24.657,49.057,25.34,48.637,25.761z M40.364,18.636v-9h-9.001l-6.19-6.191l-6.189,6.191H9.637v9.348L3.619,25l6.017,6.016
	v9.348h9.348l6.189,6.191l6.19-6.191h9.001v-9L46.728,25L40.364,18.636z M16.701,34.502c-0.486,0.499-1.272,0.499-1.757,0
	c-0.486-0.5-0.486-1.307,0-1.806l17.815-17.738c0.486-0.5,1.271-0.5,1.757,0c0.485,0.5,0.485,1.308,0,1.806L16.701,34.502z
	 M19.136,23.356c-2.093,0-3.79-1.743-3.79-3.892c0-2.15,1.696-3.893,3.79-3.893c2.092,0,3.789,1.743,3.789,3.893
	C22.925,21.613,21.228,23.356,19.136,23.356z M30.615,26.452c2.092,0,3.79,1.743,3.79,3.893c0,2.149-1.696,3.892-3.79,3.892
	c-2.093,0-3.789-1.743-3.789-3.892C26.826,28.195,28.522,26.452,30.615,26.452z"/>
</svg>
