<?xml version="1.0" encoding="utf-8"?>
<!-- Generator: Adobe Illustrator 17.0.0, SVG Export Plug-In . SVG Version: 6.00 Build 0)  -->
<!DOCTYPE svg PUBLIC "-//W3C//DTD SVG 1.1//EN" "http://www.w3.org/Graphics/SVG/1.1/DTD/svg11.dtd">
<svg version="1.1" id="Capa_1" xmlns="http://www.w3.org/2000/svg" xmlns:xlink="http://www.w3.org/1999/xlink" x="0px" y="0px"
	 width="50px" height="50px" viewBox="0 0 50 50" enable-background="new 0 0 50 50" xml:space="preserve">
<g>
	<path fill="#2162B1" d="M6.13,32.959c-2.087-5.132-2.087-10.785,0-15.917c1.754-4.312,4.804-7.822,8.722-10.095v6.962h3.369V2.487
		H7.008v3.432h3.326C2.136,12.457-1.157,24.006,3.018,34.272c1.591,3.912,4.163,7.339,7.438,9.91
		c3.175,2.492,6.948,4.141,10.911,4.767l0.517-3.391C14.77,44.433,8.881,39.723,6.13,32.959z"/>
	<path fill="#2162B1" d="M46.969,34.272c2.432-5.979,2.432-12.565,0-18.544c-1.591-3.912-4.163-7.339-7.438-9.909
		c-3.175-2.493-6.948-4.141-10.911-4.767l-0.516,3.391c7.113,1.124,13.002,5.834,15.753,12.599c2.087,5.132,2.087,10.785,0,15.918
		c-1.753,4.312-4.804,7.822-8.722,10.095v-6.962h-3.369v11.422h11.213v-3.431h-3.311C42.863,41.541,45.376,38.19,46.969,34.272z"/>
	<path fill="#2162B1" d="M31.522,25.223c-1.059-0.881-2.646-1.534-4.774-2.083h-0.102v-5.483c1.486,0.218,2.759,0.767,4.031,1.648
		l1.802-2.633c-1.802-1.327-3.817-2.094-5.833-2.197V12.94h-1.802v1.316c-1.802,0.114-3.288,0.653-4.459,1.752
		c-1.17,1.099-1.7,2.519-1.7,4.167c0,1.752,0.53,2.965,1.486,3.835c0.957,0.881,2.545,1.534,4.662,2.084v5.701
		c-1.7-0.218-3.288-1.099-4.876-2.519l-2.015,2.519c2.015,1.866,4.346,2.965,6.891,3.182v2.083h1.802v-2.083
		c1.914-0.114,3.502-0.653,4.662-1.752c1.17-1.099,1.7-2.519,1.7-4.167C32.998,27.41,32.58,26.094,31.522,25.223z M24.742,22.59
		h-0.01c-1.059-0.331-1.7-0.767-2.117-1.099c-0.316-0.331-0.529-0.881-0.529-1.534c0-0.653,0.214-1.202,0.743-1.648
		c0.427-0.435,1.171-0.767,1.914-0.767V22.59z M28.763,31.027c-0.529,0.435-1.272,0.767-2.229,0.881v-5.266
		c1.171,0.332,1.914,0.653,2.331,1.099c0.428,0.435,0.641,0.985,0.641,1.648C29.506,30.043,29.293,30.592,28.763,31.027z"/>
</g>
</svg>
