<?xml version="1.0" encoding="utf-8"?>
<!-- Generator: Adobe Illustrator 17.0.0, SVG Export Plug-In . SVG Version: 6.00 Build 0)  -->
<!DOCTYPE svg PUBLIC "-//W3C//DTD SVG 1.1//EN" "http://www.w3.org/Graphics/SVG/1.1/DTD/svg11.dtd">
<svg version="1.1" id="Capa_1" xmlns="http://www.w3.org/2000/svg" xmlns:xlink="http://www.w3.org/1999/xlink" x="0px" y="0px"
	 width="50px" height="50px" viewBox="0 0 50 50" enable-background="new 0 0 50 50" xml:space="preserve">
<g>
	<path fill="#92BF4C" d="M25,0.23c-13.66,0-24.77,11.11-24.77,24.772C0.23,38.66,11.34,49.77,25,49.77
		c0.845,0,1.527-0.682,1.527-1.526c0-0.848-0.682-1.532-1.527-1.532c-11.975,0-21.714-9.742-21.714-21.711
		C3.286,13.027,13.025,3.286,25,3.286s21.713,9.742,21.713,21.716c0,5.003-2.663,9.961-6.474,12.063
		c-1.385,0.761-2.886,1.139-4.488,1.154c0.962-0.572,1.794-1.345,2.413-2.319c0.121-0.184,0.282-0.346,0.361-0.544
		c0.497-1.197,0.541-2.554,0.842-3.819c0.369-1.614-7.064-4.767-7.71-2.751c-0.234,0.746-0.591,3.106-1.06,3.728
		c-0.417,0.555-1.445,0.291-2.088-0.255c-1.694-1.444-3.585-3.565-5.244-5.243l0.003-0.002c-0.042-0.044-0.094-0.093-0.14-0.14
		c-0.047-0.044-0.094-0.094-0.141-0.14v0.003c-1.677-1.662-3.801-3.549-5.243-5.246c-0.546-0.643-0.81-1.671-0.255-2.088
		c0.622-0.472,2.982-0.823,3.728-1.06c2.011-0.643-1.137-8.08-2.754-7.71c-1.262,0.296-2.619,0.344-3.816,0.839
		c-0.203,0.086-0.361,0.243-0.544,0.364c-4.245,2.69-4.792,9.224-0.649,14.092c1.579,1.862,3.226,3.664,4.921,5.423l-0.009,0.006
		c0.047,0.047,0.096,0.091,0.144,0.136c0.045,0.047,0.089,0.094,0.133,0.144l0.009-0.009c1.759,1.696,3.844,4.193,7.232,6.453
		c7.132,4.764,12.606,3.433,15.83,1.665c5.566-3.065,8.056-9.612,8.056-14.739C49.77,11.34,38.658,0.23,25,0.23z"/>
</g>
</svg>
