<?xml version="1.0" encoding="utf-8"?>
<!-- Generator: Adobe Illustrator 17.0.0, SVG Export Plug-In . SVG Version: 6.00 Build 0)  -->
<!DOCTYPE svg PUBLIC "-//W3C//DTD SVG 1.1//EN" "http://www.w3.org/Graphics/SVG/1.1/DTD/svg11.dtd">
<svg version="1.1" id="Capa_1" xmlns="http://www.w3.org/2000/svg" xmlns:xlink="http://www.w3.org/1999/xlink" x="0px" y="0px"
	 width="50px" height="50px" viewBox="0 0 50 50" enable-background="new 0 0 50 50" xml:space="preserve">
<path fill="#FD7FB4" d="M41.634,47.333c-0.683,0-1.237-0.62-1.237-1.383V24.925c0-2.701-2.045-4.899-4.56-4.899
	c-2.514,0-4.559,2.198-4.559,4.899V39.66c0,4.23-3.156,7.673-7.036,7.673h-3.186c-1.878,0-3.644-0.812-4.971-2.286
	c-0.836-0.924-1.451-2.063-1.778-3.297l-0.099-0.372h-3.06c-2.256,0-4.023-1.934-4.023-4.402v-17.26
	c0-2.468,1.767-4.402,4.023-4.402h2.762V4.124c0-0.803,0.586-1.457,1.306-1.457c0.72,0,1.306,0.654,1.306,1.457v11.19h2.863
	c2.256,0,4.023,1.934,4.023,4.402v17.251c0,2.387-1.842,4.402-4.023,4.402H16.76l0.407,0.741c0.83,1.51,2.323,2.448,3.898,2.448
	h3.186c2.514,0,4.559-2.197,4.559-4.898V24.925c0-4.231,3.156-7.673,7.036-7.673c1.764,0,3.452,0.718,4.753,2.022
	c1.449,1.452,2.278,3.511,2.273,5.649V45.95C42.872,46.713,42.316,47.333,41.634,47.333z M11.15,18.135
	c-0.811,0-1.496,0.724-1.496,1.581v17.26c0,0.858,0.667,1.567,1.488,1.581h8.236c0.811,0,1.496-0.724,1.496-1.581v-17.26
	c0-0.857-0.685-1.581-1.496-1.581C19.378,18.135,11.15,18.135,11.15,18.135z"/>
</svg>
