<?xml version="1.0" encoding="utf-8"?>
<!-- Generator: Adobe Illustrator 17.0.0, SVG Export Plug-In . SVG Version: 6.00 Build 0)  -->
<!DOCTYPE svg PUBLIC "-//W3C//DTD SVG 1.1//EN" "http://www.w3.org/Graphics/SVG/1.1/DTD/svg11.dtd">
<svg version="1.1" id="Capa_1" xmlns="http://www.w3.org/2000/svg" xmlns:xlink="http://www.w3.org/1999/xlink" x="0px" y="0px"
	 width="50px" height="50px" viewBox="0 0 50 50" enable-background="new 0 0 50 50" xml:space="preserve">
<path fill="#FBC932" d="M42.1,19.188v-1.866c0-4.466-1.512-8.616-4.254-11.696C35.037,2.464,31.174,0.73,26.96,0.73h-1.473
	c-4.214,0-10.504,1.734-13.314,4.895c-2.741,3.08-4.254,7.23-4.254,11.696v1.866c-3.327,0.234-5.97,3.131-5.97,6.669v2.916
	c0,3.681,2.868,6.679,6.39,6.679h3.6c0.644,0,1.171-0.551,1.171-1.224V20.391c0-0.673-0.527-1.224-1.171-1.224H10.26v-1.846
	c0-8.066,7.929-14.143,15.216-14.143h1.473c7.297,0,12.79,6.077,12.79,14.143v1.846h-1.678c-0.644,0-1.171,0.551-1.171,1.224v13.828
	c0,0.673,0.527,1.224,1.171,1.224H39.7c-0.478,6.383-4.683,7.862-6.634,8.199c-0.537-1.724-2.088-2.967-3.912-2.967h-2.927
	c-2.263,0-4.107,1.928-4.107,4.293c0,2.366,1.844,4.303,4.107,4.303h2.936c1.893,0,3.483-1.346,3.961-3.161
	c0.956-0.143,2.468-0.499,3.971-1.417c2.117-1.295,4.624-3.936,4.956-9.259c3.346-0.214,5.999-3.12,5.999-6.669v-2.916
	C48.061,22.318,45.427,19.412,42.1,19.188z"/>
</svg>
