<?xml version="1.0" encoding="utf-8"?>
<!-- Generator: Adobe Illustrator 17.0.0, SVG Export Plug-In . SVG Version: 6.00 Build 0)  -->
<!DOCTYPE svg PUBLIC "-//W3C//DTD SVG 1.1//EN" "http://www.w3.org/Graphics/SVG/1.1/DTD/svg11.dtd">
<svg version="1.1" id="Capa_1" xmlns="http://www.w3.org/2000/svg" xmlns:xlink="http://www.w3.org/1999/xlink" x="0px" y="0px"
	 width="50px" height="50px" viewBox="0 0 50 50" enable-background="new 0 0 50 50" xml:space="preserve">
<path fill="#92BF4C" d="M45.469,26.282c-1.321,5.849-9.059,7.321-16.87,7.611l2.08,12.122c0.088,0.819,0.165,1.837,0.165,1.837
	c-3.973,0.005-7.948,0.088-11.92,0.247c0,0,0.162-0.606,0.341-1.854l1.307-12.387c-4.692-0.227-9.276-0.924-12.37-2.785
	c-0.909-0.641-1.169-0.805-1.952-1.552c-1.21-1.294-1.916-2.957-1.916-5.091c0-3.856,2.278-9.434,5.67-13.881
	C15.454,3.402,21.167,1.902,25,1.902s9.546,1.5,14.997,8.647c3.391,4.447,5.67,10.025,5.67,13.881c0,0.001,0,0.003,0,0.004
	L45.469,26.282z M27.193,46.041l-2.074-12.088c-0.04,0-0.08,0-0.119,0c-0.317,0-0.636-0.001-0.956-0.004l-1.285,12.179
	C24.237,46.089,25.715,46.06,27.193,46.041z M37.772,11.236C34.192,6.541,28.791,3.739,25,3.739c-8.526,0-18.19,13.275-18.19,20.691
	c0,3.058,2.566,5.111,5.789,6.278c2.38,0.862,5.8,1.31,10.667,1.393v-8.535l-8.73-2.944c-0.809-0.273-1.046-0.841-0.53-1.268
	s1.591-0.553,2.4-0.28l6.859,2.313v-3.73L18.179,12.6c-0.451-0.448-0.128-1.004,0.719-1.242s1.9-0.068,2.351,0.38l4.372,4.347
	l7.522-3.288c0.74-0.323,1.835-0.269,2.447,0.122s0.509,0.969-0.231,1.293l-8.618,3.767v6.055l9.841-3.917
	c0.767-0.305,1.857-0.224,2.434,0.181c0.578,0.405,0.425,0.981-0.342,1.286l-11.933,4.75v5.767c4.863-0.084,8.28-0.532,10.659-1.393
	c3.222-1.167,5.789-3.221,5.789-6.278C43.19,20.787,41.013,15.485,37.772,11.236z"/>
</svg>
