<?xml version="1.0" encoding="utf-8"?>
<!-- Generator: Adobe Illustrator 17.0.0, SVG Export Plug-In . SVG Version: 6.00 Build 0)  -->
<!DOCTYPE svg PUBLIC "-//W3C//DTD SVG 1.1//EN" "http://www.w3.org/Graphics/SVG/1.1/DTD/svg11.dtd">
<svg version="1.1" id="Capa_1" xmlns="http://www.w3.org/2000/svg" xmlns:xlink="http://www.w3.org/1999/xlink" x="0px" y="0px"
	 width="50px" height="50px" viewBox="0 0 50 50" enable-background="new 0 0 50 50" xml:space="preserve">
<path fill="#45BAEE" d="M47.155,13.797c-0.272-4.255-4.244-7.77-8.858-7.832L32.083,5.88c-3.893-0.052-10.26-0.057-14.151-0.002
	l-6.344,0.089C6.969,6.03,3.029,9.55,2.805,13.815l-0.018,0.344c-0.19,3.626-0.19,14.502,0,18.127l0.018,0.35
	c0.224,4.259,4.161,10.283,8.777,10.367l6.357,0.112c1.938,0.034,4.491,0.052,7.046,0.052c2.578,0,5.16-0.018,7.117-0.052
	l6.202-0.112c4.609-0.082,8.579-6.098,8.851-10.349l0.022-0.358c0.232-3.63,0.232-14.516,0-18.147L47.155,13.797z M44.361,32.144
	L44.339,32.5c-0.184,2.875-2.972,7.841-6.089,7.895l-6.202,0.113c-3.864,0.068-10.186,0.07-14.053,0l-6.357-0.113
	c-3.162-0.057-5.861-4.967-6.013-7.885l-0.018-0.35c-0.187-3.555-0.187-14.32,0-17.875l0.017-0.344
	c0.153-2.916,2.848-5.325,6.008-5.368l6.344-0.087c1.91-0.027,4.422-0.04,6.941-0.04c2.58,0,5.167,0.014,7.126,0.041l6.214,0.085
	c3.167,0.043,5.895,2.457,6.083,5.379l0.022,0.351C44.587,17.848,44.587,28.597,44.361,32.144z"/>
<path fill="#45BAEE" d="M25.779,21.153c0,1.607-1.371,2.903-3.082,2.903c-1.684,0-3.062-1.297-3.062-2.903
	c0-1.587,1.378-2.881,3.062-2.881C24.408,18.271,25.779,19.566,25.779,21.153L25.779,21.153z"/>
<path fill="#45BAEE" d="M32.851,21.153c0,1.607-1.377,2.903-3.064,2.903c-1.701,0-3.072-1.297-3.072-2.903
	c0-1.587,1.372-2.881,3.072-2.881C31.475,18.271,32.851,19.566,32.851,21.153L32.851,21.153z"/>
<path fill="#45BAEE" d="M39.941,21.153c0,1.607-1.375,2.903-3.066,2.903c-1.703,0-3.081-1.297-3.081-2.903
	c0-1.587,1.379-2.881,3.081-2.881C38.566,18.271,39.941,19.566,39.941,21.153L39.941,21.153z"/>
<path fill="#45BAEE" d="M32.862,27.817c0,1.607-1.376,2.903-3.066,2.903c-1.703,0-3.082-1.296-3.082-2.903
	c0-1.587,1.378-2.882,3.082-2.882C31.486,24.935,32.862,26.23,32.862,27.817L32.862,27.817z"/>
<path fill="#45BAEE" d="M18.691,21.153c0,1.607-1.376,2.903-3.073,2.903c-1.686,0-3.062-1.297-3.062-2.903
	c0-1.587,1.377-2.881,3.062-2.881C17.315,18.271,18.691,19.566,18.691,21.153L18.691,21.153z"/>
<path fill="#45BAEE" d="M25.782,27.817c0,1.607-1.376,2.903-3.066,2.903c-1.703,0-3.081-1.296-3.081-2.903
	c0-1.587,1.379-2.882,3.081-2.882C24.406,24.935,25.782,26.23,25.782,27.817L25.782,27.817z"/>
<path fill="#45BAEE" d="M18.702,27.817c0,1.607-1.376,2.903-3.065,2.903c-1.703,0-3.081-1.296-3.081-2.903
	c0-1.587,1.379-2.882,3.081-2.882C17.326,24.935,18.702,26.23,18.702,27.817L18.702,27.817z"/>
</svg>
