<?xml version="1.0" encoding="utf-8"?>
<!-- Generator: Adobe Illustrator 17.0.0, SVG Export Plug-In . SVG Version: 6.00 Build 0)  -->
<!DOCTYPE svg PUBLIC "-//W3C//DTD SVG 1.1//EN" "http://www.w3.org/Graphics/SVG/1.1/DTD/svg11.dtd">
<svg version="1.1" id="Capa_1" xmlns="http://www.w3.org/2000/svg" xmlns:xlink="http://www.w3.org/1999/xlink" x="0px" y="0px"
	 width="50px" height="50px" viewBox="0 0 50 50" enable-background="new 0 0 50 50" xml:space="preserve">
<g>
	<path fill="#45BAEE" d="M48.91,15.18l-0.024-0.379c-0.293-4.587-4.576-8.375-9.549-8.443l-6.699-0.092
		c-4.197-0.056-11.06-0.061-15.255-0.002L10.545,6.36c-4.98,0.068-9.227,3.863-9.469,8.461l-0.02,0.37
		c-0.205,3.909-0.205,12.95,0,16.857l0.02,0.378c0.241,4.592,4.486,11.085,9.462,11.176l6.853,0.121
		c2.09,0.037,4.841,0.056,7.595,0.056c2.78,0,5.563-0.019,7.672-0.056l6.686-0.121c4.969-0.088,9.248-6.574,9.541-11.157
		l0.024-0.385C49.16,28.146,49.16,19.094,48.91,15.18z M45.874,31.895l-0.024,0.384c-0.199,3.099-3.204,8.452-6.563,8.511
		L32.6,40.911c-4.165,0.073-10.981,0.075-15.149,0l-6.853-0.122c-3.408-0.062-6.318-5.354-6.482-8.5l-0.02-0.378
		c-0.202-3.832-0.202-12.753,0-16.586l0.019-0.371c0.165-3.144,3.07-5.74,6.477-5.786l6.838-0.094
		c2.059-0.029,4.767-0.043,7.482-0.043c2.782,0,5.57,0.016,7.682,0.044l6.698,0.092c3.414,0.046,6.355,2.648,6.557,5.799
		l0.024,0.379C46.117,19.168,46.117,28.072,45.874,31.895z"/>
	<path fill="#45BAEE" d="M31.727,23.757l-12.036-5.864c-0.472-0.23-1.039-0.215-1.495,0.041c-0.456,0.256-0.736,0.711-0.736,1.204
		v11.726c0,0.493,0.279,0.949,0.736,1.205c0.241,0.133,0.513,0.201,0.786,0.201c0.243,0,0.487-0.054,0.708-0.162l12.036-5.864
		c0.499-0.243,0.812-0.722,0.812-1.243C32.539,24.48,32.227,23.999,31.727,23.757z"/>
</g>
</svg>
