<?xml version="1.0" encoding="utf-8"?>
<!-- Generator: Adobe Illustrator 17.0.0, SVG Export Plug-In . SVG Version: 6.00 Build 0)  -->
<!DOCTYPE svg PUBLIC "-//W3C//DTD SVG 1.1//EN" "http://www.w3.org/Graphics/SVG/1.1/DTD/svg11.dtd">
<svg version="1.1" id="Capa_1" xmlns="http://www.w3.org/2000/svg" xmlns:xlink="http://www.w3.org/1999/xlink" x="0px" y="0px"
	 width="50px" height="50px" viewBox="0 0 50 50" enable-background="new 0 0 50 50" xml:space="preserve">
<g>
	<g>
		<path fill="#92BF4C" d="M25,22.984c2.803,0,5.084-2.281,5.084-5.084S27.803,12.816,25,12.816s-5.084,2.281-5.084,5.084
			S22.197,22.984,25,22.984z"/>
		<path fill="#92BF4C" d="M23.841,48.061c0.257,0.393,0.69,0.628,1.159,0.628s0.903-0.235,1.159-0.628l12.349-18.933
			c0.146-0.22,3.572-5.447,3.572-10.737c0-9.418-7.662-17.08-17.08-17.08S7.92,8.973,7.92,18.391c0,5.297,3.393,10.453,3.535,10.667
			L23.841,48.061z M10.686,18.391c0-7.893,6.421-14.314,14.314-14.314s14.313,6.421,14.313,14.314c0,4.443-3.084,9.166-3.116,9.215
			L25,44.773L13.763,27.532C13.732,27.486,10.686,22.863,10.686,18.391z"/>
	</g>
</g>
</svg>
