<?xml version="1.0" encoding="utf-8"?>
<!-- Generator: Adobe Illustrator 17.0.0, SVG Export Plug-In . SVG Version: 6.00 Build 0)  -->
<!DOCTYPE svg PUBLIC "-//W3C//DTD SVG 1.1//EN" "http://www.w3.org/Graphics/SVG/1.1/DTD/svg11.dtd">
<svg version="1.1" id="Capa_1" xmlns="http://www.w3.org/2000/svg" xmlns:xlink="http://www.w3.org/1999/xlink" x="0px" y="0px"
	 width="50px" height="50px" viewBox="0 0 50 50" enable-background="new 0 0 50 50" xml:space="preserve">
<g>
	<ellipse fill="#2162B1" cx="39.644" cy="25.709" rx="0.814" ry="0.786"/>
	<ellipse fill="#2162B1" cx="38.017" cy="23.351" rx="0.814" ry="0.786"/>
	<ellipse fill="#2162B1" cx="36.39" cy="25.709" rx="0.813" ry="0.786"/>
	<ellipse fill="#2162B1" cx="41.271" cy="23.351" rx="0.814" ry="0.786"/>
	<ellipse fill="#2162B1" cx="42.899" cy="25.709" rx="0.814" ry="0.786"/>
	<ellipse fill="#2162B1" cx="31.509" cy="23.351" rx="0.814" ry="0.786"/>
	<ellipse fill="#2162B1" cx="28.254" cy="23.351" rx="0.814" ry="0.786"/>
	<ellipse fill="#2162B1" cx="34.763" cy="23.351" rx="0.814" ry="0.786"/>
	<path fill="#2162B1" d="M44.79,36.089c-0.495-4.423-4.444-7.896-9.176-7.896c-2.958,0-5.751,1.385-7.477,3.664
		c-0.336-0.055-0.676-0.082-1.019-0.082c-2.677,0-5.055,1.699-5.845,4.106c-2.2,1.218-3.595,3.491-3.595,5.926
		c0,3.777,3.213,6.848,7.162,6.848h6.754l-0.056-4.623l-3.732,0.046l7.118-7.727l7.303,7.548l-3.732,0.046l0.057,4.709h4.106
		c3.721,0,6.748-2.894,6.748-6.45C49.406,39.405,47.512,36.957,44.79,36.089z"/>
	<ellipse fill="#2162B1" cx="29.882" cy="25.709" rx="0.814" ry="0.786"/>
	<ellipse fill="#2162B1" cx="33.135" cy="25.709" rx="0.814" ry="0.786"/>
	<path fill="#2162B1" d="M9.136,6.061c-2.019,0-3.661,1.587-3.661,3.537s1.642,3.537,3.661,3.537c2.018,0,3.661-1.587,3.661-3.537
		S11.154,6.061,9.136,6.061z"/>
	<ellipse fill="#2162B1" cx="29.882" cy="10.776" rx="0.814" ry="0.786"/>
	<ellipse fill="#2162B1" cx="42.899" cy="10.776" rx="0.814" ry="0.786"/>
	<ellipse fill="#2162B1" cx="28.254" cy="8.419" rx="0.814" ry="0.786"/>
	<path fill="#2162B1" d="M45.658,1.345H4.342c-2.067,0-3.749,1.625-3.749,3.621v9.262c0,1.155,0.572,2.173,1.446,2.836
		c-0.874,0.664-1.446,1.682-1.446,2.836v9.261c0,1.155,0.572,2.172,1.446,2.836c-0.874,0.664-1.446,1.682-1.446,2.836v9.262
		c0,1.997,1.682,3.621,3.749,3.621h9.268v-1.572H4.342c-1.17,0-2.122-0.919-2.122-2.049v-9.262c0-1.13,0.952-2.049,2.122-2.049
		h12.523v-1.572H4.342c-1.17,0-2.122-0.919-2.122-2.05V19.9c0-1.13,0.952-2.05,2.122-2.05h41.315c1.17,0,2.122,0.92,2.122,2.05
		v3.989h1.627V19.9c0-1.155-0.572-2.173-1.446-2.836c0.875-0.664,1.446-1.682,1.446-2.836V4.967
		C49.407,2.97,47.725,1.345,45.658,1.345z M47.78,14.228c0,1.13-0.952,2.05-2.122,2.05H4.342c-1.17,0-2.122-0.92-2.122-2.05V4.967
		c0-1.13,0.952-2.049,2.122-2.049h41.315c1.171,0,2.123,0.919,2.123,2.049V14.228z"/>
	<path fill="#2162B1" d="M5.475,39.463c0,1.95,1.642,3.537,3.661,3.537c2.018,0,3.661-1.587,3.661-3.537s-1.643-3.537-3.661-3.537
		C7.117,35.926,5.475,37.513,5.475,39.463z"/>
	<path fill="#2162B1" d="M5.475,24.53c0,1.95,1.642,3.537,3.661,3.537c2.018,0,3.661-1.587,3.661-3.537s-1.643-3.537-3.661-3.537
		C7.117,20.993,5.475,22.58,5.475,24.53z"/>
	<ellipse fill="#2162B1" cx="39.644" cy="10.776" rx="0.813" ry="0.786"/>
	<ellipse fill="#2162B1" cx="41.271" cy="8.419" rx="0.814" ry="0.786"/>
	<ellipse fill="#2162B1" cx="31.509" cy="8.419" rx="0.814" ry="0.786"/>
	<ellipse fill="#2162B1" cx="33.135" cy="10.776" rx="0.814" ry="0.786"/>
	<ellipse fill="#2162B1" cx="34.763" cy="8.419" rx="0.814" ry="0.786"/>
	<ellipse fill="#2162B1" cx="38.017" cy="8.419" rx="0.814" ry="0.786"/>
	<ellipse fill="#2162B1" cx="36.39" cy="10.776" rx="0.814" ry="0.786"/>
</g>
</svg>
