<?xml version="1.0" encoding="utf-8"?>
<!-- Generator: Adobe Illustrator 17.0.0, SVG Export Plug-In . SVG Version: 6.00 Build 0)  -->
<!DOCTYPE svg PUBLIC "-//W3C//DTD SVG 1.1//EN" "http://www.w3.org/Graphics/SVG/1.1/DTD/svg11.dtd">
<svg version="1.1" id="Capa_1" xmlns="http://www.w3.org/2000/svg" xmlns:xlink="http://www.w3.org/1999/xlink" x="0px" y="0px"
	 width="50px" height="50px" viewBox="0 0 50 50" enable-background="new 0 0 50 50" xml:space="preserve">
<path fill="#92BF4C" d="M46.762,23.677l-8.996,6.681l3.436,10.811c0.639,2.01-0.029,4.111-1.701,5.353s-3.833,1.242-5.506,0
	L25,39.841l-8.996,6.681c-0.836,0.621-1.794,0.931-2.753,0.931s-1.916-0.31-2.753-0.931c-1.672-1.242-2.34-3.343-1.701-5.352
	l3.436-10.811l-8.996-6.681c-1.672-1.242-2.34-3.343-1.701-5.352s2.387-3.308,4.454-3.308h11.12l3.436-10.811
	c0.639-2.01,2.387-3.308,4.454-3.308s3.815,1.299,4.453,3.308l3.436,10.811h11.12c2.067,0,3.815,1.299,4.454,3.308
	C49.102,20.334,48.434,22.435,46.762,23.677z M44.924,19.5c-0.065-0.204-0.284-0.679-0.914-0.679H31.538
	c-0.806,0-1.521-0.531-1.77-1.314L25.914,5.381C25.719,4.769,25.21,4.703,25,4.703s-0.719,0.066-0.914,0.679l-3.854,12.125
	c-0.249,0.784-0.964,1.315-1.77,1.315H5.991c-0.63,0-0.849,0.475-0.914,0.679s-0.161,0.72,0.349,1.098l10.09,7.494
	c0.652,0.484,0.925,1.343,0.676,2.127l-3.854,12.125c-0.195,0.613,0.179,0.972,0.349,1.098s0.62,0.379,1.13,0l10.09-7.494
	c0.652-0.484,1.536-0.484,2.188,0l10.09,7.494c0.51,0.379,0.96,0.126,1.129,0c0.17-0.126,0.544-0.486,0.349-1.098L33.809,30.22
	c-0.249-0.784,0.024-1.643,0.676-2.127l10.089-7.494C45.084,20.22,44.988,19.705,44.924,19.5z M24.509,39.64l8.348,6.48l3.214,2.982
	H12.947l3.213-2.982L24.509,39.64z"/>
</svg>
