<?xml version="1.0" encoding="utf-8"?>
<!-- Generator: Adobe Illustrator 17.0.0, SVG Export Plug-In . SVG Version: 6.00 Build 0)  -->
<!DOCTYPE svg PUBLIC "-//W3C//DTD SVG 1.1//EN" "http://www.w3.org/Graphics/SVG/1.1/DTD/svg11.dtd">
<svg version="1.1" id="Capa_1" xmlns="http://www.w3.org/2000/svg" xmlns:xlink="http://www.w3.org/1999/xlink" x="0px" y="0px"
	 width="50px" height="50px" viewBox="0 0 50 50" enable-background="new 0 0 50 50" xml:space="preserve">
<g>
	<path fill="#FCC10C" d="M27.729,22.318c-0.419-0.127-0.803-0.27-1.153-0.428c-0.35-0.158-0.647-0.316-0.891-0.474
		c-0.244-0.158-0.416-0.285-0.515-0.383l-1.144,2.168c0.675,0.462,1.431,0.835,2.268,1.12c0.837,0.285,1.693,0.458,2.568,0.519
		v2.022h1.125v-2.004c0.612-0.024,1.193-0.112,1.743-0.264c0.55-0.152,1.034-0.379,1.453-0.683c0.419-0.304,0.75-0.692,0.993-1.166
		c0.244-0.474,0.365-1.045,0.365-1.713c0-0.595-0.1-1.096-0.3-1.503s-0.485-0.756-0.853-1.048c-0.369-0.291-0.819-0.534-1.35-0.729
		c-0.531-0.194-1.122-0.376-1.771-0.547l-0.469-0.109v-3.152c0.362,0.037,0.712,0.106,1.05,0.21
		c0.338,0.103,0.647,0.219,0.928,0.346c0.281,0.127,0.525,0.252,0.731,0.374c0.206,0.122,0.347,0.225,0.422,0.31l1.144-2.04
		c-0.525-0.34-1.134-0.647-1.828-0.92s-1.447-0.44-2.259-0.501v-1.84h-1.125v1.858c-0.612,0.049-1.181,0.17-1.706,0.364
		s-0.978,0.459-1.359,0.792c-0.381,0.334-0.681,0.741-0.9,1.221s-0.328,1.029-0.328,1.649c0,0.498,0.078,0.929,0.234,1.293
		s0.39,0.681,0.703,0.947c0.312,0.267,0.703,0.501,1.172,0.702c0.469,0.2,1.022,0.386,1.659,0.556l0.694,0.182v3.134
		C28.582,22.534,28.148,22.446,27.729,22.318z M29.801,19.667c0.625,0.195,1.112,0.407,1.462,0.638s0.525,0.559,0.525,0.984
		c0,0.85-0.663,1.294-1.987,1.33V19.667z M27.683,16.306c-0.3-0.212-0.45-0.525-0.45-0.938c0-0.887,0.6-1.367,1.8-1.439v2.951
		C28.433,16.71,27.983,16.519,27.683,16.306z"/>
	<path fill="#FCC10C" d="M46.698,29.482l-5.249,0.861c5.006-5.195,6.011-16.342-1.949-23.031c-6.964-5.85-17.533-5.014-23.439,1.881
		c-0.492,0.552-0.441,1.332,0.118,1.817c0.559,0.485,1.351,0.434,1.843-0.118c4.986-5.796,13.871-6.494,19.75-1.584
		c2.87,2.362,8.646,10.2,1.55,19.528l-0.823-5.225c-0.11-0.708-0.739-1.194-1.457-1.079c-0.718,0.108-1.212,0.729-1.096,1.436
		l1.343,8.333c0.11,0.708,0.739,1.194,1.457,1.079L47.129,32c0.655-0.104,1.146-0.662,1.104-1.311
		C48.181,29.896,47.422,29.373,46.698,29.482z"/>
	<path fill="#FCC10C" d="M34.043,31.457c-0.758-0.744-1.773-1.153-2.857-1.153c-1.129,0-2.194,0.438-3,1.234l-2.197,2.166
		c-1.707-0.936-3.976-2.223-6.331-4.547c-2.353-2.322-3.658-4.553-4.612-6.246l2.199-2.167c1.635-1.616,1.668-4.208,0.075-5.778
		L11.678,9.4C10.922,8.652,9.907,8.241,8.82,8.241c-1.103,0-2.147,0.419-2.948,1.182c-0.485,0.385-2.916,2.502-3.823,6.869
		C0.78,22.404,3.695,28.284,12.112,36.59c9.402,9.271,17.429,9.992,19.665,9.992c0.466,0,0.747-0.028,0.821-0.037
		c4.385-0.507,5.955-2.428,7.101-3.83c1.485-1.818,1.48-4.21-0.014-5.689L34.043,31.457z M37.814,41.214
		c-1.077,1.318-2.095,2.563-5.497,2.957c-0.002,0-0.188,0.021-0.54,0.021c-2.001,0-9.208-0.67-17.952-9.292
		C6.064,27.241,3.339,21.988,4.423,16.771c0.79-3.809,2.889-5.428,2.971-5.489l0.072-0.053l0.063-0.063
		c0.35-0.345,0.809-0.535,1.291-0.535c0.439,0,0.844,0.162,1.143,0.458l5.644,5.567c0.649,0.64,0.615,1.716-0.076,2.399
		l-2.487,2.451l-0.041,0.042c-0.648,0.704-0.572,1.656-0.215,2.275c1.03,1.833,2.441,4.344,5.156,7.023
		c2.706,2.669,5.248,4.06,7.102,5.074c0.185,0.103,0.569,0.275,1.048,0.275c0.566,0,1.086-0.237,1.471-0.667l2.334-2.301
		c0.348-0.344,0.805-0.533,1.286-0.533c0.44,0,0.848,0.163,1.146,0.456l5.64,5.565C38.688,39.423,38.392,40.507,37.814,41.214z"/>
</g>
</svg>
