<?xml version="1.0" encoding="utf-8"?>
<!-- Generator: Adobe Illustrator 17.0.0, SVG Export Plug-In . SVG Version: 6.00 Build 0)  -->
<!DOCTYPE svg PUBLIC "-//W3C//DTD SVG 1.1//EN" "http://www.w3.org/Graphics/SVG/1.1/DTD/svg11.dtd">
<svg version="1.1" id="Capa_1" xmlns="http://www.w3.org/2000/svg" xmlns:xlink="http://www.w3.org/1999/xlink" x="0px" y="0px"
	 width="50px" height="50px" viewBox="0 0 50 50" enable-background="new 0 0 50 50" xml:space="preserve">
<g>
	<path fill="#FD7FB4" d="M41.89,6.641c-4.63-3.999-10.596-5.948-16.531-5.65c-0.54,0.027-0.915,0.443-0.875,0.97
		c0.039,0.527,0.473,0.902,1.013,0.875c5.52-0.409,10.947,1.566,14.998,5.066s6.601,8.662,6.993,13.932
		c0.02,0.263,0.309,0.514,0.454,0.638c0.145,0.125,0.559,0.236,0.849,0.487c0.539-0.028,0.914-0.443,0.876-0.97
		C49.215,15.928,46.52,10.641,41.89,6.641z"/>
	<path fill="#FD7FB4" d="M40.33,22.062c0.019,0.263,0.309,0.514,0.453,0.638c0.289,0.25,0.434,0.375,0.559,0.237
		c0.539-0.027,0.914-0.443,0.876-0.97c-0.753-8.294-8.131-14.669-16.494-14.249c-0.54,0.027-0.915,0.443-0.876,0.97
		c0.039,0.527,0.473,0.902,1.013,0.875C33.29,9.322,39.8,14.946,40.33,22.062z"/>
	<path fill="#FD7FB4" d="M26.399,14.958c-0.54,0.027-0.915,0.443-0.876,0.97c0.039,0.527,0.473,0.902,1.013,0.875
		c3.362-0.301,6.4,2.324,6.656,5.75c0.019,0.264,0.309,0.514,0.453,0.639c0.145,0.125,0.415,0.111,0.559,0.236
		c0.539-0.027,0.915-0.443,0.875-0.97C34.891,18.103,30.984,14.728,26.399,14.958z"/>
	<path fill="#FD7FB4" d="M37.936,31.139c-0.883-0.88-2.065-1.365-3.329-1.365c-1.315,0-2.556,0.519-3.495,1.46l-2.559,2.564
		c-1.989-1.108-4.632-2.631-7.376-5.381c-2.741-2.748-4.262-5.388-5.373-7.392l2.562-2.565c1.905-1.912,1.943-4.98,0.087-6.839
		L11.88,5.036C11,4.151,9.817,3.664,8.55,3.664c-1.285,0-2.502,0.496-3.435,1.398c-0.564,0.455-3.398,2.961-4.453,8.129
		c-1.478,7.234,1.918,14.193,11.724,24.022c10.954,10.972,20.305,11.825,22.91,11.825c0.542,0,0.87-0.033,0.957-0.043
		c5.109-0.6,6.938-2.873,8.273-4.533c1.731-2.151,1.724-4.982-0.016-6.732L37.936,31.139z M42.329,42.687
		c-1.255,1.56-2.441,3.034-6.404,3.499c-0.002,0-0.219,0.024-0.628,0.024c-2.331,0-10.728-0.793-20.914-10.996
		C5.34,26.149,2.166,19.933,3.428,13.759c0.921-4.508,3.366-6.423,3.461-6.496L6.973,7.2l0.074-0.074
		C7.455,6.717,7.989,6.492,8.55,6.492c0.511,0,0.984,0.192,1.332,0.542l6.575,6.588c0.757,0.757,0.716,2.031-0.089,2.84l-2.897,2.9
		l-0.047,0.05c-0.755,0.834-0.666,1.959-0.25,2.693c1.2,2.17,2.844,5.141,6.007,8.312c3.152,3.159,6.114,4.804,8.274,6.005
		c0.216,0.122,0.662,0.326,1.221,0.326c0.66,0,1.266-0.28,1.714-0.79l2.719-2.723c0.406-0.407,0.938-0.631,1.499-0.631
		c0.512,0,0.987,0.192,1.335,0.539l6.57,6.586C43.347,40.567,43.002,41.85,42.329,42.687z"/>
</g>
</svg>
