<?xml version="1.0" encoding="utf-8"?>
<!-- Generator: Adobe Illustrator 17.0.0, SVG Export Plug-In . SVG Version: 6.00 Build 0)  -->
<!DOCTYPE svg PUBLIC "-//W3C//DTD SVG 1.1//EN" "http://www.w3.org/Graphics/SVG/1.1/DTD/svg11.dtd">
<svg version="1.1" id="Capa_1" xmlns="http://www.w3.org/2000/svg" xmlns:xlink="http://www.w3.org/1999/xlink" x="0px" y="0px"
	 width="50px" height="50px" viewBox="0 0 50 50" enable-background="new 0 0 50 50" xml:space="preserve">
<g>
	<path fill="#2162B1" d="M41.982,19.201v-1.855c0-4.44-1.503-8.566-4.229-11.628c-2.793-3.143-6.634-4.866-10.823-4.866h-1.465
		c-4.19,0-10.443,1.723-13.237,4.866C9.503,8.78,8,12.906,8,17.346v1.855c-3.307,0.233-5.936,3.112-5.936,6.63v2.899
		c0,3.66,2.851,6.64,6.352,6.64h3.579c0.64,0,1.164-0.547,1.164-1.216V20.398c0-0.669-0.524-1.217-1.164-1.217h-1.668v-1.835
		c0-8.019,7.883-14.061,15.128-14.061h1.465c7.255,0,12.715,6.042,12.715,14.061v1.835h-1.668c-0.64,0-1.164,0.547-1.164,1.217
		v13.747c0,0.669,0.524,1.217,1.164,1.217h1.629c-0.475,6.346-4.655,7.816-6.595,8.151c-0.534-1.714-2.076-2.95-3.889-2.95h-2.91
		c-2.25,0-4.083,1.916-4.083,4.268c0,2.352,1.833,4.278,4.083,4.278h2.919c1.882,0,3.463-1.339,3.938-3.143
		c0.951-0.142,2.454-0.497,3.948-1.409c2.104-1.288,4.597-3.913,4.927-9.205c3.327-0.213,5.964-3.103,5.964-6.63v-2.899
		C47.908,22.313,45.289,19.424,41.982,19.201z"/>
	<path fill="#2162B1" d="M25,18.553c1.958,0,3.549,1.51,3.549,3.365c0,1.856-1.592,3.365-3.549,3.365
		c-0.684,0-1.239,0.526-1.239,1.175v2.164c0,0.649,0.555,1.175,1.239,1.175s1.239-0.526,1.239-1.175V27.51
		c2.731-0.543,4.788-2.844,4.788-5.592c0-3.151-2.704-5.715-6.028-5.715c-3.323,0-6.027,2.563-6.027,5.715
		c0,0.649,0.555,1.175,1.239,1.175c0.685,0,1.239-0.526,1.239-1.175C21.451,20.063,23.043,18.553,25,18.553z"/>
	<ellipse fill="#2162B1" cx="25" cy="33" rx="1.555" ry="1.475"/>
</g>
</svg>
