<?xml version="1.0" encoding="utf-8"?>
<!-- Generator: Adobe Illustrator 17.0.0, SVG Export Plug-In . SVG Version: 6.00 Build 0)  -->
<!DOCTYPE svg PUBLIC "-//W3C//DTD SVG 1.1//EN" "http://www.w3.org/Graphics/SVG/1.1/DTD/svg11.dtd">
<svg version="1.1" id="Capa_1" xmlns="http://www.w3.org/2000/svg" xmlns:xlink="http://www.w3.org/1999/xlink" x="0px" y="0px"
	 width="50px" height="50px" viewBox="0 0 50 50" enable-background="new 0 0 50 50" xml:space="preserve">
<g>
	<path fill="#92BF4C" d="M1.984,9.486h8.247c0.699,2.636,3.123,4.586,5.997,4.586c2.875,0,5.297-1.95,5.997-4.586h25.791
		c0.87,0,1.576-0.7,1.576-1.563S48.886,6.36,48.016,6.36H22.225c-0.7-2.636-3.123-4.586-5.997-4.586s-5.298,1.95-5.997,4.586H1.984
		c-0.871,0-1.576,0.7-1.576,1.563S1.114,9.486,1.984,9.486z"/>
	<path fill="#92BF4C" d="M48.016,23.437H37.508c-0.699-2.636-3.122-4.586-5.997-4.586s-5.298,1.95-5.997,4.586H1.984
		c-0.871,0-1.576,0.7-1.576,1.563c0,0.863,0.706,1.563,1.576,1.563h23.53c0.699,2.636,3.123,4.586,5.997,4.586
		s5.297-1.95,5.997-4.586h10.507c0.871,0,1.576-0.7,1.576-1.563C49.592,24.137,48.886,23.437,48.016,23.437z"/>
	<path fill="#92BF4C" d="M48.016,40.514H22.225c-0.7-2.636-3.123-4.586-5.997-4.586s-5.298,1.95-5.997,4.586H1.984
		c-0.871,0-1.576,0.699-1.576,1.563c0,0.863,0.706,1.563,1.576,1.563h8.247c0.699,2.636,3.123,4.586,5.997,4.586
		c2.875,0,5.297-1.949,5.997-4.586h25.791c0.87,0,1.576-0.7,1.576-1.563S48.886,40.514,48.016,40.514z"/>
</g>
</svg>
