<?xml version="1.0" encoding="utf-8"?>
<!-- Generator: Adobe Illustrator 17.0.0, SVG Export Plug-In . SVG Version: 6.00 Build 0)  -->
<!DOCTYPE svg PUBLIC "-//W3C//DTD SVG 1.1//EN" "http://www.w3.org/Graphics/SVG/1.1/DTD/svg11.dtd">
<svg version="1.1" id="Capa_1" xmlns="http://www.w3.org/2000/svg" xmlns:xlink="http://www.w3.org/1999/xlink" x="0px" y="0px"
	 width="50px" height="50px" viewBox="0 0 50 50" enable-background="new 0 0 50 50" xml:space="preserve">
<g>
	<path fill="#2162B1" d="M48.277,16.621C41.903,10.382,33.867,7.127,25,7.127c-8.867,0-17.18,3.526-23.276,9.493
		c-0.554,0.543-0.554,1.356,0,1.899c0.554,0.543,1.386,0.543,1.94,0c5.542-5.696,13.301-8.68,21.06-8.68s15.517,3.255,21.059,8.68
		c0.277,0.271,0.832,0.271,1.108,0.271c0.277,0,0.831-0.271,1.386-0.271C48.83,17.977,48.83,17.163,48.277,16.621z"/>
	<path fill="#2162B1" d="M9.205,23.673c-0.554,0.543-0.554,1.356,0,1.899c0.554,0.542,1.386,0.542,1.94,0
		c7.759-7.324,20.228-7.324,27.71,0c0.277,0.271,0.831,0.271,1.108,0.271c0.554,0,0.832,0,0.832-0.271
		c0.554-0.542,0.554-1.356,0-1.899C31.927,15.265,17.795,15.265,9.205,23.673z"/>
	<path fill="#2162B1" d="M16.687,30.997c-0.554,0.542-0.554,1.356,0,1.898c0.554,0.543,1.386,0.543,1.94,0
		c3.325-3.526,9.144-3.526,12.746,0c0.277,0.272,0.831,0.272,1.109,0.272c0.277,0,0.554-0.272,0.831-0.272
		c0.554-0.542,0.554-1.356,0-1.898C28.88,26.386,21.398,26.386,16.687,30.997z"/>
	<path fill="#2162B1" d="M27.145,37.024c-1.43-1.3-3.574-1.3-5.005,0c-0.715,0.65-0.715,1.95-0.715,2.599c0,0.65,0,1.3,0.715,1.95
		c0.715,0.65,2.145,1.3,2.86,1.3c0.715,0,2.145-0.65,2.86-1.3c0,0,0.715-0.65,0.715-1.95S27.86,37.674,27.145,37.024z"/>
</g>
</svg>
