<?xml version="1.0" encoding="utf-8"?>
<!-- Generator: Adobe Illustrator 17.0.0, SVG Export Plug-In . SVG Version: 6.00 Build 0)  -->
<!DOCTYPE svg PUBLIC "-//W3C//DTD SVG 1.1//EN" "http://www.w3.org/Graphics/SVG/1.1/DTD/svg11.dtd">
<svg version="1.1" id="Capa_1" xmlns="http://www.w3.org/2000/svg" xmlns:xlink="http://www.w3.org/1999/xlink" x="0px" y="0px"
	 width="50px" height="50px" viewBox="0 0 50 50" enable-background="new 0 0 50 50" xml:space="preserve">
<path fill="#45BAEE" d="M41.939,47.714H8.061c-0.814,0-1.516-0.66-1.516-1.541V13.658c0-0.037,0-0.037,0-0.074
	c0.037-0.11,0.037-0.22,0.074-0.33c0-0.037,0-0.11,0.037-0.147c0.074-0.147,0.148-0.294,0.259-0.403l8.469-9.905
	c0.074-0.11,0.185-0.183,0.296-0.257c0.037-0.037,0.074-0.037,0.111-0.073c0.111-0.037,0.185-0.073,0.296-0.11
	c0,0,0.037-0.037,0.074-0.037c0.111-0.037,0.259-0.037,0.37-0.037H41.94c0.851,0,1.516,0.66,1.516,1.504V46.21
	C43.456,47.054,42.79,47.714,41.939,47.714z M40.423,5.293H18.047v8.401c0,0.844-0.666,1.504-1.516,1.504H9.577v29.508h30.846V5.293
	z M14.089,18.463H35.91c0.851,0,1.516,0.66,1.516,1.504s-0.666,1.504-1.516,1.504H14.089c-0.851,0-1.516-0.66-1.516-1.504
	S13.239,18.463,14.089,18.463z M14.089,28.566H35.91c0.851,0,1.516,0.697,1.516,1.504c0,0.844-0.666,1.504-1.516,1.504H14.089
	c-0.851,0-1.516-0.66-1.516-1.504S13.239,28.566,14.089,28.566z M14.089,36.876H35.91c0.851,0,1.516,0.697,1.516,1.504
	c0,0.844-0.666,1.504-1.516,1.504H14.089c-0.851,0-1.516-0.66-1.516-1.504S13.239,36.876,14.089,36.876z"/>
</svg>
