<?xml version="1.0" encoding="utf-8"?>
<!-- Generator: Adobe Illustrator 17.0.0, SVG Export Plug-In . SVG Version: 6.00 Build 0)  -->
<!DOCTYPE svg PUBLIC "-//W3C//DTD SVG 1.1//EN" "http://www.w3.org/Graphics/SVG/1.1/DTD/svg11.dtd">
<svg version="1.1" id="Capa_1" xmlns="http://www.w3.org/2000/svg" xmlns:xlink="http://www.w3.org/1999/xlink" x="0px" y="0px"
	 width="50px" height="50px" viewBox="0 0 50 50" enable-background="new 0 0 50 50" xml:space="preserve">
<g>
	<ellipse fill="#FD7FB4" cx="38.068" cy="23.372" rx="0.817" ry="0.803"/>
	<ellipse fill="#FD7FB4" cx="39.702" cy="25.78" rx="0.817" ry="0.803"/>
	<ellipse fill="#FD7FB4" cx="36.435" cy="25.78" rx="0.817" ry="0.803"/>
	<ellipse fill="#FD7FB4" cx="41.335" cy="23.372" rx="0.817" ry="0.803"/>
	<ellipse fill="#FD7FB4" cx="42.969" cy="25.78" rx="0.817" ry="0.803"/>
	<ellipse fill="#FD7FB4" cx="29.901" cy="25.78" rx="0.817" ry="0.803"/>
	<ellipse fill="#FD7FB4" cx="28.267" cy="23.372" rx="0.817" ry="0.803"/>
	<path fill="#FD7FB4" d="M9.073,20.964c-2.027,0-3.675,1.62-3.675,3.612c0,1.991,1.649,3.612,3.675,3.612s3.675-1.621,3.675-3.612
		C12.749,22.584,11.099,20.964,9.073,20.964z"/>
	<ellipse fill="#FD7FB4" cx="34.801" cy="23.372" rx="0.817" ry="0.803"/>
	<ellipse fill="#FD7FB4" cx="31.534" cy="23.372" rx="0.817" ry="0.803"/>
	<ellipse fill="#FD7FB4" cx="33.167" cy="25.78" rx="0.817" ry="0.803"/>
	<ellipse fill="#FD7FB4" cx="39.702" cy="10.529" rx="0.817" ry="0.803"/>
	<ellipse fill="#FD7FB4" cx="36.435" cy="10.529" rx="0.817" ry="0.803"/>
	<ellipse fill="#FD7FB4" cx="38.068" cy="8.121" rx="0.817" ry="0.803"/>
	<ellipse fill="#FD7FB4" cx="41.335" cy="8.121" rx="0.817" ry="0.803"/>
	<path fill="#FD7FB4" d="M9.073,5.713c-2.027,0-3.675,1.621-3.675,3.612s1.649,3.612,3.675,3.612s3.675-1.621,3.675-3.612
		S11.099,5.713,9.073,5.713z"/>
	<path fill="#FD7FB4" d="M49.503,14.055V4.596c0-2.04-1.688-3.699-3.763-3.699H4.261c-2.075,0-3.763,1.659-3.763,3.699v9.458
		c0,1.179,0.574,2.219,1.451,2.897c-0.877,0.677-1.451,1.718-1.451,2.896v9.458c0,2.04,1.688,3.7,3.763,3.7h19.923v1.445
		c-3.675,0.407-6.534,3.519-6.534,7.303c0,0.3,0.023,0.594,0.058,0.884H1.314c-0.451,0-0.817,0.358-0.817,0.802
		c0,0.444,0.366,0.803,0.817,0.803h16.777c1.021,2.833,3.725,4.861,6.909,4.861s5.888-2.029,6.909-4.861h16.777
		c0.451,0,0.817-0.359,0.817-0.803s-0.366-0.802-0.817-0.802H32.293c0.035-0.291,0.058-0.585,0.058-0.884
		c0-3.783-2.859-6.896-6.534-7.303v-1.445H45.74c2.075,0,3.763-1.659,3.763-3.699v-9.459c0-1.179-0.574-2.219-1.451-2.896
		C48.929,16.273,49.503,15.233,49.503,14.055z M47.869,29.305c0,1.155-0.956,2.094-2.13,2.094H4.261c-1.174,0-2.13-0.939-2.13-2.094
		v-9.459c0-1.154,0.956-2.094,2.13-2.094h41.478c1.175,0,2.131,0.939,2.131,2.094v9.459H47.869z M47.869,14.054
		c0,1.155-0.956,2.094-2.13,2.094H4.261c-1.174,0-2.13-0.939-2.13-2.093V4.596c0-1.154,0.956-2.094,2.13-2.094h41.478
		c1.175,0,2.131,0.939,2.131,2.094v9.458H47.869z"/>
	<ellipse fill="#FD7FB4" cx="42.969" cy="10.529" rx="0.817" ry="0.803"/>
	<ellipse fill="#FD7FB4" cx="29.901" cy="10.529" rx="0.817" ry="0.803"/>
	<ellipse fill="#FD7FB4" cx="28.267" cy="8.121" rx="0.817" ry="0.803"/>
	<ellipse fill="#FD7FB4" cx="31.534" cy="8.121" rx="0.817" ry="0.803"/>
	<ellipse fill="#FD7FB4" cx="34.801" cy="8.121" rx="0.817" ry="0.803"/>
	<ellipse fill="#FD7FB4" cx="33.167" cy="10.529" rx="0.817" ry="0.803"/>
</g>
</svg>
