<?xml version="1.0" encoding="utf-8"?>
<!-- Generator: Adobe Illustrator 17.0.0, SVG Export Plug-In . SVG Version: 6.00 Build 0)  -->
<!DOCTYPE svg PUBLIC "-//W3C//DTD SVG 1.1//EN" "http://www.w3.org/Graphics/SVG/1.1/DTD/svg11.dtd">
<svg version="1.1" id="Capa_1" xmlns="http://www.w3.org/2000/svg" xmlns:xlink="http://www.w3.org/1999/xlink" x="0px" y="0px"
	 width="50px" height="50px" viewBox="0 0 50 50" enable-background="new 0 0 50 50" xml:space="preserve">
<g>
	<path fill="#FD7FB4" d="M27.98,28.996c-0.823,0-1.49,0.671-1.49,1.499v3.997c0,0.828,0.667,1.499,1.49,1.499s1.49-0.671,1.49-1.499
		v-3.997C29.47,29.667,28.803,28.996,27.98,28.996z"/>
	<path fill="#FD7FB4" d="M33.939,26.998c-0.823,0-1.49,0.671-1.49,1.499v5.996c0,0.828,0.667,1.499,1.49,1.499
		s1.49-0.671,1.49-1.499v-5.996C35.429,27.669,34.762,26.998,33.939,26.998z"/>
	<path fill="#FD7FB4" d="M43.871,19.004h-2.483h-2.98H11.592h-2.98H6.13c-3.012,0-5.463,2.466-5.463,5.496v11.992
		c0,3.03,2.451,5.495,5.463,5.495h6.456v2.997h-4.47c-0.823,0-1.49,0.671-1.49,1.499s0.667,1.499,1.49,1.499h5.959
		c0.823,0,1.49-0.671,1.49-1.499v-4.496h18.87v4.496c0,0.828,0.667,1.499,1.49,1.499h5.959c0.822,0,1.49-0.671,1.49-1.499
		s-0.667-1.499-1.49-1.499h-4.469v-2.997h6.456c3.012,0,5.463-2.465,5.463-5.495V24.499C49.333,21.469,46.883,19.004,43.871,19.004z
		 M46.354,36.491c0,1.377-1.114,2.498-2.483,2.498H6.13c-1.369,0-2.483-1.121-2.483-2.498V24.499c0-1.377,1.114-2.498,2.483-2.498
		h37.741c1.369,0,2.483,1.121,2.483,2.498C46.354,24.499,46.354,36.491,46.354,36.491z"/>
	<path fill="#FD7FB4" d="M39.898,24.999c-0.823,0-1.49,0.671-1.49,1.499v7.994c0,0.828,0.667,1.499,1.49,1.499
		s1.49-0.671,1.49-1.499v-7.994C41.388,25.671,40.721,24.999,39.898,24.999z"/>
	<rect x="35.815" y="2.019" fill="#FD7FB4" width="2.703" height="16.222"/>
</g>
</svg>
