<?xml version="1.0" encoding="utf-8"?>
<!-- Generator: Adobe Illustrator 22.0.0, SVG Export Plug-In . SVG Version: 6.00 Build 0)  -->
<svg version="1.1" id="Layer_1" xmlns="http://www.w3.org/2000/svg" xmlns:xlink="http://www.w3.org/1999/xlink" x="0px" y="0px"
	 viewBox="0 0 559.6 193.7" style="enable-background:new 0 0 559.6 193.7;" xml:space="preserve">
<style type="text/css">
	.st0{fill:#F7B690;}
	.st1{fill:#FFFFFF;}
	.st2{fill:#222B54;}
	.st3{fill:#0A3C5F;}
	.st4{fill:#EDEDED;}
	.st5{fill:#A2D1EB;}
	.st6{fill:#3C79A6;}
	.st7{fill:#F4A086;}
	.st8{fill:#66BCD5;}
	.st9{fill:#18898D;}
	.st10{fill:#222B56;}
	.st11{opacity:0.4;fill:#FFFFFF;enable-background:new    ;}
	.st12{fill:#001B61;}
	.st13{fill:#00AFF1;}
	.st14{fill:#FFB700;}
	.st15{fill:#1E3693;}
	.st16{fill:#FF7451;}
	.st17{fill:#7ABFFF;}
	.st18{fill:#FF9900;}
	.st19{fill:url(#SVGID_1_);}
</style>
<path class="st0" d="M372,162.2c-0.1,0.8-0.2,1.6,0.2,2.2c0.4,0.7,1.3,1.2,2,0.8c0.4-0.2,0.5-0.6,0.8-1c1.1-2.1,2.2-4.3,3.3-6.4
	c0.9-1.8,1.9-3.7,1.7-5.6c-0.1-0.9-0.4-1.9-0.9-2.6c-0.5-0.6-1.6-1.6-2.3-0.9c-0.7,0.7-1.3,2.1-1.6,3c-1.1,2.1-1.9,4.4-2.4,6.7
	C372.4,159.5,372.1,160.9,372,162.2z"/>
<g>
	<path class="st1" d="M379.9,152.6c-0.1-1-0.4-2.1-1-2.9c-0.5-0.7-0.9-2.5-1.6-1.6c-0.8,0.9-2.2,2.9-2.7,4c-0.6,1.3-1.3,2.8-1.7,4.2
		l5.3,2.6C379,156.8,380,154.7,379.9,152.6z"/>
</g>
<path class="st0" d="M372.1,162c0.5-0.6,1.4-0.9,2.3-0.8c0.9,0.1,1.6,0.4,2.3,0.8c1.4,0.6,2.8,1.3,4.2,2c1.4,0.7,2.9,1.3,4.3,2.1
	c0.2,0.1,0.5,0.2,0.5,0.5c0.1,0.3-0.1,0.5-0.4,0.6c-0.2,0.2-0.5,0.2-0.8,0.2c-2.1,0.2-4.4-0.1-6.4-0.5c-1.1-0.3-2.1-0.5-3.1-1
	c-0.9-0.4-2.1-0.7-2.8-1.3C371.7,163.9,371.6,162.8,372.1,162z"/>
<path class="st2" d="M381.2,167c1.6-0.2,9.2-0.2,10.9,0c2,0.3,1.7,2.8,1.4,4.3c-0.3,1.6-0.6,3.4-1.8,4.5s-8.9,1.1-10.2,0
	c-1.3-1.2-1.5-2.9-1.8-4.5C379.5,169.7,379.2,167.2,381.2,167z"/>
<path class="st2" d="M409.2,173.7c0.9,0.9,1.3,2.4,0.6,3.4c-0.6,0.8-17.8-0.8-20.4-0.8c-1.8-2.3-1.7-5.8,2.9-8.1
	c1-0.5,2.1,0,3.1,0.3C398.6,169.1,407,171.4,409.2,173.7z"/>
<path class="st2" d="M371.9,157.3c-1.3-0.2-2.7,0.4-3.2,1.5c-0.5,0.9-0.4,2,0,2.9s1.2,1.7,1.8,2.5c9.8,11,10,11.5,11.6,12
	c2.8,0.8,6.3,0,3.8-6.4C385.5,168.6,375,157.6,371.9,157.3z"/>
<path class="st0" d="M380.7,179.8c-0.6-0.4-2-2.1-3.5-4.3l2.9-1C381,177.8,381.3,180.2,380.7,179.8z"/>
<path class="st3" d="M369.4,157.5c1.7-0.9,3.4-0.6,4.8,1.6c1.9,3,4.5,10.5,5.8,15.4l-3.3,1.5c-2.1-4.7-6.2-10.9-7.8-13.7
	C368.1,160.7,368.1,158.1,369.4,157.5z"/>
<g>
	<path class="st0" d="M389.4,176.6l1.4,2.7c-2.1,0.2-3.8,0.2-4.6-0.2C385.5,178.9,386.9,177.8,389.4,176.6z"/>
	<path class="st3" d="M406.1,173.7c2.7,0,3.9,1.3,3.9,2.3c0,1.6-1,3.4-3.5,3.4c-3.2,0-11.3-0.2-16.1,0.2l-1.2-2.9
		C393,174.9,402.3,173.7,406.1,173.7z"/>
	<path class="st3" d="M385.2,178.8c0.1-0.1,0.9-1.2,1.3-1.3c0.3-0.2,0.6-0.3,0.9-0.2c0.4,0.2,0.4,0.6,0.5,0.9
		c0.2,0.2,0.4,0.4,0.5,0.5l0.4-0.6c1.6,0.8,0.4,2.7,2,3.4c0.4,0.2,0.9,0.4,1.2,0.5c0.4,0.3,0.5,0.8,0.4,1.2
		c-0.1,0.2-0.2,0.2-0.4,0.3l-5.3-2.6c0,0,0-1.1,0.2-1.3c-0.2,0.1-0.5,0.3-0.8,0.3L385.2,178.8z"/>
</g>
<path class="st3" d="M377,179.9c0-0.4,0.2-0.8,0.4-0.9c0.2-0.1,0.5-0.9,0.9-2c0.2-0.5,1.2-0.6,1.6,0.2c0.2,0.3,0.3,0.4,0.5,0.4
	s0.3-0.3,0.5-0.1s0.2,0.5,0.2,0.9c0.1,0.5,0.1,1,0.2,1.5c0,0.2,0,0.2,0,0.4h-4.1C377.1,180.3,377.1,180.1,377,179.9z"/>
<path class="st0" d="M401.2,162.2c0.1,0.8,0.2,1.6-0.2,2.2c-0.4,0.7-1.3,1.2-2,0.8c-0.4-0.2-0.5-0.6-0.8-1c-1.1-2.1-2.2-4.3-3.3-6.4
	c-0.9-1.8-1.9-3.7-1.7-5.6c0.1-0.9,0.4-1.9,0.9-2.6c0.5-0.6,1.6-1.6,2.3-0.9s1.3,2.1,1.6,3c1.1,2.1,1.9,4.4,2.4,6.7
	C400.9,159.5,401.1,160.9,401.2,162.2z"/>
<g>
	<path class="st1" d="M393.3,152.6c0.1-1,0.4-2.1,1-2.9c0.5-0.7,0.9-2.5,1.6-1.6c0.8,0.9,2.2,2.9,2.7,4c0.6,1.3,1.3,2.8,1.7,4.2
		l-5.3,2.6C394.2,156.8,393.1,154.7,393.3,152.6z"/>
</g>
<path class="st0" d="M401,162.4c-0.5-0.6-1.4-0.9-2.3-0.8s-1.6,0.4-2.3,0.8c-1.4,0.6-2.8,1.3-4.2,2c-1.4,0.7-2.9,1.3-4.3,2.1
	c-0.2,0.1-0.5,0.2-0.5,0.5c-0.1,0.3,0.1,0.5,0.4,0.6c0.2,0.2,0.5,0.2,0.8,0.2c2.1,0.2,4.4-0.1,6.4-0.5c1.1-0.3,2.1-0.5,3.1-1
	c0.9-0.4,2.1-0.7,2.8-1.3C401.3,164.3,401.5,163.1,401,162.4z"/>
<path class="st4" d="M377,148.2c0.5-0.6,1.3-0.9,2.1-1.3c2.2-0.8,7.3-2.9,7.5-2.9s5.3,2.1,7.5,2.9c0.8,0.3,1.5,0.6,2.1,1.3
	c0.7,0.9,0.8,2,0.5,3c-0.2,1.1-0.8,2-1.3,3c-0.5,1.3-1.1,2.5-1.4,3.8c-0.7,2.3-1,4.8-1,7.1c0,0.7,0.4,2,0.2,2.7
	c-0.3,0.9-1.8,1.1-2.6,1.3c-1.3,0.2-2.7,0.2-4,0.2c-1.3,0.1-2.7,0-4-0.2c-0.8-0.1-2.3-0.3-2.6-1.3c-0.2-0.7,0.2-2,0.2-2.7
	c0-2.4-0.4-4.8-1-7.1c-0.4-1.3-0.9-2.6-1.4-3.8c-0.5-1-1-2-1.3-3C376.2,150.2,376.3,149.1,377,148.2z"/>
<path class="st0" d="M384.9,143.7c0.2-0.6,0.3-2,0.7-2.3c0.2-0.3,1.6-0.3,1.8,0c0.4,0.4,0.5,1.7,0.7,2.3c0.2,0.7,0.4,1.6,0.2,2.3
	c-0.2,0.5-0.5,0.9-0.9,0.9c-0.3,0.1-1.6,0.1-1.9,0c-0.4-0.1-0.7-0.4-0.9-0.9C384.5,145.4,384.7,144.5,384.9,143.7z"/>
<path class="st0" d="M383.8,138.1c0.4-1.3,5.1-1.3,5.5,0c0.4,1,0.4,2.1,0.2,3c-0.2,0.9-0.5,1.9-1.2,2.6c-0.4,0.5-0.9,1.3-1.4,1.4
	H386c-0.5-0.2-1-1-1.4-1.4c-0.5-0.7-0.9-1.6-1.2-2.6C383.5,140.2,383.5,139.1,383.8,138.1z"/>
<path class="st3" d="M383.9,141.4c-0.1-0.3-0.2-0.5-0.2-0.9c-0.1-0.3-0.2-0.6,0.1-0.9c0.2,0.9,0.5,1.7,0.9,2.6
	c0.1,0.2,0.2,0.4,0.3,0.5c0.2,0.2,0.4,0.2,0.6,0.3c0.3,0.1,0.9-0.2,1-0.2s0.8,0.3,1,0.2s0.5-0.2,0.6-0.3c0.2-0.2,0.2-0.4,0.3-0.5
	c0.3-0.9,0.5-1.7,0.7-2.6c0.2,0.2,0.2,0.5,0.2,0.9c-0.1,0.3-0.2,0.5-0.2,0.9v0.1c0,0.2,0,0.4,0.1,0.5c0,0.1,0.1,0.2,0.1,0.2
	s0,0.2-0.1,0.3c-0.1,0.4-0.2,0.8-0.4,1.2c-0.2,0.4-0.4,0.7-0.5,1.1c-0.1,0.2-0.2,0.4-0.4,0.5c-0.1,0.1-0.3,0.4-0.4,0.4l-0.9,0.3
	h-0.4l-0.9-0.3c-0.1,0-0.3-0.4-0.4-0.4c-0.2-0.2-0.2-0.4-0.4-0.5c-0.2-0.4-0.4-0.7-0.5-1.1s-0.3-0.8-0.4-1.2c0-0.1-0.1-0.2-0.1-0.3
	s0.1-0.2,0.1-0.2C384,141.9,384,141.6,383.9,141.4L383.9,141.4z"/>
<path class="st3" d="M382,135.6c0.5-0.8,1.6-1.1,2.4-0.7c0.4,0.2,0.6,0.4,1.1,0.5c0.4,0.1,0.9-0.1,1.3-0.2c0.4-0.2,0.9-0.4,1.3-0.3
	c0.4,0.1,0.9,0.5,0.8,0.9c0.5-0.2,1.3-0.1,1.7,0.5c0.4,0.5,0.5,1.3,0.2,1.9c-0.2,0.4-0.5,0.6-0.6,1c-0.2,0.4,0,1.5-0.5,1.7
	c-0.4,0.2-0.6-3-1.8-3.1c-0.5,0.6-1.6,0.8-2.3,0.4c-0.3-0.2-0.5-0.4-0.9-0.3c-0.2,0.1-0.4,0.2-0.5,0.4c-0.3,0.4-0.2,2.4-0.6,2.7
	c-0.2-0.7-0.4-1.4-0.3-2.2c-0.2,0-0.4,0-0.5-0.1c-0.5-0.2-0.9,0-1.1-0.5C381.4,137.6,381.7,136.1,382,135.6z"/>
<path class="st0" d="M390,141.1c0.2-0.2,0.2-0.4,0.2-0.7c-0.1-0.3-0.2-0.4-0.4-0.4c-0.2,0-0.3,0.2-0.4,0.3c-0.1,0.2-0.1,0.3-0.2,0.4
	c-0.1,0.3-0.2,0.5-0.2,0.8c-0.1,0.2-0.1,0.5,0.1,0.5C389.5,142.3,389.9,141.4,390,141.1z"/>
<path class="st0" d="M383.1,141.1c-0.2-0.2-0.2-0.4-0.2-0.7c0.1-0.3,0.2-0.4,0.4-0.4c0.2,0,0.3,0.2,0.4,0.3c0.1,0.2,0.1,0.3,0.2,0.4
	c0.1,0.3,0.2,0.5,0.2,0.8c0.1,0.2,0.1,0.5-0.1,0.5C383.6,142.3,383.2,141.4,383.1,141.1z"/>
<path class="st5" d="M379.7,168.2h14.1c0.6,0,1.3-0.5,1.3-1.2l0.7-8.8c0.1-0.7-0.5-1.3-1.3-1.3H379c-0.7,0-1.3,0.6-1.3,1.3l0.7,8.8
	C378.5,167.7,379,168.2,379.7,168.2z"/>
<path class="st6" d="M395.7,158.7c-0.2-0.5-0.6-1-1.3-1h-15.5c-0.5,0-1.1,0.4-1.3,1v-0.4c-0.1-0.7,0.5-1.3,1.3-1.3h15.5
	c0.7,0,1.3,0.6,1.3,1.3V158.7z"/>
<path class="st2" d="M350.3,145.9c-0.3,0.9-0.6,1.7-1.3,1.9c-0.5,0.2-2.1-0.9-2.5-1.2c-0.4-0.4-2.2-19.3-1.7-20.5
	c0.6-1.5,7.9,0.6,8,3.2c0.2,3.4-0.3,7.1-0.9,10.4C351.6,141.9,350.9,143.9,350.3,145.9z"/>
<path class="st7" d="M362.8,161.4c-0.7,0.4-1.4,0.5-2.2,0.5c-0.3-0.9-0.5-1.7-0.8-2.6c0-0.2-0.1-0.2-0.1-0.4
	c0.1-0.2,0.2-0.3,0.4-0.4c0.5-0.3,1.4-0.6,1.7,0.1C362.2,159.7,362.6,160.5,362.8,161.4z"/>
<path class="st7" d="M348.9,163.4c-0.8,0.2-1.5,0.1-2.2-0.2c0.1-0.9,0.1-1.8,0.2-2.7c0-0.2,0-0.2,0.1-0.4s0.3-0.2,0.4-0.2
	c0.6-0.2,1.5-0.2,1.5,0.6C348.9,161.5,348.9,162.5,348.9,163.4z"/>
<path class="st2" d="M346.3,143.6c0.8-1.5,2.9-2.7,4.4,0.1c2.1,4.2-1.5,12-1.5,16.9h-2.6C346.4,160.3,345.9,144.6,346.3,143.6z"/>
<path class="st3" d="M356.1,130.7c-0.6,0.5-1.4,0.5-2.2,0.5c-6.4,0-9.2-1.5-9.2-5c0-3.1,6.6-2.6,9.6-1.5c0.6,0.2,1.5,0.4,2.1,1
	C357,126.6,357.6,129.6,356.1,130.7z"/>
<path class="st7" d="M347.5,110.1c-0.2,2.9-0.9,6-2.5,8.3c-0.4,0.5-0.9,1.1-1.5,1c-0.4-0.1-0.7-0.3-0.9-0.6c-0.2-0.4-0.3-0.7-0.4-1
	c-0.5-2.9,0.4-5.8,1.2-8.6c0.4-1.2,0.9-3.2,2-3.8c1.2-0.6,1.9,1.3,2,2.2C347.6,108.4,347.5,109.3,347.5,110.1z"/>
<path class="st8" d="M347.6,105.9c-0.1-0.5-0.2-1.1-0.6-1.3c-0.5-0.2-0.9,0.2-1.3,0.4c-2.2,2.1-3,4.8-3.5,7.9l5.4,0.4
	C347.8,111,347.9,108.4,347.6,105.9z"/>
<path class="st3" d="M355.6,145.9c-0.2,0.9-0.5,1.7-1.2,1.9c-0.5,0.2-1.5-1.9-1.9-2.2c-0.4-0.4-3.9-15.2-3.6-16.3
	c0.5-1.5,2-2.6,3.4-2.8c2.1-0.4,4.6,0.4,4.8,2.9c0.4,3.4,0.2,7.1-0.4,10.4C356.6,141.9,356.1,143.9,355.6,145.9z"/>
<path class="st0" d="M340.1,118c-0.2,0.4,0,0.8,0.3,1c0.3,0.3,2.2,1.2,4,0.4c0.9-0.4,1.1-1.3,0.8-2.2
	C344.6,116,340.2,117.6,340.1,118z"/>
<path class="st3" d="M351.9,144.4c0.1-1.7,1.9-3.6,4.2-1.3c3.6,3.7,4.6,10.6,6,15.8l-2.5,0.9C359.3,159.2,351.9,145.2,351.9,144.4z"
	/>
<path class="st1" d="M357.4,116.6c0.9-2.8,2-6.3,1.4-9.2c-1.2-1.4-3.6-4.8-8.3-4.8c-3.3,0-5.9,3.4-6.4,4.3c-0.7,0.9-0.4,2.3-0.3,3.5
	c0.4,2.4,1.3,11.8,0.5,18.2H358C357.7,125.4,356.6,119.4,357.4,116.6z"/>
<path class="st7" d="M360.6,113.2c-0.7-2.6-2.1-4.9-4.1-6.7c-0.4-0.4-0.9-0.6-1.3-0.5c-0.3,0.2-0.4,0.4-0.5,0.6
	c-0.1,0.3-0.1,0.5-0.1,0.8c0.2,3,0.7,6.1,1.2,9c0.2,0.9,0.4,1.9,0.8,2.8s1,1.6,1.9,2c0.5,0.2,1.2,0.3,1.6-0.1
	c0.4-0.3,0.4-0.9,0.5-1.3c0.3-1.3,0.4-2.8,0.3-4.2C360.9,114.7,360.9,114,360.6,113.2z"/>
<path class="st9" d="M361.3,114.2L361.3,114.2L361.3,114.2z"/>
<path class="st4" d="M354.6,105.9c0-0.5,0.2-1.1,0.5-1.3c0.5-0.2,1.3,0.2,1.7,0.5c2.4,2.1,3.7,4.7,4.3,7.9l-6,0.4
	C354.7,111,354.4,108.4,354.6,105.9z"/>
<path class="st7" d="M349.2,99.2c0.4-1.4,1.4-1.8,2.1-1.4c0.4,2.8,0.9,3.9,1.9,5.4c-1.3,0.9-3.6,0.7-4.1,0
	C349,103,349,100.1,349.2,99.2z"/>
<path class="st0" d="M349.3,95.9c-1.3-0.9-3.2-0.2-3.5,1.5c-0.3,1.5,1.3,4.2,2.1,4.6c1.3,0.8,2.9-1,3-1.9
	C350.9,98.8,350.2,96.7,349.3,95.9z"/>
<path class="st10" d="M350.1,96.1c0.1-0.1,0.3-0.1,0.4,0c0.2,0.1,0.2,0.2,0.3,0.2c0.4,0.3,0.6,0.5,0.9,0.9s0.4,0.8,0.4,1.2
	c0,0.3-0.1,0.5,0,0.9c0.1,0.2,0.3,0.4,0.2,0.7c-0.1,0.2-0.3,0.3-0.4,0.3s-0.4-0.2-0.5-0.3c-0.2-0.2-0.2-0.3-0.3-0.5
	c-0.3-0.5-0.8-0.9-1.1-1.4c-0.4-0.5-0.5-1.2-0.2-1.7L350.1,96.1z"/>
<path class="st10" d="M344.1,96.8c0.3-0.2,0.5-0.2,0.9-0.4c-0.2,0.2-0.3,0.4-0.4,0.5c-0.1,0.2,0,0.5,0.2,0.5c0.2,0.1,0.4,0.1,0.5,0
	c0.2-0.1,0.3-0.2,0.4-0.4c-0.1,0.2-0.2,0.2-0.2,0.4s0.1,0.3,0.2,0.3s0.2-0.1,0.3-0.2c0.4-0.3,0.8-0.6,1.2-0.9c0,0.2-0.1,0.3,0,0.4
	c0,0.2,0.1,0.3,0.2,0.3c0.2,0.1,0.4-0.1,0.5-0.3c0.2-0.2,0.3-0.4,0.5-0.4c0.3-0.1,0.4,0.2,0.6,0.4c0,0.1,0.1,0.1,0.1,0.2
	c0.3,0.4,0.5,0.7,0.9,1.1c0.1,0.2,0.2,0.2,0.3,0.3c0.2,0.1,0.3,0.2,0.4,0.1c0.2-0.1,2.6-3.6-0.4-4.6c-0.4-0.2-1,0-1.5,0.2
	c-0.4,0.2-0.9,0.4-1.3,0.4c-0.4,0.1-0.8,0.1-1.1,0.1C345.1,94.9,344.2,95.8,344.1,96.8z"/>
<path class="st0" d="M351.6,97.6c0.2,0.4,0.2,0.8,0,1.1c-0.4,0.9-1.3,0.1-1.4-0.6C350.1,97.2,351.2,96.7,351.6,97.6z"/>
<path class="st3" d="M341.9,164.7c0-0.4,0.4-0.7,0.7-0.8c0.4-0.1,0.8,0,1.1,0c1,0,2.1-0.6,2.6-1.5c0.1-0.2,0.2-0.3,0.3-0.4
	c0.2-0.1,0.4,0,0.5,0.1c0.2,0.2,0.3,0.3,0.4,0.4c0.3,0.3,0.6,0.4,0.9,0.4s0.6-0.2,0.9-0.1c0.3,0.2,0.4,0.5,0.4,0.7
	c0.2,0.4,0.2,0.9,0.3,1.2c0,0.1,0.1,0.2,0.1,0.3h-2c-0.1-0.2-0.2-0.5-0.2-0.7c0,0.2-0.1,0.5-0.2,0.7h-5.5
	C342,165,341.9,164.9,341.9,164.7z"/>
<path class="st3" d="M360.1,163.6c-0.2-0.4-0.1-0.7,0-0.9c0.2-0.2,0.2-0.9,0.2-1.8c0-0.4,0.8-0.9,1.3-0.3c0.2,0.2,0.4,0.3,0.5,0.2
	s0.2-0.3,0.4-0.2c0.2,0.1,0.3,0.4,0.4,0.6c0.2,0.4,0.4,0.8,0.5,1.2c0.1,0.1,0.1,0.2,0.2,0.3l-3.2,1.2
	C360.3,163.9,360.2,163.7,360.1,163.6z"/>
<path class="st5" d="M350.9,122h-8.2c-0.5,0-0.9-0.4-1.1-0.9l-3.6-12.8c-0.2-0.5,0.2-0.9,0.6-0.9h8.2c0.5,0,0.9,0.4,1.1,0.9
	l3.6,12.8C351.7,121.6,351.3,122,350.9,122z"/>
<path class="st6" d="M351.5,121.1l-3.6-12.8c-0.2-0.5-0.6-0.9-1.1-0.9h-0.9c0.5,0,0.9,0.4,1.1,0.9l3.6,12.8c0.2,0.5-0.2,0.9-0.6,0.9
	h0.9C351.3,122,351.7,121.6,351.5,121.1z"/>
<path class="st0" d="M350.2,118.2c-0.4,0.3-0.5,0.9-0.3,1.3s7.1,2.1,8.8,2.1c0.5,0,1.1-0.1,1.3-0.5c0.3-0.4,0.2-0.9,0.1-1.3
	c-0.3-0.8-0.7-1.5-1.2-2.1C358.6,117.4,350.6,118.1,350.2,118.2z"/>
<path class="st0" d="M347.8,117c-0.2-0.2-0.4-0.5-0.2-0.8c0.2-0.2,0.4-0.2,0.5-0.2c0.2,0.1,0.4,0.2,0.5,0.3c0.2,0.2,0.4,0.4,0.7,0.4
	c0.3,0.1,0.5-0.1,0.6-0.4s-0.2-0.6,0.1-0.9c0.2-0.2,0.3-0.1,0.4,0c0.2,0.1,0.2,0.2,0.4,0.4c0.5,0.6,0.9,1.3,1.2,2.1
	c0.2,0.8,0,1.6-0.6,2.1c-0.5,0.4-1.4,0.4-2-0.1c-0.5-0.4-0.6-0.9-0.7-1.5C348.4,117.7,348.2,117.5,347.8,117z"/>
<path class="st0" d="M339.6,116.3c0-0.1,0.1-1.5,0.2-1.5c0.2-0.2,0.6,1.5,0.5,1.7c0.4-0.1,0.5-0.1,0.9-0.1c0.3,0,0.6,0,0.7,0.3
	c0.1,0.2-0.1,0.4-0.2,0.5c-0.2,0.4,0.1,2.1-0.1,2.3c-0.5,0.5-1.9-0.4-2.1-0.9C339.2,117.7,339.3,117.1,339.6,116.3z"/>
<g>
	<ellipse class="st11" cx="300.6" cy="118.3" rx="2.9" ry="2.9"/>
	<polygon class="st1" points="300.6,116.8 299,117.9 299.5,117.9 299.5,119.5 300.2,119.5 300.2,118.3 300.9,118.3 300.9,119.5 
		301.6,119.5 301.6,117.9 302.2,117.9 	"/>
</g>
<circle class="st11" cx="371.5" cy="118.1" r="5.8"/>
<path class="st1" d="M374.4,117.7h-0.2c0-0.5-0.4-0.9-0.9-0.9h-0.2c-0.2-0.7-0.9-1.3-1.6-1.3s-1.4,0.5-1.6,1.3h-0.1
	c-0.5,0-0.9,0.4-0.9,0.9h-0.2c-0.5,0-1,0.4-1,1s0.4,1,1,1h2.3v-0.9h-0.8l1.3-1l1.3,1H372v0.9h2.3c0.5,0,1-0.4,1-1
	C375.4,118.1,375,117.7,374.4,117.7z"/>
<circle class="st11" cx="410.6" cy="161.6" r="5.8"/>
<path class="st1" d="M409.1,158.5v0.2h-0.5v-0.2h-0.4v6.3h0.4v-0.2h0.5v0.2h0.4v-1.6h2.4v1.6h0.4v-0.2h0.5v0.2h0.4v-6.3h-0.4v0.2
	h-0.4v-0.2H412v1.6h-2.4v-1.6H409.1z M409.1,164.1h-0.5v-0.6h0.5V164.1z M409.1,163h-0.5v-0.5h0.5V163z M409.1,161.9h-0.5v-0.5h0.5
	V161.9z M409.1,160.9h-0.5v-0.5h0.5V160.9z M409.1,159.8h-0.5v-0.5h0.5V159.8z M412.3,159.2h0.5v0.5h-0.5V159.2z M412.3,160.3h0.5
	v0.5h-0.5V160.3z M412.3,161.3h0.5v0.5h-0.5V161.3z M412.3,162.4h0.5v0.5h-0.5V162.4z M412.3,163.5h0.5v0.5h-0.5V163.5z
	 M411.9,160.8v1.7h-2.4v-1.7H411.9z"/>
<g>
	<g id="GIRL">
		<g id="GIRL_2_">
			<g id="LEGS_1_">
				<path class="st0" d="M322.8,177l-1.6,0.1c0,0-0.7-11.5-4.2-22c0,0-0.3-0.8-0.5-1.3c-0.1-0.3-0.2-0.5-0.2-0.5
					c0-0.2,0-0.4-0.1-0.7h4.6c-0.1,0.5-0.2,0.7-0.2,0.7s0.1,0.1,0.2,0.4c0.5,0.9,1.7,3.1,2,5C323.5,161.3,322.8,177,322.8,177z"/>
				<path class="st0" d="M312.9,160.9c-0.4,2.9-2.4,16.4-2.4,16.4l-1.7-0.1c0,0-0.4-15.4-0.6-23.4c0-0.1,0-0.3,0-0.4
					c0-0.3,0-0.5,0-0.8h4.7c-0.1,0.3-0.1,0.5-0.1,0.8c0,0.1,0,0.3,0,0.4l0,0C312.6,155.9,313.3,158.1,312.9,160.9z"/>
				<path class="st12" d="M307.3,179.6c0,0,0.1,0,0.1,0c1-0.1,2.1-0.8,2.4-1c0.1-0.1,0.1-0.1,0.1-0.1s0,0.1,0,0.2c0,0.3,0.1,1,0.4,1
					c0.2-0.1,0.3-0.3,0.3-0.5c0.1-0.7-0.3-1.8-0.3-1.8l-1.7-0.1c0,0-0.8,0.7-1.3,1.3c-0.2,0.3-0.4,0.6-0.5,0.8
					C307,179.5,307,179.6,307.3,179.6z"/>
				<path class="st12" d="M319.9,179.5c0,0,0.1,0,0.1,0c1-0.1,2.1-0.8,2.4-1c0.1-0.1,0.1-0.1,0.1-0.1s0,0.1,0,0.2c0,0.3,0.1,1,0.4,1
					c0.2-0.1,0.3-0.3,0.3-0.6c0-0.7-0.4-1.9-0.4-1.9l-1.6,0c0,0-0.8,0.7-1.3,1.3c-0.3,0.3-0.5,0.6-0.5,0.8
					C319.5,179.4,319.6,179.5,319.9,179.5z"/>
			</g>
			<g id="DRESS_1_">
				<path class="st13" d="M316.3,152.7C316.3,152.7,316.3,152.7,316.3,152.7l4.6,0c0,0,0,0,0,0H316.3z M308.1,152.7
					C308.1,152.7,308.1,152.7,308.1,152.7l4.7,0c0,0,0,0,0,0H308.1z M294.3,124.3c0,0,1.8,2.2,4,4.2c2.6,2.3,5.7,4.4,7.4,2.5
					c1.3-1.5,3.1-6.7,3.6-8.1c0,0.3-0.1,0.8-0.1,1.5c-0.1,1.9,1.5,4.4,1.8,6.3c0,0.2,0.1,0.5,0.1,0.7v0l0,0l8.4,0
					c0,0,0.1,0.1,0.2,0.2c0-0.1-0.1-0.1-0.1-0.2c-0.1-0.2-0.2-0.4-0.2-0.6c0,0,0-0.1,0-0.1c-0.1-0.4-0.1-1,0-1.6v0
					c0-0.6,0.1-1.2,0.2-1.8c0.4-2.2,1-4.3,1-4.3s-0.6-0.6,3.8,4.2l-3.6,3.9l-0.6,0.6l0,0l-0.3,0.3c0.3,0.5,0.6,1,1,1.6
					c5-3,7.6-5.8,6.7-7.2c-0.3-0.5-0.7-1.2-1.2-1.9c-1.5-2.4-3.6-5.6-4.3-6.7c-0.9-1.5-3.1-2.3-5.6-2.4c0,0-0.1,0-0.1,0
					c0,0.1,0,0.1,0,0.1s-0.8,1-1.9,1c-1.1,0-1.4-0.5-1.4-0.5l-0.1-0.3c-1.3,0.3-3.4,0.6-4.3,1.5c-2.2,2.2-4.8,9.9-4.8,9.9l-3.5-1.5
					l-5.6-2.2L294.3,124.3z"/>
				<path class="st14" d="M307.9,152.7h13.1c0,0,0,0,0,0c0-0.1,0-0.1,0-0.2c0,0,0,0,0,0c0,0,0,0,0,0c0,0,0,0,0,0c0,0,0,0,0-0.1
					c0,0,0,0,0,0c0,0,0-0.1,0-0.1c0,0,0-0.1,0-0.1c0-0.1,0.1-0.3,0.1-0.4c0,0,0-0.1,0-0.1c0,0,0,0,0,0c0,0,0-0.1,0-0.1
					c0-0.1,0-0.1,0-0.2c0,0,0-0.1,0-0.1c0,0,0,0,0,0c0,0,0-0.1,0-0.1c0,0,0,0,0,0c0,0,0,0,0,0c0,0,0,0,0-0.1c0,0,0,0,0-0.1
					c0,0,0,0,0-0.1c0,0,0,0,0-0.1c0-0.1,0-0.2,0.1-0.3c0,0,0-0.1,0-0.1c0-0.1,0-0.2,0.1-0.3c0,0,0,0,0-0.1c0,0,0-0.1,0-0.1
					c0,0,0,0,0-0.1c0,0,0,0,0-0.1c0,0,0-0.1,0-0.1c0-0.1,0-0.1,0-0.2c0,0,0-0.1,0-0.1c0-0.1,0-0.2,0.1-0.3c0,0,0-0.1,0-0.1
					c0,0,0,0,0,0c0,0,0-0.1,0-0.1c0,0,0,0,0,0c0,0,0,0,0-0.1c0-0.1,0-0.2,0-0.2c0,0,0-0.1,0-0.1c0,0,0-0.1,0-0.1c0,0,0-0.1,0-0.1
					c0,0,0-0.1,0-0.1c0,0,0,0,0,0c0-0.1,0-0.2,0.1-0.3c0,0,0,0,0,0c0-0.2,0.1-0.4,0.1-0.5c0-0.1,0-0.2,0.1-0.4
					c0.1-0.4,0.1-0.7,0.2-1.1c0-0.1,0-0.2,0-0.3c0,0,0-0.1,0-0.1c0-0.1,0-0.2,0-0.2c0-0.2,0-0.3,0.1-0.5c0-0.1,0-0.2,0-0.3
					c0-0.1,0-0.2,0-0.3c0,0,0,0,0,0c0-0.1,0-0.2,0-0.2c0-0.2,0.1-0.4,0.1-0.7c0-0.1,0-0.2,0-0.3c0,0,0-0.1,0-0.1c0-0.1,0-0.2,0-0.4
					c0-0.1,0-0.1,0-0.2c0-0.2,0-0.5,0-0.7c0,0,0,0,0-0.1c0,0,0-0.1,0-0.1c0,0,0,0,0,0c0,0,0-0.1,0-0.1c0,0,0,0,0,0c0,0,0-0.1,0-0.1
					c0,0,0,0,0-0.1c0,0,0-0.1,0-0.1c0,0,0-0.1,0-0.1c0,0,0,0,0-0.1c0,0,0-0.1,0-0.1c0,0,0-0.1,0-0.1c0,0,0,0,0,0c0,0,0,0,0-0.1
					c0,0,0-0.1,0-0.1c0,0,0-0.1,0-0.1c0,0,0-0.1,0-0.1c0,0,0-0.1,0-0.1c0,0,0-0.1,0-0.1c0-0.1,0-0.2,0-0.3c0,0,0-0.1,0-0.1
					c0,0,0-0.1,0-0.1c0,0,0,0,0-0.1c0,0,0-0.1,0-0.1c0,0,0-0.1,0-0.1c0,0,0-0.1,0-0.1c0,0,0-0.1,0-0.1c0,0,0,0,0-0.1c0,0,0,0,0-0.1
					c0,0,0,0,0-0.1c0,0,0,0,0-0.1c0-0.1,0-0.1,0-0.2c0-0.1,0-0.1,0-0.2c0,0,0-0.1,0-0.1c0,0,0,0,0-0.1c0,0,0,0,0,0
					c0-0.1,0-0.1,0-0.2c0,0,0,0,0,0c0,0,0-0.1,0-0.1c0,0,0,0,0,0c0-0.1,0-0.2-0.1-0.2c0,0,0-0.1,0-0.1c0-0.1-0.1-0.2-0.1-0.3
					c0,0,0-0.1,0-0.1c0,0,0,0,0,0c0,0,0-0.1,0-0.1c0,0,0-0.1-0.1-0.1c0,0,0-0.1,0-0.1c0,0,0-0.1,0-0.1c0,0,0,0,0,0c0,0,0-0.1,0-0.1
					c0,0,0-0.1,0-0.1c0,0,0,0,0,0c0,0,0-0.1,0-0.1c0,0,0-0.1,0-0.1c0,0,0-0.1,0-0.1v0c0,0,0-0.1,0-0.1c0,0,0,0,0,0c0,0,0-0.1,0-0.1
					c0-0.1-0.1-0.1-0.1-0.2c0,0,0-0.1,0-0.1c0,0,0,0,0-0.1c0,0,0,0,0,0c0,0,0,0,0-0.1c0-0.1-0.1-0.2-0.1-0.2c0,0,0-0.1-0.1-0.1
					c0,0,0-0.1,0-0.1c0-0.1-0.1-0.1-0.1-0.2c0,0,0-0.1,0-0.1c0-0.1-0.1-0.1-0.1-0.2c0-0.1-0.1-0.1-0.1-0.2c0-0.1-0.1-0.1-0.1-0.2
					c0,0,0,0,0,0c0,0,0,0,0,0h0c-0.4-0.6-0.7-1.2-1-1.6l0,0c0,0,0,0,0,0c0,0,0,0,0,0c0,0,0,0,0,0c0,0,0,0,0,0c0,0,0-0.1-0.1-0.1
					c0,0,0-0.1-0.1-0.1c0,0,0,0,0,0c0,0,0-0.1-0.1-0.1v0l0,0l0,0c-0.1-0.1-0.2-0.2-0.2-0.2l-8.4,0l0,0l0,0L307.9,152.7z"/>
			</g>
			<g id="HEAD_1_">
				<path class="st0" d="M307.3,109c0,0,0,0.1,0,0.1c0.3,1.6,1.1,5.1,2,5c0.1,0,0.2,0,0.3,0c0,0,0,0,0,0c0,0,0.1,0,0.1,0
					c0.4-0.1,0.7-0.1,0.9-0.2c0,0,0,0,0,0c0.1,0,0.2,0,0.2,0l0.8,2.4l0.2,0.7l0.1,0.3c0,0,0.4,0.7,1.8,0.7s2.3-1.2,2.3-1.2
					s0-0.1,0-0.2c0,0,0,0,0-0.1c-0.2-0.1-0.4-0.3-0.7-0.4c-1.1-0.6-1.6-1.6-1.8-2.7c-0.2-1.2-0.3-3.4-2-3.3
					C308.9,110.2,307.7,109.3,307.3,109z"/>
				<path class="st12" d="M319.3,130.7c0,0,0,0.1,0,0.1c0,0.2,0.1,0.4,0.2,0.6c0.1,0.1,0.3,0.2,0.4,0.3c0,0,0.1,0,0.1,0l0,0l0.6-0.6
					l3.6-3.9c-4.4-4.9-3.8-4.2-3.8-4.2s-0.6,2.2-1,4.3c-0.1,0.6-0.2,1.2-0.2,1.8v0C319.2,129.7,319.2,130.3,319.3,130.7z"/>
				<path class="st12" d="M307.2,108.9c0,0,0,0,0.1,0.1c0.4,0.3,1.6,1.2,4.1,1.1c1.7-0.1,1.7,2.2,2,3.3c0.2,1.2,0.8,2.1,1.8,2.7
					c0.2,0.1,0.5,0.3,0.7,0.4c0,0,0.1,0,0.1,0.1c3.1,0.1,5.8,1.1,6.9,3c0.8,1.4,2.9,4.5,4.8,7.5c0.3-0.5,0.6-0.9,0.5-1.9
					c-0.6-8.9-10-8-10.7-11.9c-1.4-7.8-3.6-7.9-6-7.8C309.1,105.7,307.4,107.1,307.2,108.9z"/>
				<path class="st7" d="M311.6,116.2l-0.8-2.4c0,0-0.1,0-0.2,0c1.4-0.4,2.2-1.5,2.2-1.5C312.9,115,312.2,115.8,311.6,116.2z"/>
			</g>
			<g id="HANDS_1_">
				<g>
					<polygon class="st15" points="294.2,124.7 295,124.6 293.4,119.1 292.6,119.2 					"/>
					<polygon class="st1" points="294.8,124.6 295.6,124.5 293.9,119 293.1,119.1 					"/>
				</g>
				<path class="st0" d="M293.4,120.6c-0.3,0.2-0.6,0.9-0.6,1.8c0,0.9,1.3,1.7,1.3,1.7S295.1,119.2,293.4,120.6z"/>
				<path class="st16" d="M318.1,133.6c1.3,0.4,2.5,0.2,2.7,0.2c0,0,0,0,0,0l-0.6-2.1c0,0,0,0-0.1,0c-0.4,0-2.2,0-2.6,0
					C317,131.8,317.1,133.3,318.1,133.6z"/>
			</g>
		</g>
		<g id="BAG">
			<path class="st17" d="M311.2,142.7c0,0.8,0.4,1.5,1,1.9c0.3,0.2,0.7,0.3,1.1,0.3h1.1c-1.2,0-2.1-1-2.1-2.2c0-0.3,0.1-0.6,0.2-0.9
				l1.3-2.6l0.1-0.3l2-3.8l0.1-0.2l0.1-0.2c0,0,0,0,0,0l0.1-0.1c0,0,0,0,0,0c0.1-0.2,0.3-0.3,0.5-0.3h-1.1c-0.2,0-0.4,0.1-0.5,0.3
				c0,0,0,0,0,0l-0.1,0.1c0,0,0,0,0,0l-0.1,0.2l-3.6,6.8C311.2,142.1,311.2,142.4,311.2,142.7z"/>
			<path class="st1" d="M312.2,142.7c0,1.2,0.9,2.2,2.1,2.2h8.8c1.2,0,2.1-1,2.1-2.2c0-0.3-0.1-0.6-0.2-0.9l-1.3-2.6l-0.1-0.3
				l-2-3.9l0-0.1l-0.1-0.2c0,0,0,0,0,0l-0.1-0.1c0,0,0,0,0,0c-0.1-0.2-0.3-0.3-0.5-0.3h-4.3c-0.2,0-0.4,0.1-0.5,0.3c0,0,0,0,0,0
				l-0.1,0.1c0,0,0,0,0,0l-0.1,0.2l-0.1,0.2l-2,3.8l-0.1,0.3l-1.3,2.6C312.3,142.1,312.2,142.4,312.2,142.7z"/>
			<path class="st16" d="M314.8,145.5C314.8,145.5,314.8,145.5,314.8,145.5C314.8,145.5,314.8,145.5,314.8,145.5z"/>
			<path class="st16" d="M314.8,145.5C314.8,145.5,314.8,145.5,314.8,145.5C314.8,145.5,314.8,145.5,314.8,145.5z"/>
			<path class="st16" d="M314.9,145.5C314.9,145.5,314.9,145.5,314.9,145.5C314.9,145.5,314.9,145.5,314.9,145.5z"/>
			<path class="st16" d="M315,145.5C315,145.5,314.9,145.5,315,145.5C314.9,145.5,314.9,145.5,315,145.5L315,145.5z"/>
			<path class="st16" d="M314.7,145.5C314.7,145.5,314.7,145.5,314.7,145.5C314.7,145.5,314.7,145.5,314.7,145.5z"/>
			<path class="st16" d="M314.6,145.4C314.6,145.4,314.6,145.4,314.6,145.4C314.6,145.4,314.6,145.4,314.6,145.4z"/>
			<path class="st16" d="M314.7,145.5C314.7,145.5,314.7,145.5,314.7,145.5C314.7,145.5,314.7,145.5,314.7,145.5z"/>
			<path class="st16" d="M314.6,145.4C314.6,145.4,314.6,145.5,314.6,145.4C314.6,145.5,314.6,145.4,314.6,145.4z"/>
			<path class="st16" d="M321.6,135L321.6,135C321.6,135,321.6,135,321.6,135L321.6,135z"/>
			<path class="st16" d="M314.8,145.5C314.8,145.5,314.8,145.5,314.8,145.5C314.8,145.5,314.8,145.5,314.8,145.5z"/>
			<path class="st16" d="M314.8,145.5C314.8,145.5,314.8,145.5,314.8,145.5C314.8,145.5,314.8,145.5,314.8,145.5z"/>
			<path class="st16" d="M315,145.5C315,145.5,314.9,145.5,315,145.5C314.9,145.5,314.9,145.5,315,145.5L315,145.5z"/>
			<path class="st16" d="M314.9,145.5C314.9,145.5,314.9,145.5,314.9,145.5C314.9,145.5,314.9,145.5,314.9,145.5z"/>
			<path class="st16" d="M314.7,145.5C314.7,145.5,314.7,145.5,314.7,145.5C314.7,145.5,314.7,145.5,314.7,145.5z"/>
			<path class="st16" d="M314.6,145.4C314.6,145.4,314.6,145.4,314.6,145.4C314.6,145.4,314.6,145.4,314.6,145.4z"/>
			<path class="st16" d="M314.6,145.4C314.6,145.4,314.6,145.5,314.6,145.4C314.6,145.5,314.6,145.4,314.6,145.4z"/>
			<g>
				<path class="st1" d="M316.3,134.6h0.8c0-0.7,0.2-1.4,0.5-1.8c0.3-0.5,0.7-0.7,1.1-0.7c0.4,0,0.8,0.2,1.1,0.7
					c0.3,0.5,0.5,1.1,0.5,1.8h0.8c0-0.9-0.2-1.8-0.7-2.4c-0.5-0.7-1.1-1.1-1.8-1.1s-1.3,0.4-1.8,1.1
					C316.6,132.8,316.3,133.7,316.3,134.6z"/>
			</g>
			<path class="st0" d="M317.9,133.8c1.3,0.4,2.1,0,2.3,0c0,0,0.1-0.1,0.1-0.1l-1-1.6c0,0,0,0-0.1,0c-0.2-0.1-1.3-0.3-2.3-0.2
				C316.5,132,317,133.5,317.9,133.8z"/>
			<path class="st17" d="M313.7,139.2c0.9,1.1,2.8,1.9,5,1.9c2.2,0,4.1-0.8,5-1.9l-0.1-0.3c-1,1-2.8,1.7-4.9,1.7
				c-2.1,0-3.9-0.7-4.9-1.7L313.7,139.2z"/>
			<g>
				<path class="st18" d="M319.4,139.3h-1c-0.2,0-0.3,0.1-0.3,0.3l0,1.5c0,0.2,0.2,0.3,0.3,0.3h1c0.2,0,0.3-0.1,0.3-0.3v-1.5
					C319.7,139.4,319.6,139.3,319.4,139.3z M319.3,139.7v1.3h-0.8l0-1.3H319.3z"/>
			</g>
		</g>
	</g>
</g>
<linearGradient id="SVGID_1_" gradientUnits="userSpaceOnUse" x1="281.3517" y1="124.2154" x2="303.721" y2="115.9426">
	<stop  offset="0" style="stop-color:#FFFFFF"/>
	<stop  offset="1" style="stop-color:#FFFFFF;stop-opacity:0"/>
</linearGradient>
<polygon class="st19" points="294.3,119 302.9,108.1 308.3,122.4 295.9,123.7 "/>
</svg>
