<?xml version="1.0" encoding="utf-8"?>
<!-- Generator: Adobe Illustrator 18.0.0, SVG Export Plug-In . SVG Version: 6.00 Build 0)  -->
<!DOCTYPE svg PUBLIC "-//W3C//DTD SVG 1.1//EN" "http://www.w3.org/Graphics/SVG/1.1/DTD/svg11.dtd">
<svg version="1.1" id="Layer_1" xmlns="http://www.w3.org/2000/svg" xmlns:xlink="http://www.w3.org/1999/xlink" x="0px" y="0px"
	 viewBox="0 0 28 28" enable-background="new 0 0 28 28" xml:space="preserve">
<path fill-rule="evenodd" clip-rule="evenodd" fill="#FFFFFF" d="M1.1,2.4l1.3-1.3c1.4-1.4,3.7-1.4,5.1,0l19.3,19.3
	c1.4,1.4,1.4,3.7,0,5.1l-1.3,1.3c-1.4,1.4-3.7,1.4-5.1,0L1.1,7.5C-0.3,6.1-0.3,3.8,1.1,2.4z"/>
<path fill-rule="evenodd" clip-rule="evenodd" fill="#FFFFFF" d="M1.1,20.4L20.4,1.1c1.4-1.4,3.7-1.4,5.1,0l1.3,1.3
	c1.4,1.4,1.4,3.7,0,5.1L7.5,26.9c-1.4,1.4-3.7,1.4-5.1,0l-1.3-1.3C-0.3,24.1-0.3,21.8,1.1,20.4z"/>
</svg>
