<svg xmlns="http://www.w3.org/2000/svg" width="17.16" height="96.96" viewBox="0 0 17.16 96.96">
  <path id="quicklink-text" d="M7.74-13.98C3.46-13.98.96-10.9.96-6.9.96-2.94,3.22.2,7.56.2A7.643,7.643,0,0,0,9.78-.1l3.84,2.66L15.36.58l-3.1-2.12a7.406,7.406,0,0,0,2.08-5.4C14.34-11.16,11.78-13.98,7.74-13.98Zm-.12,2.42c2.56,0,3.64,2.04,3.64,4.66,0,2.46-.94,4.68-3.6,4.68-2.44,0-3.62-2.04-3.62-4.74C4.04-9.64,5.12-11.56,7.62-11.56Zm17.96,1.2H22.72v5.52c0,2.04-.54,2.74-1.84,2.74-1.24,0-1.6-.94-1.6-2.08v-6.18H16.42V-3.6c0,2.56,1.34,3.84,3.44,3.84A2.959,2.959,0,0,0,22.72-1.2c.02.36.04.92.08,1.2h2.8c-.02-.92-.02-2.02-.02-3ZM28.16,0h2.88V-10.36H28.16Zm2.88-12.04V-14.6H28.16v2.56Zm8.72,8.7a1.763,1.763,0,0,1-1.78,1.36c-1.24,0-2.04-1-2.04-3.22,0-2,.74-3.14,2.06-3.14a1.619,1.619,0,0,1,1.78,1.42h2.78c-.04-1.16-1.02-3.68-4.5-3.68-3.16,0-5.02,2.44-5.02,5.5,0,3.12,1.66,5.34,4.88,5.34a4.284,4.284,0,0,0,4.64-3.58Zm7.5-11.26H44.38V0h2.88V-3.32L48.58-4.6,51.2,0h3.24L50.5-6.44l3.6-3.92H50.82c-1.44,1.74-2.8,3.34-3.56,4.38ZM58.4,0V-14.6H55.52V0Zm2.56,0h2.88V-10.36H60.96Zm2.88-12.04V-14.6H60.96v2.56ZM66.42,0H69.3V-5.76c0-1.84.68-2.52,1.9-2.52,1.28,0,1.66.84,1.66,2.02V0h2.86V-6.58c0-2.6-1.34-4.02-3.42-4.02a3.15,3.15,0,0,0-3,1.56c-.02-.32-.06-1.04-.12-1.32H66.4c.02.78.02,1.74.02,2.62ZM81.14-14.6H78.26V0h2.88V-3.32L82.46-4.6,85.08,0h3.24L84.38-6.44l3.6-3.92H84.7c-1.44,1.74-2.8,3.34-3.56,4.38ZM88.78-3.12C89.02-1.28,90.3.24,93.46.24c3.14,0,4.46-1.56,4.46-3.28,0-1.52-.5-2.7-3.96-3.5-1.68-.4-2-.64-2-1.16,0-.46.32-.88,1.26-.88,1.34,0,1.6.72,1.7,1.1h2.72c-.08-1.4-1.16-3.12-4.3-3.12-3.12,0-4.18,1.62-4.18,3.14,0,1.46.54,2.5,3.92,3.34C94.56-3.76,95-3.5,95-2.84c0,.64-.38,1.02-1.44,1.02a1.8,1.8,0,0,1-1.96-1.3Z" transform="translate(14.6 97.92) rotate(-90)" fill="#646464"/>
</svg>
