<?xml version="1.0" encoding="utf-8"?>
<!-- Generator: Adobe Illustrator 21.0.0, SVG Export Plug-In . SVG Version: 6.00 Build 0)  -->
<svg version="1.1" id="Capa_1" xmlns="http://www.w3.org/2000/svg" xmlns:xlink="http://www.w3.org/1999/xlink" x="0px" y="0px"
	 viewBox="0 0 27 27" style="enable-background:new 0 0 27 27;" xml:space="preserve">
<style type="text/css">
	.st0{fill:#FFFFFF;}
</style>
<g>
	<g>
		<path class="st0" d="M15.1,11.6c0-0.7,0.4-1.3,0.9-1.6c-0.3-0.1-0.7-0.2-1.1-0.3c0.9-0.5,1.4-1.4,1.4-2.4c0-1.5-1.3-2.8-2.8-2.8
			s-2.7,1.3-2.7,2.8c0,1.1,0.6,1.9,1.4,2.4c-2,0.3-3.6,1.4-3.6,2.6h6.6C15.1,12.1,15.1,11.8,15.1,11.6z"/>
	</g>
	<path class="st0" d="M16.9,10.1c-0.8,0-1.4,0.7-1.4,1.4c0,0.8,0.7,1.4,1.4,1.4c0.8,0,1.4-0.7,1.4-1.4
		C18.4,10.8,17.7,10.1,16.9,10.1z M17.8,11.8h-0.7v0.7h-0.5v-0.7H16v-0.5h0.7v-0.7h0.5v0.7h0.7V11.8z"/>
</g>
<g>
	<path class="st0" d="M6.8,13.7c0.2,0,0.6-0.1,1.1-0.1c0.5,0,0.8,0.1,1.1,0.3c0.2,0.2,0.4,0.5,0.4,0.8c0,0.3-0.1,0.6-0.3,0.8
		c-0.3,0.3-0.7,0.4-1.1,0.4c-0.1,0-0.2,0-0.3,0v1.2H6.8V13.7z M7.6,15.3c0.1,0,0.1,0,0.3,0c0.4,0,0.7-0.2,0.7-0.6
		c0-0.3-0.2-0.5-0.6-0.5c-0.2,0-0.3,0-0.3,0V15.3z"/>
	<path class="st0" d="M11.2,17.1l0-0.3h0c-0.2,0.2-0.4,0.3-0.7,0.3c-0.5,0-0.8-0.4-0.8-0.8c0-0.7,0.6-1,1.5-1v0
		c0-0.1-0.1-0.3-0.5-0.3c-0.3,0-0.5,0.1-0.7,0.2l-0.1-0.5c0.2-0.1,0.5-0.2,1-0.2c0.8,0,1.1,0.5,1.1,1.1v0.9c0,0.2,0,0.5,0,0.6H11.2z
		 M11.1,15.9c-0.4,0-0.7,0.1-0.7,0.4c0,0.2,0.1,0.3,0.3,0.3c0.2,0,0.4-0.1,0.4-0.3c0,0,0-0.1,0-0.1V15.9z"/>
	<path class="st0" d="M13,14.6l0.4,1.2c0,0.1,0.1,0.3,0.1,0.5h0c0-0.1,0.1-0.3,0.1-0.5l0.3-1.2h0.8l-0.6,1.7c-0.4,1-0.6,1.4-0.9,1.7
		c-0.3,0.2-0.6,0.3-0.8,0.3l-0.2-0.7c0.1,0,0.2-0.1,0.3-0.1c0.1-0.1,0.2-0.2,0.3-0.3c0,0,0-0.1,0-0.1c0,0,0-0.1,0-0.1l-0.9-2.3H13z"
		/>
	<path class="st0" d="M18.4,17.1c-0.1-0.1-0.1-0.2-0.2-0.2c-0.2,0.2-0.5,0.3-1,0.3c-0.8,0-1.2-0.5-1.2-1c0-0.5,0.3-0.8,0.7-1v0
		c-0.1-0.2-0.3-0.4-0.3-0.7c0-0.4,0.3-0.9,1-0.9c0.5,0,0.9,0.3,0.9,0.8c0,0.4-0.2,0.6-0.7,0.9l0,0c0.2,0.2,0.4,0.5,0.6,0.6
		c0.1-0.2,0.2-0.5,0.3-0.8h0.7c-0.1,0.5-0.3,1-0.6,1.3c0.2,0.2,0.4,0.4,0.6,0.7H18.4z M17.8,16.4c-0.2-0.2-0.5-0.5-0.8-0.9
		c-0.1,0.1-0.3,0.3-0.3,0.5c0,0.3,0.2,0.5,0.6,0.5C17.5,16.6,17.7,16.5,17.8,16.4z M17.1,14.4c0,0.2,0.1,0.3,0.2,0.5
		c0.3-0.2,0.4-0.3,0.4-0.5c0-0.2-0.1-0.3-0.3-0.3C17.2,14.1,17.1,14.2,17.1,14.4z"/>
	<path class="st0" d="M6.5,20.6H5.2v0.8h1.4v0.6H4.4v-3.5h2.1v0.6H5.2V20h1.3V20.6z"/>
	<path class="st0" d="M7.8,19.6L8,20c0.1,0.1,0.1,0.3,0.2,0.4h0c0.1-0.1,0.1-0.3,0.2-0.4l0.2-0.4h0.9l-0.8,1.2l0.8,1.3H8.6l-0.3-0.5
		c-0.1-0.1-0.1-0.3-0.2-0.4h0C8.1,21.4,8,21.5,8,21.7l-0.2,0.5H6.9l0.9-1.3l-0.8-1.2H7.8z"/>
	<path class="st0" d="M10.8,18.9v0.7h0.6v0.6h-0.6v0.9c0,0.3,0.1,0.4,0.3,0.4c0.1,0,0.2,0,0.2,0l0,0.6c-0.1,0-0.3,0.1-0.5,0.1
		c-0.3,0-0.5-0.1-0.6-0.2c-0.1-0.1-0.2-0.4-0.2-0.7v-1H9.7v-0.6H10V19L10.8,18.9z"/>
	<path class="st0" d="M11.8,20.4c0-0.4,0-0.6,0-0.8h0.7l0,0.5h0c0.1-0.4,0.4-0.5,0.7-0.5c0.1,0,0.1,0,0.2,0v0.7c-0.1,0-0.1,0-0.2,0
		c-0.3,0-0.5,0.2-0.5,0.4c0,0.1,0,0.1,0,0.2v1.3h-0.8V20.4z"/>
	<path class="st0" d="M15.1,22.1l0-0.3h0c-0.2,0.2-0.4,0.3-0.7,0.3c-0.5,0-0.8-0.4-0.8-0.8c0-0.7,0.6-1,1.5-1v0
		c0-0.1-0.1-0.3-0.5-0.3c-0.3,0-0.5,0.1-0.7,0.2l-0.1-0.5c0.2-0.1,0.5-0.2,1-0.2c0.8,0,1.1,0.5,1.1,1.1v0.9c0,0.2,0,0.5,0,0.6H15.1z
		 M15.1,20.9c-0.4,0-0.7,0.1-0.7,0.4c0,0.2,0.1,0.3,0.3,0.3c0.2,0,0.4-0.1,0.4-0.3c0,0,0-0.1,0-0.1V20.9z"/>
	<path class="st0" d="M19.4,21.9c-0.2,0.1-0.7,0.2-1.2,0.2c-0.6,0-1.1-0.2-1.4-0.5c-0.3-0.3-0.5-0.8-0.5-1.3c0-1.2,0.8-1.8,2-1.8
		c0.4,0,0.8,0.1,1,0.2l-0.2,0.6c-0.2-0.1-0.4-0.1-0.8-0.1c-0.7,0-1.1,0.4-1.1,1.1c0,0.7,0.4,1.1,1.1,1.1c0.2,0,0.3,0,0.4-0.1v-0.7
		h-0.5v-0.6h1.3V21.9z"/>
	<path class="st0" d="M20,18.7c0.2,0,0.6-0.1,1-0.1c0.5,0,0.8,0,1,0.2c0.2,0.1,0.4,0.4,0.4,0.7c0,0.3-0.2,0.6-0.6,0.7v0
		c0.4,0.1,0.7,0.4,0.7,0.9c0,0.3-0.1,0.6-0.4,0.7c-0.3,0.2-0.7,0.3-1.4,0.3c-0.4,0-0.7,0-0.9-0.1V18.7z M20.8,20H21
		c0.4,0,0.6-0.2,0.6-0.4c0-0.3-0.2-0.4-0.6-0.4c-0.2,0-0.3,0-0.3,0V20z M20.8,21.5c0.1,0,0.2,0,0.3,0c0.4,0,0.7-0.1,0.7-0.5
		c0-0.4-0.3-0.5-0.7-0.5h-0.3V21.5z"/>
</g>
</svg>
