<?xml version="1.0" encoding="utf-8"?>
<!-- Generator: Adobe Illustrator 17.0.0, SVG Export Plug-In . SVG Version: 6.00 Build 0)  -->
<!DOCTYPE svg PUBLIC "-//W3C//DTD SVG 1.1//EN" "http://www.w3.org/Graphics/SVG/1.1/DTD/svg11.dtd">
<svg version="1.1" id="Capa_1" xmlns="http://www.w3.org/2000/svg" xmlns:xlink="http://www.w3.org/1999/xlink" x="0px" y="0px"
	 width="50px" height="50px" viewBox="231 231 50 50" enable-background="new 231 231 50 50" xml:space="preserve">
<g>
	<path fill="#FB991C" d="M256,231c-13.807,0-25,11.193-25,25s11.193,25,25,25s25-11.193,25-25S269.807,231,256,231z M246.625,268.5
		c-1.726,0-3.125-1.399-3.125-3.125s1.399-3.125,3.125-3.125s3.125,1.399,3.125,3.125S248.351,268.5,246.625,268.5z M255.219,268.5
		c0-6.462-5.257-11.719-11.719-11.719v-4.688c9.046,0,16.406,7.36,16.406,16.406H255.219z M264.594,268.5
		c0-5.634-2.194-10.931-6.178-14.916c-3.984-3.984-9.281-6.178-14.915-6.178v-4.688c6.886,0,13.361,2.682,18.23,7.551
		c4.869,4.869,7.551,11.344,7.551,18.23H264.594z"/>
</g>
</svg>
