<?xml version="1.0" encoding="utf-8"?>
<!-- Generator: Adobe Illustrator 22.0.0, SVG Export Plug-In . SVG Version: 6.00 Build 0)  -->
<svg version="1.1" id="Layer_1" xmlns="http://www.w3.org/2000/svg" xmlns:xlink="http://www.w3.org/1999/xlink" x="0px" y="0px"
	 viewBox="0 0 20 20" style="enable-background:new 0 0 20 20;" xml:space="preserve">
<g>
	<path d="M15.6,12.4c-1,0-2,0.5-2.6,1.3l-5.6-2.8c0.1-0.3,0.1-0.6,0.1-0.8c0-0.3-0.1-0.6-0.1-0.9L13,6.2c0.6,0.8,1.5,1.3,2.6,1.3
		c1.8,0,3.3-1.5,3.3-3.3c0-1.8-1.5-3.3-3.3-3.3c-1.8,0-3.3,1.5-3.3,3.3c0,0.3,0.1,0.6,0.1,0.8L6.9,8C6.3,7.2,5.4,6.7,4.4,6.7
		c-1.8,0-3.3,1.5-3.3,3.3c0,1.8,1.5,3.3,3.3,3.3c1.1,0,2-0.5,2.6-1.3l5.5,2.8c-0.1,0.3-0.2,0.6-0.2,0.9c0,1.8,1.5,3.3,3.3,3.3
		c1.8,0,3.3-1.5,3.3-3.3C18.9,13.9,17.5,12.4,15.6,12.4L15.6,12.4z M15.6,12.4"/>
</g>
</svg>
