<?xml version="1.0" encoding="utf-8"?>
<!-- Generator: Adobe Illustrator 18.0.0, SVG Export Plug-In . SVG Version: 6.00 Build 0)  -->
<!DOCTYPE svg PUBLIC "-//W3C//DTD SVG 1.1//EN" "http://www.w3.org/Graphics/SVG/1.1/DTD/svg11.dtd">
<svg version="1.1" id="Layer_1" xmlns="http://www.w3.org/2000/svg" xmlns:xlink="http://www.w3.org/1999/xlink" x="0px" y="0px"
	 viewBox="0 0 25 25" enable-background="new 0 0 25 25" xml:space="preserve">
<g>
	<path fill="#AFAFAF" d="M24.6,15.4l-4.4-5.7C20,9.3,19.5,9,19,9c-0.4,0-0.7,0.1-1,0.3c-0.2,0.2-0.4,0.3-0.5,0.6
		c-0.3-0.4-0.8-0.6-1.3-0.6c-0.4,0-0.7,0.1-1,0.3c-0.4,0.3-0.6,0.7-0.6,1.1l-0.2-0.2c-0.3-0.4-0.8-0.7-1.3-0.7c-0.4,0-0.7,0.1-1,0.3
		c-0.4,0.3-0.6,0.7-0.6,1.1L8.9,8.2C8.6,7.8,8.1,7.5,7.6,7.5c-0.4,0-0.7,0.1-1,0.3c-0.7,0.6-0.9,1.6-0.3,2.3l6.2,8.1L11.3,18
		C11.2,18,11,18,10.9,18c-0.7,0-1.4,0.5-1.6,1.2C9,20.1,9.5,21,10.4,21.2l6,1.7c0.2,0,0.3,0.1,0.5,0.1c0.4,0,0.7-0.1,1-0.3l6.5-5
		C25.1,17.2,25.2,16.1,24.6,15.4z"/>
	<path fill="#AFAFAF" d="M9.7,7.6l1.5,2L14.9,6c1-1,1-2.7,0-3.7l0,0c-1-1-2.7-1-3.7,0L6.5,6.8c0.3-0.2,0.7-0.2,1.1-0.2
		C8.4,6.5,9.2,6.9,9.7,7.6z"/>
	<path fill="#AFAFAF" d="M5.1,8.1l-4.3,4.3c-1,1-1,2.7,0,3.7l0,0c1,1,2.7,1,3.7,0l2.8-2.8l-2-2.5C4.9,10,4.8,9,5.1,8.1z"/>
</g>
</svg>
