<?xml version="1.0" encoding="utf-8"?>
<!-- Generator: Adobe Illustrator 21.0.0, SVG Export Plug-In . SVG Version: 6.00 Build 0)  -->
<svg version="1.1" id="Layer_1" xmlns="http://www.w3.org/2000/svg" xmlns:xlink="http://www.w3.org/1999/xlink" x="0px" y="0px"
	 viewBox="0 0 19 21" style="enable-background:new 0 0 19 21;" xml:space="preserve">
<style type="text/css">
	.st0{fill:#0000FF;}
	.st1{fill:#FFFFFF;}
	.st2{fill:none;stroke:#FFFFFF;stroke-linecap:round;stroke-linejoin:round;stroke-miterlimit:10;}
</style>
<ellipse class="st0" cx="9.5" cy="9.3" rx="9.5" ry="9.3"/>
<g>
	<path class="st0" d="M10,17.5H9c-3.8,0-6.8-3.1-6.8-6.8V8.4c0-3.8,3.1-6.8,6.8-6.8h1c3.8,0,6.8,3.1,6.8,6.8v2.2
		C16.8,14.4,13.7,17.5,10,17.5z"/>
	<ellipse class="st1" cx="5.8" cy="6.4" rx="0.6" ry="0.6"/>
	<ellipse class="st1" cx="12.8" cy="6.4" rx="0.6" ry="0.6"/>
	<line class="st2" x1="9.4" y1="8" x2="9.4" y2="10.6"/>
	<polygon class="st0" points="9.2,17 13.6,21 13.7,16.3 	"/>
</g>
<path class="st2" d="M11.6,12.5c-0.6,0.4-1.4,0.7-2.2,0.7c-1.1,0-2-0.5-2.7-1.2"/>
</svg>
