<?xml version="1.0" encoding="utf-8"?>
<!-- Generator: Adobe Illustrator 22.0.0, SVG Export Plug-In . SVG Version: 6.00 Build 0)  -->
<svg version="1.1" id="Layer_1" xmlns="http://www.w3.org/2000/svg" xmlns:xlink="http://www.w3.org/1999/xlink" x="0px" y="0px"
	 viewBox="0 0 559.6 193.7" style="enable-background:new 0 0 559.6 193.7;" xml:space="preserve">
<style type="text/css">
	.st0{opacity:0.26;}
	.st1{fill:#FCE6FF;}
	.st2{opacity:0.24;}
</style>
<g>
	<g class="st0">
		<path class="st1" d="M490.9,165.5c-20.5-10.8-19.8-32.3-55.6-13.6c-31.6,16.5-24.3-15.6-44.9-10c-9.3,2.5-41.3,38.8-41.5,39
			c-24.7,58-27.2,53,102.9,39.4c35.1,0.4,106.3-8,106.3-8C550.4,204.2,503.1,171.9,490.9,165.5z"/>
		<g>
			<g>
				<path class="st1" d="M480.6,110.8c0.9-2.6,3.9-3.6,5.3-5.9c1.8-2.6,1.1-6.3-0.8-8.8c-0.1-0.2-8.8-17.3-17.9-9.8
					c-2.6,2.2-3.9,10.1-4.2,13.7c-0.5,5.4-1,10.9-1.5,16.3c-0.7,7.1,5.2,12.5,11.7,10.9c2.7-0.7,7-2.9,8.1-6
					C482.7,117.7,479.4,114.4,480.6,110.8z"/>
				<g>
					
						<rect x="460.4" y="138.1" transform="matrix(2.222403e-02 -0.9998 0.9998 2.222403e-02 322.7917 607.0229)" class="st1" width="22.7" height="0.8"/>
				</g>
				<g>
					
						<rect x="459.9" y="114.5" transform="matrix(2.222403e-02 -0.9998 0.9998 2.222403e-02 346.8987 584.4147)" class="st1" width="24.6" height="0.8"/>
				</g>
				<g>
					<polygon class="st1" points="472.5,108.4 466.1,104.5 466.5,103.8 472.3,107.3 478.7,101.1 479.3,101.7 					"/>
				</g>
				<g>
					<polygon class="st1" points="472.1,117.6 465.5,115 465.8,114.2 472.2,116.7 479.6,114.8 479.8,115.6 					"/>
				</g>
				<g>
					
						<rect x="473.7" y="113.7" transform="matrix(0.3621 -0.9321 0.9321 0.3621 197.3689 516.5547)" class="st1" width="4.7" height="0.8"/>
				</g>
				<g>
					
						<rect x="468.3" y="101.4" transform="matrix(0.9999 -1.101903e-02 1.101903e-02 0.9999 -1.1126 5.1706)" class="st1" width="0.8" height="4.2"/>
				</g>
			</g>
			<g>
				<path class="st1" d="M459.9,114.2c0.1-2.4,0.2-4.9-1.2-6.7c-1.2-1.6-3.5-2.4-5.4-1.8c-1.9,0.5-3.5,2.3-3.9,4.3
					c-0.3,1.8,0.3,3.6,0.5,5.4c0.5,4.2-0.9,8.6,0.8,12.4c0.9,2.1,3.2,3.9,5.4,3.2c2.4-0.8,3.2-3.9,3.2-6
					C459.6,121.4,459.7,117.8,459.9,114.2z"/>
				<g>
					
						<rect x="454.6" y="131.1" transform="matrix(0.9995 -3.082157e-02 3.082157e-02 0.9995 -4.0824 14.0904)" class="st1" width="0.8" height="16.6"/>
				</g>
				<g>
					
						<rect x="454.1" y="115.4" transform="matrix(0.9995 -3.081218e-02 3.081218e-02 0.9995 -3.5822 14.0622)" class="st1" width="0.8" height="15.8"/>
				</g>
				<g>
					<polygon class="st1" points="454.5,121 451.2,118.3 451.7,117.7 454.4,119.8 457.5,116.4 458.1,117 					"/>
				</g>
				<g>
					
						<rect x="452.9" y="123.8" transform="matrix(0.3679 -0.9299 0.9299 0.3679 170.0396 500.6314)" class="st1" width="0.8" height="3"/>
				</g>
			</g>
		</g>
	</g>
	<g class="st0">
		<path class="st1" d="M449.6,158.6c-25.2-13.2-24.3-39.7-68.2-16.7c-38.8,20.2-29.8-19.2-55.2-12.3c-11.4,3.2-85.3,97.5-85.5,97.8
			c0,0,6.3-5.3,158.1-3.3c43.1,0.6,151.9-1.7,151.9-1.7C532.4,212,464.6,166.4,449.6,158.6z"/>
		<g>
			<g>
				<path class="st1" d="M437,91.6c1.1-3.2,4.7-4.4,6.6-7.2c2.1-3.2,1.3-7.8-1-10.8c-0.2-0.2-10.8-21.2-22-12
					c-3.2,2.6-4.7,12.4-5.2,16.7c-0.6,6.7-1.2,13.3-1.8,20c-0.8,8.8,6.3,15.3,14.4,13.3c3.3-0.9,8.7-3.6,10-7.3
					C439.6,100,435.5,95.9,437,91.6z"/>
				<g>
					
						<rect x="412.2" y="125" transform="matrix(2.222403e-02 -0.9998 0.9998 2.222403e-02 291.1723 548.7252)" class="st1" width="27.9" height="1"/>
				</g>
				<g>
					
						<rect x="411.7" y="96" transform="matrix(2.222403e-02 -0.9998 0.9998 2.222403e-02 320.8137 521.0004)" class="st1" width="30.2" height="1"/>
				</g>
				<g>
					<polygon class="st1" points="427,88.5 419.2,83.7 419.8,82.9 426.9,87.2 434.7,79.6 435.4,80.3 					"/>
				</g>
				<g>
					<polygon class="st1" points="426.7,99.8 418.5,96.7 418.9,95.8 426.8,98.7 435.8,96.3 436.1,97.2 					"/>
				</g>
				<g>
					
						<rect x="428.5" y="95.1" transform="matrix(0.3621 -0.9321 0.9321 0.3621 186.1789 463.1627)" class="st1" width="5.9" height="1"/>
				</g>
				<g>
					
						<rect x="421.9" y="80" transform="matrix(0.9999 -1.101903e-02 1.101903e-02 0.9999 -0.8838 4.6587)" class="st1" width="1" height="5.1"/>
				</g>
			</g>
			<g>
				<path class="st1" d="M411.6,95.7c0.2-2.9,0.3-6-1.5-8.3c-1.5-1.9-4.3-2.9-6.7-2.2c-2.4,0.7-4.3,2.8-4.6,5.3
					c-0.4,2.2,0.4,4.4,0.6,6.7c0.6,5.1-1.1,10.6,1,15.3c1.1,2.6,3.9,4.8,6.6,3.9c2.9-1,3.9-4.7,4-7.4
					C411.3,104.5,411.4,100.1,411.6,95.7z"/>
				<g>
					
						<rect x="405.1" y="116.5" transform="matrix(0.9995 -3.082157e-02 3.082157e-02 0.9995 -3.7131 12.5617)" class="st1" width="1" height="20.4"/>
				</g>
				<g>
					
						<rect x="404.5" y="97.2" transform="matrix(0.9995 -3.081218e-02 3.081218e-02 0.9995 -3.0997 12.5295)" class="st1" width="1" height="19.4"/>
				</g>
				<g>
					<polygon class="st1" points="405,104 401,100.7 401.6,99.9 404.9,102.6 408.7,98.4 409.4,99 					"/>
				</g>
				<g>
					
						<rect x="402.9" y="107.5" transform="matrix(0.3679 -0.9299 0.9299 0.3679 153.409 444.189)" class="st1" width="1" height="3.6"/>
				</g>
			</g>
		</g>
	</g>
	<g class="st2">
		<path class="st1" d="M367.8,82c-2.4-0.9-5-0.5-7.4,0c-2.7,0.5-5.7,1.1-8.1-0.2c-1.9-1.1-3.1-3.1-4.6-4.6c-1.5-1.6-4-2.8-5.9-1.7
			c-2.2,1.3-2.1,4.8-4.3,6c-1.5,0.9-3.4,0.3-4.9-0.5c-2.2-1.2-4.3-3-7-2.1c-2.3,0.8-3.5,2.9-3.7,5.3c0,0.2,0,0.4,0,0.4h49.1
			C370.3,83.5,369.1,82.5,367.8,82z"/>
		<path class="st1" d="M354.1,78.9c1.8-2.6,3.2-4.4,8.1-4.4c3,0,7.7,3.7,10.6,3.3c2.1-0.3,4-1.8,6-1.2c1,0.4,1.6,1.2,1.8,2.3
			C380.6,78.9,354.1,78.9,354.1,78.9z"/>
	</g>
</g>
</svg>
