<?xml version="1.0" encoding="utf-8"?>
<!-- Generator: Adobe Illustrator 22.0.0, SVG Export Plug-In . SVG Version: 6.00 Build 0)  -->
<svg version="1.1" id="Layer_1" xmlns="http://www.w3.org/2000/svg" xmlns:xlink="http://www.w3.org/1999/xlink" x="0px" y="0px"
	 viewBox="0 0 559.6 167.7" style="enable-background:new 0 0 559.6 167.7;" xml:space="preserve">
<style type="text/css">
	.st0{opacity:0.23;fill:#FFFFFF;enable-background:new    ;}
	.st1{fill:#FFFFFF;}
	.st2{opacity:0.27;fill:#FFFFFF;enable-background:new    ;}
	.st3{opacity:0.37;fill:#FFFFFF;enable-background:new    ;}
	.st4{fill:none;stroke:#2F77B7;stroke-width:1.6366;stroke-miterlimit:10;}
	.st5{fill:none;stroke:#FFFF00;stroke-width:1.6366;stroke-miterlimit:10;}
</style>
<g id="Layer_2_1_">
</g>
<g id="Layer_2_2_">
</g>
<g>
	<g>
		<g>
			<path class="st0" d="M0.5,158.3c0,0,137-58.9,332.6-24.4c94.5,16.7,170.5,23.7,226.3-2.7v59.6H0.5V158.3z"/>
			<path class="st1" d="M0.5,158.3c0,0,85.6-38.3,248.8-16.5c151.1,20.1,232.2,27.3,310.2-2.1v84.6H0.5V158.3z"/>
			<path class="st2" d="M559.5,127.7c-51.6,20.5-87.9,20.1-115,16.8C99.2,102.4,0.6,156,0.6,156v9.1h558.9V127.7z"/>
		</g>
		<path class="st3" d="M0.5,167.8c0,0,74.9-52.1,231.9-33c113.2,13.8,197.1,42.3,327,21.3v44.2H0.5V167.8z"/>
	</g>
	<path class="st4" d="M0.5,158.3c0,0,85.6-38.3,248.8-16.5c29,3.9,55.5,7.3,79.8,10"/>
	<path class="st5" d="M329.1,151.8c102.3,11.5,167.4,11.7,230.4-12.1"/>
</g>
</svg>
