<svg xmlns="http://www.w3.org/2000/svg" width="99" height="99" viewBox="0 0 99 99"><g transform="translate(-0.1 -0.4)"><circle cx="49.5" cy="49.5" r="49.5" transform="translate(0.1 0.4)" fill="#26c8d4"/><g transform="translate(46.542 32.637)"><g transform="translate(0)"><path d="M85.016,0A10.075,10.075,0,1,1,75,10.016,10.016,10.016,0,0,1,85.016,0Zm0,2.679a7.382,7.382,0,0,0-7.338,7.338,7.338,7.338,0,1,0,7.338-7.338Z" transform="translate(-66.26)" fill="#fff"/><path d="M18.716,200a18.815,18.815,0,0,1,18.752,19.1c0,1.281-2.679,1.281-2.679,0a16.077,16.077,0,1,0-32.146,0c.116,1.281-2.679,1.281-2.679,0A18.815,18.815,0,0,1,18.716,200Z" transform="translate(0.04 -176.706)" fill="#fff"/></g></g><path d="M0,45.021V2.89A2.894,2.894,0,0,1,2.89,0H39.25a2.894,2.894,0,0,1,2.89,2.89v8.694a14.307,14.307,0,0,0-2.578,2.045c-.117.117-.234.238-.347.359V2.925H2.925V39.712L8,36.505l6.536,4.128,6.536-4.128,6.536,4.128,6.535-4.128,1.476.933a22.355,22.355,0,0,0-3.86,4.034l-4.151,2.623L21.07,39.965l-6.536,4.129L8,39.965,0,45.019Zm39.215-9.966V33.435c.257.275.535.551.83.818l.274.249-.333.161c-.257.124-.516.255-.768.389Zm-6.053-8.829H8.978V23.3H33.162v2.923Zm0-11.448H8.978V11.853H33.162v2.925Z" transform="translate(16.409 21.919)" fill="#004bae"/></g></svg>