<svg xmlns="http://www.w3.org/2000/svg" width="99" height="99" viewBox="0 0 99 99">
  <g id="Group_992" data-name="Group 992" transform="translate(-1118 -496)">
    <g id="account-icon" transform="translate(1117.9 495.6)">
      <circle id="Ellipse_63" data-name="Ellipse 63" cx="49.5" cy="49.5" r="49.5" transform="translate(0.1 0.4)" fill="#26c8d4"/>
    </g>
    <g id="noun_Business_1446411" transform="translate(1148 519.853)">
      <path id="Path_729" data-name="Path 729" d="M48.186,25.69H42.193v-1.8a3.706,3.706,0,0,0-3.7-3.7H30.561a3.706,3.706,0,0,0-3.7,3.7v1.8H20.867a3.706,3.706,0,0,0-3.7,3.7V49.07a3.706,3.706,0,0,0,3.7,3.7H48.186a3.706,3.706,0,0,0,3.7-3.7V29.391A3.706,3.706,0,0,0,48.186,25.69Zm-19.211-1.8A1.588,1.588,0,0,1,30.561,22.3h7.931a1.588,1.588,0,0,1,1.586,1.586v1.8h-11.1Zm20.8,25.181a1.588,1.588,0,0,1-1.586,1.586H20.867a1.588,1.588,0,0,1-1.586-1.586V29.391a1.588,1.588,0,0,1,1.586-1.586H48.186a1.588,1.588,0,0,1,1.586,1.586Z" fill="#fff"/>
    </g>
    <path id="Subtraction_3" data-name="Subtraction 3" d="M-422.7,44.173h-.214a21.922,21.922,0,0,1-15.567-6.425A21.934,21.934,0,0,1-445,22.154a21.952,21.952,0,0,1,6.425-15.639A21.934,21.934,0,0,1-422.98,0h.214A21.922,21.922,0,0,1-407.2,6.425a21.973,21.973,0,0,1,6.514,15.6c0,.128,0,.26,0,.392h-1.9a2.972,2.972,0,0,0-1.823.617l-7.473.044c-.026,1.518-.125,3.025-.293,4.478h-.852a3.99,3.99,0,0,0-1.343.231,41.976,41.976,0,0,0,.353-4.691l-7.748.045.053,9,4.685-.026v2.133l-4.667.029.045,7.6c1.671-.52,3.314-2.239,4.622-4.841v4.009c-.071.085-.141.167-.208.242l.208-.063v2.19A22.241,22.241,0,0,1-422.7,44.173Zm-1.117-9.884-5.845.036c.234.657.5,1.313.8,1.948,1.414,3.076,3.223,5.072,5.094,5.621Zm-8.15.053-6.711.045a20.114,20.114,0,0,0,10.517,7.033,16.3,16.3,0,0,1-2.457-3.735,25.294,25.294,0,0,1-1.349-3.343Zm-1.814-11.117-9.079.054a19.929,19.929,0,0,0,2.734,8.981l7.542-.045A41.324,41.324,0,0,1-433.785,23.225Zm9.884-.062-7.748.044a39.211,39.211,0,0,0,1.3,9l6.5-.044Zm-8.8-11.073-7.515.045a19.965,19.965,0,0,0-2.645,9.017l9.079-.054A41.335,41.335,0,0,1-432.7,12.091Zm8.74-.053-6.505.036a38.937,38.937,0,0,0-1.189,9.007l7.748-.044Zm8.633-.063-6.5.045.054,9,7.748-.045A38.723,38.723,0,0,0-415.331,11.975Zm9.607-.053-7.373.044a41.281,41.281,0,0,1,1.2,8.99l8.954-.053a19.93,19.93,0,0,0-2.779-8.981Zm-22.752-8.99h0a19.953,19.953,0,0,0-8.6,5.111A19.717,19.717,0,0,0-438.789,10l6.675-.045A24.68,24.68,0,0,1-430.8,6.577a15.73,15.73,0,0,1,2.324-3.646Zm4.451-.635h0c-1.859.577-3.639,2.589-5.014,5.666-.271.613-.532,1.278-.777,1.975l5.835-.035-.044-7.6Zm2.127-.009h0l.045,7.6,5.844-.036c-.231-.65-.5-1.306-.795-1.949C-418.219,4.833-420.028,2.837-421.9,2.288Zm4.522.625h0A16.442,16.442,0,0,1-415.054,6.5,25.461,25.461,0,0,1-413.7,9.839l6.524-.044a19.988,19.988,0,0,0-10.2-6.881Z" transform="translate(1580.027 515.579)" fill="#004bae"/>
    <g id="noun_internet_3037349" transform="translate(1144 549)">
      <g id="Group_991" data-name="Group 991" transform="translate(5.059 30.213) rotate(-45)">
        <path id="Path_731" data-name="Path 731" d="M34,3a1,1,0,0,0,0,2,9.014,9.014,0,0,1,9,9,1,1,0,0,0,2,0A11.007,11.007,0,0,0,34,3Z" fill="#fff"/>
        <path id="Path_732" data-name="Path 732" d="M34,7a1,1,0,0,0,0,2,5,5,0,0,1,5,5,1,1,0,0,0,2,0A7.008,7.008,0,0,0,34,7Z" fill="#fff"/>
        <path id="Path_733" data-name="Path 733" d="M34,13a1,1,0,0,1,1,1,1,1,0,0,0,2,0,3.009,3.009,0,0,0-3-3,1,1,0,0,0,0,2Z" fill="#fff"/>
      </g>
    </g>
  </g>
</svg>
