<svg xmlns="http://www.w3.org/2000/svg" width="99" height="99" viewBox="0 0 99 99"><g transform="translate(0.369 0.375)"><g transform="translate(-0.369 -0.375)"><circle cx="49.5" cy="49.5" r="49.5" transform="translate(0)" fill="#132072"/><line y1="25.46" transform="translate(29.989 52.094)" fill="none" stroke="#fff" stroke-width="2"/><line y1="10.484" transform="translate(59.942 67.071)" fill="none" stroke="#fff" stroke-width="2"/><line y1="10.484" transform="translate(74.918 67.071)" fill="none" stroke="#fff" stroke-width="2"/><line y1="10.484" transform="translate(22.501 67.071)" fill="none" stroke="#fff" stroke-width="2"/><line y1="25.46" transform="translate(67.43 52.094)" fill="none" stroke="#fff" stroke-width="2"/><line y1="22.465" transform="translate(29.989 46.104)" fill="none" stroke="#1eded1" stroke-width="2"/><line y1="7.488" transform="translate(59.942 61.08)" fill="none" stroke="#1eded1" stroke-width="2"/><line y1="7.488" transform="translate(74.918 61.08)" fill="none" stroke="#1eded1" stroke-width="2"/><line y1="7.488" transform="translate(22.501 61.08)" fill="none" stroke="#1eded1" stroke-width="2"/><line y1="16.474" transform="translate(67.43 52.094)" fill="none" stroke="#1eded1" stroke-width="2"/><line y1="11.981" transform="translate(52.454 65.573)" fill="none" stroke="#fff" stroke-width="2"/><line y1="8.986" transform="translate(52.454 56.587)" fill="none" stroke="#1eded1" stroke-width="2"/><line y1="11.981" transform="translate(37.477 65.573)" fill="none" stroke="#fff" stroke-width="2"/><line y1="8.986" transform="translate(37.477 56.587)" fill="none" stroke="#1eded1" stroke-width="2"/><line y1="19.469" transform="translate(44.965 58.085)" fill="none" stroke="#fff" stroke-width="2"/><line y1="11.981" transform="translate(44.965 49.099)" fill="none" stroke="#1eded1" stroke-width="2"/></g><g transform="translate(28.491 19.646)"><path d="M0,0,8.927,8.927,0,17.853" transform="translate(17.853 11.559) rotate(90)" fill="none" stroke="#01f6ab" stroke-linecap="round" stroke-width="5"/><path d="M15.343,0H0" transform="translate(8.927) rotate(90)" fill="none" stroke="#01f6ab" stroke-linecap="round" stroke-width="5"/></g><g transform="translate(53.951 19.646)"><path d="M0,0,8.927,8.927,0,17.853" transform="translate(0 8.927) rotate(-90)" fill="none" stroke="#fff" stroke-linecap="round" stroke-width="5"/><path d="M15.343,0H0" transform="translate(8.927 20.485) rotate(-90)" fill="none" stroke="#fff" stroke-linecap="round" stroke-width="5"/></g></g></svg>