<svg xmlns="http://www.w3.org/2000/svg" xmlns:xlink="http://www.w3.org/1999/xlink" width="163" height="163" viewBox="0 0 163 163">
  <defs>
    <clipPath id="clip-path">
      <rect width="45" height="44" fill="none"/>
    </clipPath>
  </defs>
  <g id="calling-" transform="translate(-151 -745)">
    <rect id="Rectangle_209" data-name="Rectangle 209" width="163" height="163" rx="81.5" transform="translate(151 745)" fill="#def5fd" opacity="0.8"/>
    <g id="Group_1037" data-name="Group 1037" transform="translate(2.78 -57.5)">
      <g id="Rectangle_210" data-name="Rectangle 210" transform="translate(215.219 839.5)" fill="none" stroke="#3d3d3d" stroke-width="4">
        <rect width="61" height="87" rx="8" stroke="none"/>
        <rect x="2" y="2" width="57" height="83" rx="6" fill="none"/>
      </g>
      <g id="Rectangle_211" data-name="Rectangle 211" transform="translate(223.219 848.5)" fill="none" stroke="#3d3d3d" stroke-width="4">
        <rect width="45" height="13" rx="3" stroke="none"/>
        <rect x="2" y="2" width="41" height="9" rx="1" fill="none"/>
      </g>
      <g id="Repeat_Grid_13" data-name="Repeat Grid 13" transform="translate(223.219 870.5)" clip-path="url(#clip-path)">
        <g transform="translate(-226 -843)">
          <g id="Ellipse_77" data-name="Ellipse 77" transform="translate(226 843)" fill="none" stroke="#3d3d3d" stroke-width="4">
            <circle cx="5" cy="5" r="5" stroke="none"/>
            <circle cx="5" cy="5" r="3" fill="none"/>
          </g>
        </g>
        <g transform="translate(-209 -843)">
          <g id="Ellipse_77-2" data-name="Ellipse 77" transform="translate(226 843)" fill="none" stroke="#3d3d3d" stroke-width="4">
            <circle cx="5" cy="5" r="5" stroke="none"/>
            <circle cx="5" cy="5" r="3" fill="none"/>
          </g>
        </g>
        <g transform="translate(-192 -843)">
          <g id="Ellipse_77-3" data-name="Ellipse 77" transform="translate(226 843)" fill="none" stroke="#3d3d3d" stroke-width="4">
            <circle cx="5" cy="5" r="5" stroke="none"/>
            <circle cx="5" cy="5" r="3" fill="none"/>
          </g>
        </g>
        <g transform="translate(-226 -828)">
          <g id="Ellipse_77-4" data-name="Ellipse 77" transform="translate(226 843)" fill="none" stroke="#3d3d3d" stroke-width="4">
            <circle cx="5" cy="5" r="5" stroke="none"/>
            <circle cx="5" cy="5" r="3" fill="none"/>
          </g>
        </g>
        <g transform="translate(-209 -828)">
          <g id="Ellipse_77-5" data-name="Ellipse 77" transform="translate(226 843)" fill="none" stroke="#3d3d3d" stroke-width="4">
            <circle cx="5" cy="5" r="5" stroke="none"/>
            <circle cx="5" cy="5" r="3" fill="none"/>
          </g>
        </g>
        <g transform="translate(-192 -828)">
          <g id="Ellipse_77-6" data-name="Ellipse 77" transform="translate(226 843)" fill="none" stroke="#3d3d3d" stroke-width="4">
            <circle cx="5" cy="5" r="5" stroke="none"/>
            <circle cx="5" cy="5" r="3" fill="none"/>
          </g>
        </g>
        <g transform="translate(-226 -813)">
          <g id="Ellipse_77-7" data-name="Ellipse 77" transform="translate(226 843)" fill="none" stroke="#3d3d3d" stroke-width="4">
            <circle cx="5" cy="5" r="5" stroke="none"/>
            <circle cx="5" cy="5" r="3" fill="none"/>
          </g>
        </g>
        <g transform="translate(-209 -813)">
          <g id="Ellipse_77-8" data-name="Ellipse 77" transform="translate(226 843)" fill="none" stroke="#3d3d3d" stroke-width="4">
            <circle cx="5" cy="5" r="5" stroke="none"/>
            <circle cx="5" cy="5" r="3" fill="none"/>
          </g>
        </g>
        <g transform="translate(-192 -813)">
          <g id="Ellipse_77-9" data-name="Ellipse 77" transform="translate(226 843)" fill="none" stroke="#3d3d3d" stroke-width="4">
            <circle cx="5" cy="5" r="5" stroke="none"/>
            <circle cx="5" cy="5" r="3" fill="none"/>
          </g>
        </g>
      </g>
      <g id="Rectangle_212" data-name="Rectangle 212" transform="translate(183.219 839.5)" fill="none" stroke="#3d3d3d" stroke-width="4">
        <rect width="27" height="78" rx="6" stroke="none"/>
        <rect x="2" y="2" width="23" height="74" rx="4" fill="none"/>
      </g>
      <line id="Line_62" data-name="Line 62" x1="26.829" transform="translate(183.463 926.5)" fill="none" stroke="#3d3d3d" stroke-linecap="round" stroke-width="4"/>
    </g>
  </g>
</svg>
