<svg xmlns="http://www.w3.org/2000/svg" xmlns:xlink="http://www.w3.org/1999/xlink" width="163" height="163" viewBox="0 0 163 163">
  <defs>
    <clipPath id="clip-path">
      <rect width="60" height="46" fill="none"/>
    </clipPath>
  </defs>
  <g id="Data-Hosting" transform="translate(-1299 -743)">
    <rect id="Rectangle_209" data-name="Rectangle 209" width="163" height="163" rx="81.5" transform="translate(1299 743)" fill="#e4f7fd" opacity="0.8"/>
    <g id="Union_4" data-name="Union 4" transform="translate(-11018 778)" fill="none">
      <path d="M12364,60a17,17,0,0,1-.737-33.985,30.006,30.006,0,0,1,56.974-8.606A22,22,0,1,1,12428,60Z" stroke="none"/>
      <path d="M 12428.0009765625 56.00052642822266 C 12432.8076171875 56.00052642822266 12437.328125 54.12794494628906 12440.728515625 50.72772979736328 C 12444.1279296875 47.32754516601562 12446.0009765625 42.80764389038086 12446.0009765625 38.00064468383789 C 12446.0009765625 33.19256210327148 12444.12890625 28.67229461669922 12440.728515625 25.27251052856445 C 12437.328125 21.87297821044922 12432.80859375 20.00076103210449 12428.0009765625 20.00076103210449 C 12425.8115234375 20.00076103210449 12423.6748046875 20.3881950378418 12421.6494140625 21.15231132507324 L 12418.169921875 22.46464538574219 L 12416.607421875 19.09019470214844 C 12414.55078125 14.64762783050537 12411.2900390625 10.88221168518066 12407.1767578125 8.201045036315918 C 12402.9609375 5.452694416046143 12398.05859375 3.99999475479126 12393 3.99999475479126 C 12389.7734375 3.99999475479126 12386.6259765625 4.582744598388672 12383.646484375 5.732044696807861 C 12380.767578125 6.842644691467285 12378.12890625 8.446861267089844 12375.802734375 10.50016117095947 C 12371.0947265625 14.65616130828857 12368.0498046875 20.35306167602539 12367.228515625 26.54144477844238 L 12366.787109375 29.86862754821777 L 12363.4345703125 30.01167869567871 C 12360.0830078125 30.15464401245117 12356.9541015625 31.56932830810547 12354.623046875 33.9951286315918 C 12352.287109375 36.42745971679688 12351 39.62541198730469 12351 42.99991226196289 C 12351 46.4725456237793 12352.3525390625 49.73727798461914 12354.8076171875 52.19274520874023 C 12357.263671875 54.64822769165039 12360.5283203125 56.00052642822266 12364.0009765625 56.00052642822266 L 12428.0009765625 56.00052642822266 M 12428.0009765625 60.00052642822266 L 12364.0009765625 60.00052642822266 C 12354.611328125 60.00052642822266 12347 52.38914489746094 12347 42.99991226196289 C 12347 33.85766220092773 12354.2158203125 26.40129470825195 12363.263671875 26.01531219482422 C 12365.2119140625 11.33219432830811 12377.78125 -5.359903752832906e-06 12393 -5.359903752832906e-06 C 12405.0732421875 -5.359903752832906e-06 12415.478515625 7.130727767944336 12420.2373046875 17.40969467163086 C 12422.6513671875 16.4991455078125 12425.267578125 16.00076103210449 12428.0009765625 16.00076103210449 C 12440.1494140625 16.00076103210449 12450.0009765625 25.84931182861328 12450.0009765625 38.00064468383789 C 12450.0009765625 50.14884567260742 12440.1494140625 60.00052642822266 12428.0009765625 60.00052642822266 Z" stroke="none" fill="#3d3d3d"/>
    </g>
    <g id="Repeat_Grid_15" data-name="Repeat Grid 15" transform="translate(1352 818)" clip-path="url(#clip-path)">
      <g transform="translate(-1363 -886)">
        <g id="Rectangle_223" data-name="Rectangle 223" transform="translate(1363 886)" fill="none" stroke="#3d3d3d" stroke-width="4">
          <rect width="60" height="20" rx="6" stroke="none"/>
          <rect x="2" y="2" width="56" height="16" rx="4" fill="none"/>
        </g>
        <circle id="Ellipse_91" data-name="Ellipse 91" cx="2.5" cy="2.5" r="2.5" transform="translate(1409 904)" fill="#3d3d3d"/>
        <circle id="Ellipse_92" data-name="Ellipse 92" cx="2.5" cy="2.5" r="2.5" transform="translate(1371 904)" fill="#3d3d3d"/>
        <line id="Line_66" data-name="Line 66" x2="4" transform="translate(1410.5 898.5)" fill="none" stroke="#3d3d3d" stroke-linecap="round" stroke-width="3"/>
      </g>
      <g transform="translate(-1363 -863)">
        <g id="Rectangle_223-2" data-name="Rectangle 223" transform="translate(1363 886)" fill="none" stroke="#3d3d3d" stroke-width="4">
          <rect width="60" height="20" rx="6" stroke="none"/>
          <rect x="2" y="2" width="56" height="16" rx="4" fill="none"/>
        </g>
        <circle id="Ellipse_91-2" data-name="Ellipse 91" cx="2.5" cy="2.5" r="2.5" transform="translate(1409 904)" fill="#3d3d3d"/>
        <circle id="Ellipse_92-2" data-name="Ellipse 92" cx="2.5" cy="2.5" r="2.5" transform="translate(1371 904)" fill="#3d3d3d"/>
        <line id="Line_66-2" data-name="Line 66" x2="4" transform="translate(1410.5 898.5)" fill="none" stroke="#3d3d3d" stroke-linecap="round" stroke-width="3"/>
      </g>
    </g>
  </g>
</svg>
