<svg xmlns="http://www.w3.org/2000/svg" xmlns:xlink="http://www.w3.org/1999/xlink" width="163" height="163" viewBox="0 0 163 163">
  <defs>
    <clipPath id="clip-path">
      <rect id="Rectangle_221" data-name="Rectangle 221" width="97" height="35" transform="translate(0.221 -0.394)" fill="#fff" stroke="#3d3d3d" stroke-width="1"/>
    </clipPath>
  </defs>
  <g id="Digital-Life" transform="translate(-1021 -743)">
    <rect id="Rectangle_209" data-name="Rectangle 209" width="163" height="163" rx="81.5" transform="translate(1021 743)" fill="#e4f7fd" opacity="0.8"/>
    <g id="Union_2" data-name="Union 2" transform="translate(1084 798)" fill="none">
      <path d="M0,32.095A17.889,17.889,0,0,1,9.509,16.3V14.108a6,6,0,0,1,3.4-5.407V4a4,4,0,0,1,4-4h2.868a4,4,0,0,1,4,4V8.7a6,6,0,0,1,3.4,5.407v2.575A17.938,17.938,0,1,1,0,32.095Z" stroke="none"/>
      <path d="M 18 46.00040054321289 C 21.74350929260254 46.00040054321289 25.26189041137695 44.55126953125 27.9069995880127 41.91994857788086 C 30.54640960693359 39.2943115234375 32 35.80503845214844 32 32.09490203857422 C 32 29.63953018188477 31.34815979003906 27.22777938842773 30.11494064331055 25.12038040161133 C 28.91375923156738 23.06772041320801 27.19248008728027 21.34165954589844 25.13719940185547 20.12879943847656 L 23.17009925842285 18.96796989440918 L 23.17009925842285 14.10840034484863 C 23.17009925842285 13.18133068084717 22.58395957946777 12.56824016571045 22.03541946411133 12.3036003112793 L 19.77350044250488 11.2123498916626 L 19.7733097076416 4.000000476837158 L 16.9060001373291 4.000189781188965 L 16.9060001373291 11.2123498916626 L 14.64408016204834 12.3036003112793 C 14.09554004669189 12.56824016571045 13.50940036773682 13.18133068084717 13.50940036773682 14.10840034484863 L 13.50940036773682 18.70304107666016 L 11.39103031158447 19.8322811126709 C 6.832079887390137 22.26251029968262 4 26.96126937866211 4 32.09490203857422 C 4 35.80503845214844 5.453589916229248 39.2943115234375 8.093000411987305 41.91994857788086 C 10.73810958862305 44.55126953125 14.25648975372314 46.00040054321289 18 46.00040054321289 M 18 50.00040054321289 C 8.058600425720215 50.00040054321289 0 41.98320007324219 0 32.09490203857422 C 0 25.25986099243164 3.849210023880005 19.31974983215332 9.509400367736816 16.30248069763184 L 9.509400367736816 14.10840034484863 C 9.509400367736816 11.72762012481689 10.89628028869629 9.670530319213867 12.9060001373291 8.700950622558594 L 12.9060001373291 3.999600172042847 C 12.9060001373291 1.791000247001648 14.69699954986572 2.716064386731887e-07 16.90559959411621 2.716064386731887e-07 L 19.77389907836914 2.716064386731887e-07 C 21.98250007629395 2.716064386731887e-07 23.77350044250488 1.791000247001648 23.77350044250488 3.999600172042847 L 23.77350044250488 8.700950622558594 C 25.7832202911377 9.670530319213867 27.17009925842285 11.72762012481689 27.17009925842285 14.10840034484863 L 27.17009925842285 16.68390083312988 C 32.45602035522461 19.80323028564453 36 25.53750991821289 36 32.09490203857422 C 36 41.98320007324219 27.9414005279541 50.00040054321289 18 50.00040054321289 Z" stroke="none" fill="#3d3d3d"/>
    </g>
    <g id="Union_3" data-name="Union 3" transform="translate(1060.546 782.439)" fill="#e9f8fd">
      <path d="M 80.3515625 44.04264831542969 L 2.154095411300659 44.04264831542969 C 2.594291925430298 39.6965446472168 3.747861623764038 35.49467849731445 5.593351364135742 31.52391052246094 C 7.66741418838501 27.0620231628418 10.53101444244385 23.0681095123291 14.10452651977539 19.65322303771973 C 19.36932563781738 14.62348461151123 25.88766479492188 11.16377258300781 32.95465087890625 9.648272514343262 L 34.39442825317383 9.339522361755371 L 34.52715301513672 7.872997283935547 C 34.67184066772461 6.274147033691406 35.40573883056641 4.792659759521484 36.59365081787109 3.701434850692749 C 37.78804016113281 2.604247331619263 39.33995056152344 1.99999725818634 40.9634895324707 1.99999725818634 C 42.57091522216797 1.99999725818634 44.11160278320312 2.593697309494019 45.30173873901367 3.671747207641602 C 46.48435211181641 4.742984771728516 47.22698974609375 6.201922416687012 47.39285278320312 7.779809951782227 L 47.54678726196289 9.244335174560547 L 48.9909782409668 9.532159805297852 C 56.27919006347656 10.98470973968506 62.98994064331055 14.48447227478027 68.39771270751953 19.65311050415039 C 71.97544097900391 23.07120895385742 74.83982849121094 27.06497192382812 76.91161346435547 31.52374649047852 C 78.75688934326172 35.4926643371582 79.91069793701172 39.69490051269531 80.3515625 44.04264831542969 Z" stroke="none"/>
      <path d="M 78.07210540771484 42.04265213012695 C 77.53031921386719 38.69863128662109 76.53517150878906 35.45798492431641 75.09784698486328 32.36650848388672 C 73.13163757324219 28.13493728637695 70.41265106201172 24.34417915344238 67.01582336425781 21.09893608093262 C 61.88313674926758 16.19322204589844 55.51506423950195 12.871750831604 48.60006332397461 11.49357986450195 L 45.71167755126953 10.91793632507324 L 45.40380859375 7.988879203796387 C 45.28947830200195 6.901165008544922 44.77639389038086 5.894407749176025 43.95904922485352 5.154050827026367 C 43.13747787475586 4.409850597381592 42.07363510131836 4.000008106231689 40.96349334716797 4.000008106231689 C 39.8424072265625 4.000008106231689 38.7710075378418 4.417050838470459 37.94665145874023 5.174322128295898 C 37.12579345703125 5.928365230560303 36.61877822875977 6.950779438018799 36.51900863647461 8.053251266479492 L 36.25357818603516 10.98630809783936 L 33.37400817871094 11.60382270812988 C 26.66887855529785 13.04170799255371 20.48327827453613 16.32527923583984 15.48627853393555 21.09919357299805 C 12.09379291534424 24.341064453125 9.375506401062012 28.13212203979492 7.407035350799561 32.36683654785156 C 5.969774723052979 35.45928955078125 4.974799156188965 38.69980621337891 4.433384418487549 42.04265213012695 L 78.07210540771484 42.04265213012695 M 82.50593566894531 46.04265213012695 L 6.876918178022606e-06 46.04265213012695 C 0.2579068839550018 40.68830871582031 1.531435489654541 35.51830673217773 3.779664039611816 30.68096542358398 C 5.960292816162109 25.98983573913574 8.968906402587891 21.79450798034668 12.7227783203125 18.20729446411133 C 18.30243492126465 12.87673664093018 25.14050674438477 9.278522491455078 32.53529357910156 7.692736625671387 C 32.92570877075195 3.37855076789856 36.54973602294922 7.964651558722835e-06 40.96349334716797 7.964651558722835e-06 C 45.33543395996094 7.964651558722835e-06 48.93456268310547 3.314965009689331 49.38189315795898 7.570736408233643 C 56.99990844726562 9.089008331298828 64.05496215820312 12.7358226776123 69.77959442138672 18.20729446411133 C 73.53436279296875 21.79450798034668 76.54562377929688 25.98983573913574 78.72537994384766 30.68096542358398 C 80.97539520263672 35.52042388916016 82.24713897705078 40.68830871582031 82.50593566894531 46.04265213012695 Z" stroke="none" fill="#3d3d3d"/>
    </g>
    <path id="Path_712" data-name="Path 712" d="M.177,31.3V12.955" transform="translate(1101.5 755.873)" fill="none" stroke="#3d3d3d" stroke-width="4"/>
    <g id="Group_1039" data-name="Group 1039" transform="translate(0.5 -76)">
      <line id="Line_65" data-name="Line 65" y2="10" transform="translate(1074.5 946.463)" fill="none" stroke="#707070" stroke-linecap="round" stroke-width="3" opacity="0.61"/>
      <line id="Line_65-2" data-name="Line 65" y2="10" transform="translate(1083.5 946.5)" fill="none" stroke="#707070" stroke-linecap="round" stroke-width="3" opacity="0.61"/>
      <line id="Line_65-3" data-name="Line 65" y2="10" transform="translate(1092.5 946.5)" fill="none" stroke="#707070" stroke-linecap="round" stroke-width="3" opacity="0.61"/>
      <path id="Path_711" data-name="Path 711" d="M0-4.4v18.72" transform="translate(1101.5 946.5)" fill="none" stroke="#707070" stroke-linecap="round" stroke-width="3"/>
      <line id="Line_65-4" data-name="Line 65" y2="10" transform="translate(1110.5 946.5)" fill="none" stroke="#707070" stroke-linecap="round" stroke-width="3" opacity="0.61"/>
      <line id="Line_65-5" data-name="Line 65" y2="10" transform="translate(1119.5 946.5)" fill="none" stroke="#707070" stroke-linecap="round" stroke-width="3" opacity="0.61"/>
      <line id="Line_65-6" data-name="Line 65" y2="10" transform="translate(1128.5 946.5)" fill="none" stroke="#707070" stroke-linecap="round" stroke-width="3" opacity="0.61"/>
    </g>
    <g id="Mask_Group_6" data-name="Mask Group 6" transform="translate(1051.779 829.394)" clip-path="url(#clip-path)">
      <g id="Ellipse_87" data-name="Ellipse 87" transform="matrix(0.999, -0.052, 0.052, 0.999, 19.507, -23.983)" fill="none" stroke="#3d3d3d" stroke-linecap="round" stroke-width="5" stroke-dasharray="0 12">
        <circle cx="28.231" cy="28.231" r="28.231" stroke="none"/>
        <circle cx="28.231" cy="28.231" r="25.731" fill="none"/>
      </g>
    </g>
  </g>
</svg>
