<svg xmlns="http://www.w3.org/2000/svg" width="163" height="163" viewBox="0 0 163 163">
  <g id="TV-Packages" transform="translate(-731 -743)">
    <rect id="Rectangle_209" data-name="Rectangle 209" width="163" height="163" rx="81.5" transform="translate(731 743)" fill="#e4f7fd" opacity="0.8"/>
    <g id="Group_1038" data-name="Group 1038" transform="translate(6.998 -64)">
      <g id="Rectangle_214" data-name="Rectangle 214" transform="translate(756.002 855)" fill="none" stroke="#3d3d3d" stroke-width="4">
        <rect width="88" height="62" rx="5" stroke="none"/>
        <rect x="2" y="2" width="84" height="58" rx="3" fill="none"/>
      </g>
      <g id="Path_731" data-name="Path 731" transform="translate(776.002 919)" fill="none" stroke-linecap="round" stroke-dasharray="45 58">
        <path d="M7,0H41a7,7,0,0,1,7,7V8a7,7,0,0,1-7,7H7A7,7,0,0,1,0,8V7A7,7,0,0,1,7,0Z" stroke="none"/>
        <path d="M 7 0 L 41 0 C 44.86598968505859 0 48 3.134010314941406 48 7 C 48 8.104570388793945 47.10456848144531 9 46 9 C 44.89543151855469 9 44 8.104570388793945 44 7 C 44 5.345789909362793 42.65420913696289 4 41 4 L 7 4 C 7 4 7 4 7 4 C 5.347980499267578 4 4.002189636230469 5.34391975402832 4 6.995829582214355 C 3.998542785644531 8.099523544311523 3.103443145751953 8.993181228637695 2.000080108642578 8.993181228637695 C 1.999202728271484 8.993181228637695 1.998237609863281 8.993181228637695 1.997360229492188 8.993179321289062 C 0.892791748046875 8.991720199584961 -0.0014495849609375 8.095109939575195 1.1444091796875e-05 6.99053955078125 C 0.00090789794921875 6.311736106872559 0.09840774536132812 5.655625343322754 0.2795295715332031 5.035118103027344 C 0.2795295715332031 5.035118103027344 0.2795677185058594 5.034980773925781 0.2795677185058594 5.034980773925781 C 0.2815818786621094 5.028085708618164 0.2835655212402344 5.021327018737793 0.2855987548828125 5.01444149017334 C 0.2855987548828125 5.01444149017334 0.2856330871582031 5.014321327209473 0.2856330871582031 5.014321327209473 C 0.2876663208007812 5.00743579864502 0.2896270751953125 5.000834465026855 0.2916793823242188 4.99395751953125 C 0.2916793823242188 4.99395751953125 0.2918434143066406 4.993414878845215 0.2918434143066406 4.993414878845215 C 0.2922935485839844 4.991910934448242 0.2928123474121094 4.990175247192383 0.2932624816894531 4.988672256469727 C 0.2932624816894531 4.988672256469727 0.2933235168457031 4.988460540771484 0.2933235168457031 4.988460540771484 C 0.2938385009765625 4.986741065979004 0.2942695617675781 4.985307693481445 0.2947845458984375 4.983590126037598 C 0.2947845458984375 4.983590126037598 0.2949028015136719 4.983199119567871 0.2949028015136719 4.983199119567871 C 0.2954177856445312 4.981480598449707 0.2958602905273438 4.980010032653809 0.2963790893554688 4.978292465209961 C 0.2963790893554688 4.978292465209961 0.2963829040527344 4.978275299072266 0.2963829040527344 4.978275299072266 C 0.2969017028808594 4.976557731628418 0.2973709106445312 4.975006103515625 0.2978897094726562 4.973288536071777 C 0.2978897094726562 4.973288536071777 0.2980155944824219 4.972869873046875 0.2980155944824219 4.972869873046875 C 0.2985343933105469 4.971152305603027 0.2989387512207031 4.969812393188477 0.2994575500488281 4.968095779418945 C 0.2994575500488281 4.968095779418945 0.2995529174804688 4.967785835266113 0.2995529174804688 4.967785835266113 C 0.3000717163085938 4.966070175170898 0.3004913330078125 4.964682579040527 0.3010139465332031 4.962966918945312 C 0.3010139465332031 4.962966918945312 0.301116943359375 4.962626457214355 0.301116943359375 4.962626457214355 C 0.3016395568847656 4.960910797119141 0.3020858764648438 4.959434509277344 0.3026084899902344 4.957718849182129 C 0.3026084899902344 4.957718849182129 0.3026351928710938 4.95763111114502 0.3026351928710938 4.95763111114502 C 0.3031578063964844 4.955915451049805 0.3035888671875 4.954500198364258 0.3041152954101562 4.952785491943359 C 0.3041801452636719 4.952570915222168 0.3042449951171875 4.952356338500977 0.3043098449707031 4.952141761779785 C 0.3047676086425781 4.950641632080078 0.3052825927734375 4.948963165283203 0.3057403564453125 4.947463989257812 C 0.3057403564453125 4.947463989257812 0.3057937622070312 4.94728946685791 0.3057937622070312 4.94728946685791 C 0.3063201904296875 4.945574760437012 0.3067703247070312 4.944104194641113 0.3072967529296875 4.942390441894531 C 0.3072967529296875 4.942390441894531 0.3074073791503906 4.942036628723145 0.3074073791503906 4.942036628723145 C 0.3079338073730469 4.940322875976562 0.3083763122558594 4.938881874084473 0.3089027404785156 4.937168121337891 C 0.3089027404785156 4.937168121337891 0.3089485168457031 4.937023162841797 0.3089485168457031 4.937023162841797 C 0.3094749450683594 4.935310363769531 0.3099136352539062 4.933894157409668 0.3104400634765625 4.932181358337402 C 0.3104400634765625 4.932181358337402 0.31060791015625 4.931643486022949 0.31060791015625 4.931643486022949 C 0.3110694885253906 4.930145263671875 0.3115997314453125 4.928425788879395 0.3120651245117188 4.92692756652832 C 0.3120651245117188 4.92692756652832 0.3121376037597656 4.926689147949219 0.3121376037597656 4.926689147949219 C 0.3126678466796875 4.92497730255127 0.3131141662597656 4.923547744750977 0.3136444091796875 4.921836853027344 C 0.3136444091796875 4.921836853027344 0.313751220703125 4.921492576599121 0.313751220703125 4.921492576599121 C 0.3142814636230469 4.919780731201172 0.3147163391113281 4.918379783630371 0.3152503967285156 4.916669845581055 C 0.3152503967285156 4.916669845581055 0.3153419494628906 4.916378021240234 0.3153419494628906 4.916378021240234 C 0.3158073425292969 4.914880752563477 0.3162956237792969 4.91331958770752 0.3167610168457031 4.911823272705078 C 0.31689453125 4.911395072937012 0.31695556640625 4.911197662353516 0.3170890808105469 4.910770416259766 C 0.3175582885742188 4.909274101257324 0.3179359436035156 4.908061981201172 0.3184051513671875 4.90656566619873 C 0.3185386657714844 4.90613842010498 0.3184890747070312 4.906291961669922 0.3186225891113281 4.905863761901855 C 0.319091796875 4.90436840057373 0.3195457458496094 4.902921676635742 0.3200149536132812 4.901426315307617 C 0.3200836181640625 4.901212692260742 0.3201522827148438 4.90098762512207 0.320220947265625 4.900774002075195 C 0.3206901550292969 4.89927864074707 0.3211708068847656 4.897748947143555 0.3216400146484375 4.896254539489746 C 0.3216400146484375 4.896254539489746 0.3218269348144531 4.895666122436523 0.3218269348144531 4.895666122436523 C 0.3222274780273438 4.894384384155273 0.3227958679199219 4.892581939697266 0.3232002258300781 4.891301155090332 C 0.3233375549316406 4.890873908996582 0.3233871459960938 4.890707015991211 0.3235244750976562 4.890279769897461 C 0.3239936828613281 4.888785362243652 0.324371337890625 4.887590408325195 0.3248443603515625 4.886096000671387 C 0.324981689453125 4.885669708251953 0.3249702453613281 4.885708808898926 0.325103759765625 4.885281562805176 C 0.3255767822265625 4.883787155151367 0.3259963989257812 4.882466316223145 0.3264694213867188 4.880972862243652 C 0.3266029357910156 4.880545616149902 0.3265762329101562 4.880637168884277 0.3267097473144531 4.880209922790527 C 0.3271865844726562 4.878716468811035 0.3276443481445312 4.877269744873047 0.3281211853027344 4.875776290893555 C 0.3282546997070312 4.875349044799805 0.3281936645507812 4.875544548034668 0.3283309936523438 4.875117301940918 C 0.3287353515625 4.873837471008301 0.329254150390625 4.87221622467041 0.3296623229980469 4.870937347412109 C 0.3297958374023438 4.870510101318359 0.3299522399902344 4.870019912719727 0.3300895690917969 4.869592666625977 C 0.3304977416992188 4.868313789367676 0.3309211730957031 4.866986274719238 0.331329345703125 4.865707397460938 C 0.3314666748046875 4.865281105041504 0.3315505981445312 4.865025520324707 0.3316841125488281 4.864599227905273 C 0.3320960998535156 4.863320350646973 0.3325347900390625 4.861952781677246 0.3329429626464844 4.860674858093262 C 0.3330802917480469 4.860247611999512 0.3331985473632812 4.859872817993164 0.3333358764648438 4.859445571899414 C 0.3337478637695312 4.85816764831543 0.3342094421386719 4.856723785400391 0.3346214294433594 4.855445861816406 C 0.3347587585449219 4.855019569396973 0.3348197937011719 4.854833602905273 0.3349571228027344 4.854406356811523 C 0.3353652954101562 4.853128433227539 0.3358001708984375 4.851788520812988 0.3362083435058594 4.850510597229004 C 0.3363456726074219 4.85008430480957 0.3365478515625 4.849461555480957 0.3366851806640625 4.849035263061523 C 0.3370285034179688 4.847970962524414 0.3375282287597656 4.846423149108887 0.3378715515136719 4.845358848571777 C 0.3380088806152344 4.84493350982666 0.3381843566894531 4.844391822814941 0.3383216857910156 4.843965530395508 C 0.3387374877929688 4.84268856048584 0.3390998840332031 4.84156608581543 0.3395118713378906 4.840290069580078 C 0.3396530151367188 4.839863777160645 0.3398208618164062 4.83934211730957 0.3399581909179688 4.838915824890137 C 0.3403739929199219 4.837638854980469 0.3408050537109375 4.836304664611816 0.3412208557128906 4.835027694702148 C 0.3413581848144531 4.834602355957031 0.3414382934570312 4.834353446960449 0.3415794372558594 4.833927154541016 C 0.3419914245605469 4.832651138305664 0.3424148559570312 4.831358909606934 0.3428306579589844 4.830082893371582 C 0.3429679870605469 4.829657554626465 0.3431663513183594 4.82905387878418 0.3433036804199219 4.828627586364746 C 0.343719482421875 4.827352523803711 0.3441047668457031 4.826171875 0.3445205688476562 4.824895858764648 C 0.3446617126464844 4.824470520019531 0.3448066711425781 4.824027061462402 0.3449440002441406 4.823600769042969 C 0.3453598022460938 4.822325706481934 0.3457450866699219 4.821146011352539 0.3461647033691406 4.819870948791504 C 0.3463020324707031 4.819445610046387 0.3464927673339844 4.818872451782227 0.3466300964355469 4.818447113037109 C 0.3470497131347656 4.817172050476074 0.3474502563476562 4.815952301025391 0.3478660583496094 4.814678192138672 C 0.3480072021484375 4.814252853393555 0.34814453125 4.813834190368652 0.3482856750488281 4.813408851623535 C 0.3487014770507812 4.8121337890625 0.3490753173828125 4.810995101928711 0.3494949340820312 4.809720993041992 C 0.3496360778808594 4.809296607971191 0.3498725891113281 4.80858325958252 0.3500099182128906 4.808157920837402 C 0.3503608703613281 4.807096481323242 0.3508758544921875 4.805534362792969 0.351226806640625 4.804472923278809 C 0.3513679504394531 4.804047584533691 0.3514862060546875 4.803689956665039 0.35162353515625 4.803265571594238 C 0.3520469665527344 4.80199146270752 0.3524589538574219 4.800737380981445 0.3528823852539062 4.799464225769043 C 0.3530235290527344 4.799038887023926 0.353179931640625 4.798559188842773 0.3533210754394531 4.798133850097656 C 0.3538131713867188 4.796648979187012 0.3541336059570312 4.79567813873291 0.3546295166015625 4.794193267822266 C 0.3547706604003906 4.793767929077148 0.3548164367675781 4.793620109558105 0.3549575805664062 4.793194770812988 C 0.3553810119628906 4.791922569274902 0.3558197021484375 4.79059886932373 0.3562431335449219 4.789326667785645 C 0.35638427734375 4.788902282714844 0.3566017150878906 4.78825855255127 0.3567428588867188 4.787834167480469 C 0.3570938110351562 4.786773681640625 0.3576393127441406 4.785137176513672 0.3579940795898438 4.784077644348145 C 0.3581352233886719 4.783653259277344 0.3582344055175781 4.78334903717041 0.3583755493164062 4.782924652099609 C 0.3588027954101562 4.781652450561523 0.3592338562011719 4.780356407165527 0.3596611022949219 4.779084205627441 C 0.35980224609375 4.778659820556641 0.359954833984375 4.778200149536133 0.3600959777832031 4.777775764465332 C 0.3605232238769531 4.776504516601562 0.3609695434570312 4.775163650512695 0.3613967895507812 4.773893356323242 C 0.3615379333496094 4.773468971252441 0.3616447448730469 4.773159980773926 0.361785888671875 4.772735595703125 C 0.362213134765625 4.771464347839355 0.3626136779785156 4.770261764526367 0.3630409240722656 4.768991470336914 C 0.3631858825683594 4.768567085266113 0.3634300231933594 4.767838478088379 0.3635711669921875 4.767414093017578 C 0.3639297485351562 4.766355514526367 0.3644294738769531 4.764869689941406 0.3647842407226562 4.763811111450195 C 0.36492919921875 4.763387680053711 0.3651008605957031 4.762872695922852 0.3652458190917969 4.762448310852051 C 0.3656730651855469 4.761178016662598 0.3660469055175781 4.760073661804199 0.3664741516113281 4.758803367614746 C 0.3666191101074219 4.758379936218262 0.3668251037597656 4.757761001586914 0.3669700622558594 4.75733757019043 C 0.3673973083496094 4.756067276000977 0.3677978515625 4.754885673522949 0.3682289123535156 4.753616333007812 C 0.3683738708496094 4.753191947937012 0.3685531616210938 4.75266170501709 0.3686943054199219 4.752238273620605 C 0.3690528869628906 4.751180648803711 0.3695030212402344 4.749861717224121 0.3698616027832031 4.748804092407227 C 0.3700752258300781 4.7481689453125 0.3703117370605469 4.747478485107422 0.3705253601074219 4.746843338012695 C 0.3708839416503906 4.745786666870117 0.3712692260742188 4.744657516479492 0.3716278076171875 4.743599891662598 C 0.3717727661132812 4.74317741394043 0.3720626831054688 4.742323875427246 0.3722076416015625 4.741900444030762 C 0.3725662231445312 4.740843772888184 0.3729629516601562 4.739684104919434 0.373321533203125 4.738627433776855 C 0.3735389709472656 4.737992286682129 0.3737411499023438 4.737404823303223 0.3739585876464844 4.736769676208496 C 0.3743171691894531 4.735713005065918 0.3747367858886719 4.734487533569336 0.3750991821289062 4.733430862426758 C 0.375244140625 4.733007431030273 0.3755264282226562 4.732181549072266 0.37567138671875 4.731759071350098 C 0.3760337829589844 4.73070240020752 0.3764228820800781 4.729558944702148 0.3767852783203125 4.728503227233887 C 0.3770027160644531 4.727869033813477 0.3772315979003906 4.727207183837891 0.3774490356445312 4.72657299041748 C 0.3778114318847656 4.725517272949219 0.378204345703125 4.724370956420898 0.3785667419433594 4.723315238952637 C 0.3787117004394531 4.722892761230469 0.3790016174316406 4.722054481506348 0.3791465759277344 4.72163200378418 C 0.3795089721679688 4.720576286315918 0.3799362182617188 4.719330787658691 0.3803024291992188 4.71827507019043 C 0.3804473876953125 4.717852592468262 0.3807220458984375 4.71705150604248 0.3808708190917969 4.716629028320312 C 0.3812332153320312 4.715574264526367 0.3817062377929688 4.714201927185059 0.3820724487304688 4.713146209716797 C 0.3822898864746094 4.712512969970703 0.3824424743652344 4.71207332611084 0.382659912109375 4.711440086364746 C 0.383026123046875 4.710385322570801 0.3833847045898438 4.709346771240234 0.3837509155273438 4.708292007446289 C 0.3840446472167969 4.707447052001953 0.3841896057128906 4.707030296325684 0.3844795227050781 4.706186294555664 C 0.3848457336425781 4.705131530761719 0.3851776123046875 4.704174041748047 0.3855438232421875 4.703119277954102 C 0.3857650756835938 4.702486991882324 0.3859977722167969 4.701813697814941 0.3862190246582031 4.701180458068848 C 0.3865852355957031 4.700126647949219 0.3869056701660156 4.699206352233887 0.3872718811035156 4.698152542114258 C 0.3875656127929688 4.697308540344238 0.3876686096191406 4.69701099395752 0.3879623413085938 4.6961669921875 C 0.3883285522460938 4.695113182067871 0.3887214660644531 4.693984985351562 0.3890914916992188 4.692931175231934 C 0.389312744140625 4.692298889160156 0.3894882202148438 4.691794395446777 0.38970947265625 4.691161155700684 C 0.39007568359375 4.690108299255371 0.3904190063476562 4.689127922058105 0.3907890319824219 4.688074111938477 C 0.391082763671875 4.687231063842773 0.3912773132324219 4.686676979064941 0.391571044921875 4.685833930969238 C 0.3919410705566406 4.684781074523926 0.3922080993652344 4.684019088745117 0.392578125 4.682966232299805 C 0.3927993774414062 4.682334899902344 0.3930931091308594 4.681488037109375 0.3933181762695312 4.680855751037598 C 0.3936882019042969 4.679803848266602 0.3939781188964844 4.678969383239746 0.39434814453125 4.677916526794434 C 0.3946456909179688 4.677074432373047 0.3947410583496094 4.676800727844238 0.3950386047363281 4.675958633422852 C 0.3954086303710938 4.674905776977539 0.3958015441894531 4.673786163330078 0.3961715698242188 4.672734260559082 C 0.3963966369628906 4.672102928161621 0.3966331481933594 4.671424865722656 0.3968582153320312 4.670793533325195 C 0.3972282409667969 4.669741630554199 0.3974838256835938 4.66901969909668 0.3978538513183594 4.66796875 C 0.3984489440917969 4.666284561157227 0.3990631103515625 4.664549827575684 0.399658203125 4.662866592407227 C 0.4002532958984375 4.661182403564453 0.4008674621582031 4.659463882446289 0.4014625549316406 4.657781600952148 C 0.4017601013183594 4.656940460205078 0.4019432067871094 4.65642261505127 0.4022445678710938 4.655581474304199 C 0.402618408203125 4.65453052520752 0.4029121398925781 4.653701782226562 0.4032859802246094 4.652650833129883 C 0.4035110473632812 4.652020454406738 0.4038276672363281 4.651131629943848 0.404052734375 4.650500297546387 C 0.4044265747070312 4.649450302124023 0.4046669006347656 4.648768424987793 0.4050445556640625 4.64771842956543 C 0.4053421020507812 4.646877288818359 0.4055633544921875 4.646263122558594 0.4058609008789062 4.64542293548584 C 0.4062385559082031 4.644372940063477 0.4065055847167969 4.643616676330566 0.4068832397460938 4.642566680908203 C 0.4071083068847656 4.641936302185059 0.4073753356933594 4.64118480682373 0.4076042175292969 4.640554428100586 C 0.4079780578613281 4.639505386352539 0.4083099365234375 4.63857364654541 0.4086875915527344 4.637524604797363 C 0.4089889526367188 4.636684417724609 0.4090995788574219 4.636373519897461 0.4094009399414062 4.635533332824707 C 0.4097785949707031 4.63448429107666 0.4101295471191406 4.633502006530762 0.4105072021484375 4.632452964782715 C 0.410736083984375 4.63182258605957 0.4110145568847656 4.631048202514648 0.4112396240234375 4.63041877746582 C 0.4116172790527344 4.629369735717773 0.4118919372558594 4.628602027893066 0.4122695922851562 4.62755298614502 C 0.4128799438476562 4.625876426696777 0.4135055541992188 4.624122619628906 0.4141120910644531 4.622445106506348 C 0.4144172668457031 4.621604919433594 0.4145851135253906 4.621135711669922 0.4148902893066406 4.620296478271484 C 0.4152679443359375 4.619248390197754 0.4155349731445312 4.618513107299805 0.4159126281738281 4.617465019226074 C 0.4165229797363281 4.615789413452148 0.4171218872070312 4.61412239074707 0.4177322387695312 4.612444877624512 C 0.4183425903320312 4.610766410827637 0.4189224243164062 4.609179496765137 0.419525146484375 4.607504844665527 C 0.4201316833496094 4.605828285217285 0.4207725524902344 4.604072570800781 0.42138671875 4.602397918701172 C 0.4219970703125 4.60072135925293 0.4225921630859375 4.599079132080078 0.4232101440429688 4.597404479980469 C 0.4238204956054688 4.595730781555176 0.4244384765625 4.594034194946289 0.4250564575195312 4.592358589172363 C 0.4256706237792969 4.590683937072754 0.4262275695800781 4.589169502258301 0.4268379211425781 4.587492942810059 C 0.4272232055664062 4.586446762084961 0.4275093078613281 4.585667610168457 0.4278945922851562 4.584620475769043 C 0.4285125732421875 4.58294677734375 0.4290962219238281 4.581365585327148 0.4297065734863281 4.579693794250488 C 0.4303245544433594 4.578021049499512 0.4309120178222656 4.576427459716797 0.4315299987792969 4.574752807617188 C 0.4318389892578125 4.573917388916016 0.4321022033691406 4.573206901550293 0.4324111938476562 4.572371482849121 C 0.4327964782714844 4.57132625579834 0.4330863952636719 4.57054615020752 0.4334716796875 4.569500923156738 C 0.4337806701660156 4.568665504455566 0.4339103698730469 4.568314552307129 0.4342231750488281 4.567479133605957 C 0.4346084594726562 4.566433906555176 0.4349479675292969 4.565516471862793 0.4353370666503906 4.564471244812012 C 0.4356460571289062 4.56363582611084 0.4357948303222656 4.563237190246582 0.4361076354980469 4.56240177154541 C 0.436492919921875 4.561357498168945 0.4367713928222656 4.560611724853516 0.4371604919433594 4.559567451477051 C 0.4377784729003906 4.557897567749023 0.4383697509765625 4.556303977966309 0.4389991760253906 4.554631233215332 C 0.4393081665039062 4.553796768188477 0.4395370483398438 4.553186416625977 0.439849853515625 4.552351951599121 C 0.4402389526367188 4.551308631896973 0.4406051635742188 4.550326347351074 0.4409942626953125 4.549282073974609 C 0.4411506652832031 4.54886531829834 0.441497802734375 4.547940254211426 0.4416542053222656 4.54752254486084 C 0.4420433044433594 4.546479225158691 0.442474365234375 4.545326232910156 0.4428672790527344 4.544282913208008 C 0.4430999755859375 4.543658256530762 0.4433326721191406 4.543032646179199 0.4435691833496094 4.542407035827637 C 0.4439620971679688 4.541363716125488 0.4443092346191406 4.540437698364258 0.4446983337402344 4.539395332336426 C 0.4450111389160156 4.53856086730957 0.4451332092285156 4.538236618041992 0.4454498291015625 4.537402153015137 C 0.4458389282226562 4.536359786987305 0.446136474609375 4.535567283630371 0.4465293884277344 4.534524917602539 C 0.4468460083007812 4.53369140625 0.447052001953125 4.533138275146484 0.4473648071289062 4.532305717468262 C 0.4477577209472656 4.531262397766113 0.4480361938476562 4.530529022216797 0.4484291076660156 4.529486656188965 C 0.4487419128417969 4.528654098510742 0.4488983154296875 4.528246879577637 0.4492111206054688 4.527413368225098 C 0.4496040344238281 4.526371955871582 0.4499893188476562 4.525356292724609 0.4503822326660156 4.524314880371094 C 0.4506187438964844 4.523690223693848 0.45086669921875 4.523035049438477 0.4511032104492188 4.52241039276123 C 0.4514961242675781 4.521368980407715 0.4518318176269531 4.52048397064209 0.4522285461425781 4.519442558288574 C 0.4528541564941406 4.517777442932129 0.4534492492675781 4.516223907470703 0.4540824890136719 4.514556884765625 C 0.4543991088867188 4.513725280761719 0.4546089172363281 4.51317024230957 0.454925537109375 4.512338638305664 C 0.4553184509277344 4.511297225952148 0.4556694030761719 4.510382652282715 0.4560661315917969 4.509342193603516 C 0.4563026428222656 4.50871753692627 0.4565277099609375 4.508124351501465 0.4567680358886719 4.507500648498535 C 0.4571609497070312 4.506460189819336 0.4576339721679688 4.50522518157959 0.4580307006835938 4.504184722900391 C 0.4582710266113281 4.503561019897461 0.4584426879882812 4.503101348876953 0.4586830139160156 4.50247859954834 C 0.4590797424316406 4.501438140869141 0.4594764709472656 4.500401496887207 0.4598731994628906 4.499361991882324 C 0.460113525390625 4.498738288879395 0.4603729248046875 4.498058319091797 0.4606132507324219 4.497434616088867 C 0.4610099792480469 4.496395111083984 0.461334228515625 4.495550155639648 0.46173095703125 4.494510650634766 C 0.4620513916015625 4.493680000305176 0.4622230529785156 4.493227958679199 0.4625434875488281 4.492397308349609 C 0.4629402160644531 4.491357803344727 0.4633026123046875 4.490419387817383 0.4637031555175781 4.489380836486816 C 0.4639396667480469 4.488757133483887 0.4641799926757812 4.488139152526855 0.4644203186035156 4.487516403198242 C 0.4648170471191406 4.486476898193359 0.4652442932128906 4.485372543334961 0.4656448364257812 4.484333992004395 C 0.4658851623535156 4.483711242675781 0.4661102294921875 4.483122825622559 0.4663505554199219 4.482500076293945 C 0.4667510986328125 4.481461524963379 0.4671440124511719 4.480441093444824 0.4675445556640625 4.479403495788574 C 0.4677848815917969 4.478780746459961 0.4680328369140625 4.478141784667969 0.4682731628417969 4.477519989013672 C 0.4686737060546875 4.476481437683105 0.4690704345703125 4.475459098815918 0.4694709777832031 4.474420547485352 C 0.4697113037109375 4.473798751831055 0.4699592590332031 4.47315502166748 0.4702033996582031 4.472533226013184 C 0.4706039428710938 4.471495628356934 0.4710845947265625 4.470253944396973 0.4714889526367188 4.469216346740723 C 0.471649169921875 4.468801498413086 0.4719200134277344 4.468103408813477 0.4720802307128906 4.467689514160156 C 0.4724845886230469 4.466651916503906 0.4730606079101562 4.46516227722168 0.4734649658203125 4.46412467956543 C 0.4736251831054688 4.463710784912109 0.4738578796386719 4.463115692138672 0.4740180969238281 4.462700843811035 C 0.4744224548339844 4.461663246154785 0.4749908447265625 4.460208892822266 0.4753913879394531 4.459172248840332 C 0.475555419921875 4.458758354187012 0.475799560546875 4.458131790161133 0.4759597778320312 4.457716941833496 C 0.4763641357421875 4.456680297851562 0.4768562316894531 4.455417633056641 0.4772605895996094 4.454380989074707 C 0.4775047302246094 4.453760147094727 0.477691650390625 4.453282356262207 0.477935791015625 4.452661514282227 C 0.4783401489257812 4.451624870300293 0.4788703918457031 4.45026683807373 0.4792747497558594 4.449231147766113 C 0.4794387817382812 4.448816299438477 0.4796714782714844 4.448223114013672 0.4798316955566406 4.447809219360352 C 0.4802398681640625 4.446772575378418 0.4807891845703125 4.445370674133301 0.4811935424804688 4.444334983825684 C 0.4814376831054688 4.443714141845703 0.4815750122070312 4.443365097045898 0.4818191528320312 4.442744255065918 C 0.4822273254394531 4.441709518432617 0.4827232360839844 4.440441131591797 0.4831314086914062 4.439406394958496 C 0.4832954406738281 4.438992500305176 0.4836006164550781 4.438210487365723 0.4837646484375 4.437796592712402 C 0.4841728210449219 4.436761856079102 0.4846458435058594 4.435556411743164 0.4850540161132812 4.434521675109863 C 0.4852981567382812 4.433901786804199 0.4854888916015625 4.433414459228516 0.4857330322265625 4.432793617248535 C 0.4862251281738281 4.431551933288574 0.4866676330566406 4.430425643920898 0.4871597290039062 4.429183959960938 C 0.4873237609863281 4.428771018981934 0.487457275390625 4.42842960357666 0.4876213073730469 4.42801570892334 C 0.4881935119628906 4.426568031311035 0.4885711669921875 4.425617218017578 0.4891433715820312 4.424169540405273 C 0.4893074035644531 4.423755645751953 0.4894371032714844 4.423429489135742 0.4896011352539062 4.423016548156738 C 0.4900894165039062 4.421775817871094 0.4906005859375 4.420490264892578 0.4910926818847656 4.419249534606934 C 0.4912567138671875 4.41883659362793 0.4914054870605469 4.418458938598633 0.4915695190429688 4.418045997619629 C 0.4919815063476562 4.417012214660645 0.4925765991210938 4.415513038635254 0.4929885864257812 4.414480209350586 C 0.4931526184082031 4.414067268371582 0.4934120178222656 4.413410186767578 0.4935760498046875 4.412997245788574 C 0.4940719604492188 4.411757469177246 0.4945259094238281 4.410616874694824 0.4950180053710938 4.409377098083496 C 0.4951858520507812 4.408964157104492 0.4953460693359375 4.40855884552002 0.4955101013183594 4.408145904541016 C 0.4959220886230469 4.407113075256348 0.4965782165527344 4.405471801757812 0.4969902038574219 4.404438972473145 C 0.4971542358398438 4.404026031494141 0.497344970703125 4.403547286987305 0.4975128173828125 4.403134346008301 C 0.4980049133300781 4.401895523071289 0.4984779357910156 4.400715827941895 0.4989738464355469 4.399477005004883 C 0.4991416931152344 4.399065017700195 0.4993171691894531 4.398624420166016 0.499481201171875 4.398211479187012 C 0.4998931884765625 4.39717960357666 0.5005149841308594 4.395635604858398 0.5009269714355469 4.394603729248047 C 0.5010948181152344 4.394191741943359 0.5013160705566406 4.393632888793945 0.5014839172363281 4.393219947814941 C 0.5019798278808594 4.391982078552246 0.5025672912597656 4.390525817871094 0.5030632019042969 4.389288902282715 C 0.5031471252441406 4.389082908630371 0.5033226013183594 4.388640403747559 0.5034065246582031 4.388434410095215 C 0.5039863586425781 4.386990547180176 0.5045051574707031 4.385708808898926 0.5050849914550781 4.384265899658203 C 0.5051689147949219 4.384059906005859 0.5053176879882812 4.383687019348145 0.505401611328125 4.383481025695801 C 0.5059852600097656 4.382038116455078 0.5064544677734375 4.38086986541748 0.5070381164550781 4.379426956176758 C 0.5071220397949219 4.379220962524414 0.5073318481445312 4.378697395324707 0.507415771484375 4.378491401672363 C 0.5079994201660156 4.377048492431641 0.5083999633789062 4.376059532165527 0.5089836120605469 4.374617576599121 C 0.5090675354003906 4.374411582946777 0.5093536376953125 4.37370491027832 0.5094375610351562 4.373498916625977 C 0.5100212097167969 4.37205696105957 0.5104598999023438 4.370970726013184 0.51104736328125 4.369528770446777 C 0.5111312866210938 4.369322776794434 0.5113258361816406 4.368834495544434 0.5114097595214844 4.368629455566406 C 0.5119972229003906 4.3671875 0.512451171875 4.366069793701172 0.5130386352539062 4.364627838134766 C 0.5131187438964844 4.364422798156738 0.5133552551269531 4.363848686218262 0.5134391784667969 4.363642692565918 C 0.5140228271484375 4.362201690673828 0.5144081115722656 4.361263275146484 0.5149917602539062 4.359822273254395 C 0.5151596069335938 4.359411239624023 0.5152969360351562 4.359074592590332 0.5154647827148438 4.358663558959961 C 0.5158843994140625 4.357634544372559 0.5165138244628906 4.356094360351562 0.5169334411621094 4.35506534576416 C 0.5171012878417969 4.354654312133789 0.5173416137695312 4.354069709777832 0.5175094604492188 4.353658676147461 C 0.5180130004882812 4.352424621582031 0.5186653137207031 4.350831985473633 0.5191688537597656 4.349597930908203 C 0.5192527770996094 4.349391937255859 0.51934814453125 4.349164009094238 0.5194320678710938 4.348958969116211 C 0.52001953125 4.347519874572754 0.5206451416015625 4.345992088317871 0.5212364196777344 4.34455394744873 C 0.5213203430175781 4.344347953796387 0.5213699340820312 4.344230651855469 0.521453857421875 4.344025611877441 C 0.5220451354980469 4.342586517333984 0.5226631164550781 4.341081619262695 0.52325439453125 4.339643478393555 C 0.5233383178710938 4.339437484741211 0.5233955383300781 4.339295387268066 0.5234794616699219 4.339090347290039 C 0.5240745544433594 4.337652206420898 0.5246124267578125 4.336345672607422 0.5252037048339844 4.334907531738281 C 0.5252876281738281 4.334702491760254 0.5254554748535156 4.334291458129883 0.525543212890625 4.334085464477539 C 0.5262184143066406 4.332442283630371 0.526702880859375 4.331272125244141 0.5273818969726562 4.329628944396973 C 0.5274658203125 4.329423904418945 0.5274314880371094 4.329502105712891 0.5275192260742188 4.329297065734863 C 0.5281105041503906 4.327859878540039 0.52874755859375 4.326318740844727 0.5293426513671875 4.324882507324219 C 0.5294265747070312 4.324677467346191 0.5295066833496094 4.324488639831543 0.5295906066894531 4.324283599853516 C 0.5301856994628906 4.322846412658691 0.53076171875 4.321456909179688 0.5313568115234375 4.32002067565918 C 0.5314407348632812 4.319815635681152 0.5315513610839844 4.319555282592773 0.5316352844238281 4.319350242614746 C 0.5322303771972656 4.317914009094238 0.5327224731445312 4.316729545593262 0.5333213806152344 4.31529426574707 C 0.5334053039550781 4.315089225769043 0.5336265563964844 4.314558029174805 0.5337104797363281 4.314352989196777 C 0.534393310546875 4.312712669372559 0.5348968505859375 4.311501502990723 0.5355796813964844 4.309861183166504 C 0.5355796813964844 4.309861183166504 0.5356788635253906 4.309627532958984 0.5356788635253906 4.309627532958984 C 0.5363616943359375 4.307987213134766 0.5369186401367188 4.306653022766113 0.5376014709472656 4.305013656616211 C 0.5376014709472656 4.305013656616211 0.5377464294433594 4.304668426513672 0.5377464294433594 4.304668426513672 C 0.5384330749511719 4.30302906036377 0.5389518737792969 4.301782608032227 0.5396385192871094 4.300144195556641 C 0.5397224426269531 4.299939155578613 0.5397224426269531 4.299943923950195 0.5398063659667969 4.299738883972168 C 0.5404090881347656 4.298305511474609 0.5409889221191406 4.296918869018555 0.5415878295898438 4.295485496520996 C 0.5416755676269531 4.295281410217285 0.5418205261230469 4.294928550720215 0.5419082641601562 4.294724464416504 C 0.5425949096679688 4.293086051940918 0.5430793762207031 4.29193115234375 0.5437698364257812 4.29029369354248 C 0.543853759765625 4.290088653564453 0.5438346862792969 4.290133476257324 0.5439224243164062 4.289929389953613 C 0.544525146484375 4.288496017456055 0.5451393127441406 4.287032127380371 0.5457420349121094 4.285599708557129 C 0.5458297729492188 4.285395622253418 0.5459442138671875 4.28511905670166 0.5460319519042969 4.284914970397949 C 0.5466346740722656 4.283482551574707 0.5472793579101562 4.281949996948242 0.5478858947753906 4.280518531799316 C 0.5479698181152344 4.280313491821289 0.5479774475097656 4.280295372009277 0.548065185546875 4.28009033203125 C 0.5486679077148438 4.278658866882324 0.5492401123046875 4.277307510375977 0.5498466491699219 4.275876045227051 C 0.5499305725097656 4.27567195892334 0.5501022338867188 4.275272369384766 0.5501861572265625 4.275068283081055 C 0.5508804321289062 4.273432731628418 0.5514183044433594 4.272162437438965 0.5521087646484375 4.270527839660645 C 0.5521087646484375 4.270527839660645 0.5521888732910156 4.270337104797363 0.5521888732910156 4.270337104797363 C 0.5528831481933594 4.268701553344727 0.5534439086914062 4.267379760742188 0.55413818359375 4.265745162963867 C 0.55413818359375 4.265745162963867 0.5542945861816406 4.265377044677734 0.5542945861816406 4.265377044677734 C 0.5556831359863281 4.26210880279541 0.556915283203125 4.25921630859375 0.5583076477050781 4.255950927734375 C 0.5583076477050781 4.255950927734375 0.5584678649902344 4.255572319030762 0.5584678649902344 4.255572319030762 C 0.5598640441894531 4.25230598449707 0.5610923767089844 4.249425888061523 0.5624923706054688 4.246162414550781 C 0.5624923706054688 4.246162414550781 0.5626602172851562 4.245772361755371 0.5626602172851562 4.245772361755371 C 0.5633583068847656 4.244139671325684 0.5639686584472656 4.242714881896973 0.5646705627441406 4.241084098815918 C 0.5646705627441406 4.241084098815918 0.5647239685058594 4.240952491760254 0.5647239685058594 4.240952491760254 C 0.5654258728027344 4.239321708679199 0.5659980773925781 4.23798942565918 0.5666999816894531 4.236358642578125 C 0.5666999816894531 4.236358642578125 0.5668563842773438 4.235997200012207 0.5668563842773438 4.235997200012207 C 0.5696601867675781 4.229475021362305 0.5724105834960938 4.223111152648926 0.5752372741699219 4.216599464416504 C 0.5752372741699219 4.216599464416504 0.5752716064453125 4.216517448425293 0.5752716064453125 4.216517448425293 C 0.578094482421875 4.210004806518555 0.5809097290039062 4.203543663024902 0.5837554931640625 4.197041511535645 C 0.5837554931640625 4.197041511535645 0.583770751953125 4.197010040283203 0.583770751953125 4.197010040283203 C 1.354595184326172 2.435030937194824 2.829856872558594 1.051645278930664 4.653530120849609 0.4029722213745117 C 4.653530120849609 0.4029722213745117 4.653640747070312 0.4029321670532227 4.653640747070312 0.4029321670532227 C 4.683925628662109 0.3921613693237305 4.714252471923828 0.3816108703613281 4.744724273681641 0.371246337890625 C 4.744724273681641 0.371246337890625 4.744743347167969 0.3712396621704102 4.744743347167969 0.3712396621704102 C 4.748126983642578 0.3700885772705078 4.751396179199219 0.3689794540405273 4.754783630371094 0.367833137512207 C 4.754783630371094 0.367833137512207 4.754951477050781 0.3677759170532227 4.754951477050781 0.3677759170532227 C 4.758338928222656 0.3666296005249023 4.761661529541016 0.3655080795288086 4.765052795410156 0.3643665313720703 C 4.765052795410156 0.3643665313720703 4.765071868896484 0.3643598556518555 4.765071868896484 0.3643598556518555 C 4.768463134765625 0.3632192611694336 4.771732330322266 0.3621206283569336 4.775123596191406 0.3609838485717773 C 4.775123596191406 0.3609838485717773 4.775295257568359 0.360926628112793 4.775295257568359 0.360926628112793 C 4.778690338134766 0.3597898483276367 4.781936645507812 0.3587055206298828 4.785331726074219 0.357574462890625 C 4.785331726074219 0.357574462890625 4.785465240478516 0.3575286865234375 4.785465240478516 0.3575286865234375 C 4.788860321044922 0.3563976287841797 4.792167663574219 0.3552980422973633 4.795566558837891 0.3541717529296875 C 4.795566558837891 0.3541717529296875 4.795631408691406 0.3541498184204102 4.795631408691406 0.3541498184204102 C 4.805824279785156 0.3507709503173828 4.815849304199219 0.34747314453125 4.826061248779297 0.3441400527954102 C 4.826061248779297 0.3441400527954102 4.826297760009766 0.3440637588500977 4.826297760009766 0.3440637588500977 C 4.827999114990234 0.3435077667236328 4.829620361328125 0.3429794311523438 4.831321716308594 0.3424253463745117 C 4.831321716308594 0.3424253463745117 4.831329345703125 0.3424224853515625 4.831329345703125 0.3424224853515625 C 4.833030700683594 0.3418684005737305 4.834693908691406 0.3413286209106445 4.836395263671875 0.3407754898071289 C 4.836395263671875 0.3407754898071289 4.836456298828125 0.3407564163208008 4.836456298828125 0.3407564163208008 C 4.843269348144531 0.3385448455810547 4.850021362304688 0.3363637924194336 4.856845855712891 0.3341712951660156 C 4.856845855712891 0.3341712951660156 4.856910705566406 0.3341503143310547 4.856910705566406 0.3341503143310547 C 4.860324859619141 0.3330535888671875 4.863559722900391 0.3320178985595703 4.866970062255859 0.3309268951416016 C 4.867183685302734 0.3308582305908203 4.866989135742188 0.3309221267700195 4.867198944091797 0.3308534622192383 C 4.870613098144531 0.3297624588012695 4.873886108398438 0.3287200927734375 4.877300262451172 0.3276348114013672 C 4.877300262451172 0.3276348114013672 4.877403259277344 0.327601432800293 4.877403259277344 0.327601432800293 C 4.880821228027344 0.3265161514282227 4.884109497070312 0.3254737854003906 4.887527465820312 0.3243932723999023 C 4.889450073242188 0.3237857818603516 4.890716552734375 0.3233861923217773 4.892642974853516 0.3227777481079102 C 4.89453125 0.3221778869628906 4.89581298828125 0.32177734375 4.897739410400391 0.3211727142333984 C 4.897953033447266 0.3211050033569336 4.897727966308594 0.3211765289306641 4.897941589355469 0.3211097717285156 C 4.901359558105469 0.3200340270996094 4.904697418212891 0.3189878463745117 4.908119201660156 0.3179168701171875 C 4.908119201660156 0.3179168701171875 4.908153533935547 0.317906379699707 4.908153533935547 0.317906379699707 C 4.910079956054688 0.3173046112060547 4.911384582519531 0.3169002532958984 4.913311004638672 0.3162965774536133 C 4.915237426757812 0.3156957626342773 4.91656494140625 0.3152828216552734 4.918487548828125 0.3146839141845703 C 4.920413970947266 0.3140859603881836 4.921649932861328 0.3136997222900391 4.923583984375 0.3131008148193359 C 4.925510406494141 0.3125038146972656 4.926860809326172 0.3120965957641602 4.928783416748047 0.3114900588989258 C 4.930717468261719 0.3108930587768555 4.93194580078125 0.3105144500732422 4.933849334716797 0.3099250793457031 C 4.935779571533203 0.3093318939208984 4.937114715576172 0.3089237213134766 4.939033508300781 0.3083295822143555 C 4.940963745117188 0.3077363967895508 4.942222595214844 0.3073549270629883 4.944149017333984 0.3067569732666016 C 4.946079254150391 0.3061647415161133 4.947391510009766 0.3057699203491211 4.949317932128906 0.3051729202270508 C 4.951248168945312 0.3045835494995117 4.952522277832031 0.3042049407958984 4.954437255859375 0.3036088943481445 C 4.956367492675781 0.3030204772949219 4.957653045654297 0.3026313781738281 4.959621429443359 0.3020305633544922 C 4.963054656982422 0.3009862899780273 4.966419219970703 0.2999649047851562 4.969856262207031 0.2989253997802734 C 4.969856262207031 0.2989253997802734 4.969879150390625 0.2989177703857422 4.969879150390625 0.2989177703857422 C 4.971595764160156 0.2983980178833008 4.973281860351562 0.2978887557983398 4.975002288818359 0.2973709106445312 C 4.975002288818359 0.2973709106445312 4.975040435791016 0.2973594665527344 4.975040435791016 0.2973594665527344 C 4.976974487304688 0.2967748641967773 4.978343963623047 0.2963666915893555 4.980255126953125 0.2957878112792969 C 4.982189178466797 0.2952070236206055 4.983486175537109 0.2948169708251953 4.98541259765625 0.2942380905151367 C 4.987346649169922 0.2936582565307617 4.988594055175781 0.2932720184326172 4.990577697753906 0.2926912307739258 C 4.992515563964844 0.2921133041381836 4.993782043457031 0.291743278503418 4.995693206787109 0.2911624908447266 C 4.997413635253906 0.2906494140625 4.999252319335938 0.2901039123535156 5.000972747802734 0.2895898818969727 C 5.002910614013672 0.2890129089355469 5.004184722900391 0.2886371612548828 5.006092071533203 0.2880697250366211 C 5.008026123046875 0.2874946594238281 5.00933837890625 0.2871131896972656 5.011280059814453 0.2865324020385742 C 5.013225555419922 0.2859592437744141 5.014499664306641 0.2855806350708008 5.016445159912109 0.2850074768066406 C 5.018165588378906 0.2845001220703125 5.019901275634766 0.2839784622192383 5.021659851074219 0.2834720611572266 C 5.023380279541016 0.2829656600952148 5.025142669677734 0.2824554443359375 5.02685546875 0.2819452285766602 C 5.028579711914062 0.2814407348632812 5.030300140380859 0.2809467315673828 5.032005310058594 0.2804374694824219 C 5.033943176269531 0.2798700332641602 5.035167694091797 0.279510498046875 5.037136077880859 0.2789402008056641 C 5.038864135742188 0.2784366607666016 5.040634155273438 0.277923583984375 5.042335510253906 0.2774257659912109 C 5.044284820556641 0.2768611907958984 5.045497894287109 0.2764997482299805 5.047435760498047 0.2759456634521484 C 5.049163818359375 0.2754440307617188 5.050960540771484 0.2749109268188477 5.052700042724609 0.2744216918945312 C 5.054645538330078 0.2738609313964844 5.055942535400391 0.2734889984130859 5.057853698730469 0.2729339599609375 C 5.059585571289062 0.2724342346191406 5.061386108398438 0.2719211578369141 5.063083648681641 0.2714290618896484 C 5.065025329589844 0.2708711624145508 5.066242218017578 0.2705106735229492 5.068222045898438 0.2699556350708008 C 5.0699462890625 0.2694597244262695 5.071701049804688 0.2689552307128906 5.073444366455078 0.2684602737426758 C 5.075386047363281 0.2679052352905273 5.076622009277344 0.2675504684448242 5.078594207763672 0.2669916152954102 C 5.080543518066406 0.2664375305175781 5.081882476806641 0.2660646438598633 5.083778381347656 0.2655172348022461 C 5.08551025390625 0.2650260925292969 5.087017059326172 0.2645988464355469 5.0887451171875 0.2641086578369141 C 5.0887451171875 0.2641086578369141 5.088901519775391 0.2640647888183594 5.088901519775391 0.2640647888183594 C 5.090850830078125 0.2635135650634766 5.092235565185547 0.2631263732910156 5.094161987304688 0.262578010559082 C 5.096107482910156 0.2620267868041992 5.097408294677734 0.26165771484375 5.099353790283203 0.2611141204833984 C 5.101085662841797 0.2606258392333984 5.102832794189453 0.2601222991943359 5.104587554931641 0.2596426010131836 C 5.106536865234375 0.2590961456298828 5.107791900634766 0.2587413787841797 5.109756469726562 0.2581939697265625 C 5.111492156982422 0.2577104568481445 5.113227844238281 0.257227897644043 5.114967346191406 0.2567386627197266 C 5.116909027099609 0.2561960220336914 5.118183135986328 0.2558488845825195 5.120136260986328 0.2552986145019531 C 5.122089385986328 0.2547569274902344 5.123397827148438 0.2544031143188477 5.125354766845703 0.253849983215332 C 5.127304077148438 0.2533092498779297 5.128585815429688 0.2529449462890625 5.130580902099609 0.2524032592773438 C 5.132316589355469 0.2519245147705078 5.134078979492188 0.2514400482177734 5.135810852050781 0.2509593963623047 C 5.137763977050781 0.250422477722168 5.138996124267578 0.2500743865966797 5.140953063964844 0.2495450973510742 C 5.142906188964844 0.2490072250366211 5.144210815429688 0.2486562728881836 5.146160125732422 0.2481155395507812 C 5.148109436035156 0.2475805282592773 5.149368286132812 0.2472286224365234 5.151374816894531 0.2466888427734375 C 5.153331756591797 0.2461557388305664 5.154659271240234 0.2457942962646484 5.156593322753906 0.2452659606933594 C 5.158332824707031 0.2447929382324219 5.159839630126953 0.2443828582763672 5.161579132080078 0.2439107894897461 C 5.161579132080078 0.2439107894897461 5.161754608154297 0.2438631057739258 5.161754608154297 0.2438631057739258 C 5.163711547851562 0.2433319091796875 5.165050506591797 0.2429704666137695 5.167018890380859 0.242436408996582 C 5.168758392333984 0.2419662475585938 5.170280456542969 0.2415542602539062 5.172019958496094 0.2410850524902344 C 5.172019958496094 0.2410850524902344 5.172183990478516 0.2410402297973633 5.172183990478516 0.2410402297973633 C 5.174140930175781 0.2405128479003906 5.175510406494141 0.240142822265625 5.177455902099609 0.2396211624145508 C 5.179195404052734 0.2391529083251953 5.1806640625 0.2387590408325195 5.182403564453125 0.2382917404174805 C 5.182403564453125 0.2382917404174805 5.182643890380859 0.2382278442382812 5.182643890380859 0.2382278442382812 C 5.184600830078125 0.2377033233642578 5.185947418212891 0.237339973449707 5.187908172607422 0.2368183135986328 C 5.189651489257812 0.2363529205322266 5.191246032714844 0.235926628112793 5.192989349365234 0.2354631423950195 C 5.192989349365234 0.2354631423950195 5.193038940429688 0.2354497909545898 5.193038940429688 0.2354497909545898 C 5.194778442382812 0.2349863052368164 5.196460723876953 0.2345390319824219 5.198200225830078 0.2340764999389648 C 5.198200225830078 0.2340764999389648 5.198268890380859 0.2340583801269531 5.198268890380859 0.2340583801269531 C 5.200229644775391 0.2335386276245117 5.201595306396484 0.2331724166870117 5.203571319580078 0.2326526641845703 C 5.205310821533203 0.2321910858154297 5.207073211669922 0.2317295074462891 5.208824157714844 0.2312631607055664 C 5.210567474365234 0.2308034896850586 5.212047576904297 0.2304134368896484 5.213794708251953 0.229954719543457 C 5.213794708251953 0.229954719543457 5.2139892578125 0.2299032211303711 5.2139892578125 0.2299032211303711 C 5.215732574462891 0.2294445037841797 5.217189788818359 0.2290611267089844 5.21893310546875 0.2286033630371094 C 5.21893310546875 0.2286033630371094 5.219253540039062 0.2285194396972656 5.219253540039062 0.2285194396972656 C 5.220996856689453 0.228062629699707 5.222511291503906 0.227665901184082 5.224258422851562 0.2272100448608398 C 5.224258422851562 0.2272100448608398 5.224452972412109 0.2271585464477539 5.224452972412109 0.2271585464477539 C 5.2261962890625 0.2267017364501953 5.228034973144531 0.2262248992919922 5.229770660400391 0.2257699966430664 C 5.231735229492188 0.2252588272094727 5.232986450195312 0.2249326705932617 5.234981536865234 0.2244148254394531 C 5.236724853515625 0.2239618301391602 5.238471984863281 0.2234992980957031 5.240234375 0.2230520248413086 C 5.241981506347656 0.2225990295410156 5.243751525878906 0.2221412658691406 5.245502471923828 0.2216901779174805 C 5.247249603271484 0.2212400436401367 5.248970031738281 0.2207956314086914 5.250724792480469 0.2203445434570312 C 5.252471923828125 0.2198944091796875 5.253898620605469 0.2195281982421875 5.255649566650391 0.2190799713134766 C 5.255649566650391 0.2190799713134766 5.255901336669922 0.2190151214599609 5.255901336669922 0.2190151214599609 C 5.257648468017578 0.21856689453125 5.259170532226562 0.2181777954101562 5.260917663574219 0.2177305221557617 C 5.260917663574219 0.2177305221557617 5.261135101318359 0.2176752090454102 5.261135101318359 0.2176752090454102 C 5.262886047363281 0.2172279357910156 5.264396667480469 0.2168416976928711 5.266143798828125 0.2163963317871094 C 5.266143798828125 0.2163963317871094 5.266387939453125 0.216334342956543 5.266387939453125 0.216334342956543 C 5.268138885498047 0.2158889770507812 5.269626617431641 0.215510368347168 5.271377563476562 0.2150659561157227 C 5.271377563476562 0.2150659561157227 5.271640777587891 0.2149982452392578 5.271640777587891 0.2149982452392578 C 5.273391723632812 0.2145538330078125 5.274883270263672 0.2141752243041992 5.276634216308594 0.2137327194213867 C 5.276634216308594 0.2137327194213867 5.276889801025391 0.2136678695678711 5.276889801025391 0.2136678695678711 C 5.278858184814453 0.2131690979003906 5.280170440673828 0.2128334045410156 5.282184600830078 0.2123298645019531 C 5.283927917480469 0.211888313293457 5.285701751708984 0.2114496231079102 5.287445068359375 0.2110042572021484 C 5.289203643798828 0.2105636596679688 5.290977478027344 0.2101173400878906 5.292701721191406 0.2096843719482422 C 5.294456481933594 0.2092456817626953 5.29583740234375 0.2088994979858398 5.297588348388672 0.2084617614746094 C 5.297588348388672 0.2084617614746094 5.297920227050781 0.208378791809082 5.297920227050781 0.208378791809082 C 5.299674987792969 0.2079410552978516 5.301486968994141 0.2074947357177734 5.303211212158203 0.2070598602294922 C 5.304965972900391 0.2066221237182617 5.306781768798828 0.2061777114868164 5.308509826660156 0.2057428359985352 C 5.310264587402344 0.2053079605102539 5.312019348144531 0.2048730850219727 5.313751220703125 0.2044439315795898 C 5.315509796142578 0.2040090560913086 5.317279815673828 0.2035665512084961 5.319011688232422 0.2031450271606445 C 5.320770263671875 0.2027120590209961 5.322525024414062 0.2022781372070312 5.324268341064453 0.2018508911132812 C 5.326023101806641 0.2014198303222656 5.327495574951172 0.2010593414306641 5.329250335693359 0.2006301879882812 C 5.329250335693359 0.2006301879882812 5.329448699951172 0.2005805969238281 5.329448699951172 0.2005805969238281 C 5.330986022949219 0.2002048492431641 5.332794189453125 0.199763298034668 5.334327697753906 0.1993885040283203 C 5.334327697753906 0.1993885040283203 5.33477783203125 0.1992778778076172 5.33477783203125 0.1992778778076172 C 5.336536407470703 0.1988496780395508 5.338096618652344 0.1984691619873047 5.339851379394531 0.1980428695678711 C 5.339851379394531 0.1980428695678711 5.339962005615234 0.1980152130126953 5.339962005615234 0.1980152130126953 C 5.341499328613281 0.1976413726806641 5.343326568603516 0.1971988677978516 5.344863891601562 0.1968259811401367 C 5.344863891601562 0.1968259811401367 5.345321655273438 0.1967144012451172 5.345321655273438 0.1967144012451172 C 5.346858978271484 0.1963424682617188 5.348602294921875 0.1959199905395508 5.350139617919922 0.1955480575561523 C 5.350139617919922 0.1955480575561523 5.350589752197266 0.1954402923583984 5.350589752197266 0.1954402923583984 C 5.352348327636719 0.1950149536132812 5.354129791259766 0.1945886611938477 5.355873107910156 0.1941652297973633 C 5.357631683349609 0.1937427520751953 5.359390258789062 0.1933155059814453 5.361148834228516 0.1928987503051758 C 5.362903594970703 0.1924781799316406 5.364696502685547 0.1920557022094727 5.366443634033203 0.1916294097900391 C 5.368206024169922 0.1912088394165039 5.369953155517578 0.1907882690429688 5.371726989746094 0.1903696060180664 C 5.373481750488281 0.1899499893188477 5.375286102294922 0.1895236968994141 5.377017974853516 0.1891107559204102 C 5.378780364990234 0.1886930465698242 5.38037109375 0.1883163452148438 5.382129669189453 0.1878995895385742 C 5.382129669189453 0.1878995895385742 5.382137298583984 0.1878976821899414 5.382137298583984 0.1878976821899414 C 5.383895874023438 0.1874809265136719 5.385597229003906 0.1870803833007812 5.387355804443359 0.1866645812988281 C 5.387355804443359 0.1866645812988281 5.387435913085938 0.1866464614868164 5.387435913085938 0.1866464614868164 C 5.389198303222656 0.1862306594848633 5.390743255615234 0.1858673095703125 5.392505645751953 0.1854534149169922 C 5.392505645751953 0.1854534149169922 5.392765045166016 0.1853923797607422 5.392765045166016 0.1853923797607422 C 5.394527435302734 0.1849784851074219 5.395896911621094 0.1846561431884766 5.397659301757812 0.1842441558837891 C 5.397659301757812 0.1842441558837891 5.398086547851562 0.1841440200805664 5.398086547851562 0.1841440200805664 C 5.399848937988281 0.1837310791015625 5.401462554931641 0.1833534240722656 5.403228759765625 0.1829423904418945 C 5.403228759765625 0.1829423904418945 5.403285980224609 0.1829290390014648 5.403285980224609 0.1829290390014648 C 5.404827117919922 0.1825685501098633 5.406658172607422 0.1821422576904297 5.408203125 0.1817836761474609 C 5.408203125 0.1817836761474609 5.408676147460938 0.1816730499267578 5.408676147460938 0.1816730499267578 C 5.410438537597656 0.1812639236450195 5.411888122558594 0.1809272766113281 5.413650512695312 0.1805191040039062 C 5.413650512695312 0.1805191040039062 5.413909912109375 0.1804590225219727 5.413909912109375 0.1804590225219727 C 5.415676116943359 0.1800498962402344 5.417518615722656 0.1796159744262695 5.419292449951172 0.1792144775390625 C 5.421054840087891 0.178807258605957 5.422828674316406 0.1784000396728516 5.424583435058594 0.1779956817626953 C 5.426124572753906 0.1776399612426758 5.427772521972656 0.1772623062133789 5.429313659667969 0.1769084930419922 C 5.429313659667969 0.1769084930419922 5.429843902587891 0.1767873764038086 5.429843902587891 0.1767873764038086 C 5.431610107421875 0.1763811111450195 5.433403015136719 0.1759672164916992 5.435169219970703 0.1755695343017578 C 5.436939239501953 0.1751670837402344 5.438697814941406 0.1747684478759766 5.440441131591797 0.1743679046630859 C 5.442207336425781 0.1739654541015625 5.443759918212891 0.1736135482788086 5.445526123046875 0.173213005065918 C 5.445526123046875 0.173213005065918 5.445648193359375 0.1731853485107422 5.445648193359375 0.1731853485107422 C 5.447193145751953 0.1728343963623047 5.449008941650391 0.1724233627319336 5.450557708740234 0.1720743179321289 C 5.450557708740234 0.1720743179321289 5.451034545898438 0.1719655990600586 5.451034545898438 0.1719655990600586 C 5.452800750732422 0.1715669631958008 5.454128265380859 0.1712675094604492 5.455894470214844 0.1708698272705078 C 5.455894470214844 0.1708698272705078 5.456321716308594 0.1707744598388672 5.456321716308594 0.1707744598388672 C 5.458087921142578 0.1703767776489258 5.459903717041016 0.1699657440185547 5.461666107177734 0.1695728302001953 C 5.463436126708984 0.1691761016845703 5.464748382568359 0.1688823699951172 5.466514587402344 0.168487548828125 C 5.466514587402344 0.168487548828125 5.466926574707031 0.16839599609375 5.466926574707031 0.16839599609375 C 5.468692779541016 0.1680011749267578 5.470531463623047 0.1675853729248047 5.472312927246094 0.1671943664550781 C 5.474086761474609 0.1668004989624023 5.475868225097656 0.1664142608642578 5.477626800537109 0.1660137176513672 C 5.479396820068359 0.1656217575073242 5.481159210205078 0.1652355194091797 5.48291015625 0.1648435592651367 C 5.484458923339844 0.1645011901855469 5.486072540283203 0.1641464233398438 5.487621307373047 0.1638050079345703 C 5.487621307373047 0.1638050079345703 5.488201141357422 0.1636772155761719 5.488201141357422 0.1636772155761719 C 5.490192413330078 0.1632375717163086 5.491596221923828 0.1629266738891602 5.493583679199219 0.1624946594238281 C 5.495132446289062 0.1621541976928711 5.4967041015625 0.1618108749389648 5.498252868652344 0.1614723205566406 C 5.498252868652344 0.1614723205566406 5.498813629150391 0.1613492965698242 5.498813629150391 0.1613492965698242 C 5.500591278076172 0.1609621047973633 5.502376556396484 0.1605691909790039 5.504150390625 0.1601858139038086 C 5.505699157714844 0.1598482131958008 5.50738525390625 0.1594820022583008 5.508937835693359 0.1591453552246094 C 5.508937835693359 0.1591453552246094 5.509437561035156 0.1590366363525391 5.509437561035156 0.1590366363525391 C 5.511211395263672 0.1586513519287109 5.513023376464844 0.1582603454589844 5.514789581298828 0.1578779220581055 C 5.516563415527344 0.1574954986572266 5.518360137939453 0.1571121215820312 5.520118713378906 0.1567296981811523 C 5.52166748046875 0.1563949584960938 5.523326873779297 0.1560392379760742 5.524879455566406 0.1557064056396484 C 5.524879455566406 0.1557064056396484 5.525386810302734 0.1555976867675781 5.525386810302734 0.1555976867675781 C 5.52716064453125 0.155217170715332 5.528648376464844 0.1548986434936523 5.530422210693359 0.1545200347900391 C 5.530422210693359 0.1545200347900391 5.530658721923828 0.1544685363769531 5.530658721923828 0.1544685363769531 C 5.532211303710938 0.1541376113891602 5.533905029296875 0.1537771224975586 5.535457611083984 0.1534461975097656 C 5.535457611083984 0.1534461975097656 5.536064147949219 0.1533164978027344 5.536064147949219 0.1533164978027344 C 5.537616729736328 0.1529865264892578 5.539306640625 0.1526279449462891 5.540859222412109 0.1522979736328125 C 5.540859222412109 0.1522979736328125 5.541370391845703 0.1521902084350586 5.541370391845703 0.1521902084350586 C 5.543144226074219 0.1518135070800781 5.544944763183594 0.1514339447021484 5.546730041503906 0.1510553359985352 C 5.548507690429688 0.1506805419921875 5.550304412841797 0.150299072265625 5.552059173583984 0.149932861328125 C 5.554058074951172 0.1495122909545898 5.555431365966797 0.1492204666137695 5.557426452636719 0.1488065719604492 C 5.559429168701172 0.1483888626098633 5.560802459716797 0.1481075286865234 5.562786102294922 0.1476860046386719 C 5.564781188964844 0.1472682952880859 5.566120147705078 0.1469917297363281 5.568134307861328 0.1465721130371094 C 5.570137023925781 0.1461582183837891 5.571434020996094 0.1458854675292969 5.573444366455078 0.1454706192016602 C 5.575443267822266 0.1450567245483398 5.576751708984375 0.1447868347167969 5.578758239746094 0.1443719863891602 C 5.580757141113281 0.1439590454101562 5.582088470458984 0.1436882019042969 5.584083557128906 0.1432762145996094 C 5.586086273193359 0.1428632736206055 5.587471008300781 0.1425752639770508 5.589481353759766 0.1421699523925781 C 5.591480255126953 0.1417598724365234 5.592826843261719 0.1414899826049805 5.594825744628906 0.141077995300293 C 5.596828460693359 0.1406698226928711 5.59814453125 0.1404018402099609 5.600162506103516 0.1399927139282227 C 5.602161407470703 0.1395883560180664 5.603488922119141 0.1393222808837891 5.605506896972656 0.1389102935791016 C 5.607505798339844 0.1385049819946289 5.608860015869141 0.1382312774658203 5.610858917236328 0.1378307342529297 C 5.612865447998047 0.137425422668457 5.614139556884766 0.1371679306030273 5.61614990234375 0.1367673873901367 C 5.618156433105469 0.1363649368286133 5.619533538818359 0.1360950469970703 5.621532440185547 0.1356897354125977 C 5.62353515625 0.1352901458740234 5.624866485595703 0.1350259780883789 5.626869201660156 0.1346263885498047 C 5.628875732421875 0.1342277526855469 5.630268096923828 0.1339502334594727 5.632266998291016 0.1335554122924805 C 5.634269714355469 0.1331586837768555 5.635517120361328 0.1329107284545898 5.637527465820312 0.1325159072875977 C 5.639533996582031 0.1321210861206055 5.640964508056641 0.1318397521972656 5.642959594726562 0.1314458847045898 C 5.644966125488281 0.1310520172119141 5.646274566650391 0.1307916641235352 5.648284912109375 0.1304025650024414 C 5.650291442871094 0.1300086975097656 5.651664733886719 0.1297426223754883 5.653663635253906 0.1293516159057617 C 5.655673980712891 0.1289606094360352 5.657009124755859 0.128697395324707 5.659027099609375 0.1283092498779297 C 5.661033630371094 0.1279201507568359 5.662376403808594 0.1276636123657227 5.664390563964844 0.1272706985473633 C 5.666404724121094 0.1268835067749023 5.667732238769531 0.1266269683837891 5.669734954833984 0.1262407302856445 C 5.671745300292969 0.1258535385131836 5.673103332519531 0.1255950927734375 5.675113677978516 0.1252079010009766 C 5.677120208740234 0.1248226165771484 5.678440093994141 0.1245718002319336 5.680450439453125 0.1241874694824219 C 5.682243347167969 0.1238470077514648 5.68408203125 0.1234951019287109 5.685855865478516 0.1231584548950195 C 5.6878662109375 0.122776985168457 5.689105987548828 0.1225376129150391 5.691143035888672 0.122157096862793 C 5.693153381347656 0.1217756271362305 5.694492340087891 0.1215238571166992 5.696502685546875 0.1211452484130859 C 5.698516845703125 0.1207647323608398 5.699874877929688 0.120509147644043 5.701896667480469 0.1201314926147461 C 5.703910827636719 0.1197538375854492 5.7052001953125 0.1195049285888672 5.707237243652344 0.1191329956054688 C 5.709018707275391 0.1187982559204102 5.710796356201172 0.1184711456298828 5.712596893310547 0.118133544921875 C 5.714614868164062 0.1177587509155273 5.715995788574219 0.1175041198730469 5.718017578125 0.1171283721923828 C 5.719806671142578 0.1167974472045898 5.721542358398438 0.1164751052856445 5.723342895507812 0.116145133972168 C 5.725357055664062 0.1157751083374023 5.726737976074219 0.1155176162719727 5.728767395019531 0.115147590637207 C 5.730560302734375 0.1148185729980469 5.732357025146484 0.1144905090332031 5.734127044677734 0.114166259765625 C 5.736148834228516 0.1137971878051758 5.737491607666016 0.1135473251342773 5.739528656005859 0.1131820678710938 C 5.741546630859375 0.1128149032592773 5.742877960205078 0.1125698089599609 5.744903564453125 0.1122064590454102 C 5.746700286865234 0.1118812561035156 5.748561859130859 0.1115446090698242 5.750358581542969 0.1112213134765625 C 5.752372741699219 0.1108589172363281 5.753692626953125 0.110621452331543 5.755718231201172 0.1102581024169922 C 5.757732391357422 0.1098957061767578 5.759052276611328 0.1096563339233398 5.761093139648438 0.1092958450317383 C 5.763111114501953 0.1089353561401367 5.764404296875 0.1087064743041992 5.766437530517578 0.1083431243896484 C 5.768459320068359 0.1079845428466797 5.769828796386719 0.1077451705932617 5.771842956542969 0.1073846817016602 C 5.773860931396484 0.1070270538330078 5.77520751953125 0.1067867279052734 5.777233123779297 0.1064329147338867 C 5.779254913330078 0.1060762405395508 5.780628204345703 0.1058320999145508 5.782657623291016 0.1054792404174805 C 5.784454345703125 0.10516357421875 5.786273956298828 0.1048440933227539 5.788070678710938 0.1045322418212891 C 5.790092468261719 0.1041784286499023 5.791416168212891 0.103947639465332 5.793437957763672 0.1035976409912109 C 5.795238494873047 0.1032848358154297 5.797092437744141 0.1029653549194336 5.798873901367188 0.1026554107666016 C 5.800670623779297 0.1023435592651367 5.802501678466797 0.1020288467407227 5.804286956787109 0.1017208099365234 C 5.806087493896484 0.1014118194580078 5.807949066162109 0.1010923385620117 5.809745788574219 0.1007843017578125 C 5.811767578125 0.1004390716552734 5.813083648681641 0.1002130508422852 5.815105438232422 0.0998687744140625 C 5.816898345947266 0.09956073760986328 5.818672180175781 0.0992584228515625 5.820476531982422 0.09895515441894531 C 5.822277069091797 0.0986480712890625 5.824047088623047 0.09834861755371094 5.825855255126953 0.09804344177246094 C 5.827880859375 0.09770107269287109 5.82916259765625 0.09748554229736328 5.831184387207031 0.09714603424072266 C 5.833213806152344 0.09680461883544922 5.834621429443359 0.09656810760498047 5.836647033691406 0.09623050689697266 C 5.838672637939453 0.09589099884033203 5.840015411376953 0.09566688537597656 5.842044830322266 0.09532928466796875 C 5.843849182128906 0.09502887725830078 5.845684051513672 0.09472370147705078 5.847484588623047 0.09442615509033203 C 5.849510192871094 0.09409141540527344 5.850826263427734 0.09387779235839844 5.85284423828125 0.09354019165039062 C 5.854644775390625 0.09324264526367188 5.856498718261719 0.09294033050537109 5.858299255371094 0.09264278411865234 C 5.860099792480469 0.09234809875488281 5.861888885498047 0.09205245971679688 5.863697052001953 0.09175968170166016 C 5.865501403808594 0.09146499633789062 5.867305755615234 0.09116649627685547 5.869113922119141 0.09087848663330078 C 5.870918273925781 0.09058570861816406 5.872730255126953 0.09029388427734375 5.874526977539062 0.09000110626220703 C 5.876331329345703 0.08970832824707031 5.878147125244141 0.08941555023193359 5.879955291748047 0.08912563323974609 C 5.881763458251953 0.08883571624755859 5.883594512939453 0.08854389190673828 5.885387420654297 0.08825397491455078 C 5.887191772460938 0.08796501159667969 5.888984680175781 0.08767604827880859 5.890804290771484 0.08738994598388672 C 5.892608642578125 0.08710289001464844 5.894378662109375 0.08681964874267578 5.896202087402344 0.0865325927734375 C 5.898006439208984 0.08624649047851562 5.899818420410156 0.08595848083496094 5.901630401611328 0.08567523956298828 C 5.903446197509766 0.08539009094238281 5.905319213867188 0.08509540557861328 5.907108306884766 0.08481407165527344 C 5.908920288085938 0.08452987670898438 5.910713195800781 0.08425235748291016 5.912506103515625 0.08397006988525391 C 5.914314270019531 0.08368778228759766 5.916141510009766 0.08340358734130859 5.917942047119141 0.08312416076660156 C 5.919750213623047 0.08284378051757812 5.921524047851562 0.08256435394287109 5.923351287841797 0.08228683471679688 C 5.925159454345703 0.08200740814208984 5.927017211914062 0.08172321319580078 5.928810119628906 0.08144664764404297 C 5.930625915527344 0.08116817474365234 5.932392120361328 0.08089828491210938 5.934185028076172 0.08062267303466797 C 5.935997009277344 0.08034610748291016 5.937713623046875 0.08008670806884766 5.939548492431641 0.07980632781982422 C 5.941356658935547 0.07952976226806641 5.943099975585938 0.07926559448242188 5.944950103759766 0.07898712158203125 C 5.946983337402344 0.07868003845214844 5.948417663574219 0.07846736907958984 5.950454711914062 0.07815742492675781 C 5.952262878417969 0.07788467407226562 5.954105377197266 0.07760906219482422 5.9559326171875 0.07733631134033203 C 5.957744598388672 0.07706546783447266 5.959541320800781 0.07679653167724609 5.961349487304688 0.07652854919433594 C 5.963157653808594 0.07626056671142578 5.964977264404297 0.07599449157714844 5.966796875 0.07571983337402344 C 5.968605041503906 0.07545185089111328 5.970420837402344 0.07518672943115234 5.972248077392578 0.07491588592529297 C 5.974056243896484 0.07464885711669922 5.975883483886719 0.07437801361083984 5.977695465087891 0.07411670684814453 C 5.979507446289062 0.07385158538818359 5.981334686279297 0.07358169555664062 5.983154296875 0.07332038879394531 C 5.984966278076172 0.07305622100830078 5.98675537109375 0.07279205322265625 5.988574981689453 0.07253360748291016 C 5.990390777587891 0.07227134704589844 5.992183685302734 0.07200908660888672 5.994003295898438 0.07174968719482422 C 5.995815277099609 0.0714874267578125 5.997634887695312 0.07122611999511719 5.999454498291016 0.07096767425537109 C 6.001270294189453 0.07070732116699219 6.003093719482422 0.07044601440429688 6.004905700683594 0.07018947601318359 C 6.006721496582031 0.06993007659912109 6.008563995361328 0.06967067718505859 6.010379791259766 0.0694122314453125 C 6.012195587158203 0.06915569305419922 6.013984680175781 0.06890487670898438 6.015800476074219 0.06864738464355469 C 6.017612457275391 0.06839179992675781 6.019447326660156 0.06813335418701172 6.021270751953125 0.06787967681884766 C 6.023094177246094 0.06762599945068359 6.024898529052734 0.06737232208251953 6.026714324951172 0.06712055206298828 C 6.028533935546875 0.06686782836914062 6.030410766601562 0.06660842895507812 6.032222747802734 0.06635665893554688 C 6.034259796142578 0.06607341766357422 6.035629272460938 0.06588363647460938 6.037685394287109 0.06560325622558594 C 6.039505004882812 0.06535243988037109 6.041275024414062 0.06511116027832031 6.043106079101562 0.06486034393310547 C 6.044921875 0.06461143493652344 6.046699523925781 0.06437015533447266 6.048519134521484 0.06412220001220703 C 6.050342559814453 0.06387519836425781 6.052207946777344 0.06362724304199219 6.054023742675781 0.06337642669677734 C 6.055843353271484 0.06313037872314453 6.057651519775391 0.06288909912109375 6.059467315673828 0.06264305114746094 C 6.061286926269531 0.06239891052246094 6.063114166259766 0.06215572357177734 6.064929962158203 0.06191158294677734 C 6.066749572753906 0.06166934967041016 6.068557739257812 0.06142425537109375 6.070396423339844 0.06118488311767578 C 6.072212219238281 0.06094264984130859 6.074028015136719 0.06069850921630859 6.075874328613281 0.06046009063720703 C 6.077693939208984 0.06021976470947266 6.079490661621094 0.0599822998046875 6.081314086914062 0.05974388122558594 C 6.083145141601562 0.05950641632080078 6.085010528564453 0.05926418304443359 6.086826324462891 0.05902385711669922 C 6.088642120361328 0.05878734588623047 6.090404510498047 0.05855751037597656 6.092231750488281 0.05832195281982422 C 6.094051361083984 0.05808544158935547 6.095912933349609 0.05784130096435547 6.097755432128906 0.05760955810546875 C 6.099578857421875 0.05737590789794922 6.101463317871094 0.05713176727294922 6.103286743164062 0.05689907073974609 C 6.105110168457031 0.05666637420654297 6.106849670410156 0.05644416809082031 6.108676910400391 0.05621242523193359 C 6.110492706298828 0.05597972869873047 6.112205505371094 0.05575752258300781 6.114051818847656 0.05553150177001953 C 6.115875244140625 0.05529975891113281 6.117752075195312 0.05506420135498047 6.119575500488281 0.05483627319335938 C 6.121402740478516 0.05460643768310547 6.123313903808594 0.0543670654296875 6.125144958496094 0.05413913726806641 C 6.126972198486328 0.05391120910644531 6.128742218017578 0.05368900299072266 6.130577087402344 0.05346488952636719 C 6.132404327392578 0.0532379150390625 6.134223937988281 0.05301189422607422 6.136054992675781 0.05278778076171875 C 6.13787841796875 0.05256366729736328 6.139678955078125 0.05234241485595703 6.141513824462891 0.05211830139160156 C 6.143341064453125 0.0518951416015625 6.145195007324219 0.05166721343994141 6.147022247314453 0.05144691467285156 C 6.148849487304688 0.0512237548828125 6.150661468505859 0.05100631713867188 6.152488708496094 0.05078506469726562 C 6.154315948486328 0.05056381225585938 6.1561279296875 0.05034255981445312 6.157947540283203 0.05012798309326172 C 6.159782409667969 0.04990959167480469 6.161575317382812 0.04969406127929688 6.163402557373047 0.04947662353515625 C 6.165233612060547 0.04925823211669922 6.167060852050781 0.04904079437255859 6.168888092041016 0.04882526397705078 C 6.170711517333984 0.04860973358154297 6.172569274902344 0.04839229583740234 6.174407958984375 0.04817485809326172 C 6.176235198974609 0.04795932769775391 6.178085327148438 0.0477447509765625 6.179916381835938 0.04752922058105469 C 6.181747436523438 0.04731559753417969 6.183567047119141 0.04710578918457031 6.185394287109375 0.04689216613769531 C 6.187225341796875 0.04668045043945312 6.189102172851562 0.04646492004394531 6.190933227539062 0.04625225067138672 C 6.192764282226562 0.04604244232177734 6.194553375244141 0.04583740234375 6.196380615234375 0.04562759399414062 C 6.198211669921875 0.04541873931884766 6.200096130371094 0.04520511627197266 6.201923370361328 0.04499626159667969 C 6.203754425048828 0.04478931427001953 6.205570220947266 0.04458236694335938 6.2073974609375 0.04437732696533203 C 6.209228515625 0.04417133331298828 6.211090087890625 0.0439605712890625 6.212924957275391 0.04375648498535156 C 6.214756011962891 0.04355239868164062 6.216533660888672 0.04335880279541016 6.218364715576172 0.04314994812011719 C 6.220199584960938 0.04294586181640625 6.221958160400391 0.04274272918701172 6.223796844482422 0.04254913330078125 C 6.225635528564453 0.04234695434570312 6.227531433105469 0.04214191436767578 6.229362487792969 0.04193687438964844 C 6.231197357177734 0.04173564910888672 6.233051300048828 0.04153156280517578 6.234874725341797 0.0413360595703125 C 6.236709594726562 0.04113674163818359 6.238571166992188 0.04093456268310547 6.240406036376953 0.04073619842529297 C 6.242240905761719 0.04053783416748047 6.244041442871094 0.04034042358398438 6.245883941650391 0.04014778137207031 C 6.247718811035156 0.03995037078857422 6.249603271484375 0.03974819183349609 6.251434326171875 0.03955554962158203 C 6.253273010253906 0.03936100006103516 6.255115509033203 0.03916835784912109 6.256942749023438 0.03897190093994141 C 6.258773803710938 0.03877830505371094 6.260612487792969 0.03858089447021484 6.262462615966797 0.03839206695556641 C 6.264297485351562 0.03819942474365234 6.266078948974609 0.03801059722900391 6.267932891845703 0.03782081604003906 C 6.269767761230469 0.03763103485107422 6.271617889404297 0.03743648529052734 6.273468017578125 0.03724861145019531 C 6.275306701660156 0.03705883026123047 6.277118682861328 0.03687381744384766 6.278964996337891 0.03668308258056641 C 6.280799865722656 0.03649616241455078 6.282619476318359 0.03631305694580078 6.284469604492188 0.03612232208251953 C 6.286304473876953 0.03593635559082031 6.288192749023438 0.03575038909912109 6.290027618408203 0.03555965423583984 C 6.291637420654297 0.03539943695068359 6.293903350830078 0.03517341613769531 6.295505523681641 0.03501033782958984 C 6.297348022460938 0.03482627868652344 6.2991943359375 0.03464221954345703 6.301036834716797 0.03446006774902344 C 6.302875518798828 0.03427886962890625 6.304698944091797 0.03409957885742188 6.306533813476562 0.03391742706298828 C 6.308380126953125 0.03373432159423828 6.310207366943359 0.03355884552001953 6.312030792236328 0.03337860107421875 C 6.313869476318359 0.03319931030273438 6.315696716308594 0.03301811218261719 6.317554473876953 0.03284263610839844 C 6.31939697265625 0.03266429901123047 6.321247100830078 0.0324859619140625 6.323074340820312 0.03231048583984375 C 6.324920654296875 0.03213405609130859 6.326824188232422 0.03195476531982422 6.328662872314453 0.03177642822265625 C 6.330497741699219 0.0316009521484375 6.332305908203125 0.03142833709716797 6.334148406982422 0.03125667572021484 C 6.335983276367188 0.0310821533203125 6.337806701660156 0.03090858459472656 6.339656829833984 0.03073883056640625 C 6.341732025146484 0.03054428100585938 6.343143463134766 0.0304107666015625 6.345218658447266 0.03022098541259766 C 6.347061157226562 0.03005123138427734 6.348903656005859 0.02988052368164062 6.350746154785156 0.02970981597900391 C 6.352825164794922 0.02951908111572266 6.354202270507812 0.02939319610595703 6.356281280517578 0.02920341491699219 C 6.358123779296875 0.02903556823730469 6.359981536865234 0.02886295318603516 6.361827850341797 0.02869987487792969 C 6.363906860351562 0.02851295471191406 6.365310668945312 0.02838420867919922 6.367385864257812 0.02820014953613281 C 6.369461059570312 0.02801513671875 6.370826721191406 0.02789306640625 6.372901916503906 0.02770805358886719 C 6.374977111816406 0.02752304077148438 6.37640380859375 0.02739810943603516 6.378471374511719 0.02721595764160156 C 6.380546569824219 0.02703285217285156 6.381870269775391 0.02691745758056641 6.383956909179688 0.02673530578613281 C 6.385807037353516 0.02657413482666016 6.387657165527344 0.02641391754150391 6.389503479003906 0.02625370025634766 C 6.391582489013672 0.02607631683349609 6.392978668212891 0.02595329284667969 6.395053863525391 0.02577686309814453 C 6.396892547607422 0.02561759948730469 6.398712158203125 0.02546405792236328 6.400562286376953 0.02530670166015625 C 6.402641296386719 0.02513217926025391 6.404064178466797 0.02501106262207031 6.406143188476562 0.02483654022216797 C 6.408222198486328 0.02466106414794922 6.409595489501953 0.02454662322998047 6.411674499511719 0.02437305450439453 C 6.41375732421875 0.02420139312744141 6.415145874023438 0.02408599853515625 6.417221069335938 0.02391433715820312 C 6.4190673828125 0.02376174926757812 6.420864105224609 0.02361297607421875 6.422718048095703 0.02346324920654297 C 6.424568176269531 0.02331161499023438 6.426437377929688 0.02315998077392578 6.428291320800781 0.02301025390625 C 6.430374145507812 0.0228424072265625 6.431781768798828 0.02273082733154297 6.433868408203125 0.02256202697753906 C 6.435951232910156 0.02239513397216797 6.437328338623047 0.02228546142578125 6.439399719238281 0.02212142944335938 C 6.441482543945312 0.02195644378662109 6.442863464355469 0.02184867858886719 6.4449462890625 0.02168464660644531 C 6.447025299072266 0.02152061462402344 6.448413848876953 0.02141094207763672 6.45050048828125 0.02125072479248047 C 6.452342987060547 0.02110767364501953 6.454143524169922 0.02096843719482422 6.456008911132812 0.02082538604736328 C 6.457855224609375 0.02068138122558594 6.459735870361328 0.020538330078125 6.461585998535156 0.02039909362792969 C 6.463668823242188 0.02024078369140625 6.465030670166016 0.02013874053955078 6.467113494873047 0.01998043060302734 C 6.469196319580078 0.01982307434082031 6.4705810546875 0.01972293853759766 6.472663879394531 0.01956462860107422 C 6.474514007568359 0.01942634582519531 6.476421356201172 0.01928424835205078 6.478271484375 0.0191497802734375 C 6.480117797851562 0.01901340484619141 6.48193359375 0.01887893676757812 6.483787536621094 0.01874542236328125 C 6.485637664794922 0.01860904693603516 6.487499237060547 0.01847553253173828 6.489356994628906 0.018341064453125 C 6.491447448730469 0.01819038391113281 6.492813110351562 0.01809310913085938 6.494892120361328 0.0179443359375 C 6.496982574462891 0.01779556274414062 6.49835205078125 0.01769638061523438 6.500434875488281 0.01755142211914062 C 6.502288818359375 0.01741886138916016 6.504177093505859 0.0172882080078125 6.50604248046875 0.01715850830078125 C 6.507892608642578 0.01702976226806641 6.509750366210938 0.01690101623535156 6.511600494384766 0.01677322387695312 C 6.513687133789062 0.01662921905517578 6.515045166015625 0.01653575897216797 6.517127990722656 0.01639461517333984 C 6.519214630126953 0.01625156402587891 6.520626068115234 0.01615619659423828 6.522712707519531 0.01601600646972656 C 6.524570465087891 0.01589107513427734 6.526454925537109 0.01576709747314453 6.528312683105469 0.01564121246337891 C 6.530166625976562 0.0155181884765625 6.532001495361328 0.01539802551269531 6.533866882324219 0.0152740478515625 C 6.535720825195312 0.01515293121337891 6.537578582763672 0.01503372192382812 6.539432525634766 0.01490974426269531 C 6.541286468505859 0.01479053497314453 6.543148040771484 0.01467132568359375 6.545009613037109 0.01455020904541016 C 6.546859741210938 0.01443099975585938 6.548732757568359 0.01431083679199219 6.550590515136719 0.01419448852539062 C 6.552684783935547 0.01406288146972656 6.554100036621094 0.01397323608398438 6.556186676025391 0.01384162902832031 C 6.55804443359375 0.01372528076171875 6.559932708740234 0.01360797882080078 6.561798095703125 0.01349353790283203 C 6.563880920410156 0.01336288452148438 6.565208435058594 0.01328086853027344 6.567310333251953 0.01315498352050781 C 6.569160461425781 0.01304244995117188 6.571025848388672 0.01292991638183594 6.572883605957031 0.0128173828125 C 6.574741363525391 0.01270484924316406 6.576606750488281 0.01259231567382812 6.578472137451172 0.01248359680175781 C 6.580326080322266 0.01237392425537109 6.582160949707031 0.01226615905761719 6.584022521972656 0.01215553283691406 C 6.585880279541016 0.01204776763916016 6.587776184082031 0.01193714141845703 6.589622497558594 0.01182937622070312 C 6.591484069824219 0.01172161102294922 6.593334197998047 0.01161479949951172 6.595191955566406 0.01150989532470703 C 6.597286224365234 0.01138973236083984 6.598716735839844 0.01131153106689453 6.600814819335938 0.01119136810302734 C 6.602672576904297 0.01108551025390625 6.604545593261719 0.01098155975341797 6.606403350830078 0.0108795166015625 C 6.608264923095703 0.01077651977539062 6.610141754150391 0.01067256927490234 6.612003326416016 0.01057147979736328 C 6.613864898681641 0.01047039031982422 6.615707397460938 0.01036930084228516 6.617561340332031 0.01027011871337891 C 6.619430541992188 0.01016807556152344 6.621318817138672 0.01006793975830078 6.623180389404297 0.009969711303710938 C 6.625274658203125 0.009859085083007812 6.626609802246094 0.009789466857910156 6.628704071044922 0.009678840637207031 C 6.630573272705078 0.009580612182617188 6.632431030273438 0.009484291076660156 6.634292602539062 0.009388923645019531 C 6.636157989501953 0.0092926025390625 6.638027191162109 0.009194374084472656 6.639892578125 0.009102821350097656 C 6.641750335693359 0.009009361267089844 6.643630981445312 0.008912086486816406 6.645496368408203 0.008821487426757812 C 6.647369384765625 0.00872802734375 6.649261474609375 0.008633613586425781 6.651119232177734 0.008543014526367188 C 6.653213500976562 0.008441925048828125 6.654647827148438 0.008370399475097656 6.656749725341797 0.008268356323242188 C 6.658840179443359 0.008167266845703125 6.660182952880859 0.008103370666503906 6.662288665771484 0.00800323486328125 C 6.664386749267578 0.007903099060058594 6.665794372558594 0.007836341857910156 6.667884826660156 0.007740020751953125 C 6.669750213623047 0.007653236389160156 6.671627044677734 0.007566452026367188 6.673492431640625 0.007479667663574219 C 6.675590515136719 0.007383346557617188 6.676959991455078 0.007320404052734375 6.679065704345703 0.007226943969726562 C 6.680923461914062 0.00714111328125 6.682823181152344 0.00705718994140625 6.684688568115234 0.006975173950195312 C 6.686550140380859 0.006890296936035156 6.688350677490234 0.006809234619140625 6.690231323242188 0.006731986999511719 C 6.692096710205078 0.006650924682617188 6.694011688232422 0.00656890869140625 6.695880889892578 0.006487846374511719 C 6.697750091552734 0.006407737731933594 6.699623107910156 0.006328582763671875 6.701492309570312 0.006250381469726562 C 6.703594207763672 0.006160736083984375 6.704959869384766 0.006104469299316406 6.707061767578125 0.006018638610839844 C 6.70892333984375 0.00594329833984375 6.710823059082031 0.00586700439453125 6.712688446044922 0.005788803100585938 C 6.714794158935547 0.005703926086425781 6.716178894042969 0.005649566650390625 6.718280792236328 0.005565643310546875 C 6.720146179199219 0.005492210388183594 6.722000122070312 0.005417823791503906 6.723880767822266 0.005346298217773438 C 6.725753784179688 0.005273818969726562 6.727626800537109 0.0052032470703125 6.7294921875 0.005130767822265625 C 6.731361389160156 0.005060195922851562 6.733242034912109 0.0049896240234375 6.735111236572266 0.004920005798339844 C 6.736980438232422 0.004850387573242188 6.738876342773438 0.004781723022460938 6.740745544433594 0.004712104797363281 C 6.74261474609375 0.004643440246582031 6.744468688964844 0.00457763671875 6.746337890625 0.004510879516601562 C 6.748210906982422 0.004443168640136719 6.750026702880859 0.0043792724609375 6.751888275146484 0.004315376281738281 C 6.753761291503906 0.004250526428222656 6.755630493164062 0.004189491271972656 6.757495880126953 0.004121780395507812 C 6.759376525878906 0.004057884216308594 6.76129150390625 0.003996849060058594 6.76312255859375 0.003932952880859375 C 6.764991760253906 0.003870010375976562 6.766880035400391 0.003808021545410156 6.768756866455078 0.003747940063476562 C 6.770862579345703 0.003680229187011719 6.772293090820312 0.003633499145507812 6.774398803710938 0.003566741943359375 C 6.776508331298828 0.003499984741210938 6.777942657470703 0.003454208374023438 6.780052185058594 0.003390312194824219 C 6.781925201416016 0.003331184387207031 6.783802032470703 0.003274917602539062 6.785667419433594 0.003218650817871094 C 6.78753662109375 0.003161430358886719 6.789466857910156 0.003106117248535156 6.791339874267578 0.003050804138183594 C 6.793228149414062 0.002993583679199219 6.795047760009766 0.002942085266113281 6.796924591064453 0.002889633178710938 C 6.798797607421875 0.002836227416992188 6.800643920898438 0.002783775329589844 6.802516937255859 0.002732276916503906 C 6.804393768310547 0.002680778503417969 6.806251525878906 0.002628326416015625 6.808120727539062 0.0025787353515625 C 6.810222625732422 0.002521514892578125 6.811660766601562 0.002483367919921875 6.813785552978516 0.002429008483886719 C 6.815895080566406 0.002373695373535156 6.817298889160156 0.002337455749511719 6.819408416748047 0.002284049987792969 C 6.821514129638672 0.002230644226074219 6.822929382324219 0.002196311950683594 6.825042724609375 0.00214385986328125 C 6.826919555664062 0.00209808349609375 6.828762054443359 0.002054214477539062 6.830638885498047 0.002008438110351562 C 6.832515716552734 0.001964569091796875 6.834369659423828 0.001919746398925781 6.83624267578125 0.001877784729003906 C 6.838119506835938 0.001835823059082031 6.840030670166016 0.001791000366210938 6.841907501220703 0.001749992370605469 C 6.843788146972656 0.001708030700683594 6.845500946044922 0.00167083740234375 6.847377777099609 0.001630783081054688 C 6.847377777099609 0.001630783081054688 6.847484588623047 0.001628875732421875 6.847484588623047 0.001628875732421875 C 6.849605560302734 0.001583099365234375 6.85107421875 0.001553535461425781 6.853172302246094 0.001509666442871094 C 6.856952667236328 0.001433372497558594 6.860675811767578 0.001358985900878906 6.864429473876953 0.001286506652832031 C 6.868156433105469 0.001217842102050781 6.871963500976562 0.001146316528320312 6.875720977783203 0.001081466674804688 C 6.877601623535156 0.001048088073730469 6.879257202148438 0.001020431518554688 6.881137847900391 0.0009889602661132812 C 6.881137847900391 0.0009889602661132812 6.881309509277344 0.0009860992431640625 6.881309509277344 0.0009860992431640625 C 6.883190155029297 0.00095367431640625 6.885128021240234 0.00092315673828125 6.887008666992188 0.0008935928344726562 C 6.888893127441406 0.0008640289306640625 6.8907470703125 0.000835418701171875 6.892616271972656 0.0008068084716796875 C 6.894496917724609 0.0007781982421875 6.896400451660156 0.0007505416870117188 6.898288726806641 0.0007238388061523438 C 6.900169372558594 0.000698089599609375 6.90203857421875 0.0006732940673828125 6.903919219970703 0.0006456375122070312 C 6.906028747558594 0.0006189346313476562 6.907432556152344 0.0005998611450195312 6.909557342529297 0.00057220458984375 C 6.911434173583984 0.0005512237548828125 6.913322448730469 0.0005245208740234375 6.915206909179688 0.0005035400390625 C 6.917312622070312 0.000476837158203125 6.918739318847656 0.0004606246948242188 6.920867919921875 0.0004377365112304688 C 6.924610137939453 0.0003976821899414062 6.928356170654297 0.0003576278686523438 6.932117462158203 0.0003223419189453125 C 6.935886383056641 0.0002870559692382812 6.939689636230469 0.0002508163452148438 6.943462371826172 0.0002241134643554688 C 6.947162628173828 0.0001926422119140625 6.950977325439453 0.0001668930053710938 6.954746246337891 0.0001430511474609375 C 6.969821929931641 4.76837158203125e-05 6.984916687011719 0 7 0 C 7 0 7 0 7 0 Z" stroke="none" fill="#3d3d3d"/>
      </g>
      <g id="Rectangle_216" data-name="Rectangle 216" transform="translate(835.002 897)" fill="#fff" stroke="#3d3d3d" stroke-width="4">
        <rect width="19" height="35" rx="3" stroke="none"/>
        <rect x="2" y="2" width="15" height="31" rx="1" fill="none"/>
      </g>
      <g id="Rectangle_217" data-name="Rectangle 217" transform="translate(848.002 895)" fill="#fff" stroke="#3d3d3d" stroke-linecap="round" stroke-width="1">
        <rect width="2" height="4" rx="1" stroke="none"/>
        <rect x="0.5" y="0.5" width="1" height="3" rx="0.5" fill="none"/>
      </g>
    </g>
  </g>
</svg>
