<svg xmlns="http://www.w3.org/2000/svg" xmlns:xlink="http://www.w3.org/1999/xlink" width="500" zoomAndPan="magnify" viewBox="0 0 375 374.999991" height="500" preserveAspectRatio="xMidYMid meet" version="1.0"><defs><clipPath id="383291b0ab"><path d="M 37.5 37.5 L 337.5 37.5 L 337.5 337.5 L 37.5 337.5 Z M 37.5 37.5 " clip-rule="nonzero"/></clipPath><clipPath id="2c79911be3"><path d="M 148.5 112.5 L 226.5 112.5 L 226.5 262.5 L 148.5 262.5 Z M 148.5 112.5 " clip-rule="nonzero"/></clipPath></defs><rect x="-37.5" width="450" fill="#ffffff" y="-37.499999" height="449.999989" fill-opacity="1"/><rect x="-37.5" width="450" fill="#ffffff" y="-37.499999" height="449.999989" fill-opacity="1"/><rect x="-37.5" width="450" fill="#ffffff" y="-37.499999" height="449.999989" fill-opacity="1"/><g clip-path="url(#383291b0ab)"><path fill="#333333" d="M 54.75 37.5 L 320.25 37.5 C 324.824219 37.5 329.210938 39.316406 332.449219 42.550781 C 335.683594 45.789062 337.5 50.175781 337.5 54.75 L 337.5 320.25 C 337.5 324.824219 335.683594 329.210938 332.449219 332.449219 C 329.210938 335.683594 324.824219 337.5 320.25 337.5 L 54.75 337.5 C 50.175781 337.5 45.789062 335.683594 42.550781 332.449219 C 39.316406 329.210938 37.5 324.824219 37.5 320.25 L 37.5 54.75 C 37.5 50.175781 39.316406 45.789062 42.550781 42.550781 C 45.789062 39.316406 50.175781 37.5 54.75 37.5 " fill-opacity="1" fill-rule="nonzero"/></g><g clip-path="url(#2c79911be3)"><path fill="#ffffff" d="M 222.082031 194.085938 L 225.519531 167.421875 L 199.113281 167.421875 L 199.113281 150.394531 C 199.113281 142.675781 201.269531 137.414062 212.335938 137.414062 L 226.445312 137.40625 L 226.445312 113.558594 C 224.007812 113.234375 215.636719 112.507812 205.875 112.507812 C 185.515625 112.507812 171.585938 124.9375 171.585938 147.757812 L 171.585938 167.421875 L 148.554688 167.421875 L 148.554688 194.085938 L 171.585938 194.085938 L 171.585938 262.503906 L 199.113281 262.503906 L 199.113281 194.085938 Z M 222.082031 194.085938 " fill-opacity="1" fill-rule="nonzero"/></g></svg>