<svg xmlns="http://www.w3.org/2000/svg" xmlns:xlink="http://www.w3.org/1999/xlink" width="500" zoomAndPan="magnify" viewBox="0 0 375 374.999991" height="500" preserveAspectRatio="xMidYMid meet" version="1.0"><defs><clipPath id="ab06c076b1"><path d="M 37.5 37.5 L 337.5 37.5 L 337.5 337.5 L 37.5 337.5 Z M 37.5 37.5 " clip-rule="nonzero"/></clipPath></defs><rect x="-37.5" width="450" fill="#ffffff" y="-37.499999" height="449.999989" fill-opacity="1"/><rect x="-37.5" width="450" fill="#ffffff" y="-37.499999" height="449.999989" fill-opacity="1"/><g clip-path="url(#ab06c076b1)"><path fill="#333333" d="M 54.75 37.5 L 320.25 37.5 C 324.824219 37.5 329.210938 39.316406 332.449219 42.550781 C 335.683594 45.789062 337.5 50.175781 337.5 54.75 L 337.5 320.25 C 337.5 324.824219 335.683594 329.210938 332.449219 332.449219 C 329.210938 335.683594 324.824219 337.5 320.25 337.5 L 54.75 337.5 C 50.175781 337.5 45.789062 335.683594 42.550781 332.449219 C 39.316406 329.210938 37.5 324.824219 37.5 320.25 L 37.5 54.75 C 37.5 50.175781 39.316406 45.789062 42.550781 42.550781 C 45.789062 39.316406 50.175781 37.5 54.75 37.5 " fill-opacity="1" fill-rule="nonzero"/></g><path fill="#ffffff" d="M 157.5 237.5 L 132.5 237.5 L 132.5 162.5 L 157.5 162.5 Z M 145.003906 152.5 C 138.089844 152.5 132.5 146.894531 132.5 139.996094 C 132.5 133.09375 138.101562 127.5 145.003906 127.5 C 151.894531 127.5 157.5 133.105469 157.5 139.996094 C 157.5 146.894531 151.894531 152.5 145.003906 152.5 Z M 247.5 237.5 L 223.464844 237.5 L 223.464844 201 C 223.464844 192.296875 223.300781 181.101562 210.96875 181.101562 C 198.453125 181.101562 196.53125 190.578125 196.53125 200.371094 L 196.53125 237.5 L 172.5 237.5 L 172.5 162.445312 L 195.570312 162.445312 L 195.570312 172.699219 L 195.894531 172.699219 C 199.105469 166.800781 206.949219 160.578125 218.648438 160.578125 C 243 160.578125 247.5 176.125 247.5 196.335938 C 247.5 196.335938 247.5 237.5 247.5 237.5 Z M 247.5 237.5 " fill-opacity="1" fill-rule="nonzero"/></svg>