<svg xmlns="http://www.w3.org/2000/svg" xmlns:xlink="http://www.w3.org/1999/xlink" width="500" zoomAndPan="magnify" viewBox="0 0 375 374.999991" height="500" preserveAspectRatio="xMidYMid meet" version="1.0"><defs><clipPath id="14195a50c5"><path d="M 37.5 37.5 L 337.5 37.5 L 337.5 337.5 L 37.5 337.5 Z M 37.5 37.5 " clip-rule="nonzero"/></clipPath></defs><rect x="-37.5" width="450" fill="#ffffff" y="-37.499999" height="449.999989" fill-opacity="1"/><rect x="-37.5" width="450" fill="#ffffff" y="-37.499999" height="449.999989" fill-opacity="1"/><rect x="-37.5" width="450" fill="#ffffff" y="-37.499999" height="449.999989" fill-opacity="1"/><g clip-path="url(#14195a50c5)"><path fill="#333333" d="M 54.75 37.5 L 320.25 37.5 C 324.824219 37.5 329.210938 39.316406 332.449219 42.550781 C 335.683594 45.789062 337.5 50.175781 337.5 54.75 L 337.5 320.25 C 337.5 324.824219 335.683594 329.210938 332.449219 332.449219 C 329.210938 335.683594 324.824219 337.5 320.25 337.5 L 54.75 337.5 C 50.175781 337.5 45.789062 335.683594 42.550781 332.449219 C 39.316406 329.210938 37.5 324.824219 37.5 320.25 L 37.5 54.75 C 37.5 50.175781 39.316406 45.789062 42.550781 42.550781 C 45.789062 39.316406 50.175781 37.5 54.75 37.5 " fill-opacity="1" fill-rule="nonzero"/></g><path fill="#ffffff" d="M 233.257812 147.261719 C 232.308594 146.773438 231.386719 146.234375 230.488281 145.652344 C 227.878906 143.925781 225.507812 141.910156 223.378906 139.609375 C 218.078125 133.542969 216.097656 127.386719 215.367188 123.078125 L 215.394531 123.078125 C 214.785156 119.5 215.039062 117.1875 215.078125 117.1875 L 190.925781 117.1875 L 190.925781 210.578125 C 190.925781 211.832031 190.925781 213.074219 190.871094 214.296875 C 190.871094 214.449219 190.855469 214.589844 190.847656 214.753906 C 190.847656 214.820312 190.847656 214.890625 190.835938 214.960938 C 190.835938 214.980469 190.835938 214.996094 190.835938 215.015625 C 190.707031 216.691406 190.378906 218.328125 189.847656 219.921875 C 189.320312 221.515625 188.605469 223.023438 187.707031 224.441406 C 186.804688 225.859375 185.75 227.148438 184.53125 228.308594 C 183.316406 229.46875 181.976562 230.464844 180.515625 231.292969 C 177.417969 233.054688 174.085938 233.933594 170.523438 233.929688 C 159.269531 233.929688 150.148438 224.753906 150.148438 213.421875 C 150.148438 202.089844 159.269531 192.914062 170.523438 192.914062 C 172.667969 192.910156 174.757812 193.242188 176.796875 193.90625 L 176.824219 169.316406 C 173.75 168.917969 170.667969 168.839844 167.578125 169.082031 C 164.488281 169.324219 161.453125 169.878906 158.480469 170.75 C 155.503906 171.621094 152.652344 172.785156 149.917969 174.25 C 147.183594 175.710938 144.628906 177.4375 142.253906 179.429688 C 138.058594 183.074219 134.613281 187.324219 131.914062 192.179688 C 130.894531 193.9375 127.046875 201.003906 126.582031 212.464844 C 126.289062 218.972656 128.242188 225.714844 129.171875 228.5 L 129.171875 228.558594 C 129.757812 230.199219 132.03125 235.796875 135.730469 240.519531 C 138.730469 244.324219 142.214844 247.613281 146.191406 250.386719 L 146.191406 250.328125 L 146.25 250.386719 C 157.941406 258.332031 170.90625 257.8125 170.90625 257.8125 C 173.148438 257.722656 180.667969 257.8125 189.203125 253.765625 C 198.671875 249.28125 204.0625 242.597656 204.0625 242.597656 C 207.535156 238.578125 210.234375 234.089844 212.160156 229.140625 C 214.347656 223.398438 215.078125 216.507812 215.078125 213.753906 L 215.078125 164.207031 C 215.371094 164.382812 219.273438 166.960938 219.273438 166.960938 C 219.273438 166.960938 224.894531 170.566406 233.664062 172.914062 C 239.957031 174.582031 248.4375 174.933594 248.4375 174.933594 L 248.4375 150.957031 C 245.464844 151.28125 239.433594 150.34375 233.257812 147.261719 Z M 233.257812 147.261719 " fill-opacity="1" fill-rule="nonzero"/></svg>