<?xml version="1.0" encoding="utf-8"?>
<!-- Generator: Adobe Illustrator 22.0.1, SVG Export Plug-In . SVG Version: 6.00 Build 0)  -->
<svg version="1.1" id="Layer_1" xmlns="http://www.w3.org/2000/svg" xmlns:xlink="http://www.w3.org/1999/xlink" x="0px" y="0px"
	 viewBox="0 0 1366 768" style="enable-background:new 0 0 1366 768;" xml:space="preserve">
<style type="text/css">
.st0{fill:none;stroke:#4399e6; stroke-width:1.25;}
	

#lay1A {-webkit-transform: translate(0px, -250px) scale(1.5, 1.5);-ms-transform: translate(0px, -250px) scale(1.5, 1.5);transform: translate(0px, -250px) scale(1.5, 1.5); -webkit-transform-origin: 682.5px 383.5px; -ms-transform-origin: 682.5px 383.5px; transform-origin: 682.5px 383.5px;}
	
#lay2A {-webkit-transform: translate(-250px, 0px) scale(1.5, 1.5);-ms-transform: translate(-250px, 0px) scale(1.5, 1.5);transform: translate(-250px, 0px) scale(1.5, 1.5); -webkit-transform-origin: 682.5px 383.5px; -ms-transform-origin: 682.5px 383.5px; transform-origin: 682.5px 383.5px;}
	
#lay3A {-webkit-transform: translate(0px, 250px) scale(1.5, 1.5);-ms-transform: translate(0px, 250px) scale(1.5, 1.5);transform: translate(0px, 250px) scale(1.5, 1.5); -webkit-transform-origin: 682.5px 383.5px; -ms-transform-origin: 682.5px 383.5px; transform-origin: 682.5px 383.5px;}
	
#lay4A {-webkit-transform: translate(250px, 0px) scale(1.5, 1.5);-ms-transform: translate(250px, 0px) scale(1.5, 1.5);transform: translate(250px, 0px) scale(1.5, 1.5); -webkit-transform-origin: 682.5px 383.5px; -ms-transform-origin: 682.5px 383.5px; transform-origin: 682.5px 383.5px;}
	

	
#lay1A 	{
		-webkit-animation: move forwards;
		        animation: move forwards;
		-webkit-animation-duration: 23s;
		        animation-duration: 23s;
		-webkit-animation-delay: 5s;
		        animation-delay: 5s;
		}
	
#lay2A 	{
		-webkit-animation: move2 forwards;
		        animation: move2 forwards;
		-webkit-animation-duration: 23s;
		        animation-duration: 23s;
		-webkit-animation-delay: 10.5s;
		        animation-delay: 10.5s;
		}
	
#lay3A 	{
		-webkit-animation: move3 forwards;
		        animation: move3 forwards;
		-webkit-animation-duration: 23s;
		        animation-duration: 23s;
		-webkit-animation-delay: 15.5s;
		        animation-delay: 15.5s;
		}
	
#lay4A 	{
		-webkit-animation: move4 forwards;
		        animation: move4 forwards;
		-webkit-animation-duration: 23s;
		        animation-duration: 23s;
		-webkit-animation-delay: 20.7s;
		        animation-delay: 20.7s;
		}	
	
	
	
	

	
@-webkit-keyframes move {
	0% {-webkit-transform: translate(0px, -250px) scale(1.5, 1.5);transform: translate(0px, -250px) scale(1.5, 1.5); }
		10% {-webkit-transform: translate(-400px, 100px) scale(0.75, 0.75);transform: translate(-400px, 100px) scale(0.75, 0.75);}
		75% {-webkit-transform: translate(-400px, 100px) scale(0.75, 0.75);transform: translate(-400px, 100px) scale(0.75, 0.75);}
			85% {-webkit-transform: translate(0px, 0px) scale(1, 1);transform: translate(0px, 0px) scale(1, 1);}
			100% {-webkit-transform: translate(0px, 0px) scale(1, 1);transform: translate(0px, 0px) scale(1, 1);}
	}	
	
	
	
	

	
@keyframes move {
	0% {-webkit-transform: translate(0px, -250px) scale(1.5, 1.5);transform: translate(0px, -250px) scale(1.5, 1.5); }
		10% {-webkit-transform: translate(-400px, 100px) scale(0.75, 0.75);transform: translate(-400px, 100px) scale(0.75, 0.75);}
		75% {-webkit-transform: translate(-400px, 100px) scale(0.75, 0.75);transform: translate(-400px, 100px) scale(0.75, 0.75);}
			85% {-webkit-transform: translate(0px, 0px) scale(1, 1);transform: translate(0px, 0px) scale(1, 1);}
			100% {-webkit-transform: translate(0px, 0px) scale(1, 1);transform: translate(0px, 0px) scale(1, 1);}
	}
	

	
@-webkit-keyframes move2 {
	0% {-webkit-transform: translate(-250px, 0px) scale(1.5, 1.5);transform: translate(-250px, 0px) scale(1.5, 1.5); }
    	10% {-webkit-transform: translate(300px, -100px) scale(0.75, 0.75);transform: translate(300px, -100px) scale(0.75, 0.75);}
		50% {-webkit-transform: translate(300px, -100px) scale(0.75, 0.75);transform: translate(300px, -100px) scale(0.75, 0.75);}
    		60% {-webkit-transform: translate(0px, 0px) scale(1, 1);transform: translate(0px, 0px) scale(1, 1);}
    		100% {-webkit-transform: translate(0px, 0px) scale(1, 1);transform: translate(0px, 0px) scale(1, 1);}
	}
	

	
@keyframes move2 {
	0% {-webkit-transform: translate(-250px, 0px) scale(1.5, 1.5);transform: translate(-250px, 0px) scale(1.5, 1.5); }
    	10% {-webkit-transform: translate(300px, -100px) scale(0.75, 0.75);transform: translate(300px, -100px) scale(0.75, 0.75);}
		50% {-webkit-transform: translate(300px, -100px) scale(0.75, 0.75);transform: translate(300px, -100px) scale(0.75, 0.75);}
    		60% {-webkit-transform: translate(0px, 0px) scale(1, 1);transform: translate(0px, 0px) scale(1, 1);}
    		100% {-webkit-transform: translate(0px, 0px) scale(1, 1);transform: translate(0px, 0px) scale(1, 1);}
	}
	
	
@-webkit-keyframes move3 {
	0% {-webkit-transform: translate(0px, 250px) scale(1.5, 1.5);transform: translate(0px, 250px) scale(1.5, 1.5); }
    	10% {-webkit-transform: translate(-400px, -100px) scale(0.75, 0.75);transform: translate(-400px, -100px) scale(0.75, 0.75);}
		30% {-webkit-transform: translate(-400px, -100px) scale(0.75, 0.75);transform: translate(-400px, -100px) scale(0.75, 0.75);}
    		40% {-webkit-transform: translate(0px, 0px) scale(1, 1);transform: translate(0px, 0px) scale(1, 1);}
    		100% {-webkit-transform: translate(0px, 0px) scale(1, 1);transform: translate(0px, 0px) scale(1, 1);}
	}
	
	
@keyframes move3 {
	0% {-webkit-transform: translate(0px, 250px) scale(1.5, 1.5);transform: translate(0px, 250px) scale(1.5, 1.5); }
    	10% {-webkit-transform: translate(-400px, -100px) scale(0.75, 0.75);transform: translate(-400px, -100px) scale(0.75, 0.75);}
		30% {-webkit-transform: translate(-400px, -100px) scale(0.75, 0.75);transform: translate(-400px, -100px) scale(0.75, 0.75);}
    		40% {-webkit-transform: translate(0px, 0px) scale(1, 1);transform: translate(0px, 0px) scale(1, 1);}
    		100% {-webkit-transform: translate(0px, 0px) scale(1, 1);transform: translate(0px, 0px) scale(1, 1);}
	}
	

	
@-webkit-keyframes move4 {
	0% {-webkit-transform: translate(250px, 0px) scale(1.5, 1.5);transform: translate(250px, 0px) scale(1.5, 1.5); }
    	5% {-webkit-transform: translate(250px, 0px) scale(1.5,1.5);transform: translate(250px, 0px) scale(1.5,1.5);}
    	15% {-webkit-transform: translate(0px, 0px) scale(1,1);transform: translate(0px, 0px) scale(1,1);}
    		100% {-webkit-transform: translate(0px, 0px) scale(1, 1);transform: translate(0px, 0px) scale(1, 1);}
    }
	

	
@keyframes move4 {
	0% {-webkit-transform: translate(250px, 0px) scale(1.5, 1.5);transform: translate(250px, 0px) scale(1.5, 1.5); }
    	5% {-webkit-transform: translate(250px, 0px) scale(1.5,1.5);transform: translate(250px, 0px) scale(1.5,1.5);}
    	15% {-webkit-transform: translate(0px, 0px) scale(1,1);transform: translate(0px, 0px) scale(1,1);}
    		100% {-webkit-transform: translate(0px, 0px) scale(1, 1);transform: translate(0px, 0px) scale(1, 1);}
    }
	
	
	
	
	
	
	
	
		
#lay1 {
  	stroke-dasharray: 4127;
  	stroke-dashoffset: 4127;
  	-webkit-animation: draw forwards;
  	        animation: draw forwards;
	-webkit-animation-duration: 5s;
	        animation-duration: 5s;
	-webkit-animation-delay: 0s;
	        animation-delay: 0s;
}
#lay2 {
  	stroke-dasharray: 3010;
  	stroke-dashoffset: 3010;
  	-webkit-animation: draw forwards;
  	        animation: draw forwards;
	-webkit-animation-duration: 5s;
	        animation-duration: 5s;
	-webkit-animation-delay: 5.5s;
	        animation-delay: 5.5s;
}
#lay3 {
  	stroke-dasharray: 5200;
  	stroke-dashoffset: 5200;
  	-webkit-animation: draw forwards;
  	        animation: draw forwards;
	-webkit-animation-duration: 5s;
	        animation-duration: 5s;
	-webkit-animation-delay: 11s;
	        animation-delay: 11s;
}
#lay4 {
  	stroke-dasharray: 3000;
  	stroke-dashoffset: 3000;
  	-webkit-animation: draw forwards;
  	        animation: draw forwards;
	-webkit-animation-duration: 5s;
	        animation-duration: 5s;
	-webkit-animation-delay: 16.5s;
	        animation-delay: 16.5s;
}




@-webkit-keyframes draw {
  to {
   stroke-dashoffset: 0;
  }
}




@keyframes draw {
  to {
   stroke-dashoffset: 0;
  }
}
	
	
	

.glow {
  stroke-width: .7;
  fill: none;
  opacity: .25;
}	



	
#l1, #l2, #l3, #l4 {
  	stroke-dasharray: 2000;
  	stroke-dashoffset: 2000;
  	-webkit-animation: draw forwards;
  	        animation: draw forwards;
	-webkit-animation-duration: 3s;
	        animation-duration: 3s;
	-webkit-animation-delay: 24.5s;
	        animation-delay: 24.5s;	
	}
	
	
	
</style>
	

	


	
	<g class="lay1A">
	<g id="lay1A">
	
<path id="lay1" class="st0" d="M637.5,679.8c0,0,10,1.8,20.5,2.3c13.8,0.7,26.4,0,36.2-2.3c4.1-1,7.8-2.3,7.5,0.3
	c-0.1,1.2-1,2.9-5.9,4.9c-3.9,1.6-9.1,3.6-26.1,4c-11.8,0.3-24.8-1.6-28-3.4c-3.6-2-3.6-3.4-3.6-3.4s0.6-5.5-1.6-6.7
	c-4.2-2.3-20.2-13.4-24.4-28c-0.5-1.7-2.3-8.1-2.3-8.1s-4.9-1.3-5.2-5.2c-0.3-3.9-1-5.5,4.9-6.8c5.9-1.3,15-2.6,23.1-2.6h11.1
	l9.8,10.1c0,0-9.8,0.7-18.2,0c-8.5-0.7-30.1-1.4-24.1-4.9c3.9-2.3,40.4-5.8,45.6-5.8c5.2,0,31.6-0.1,34.5,0
	c8.5,0.2,33.1,1.4,31.5,3.6c-1.6,2.3-6.3,3.7-14.3,4.9c-30,4.2-49.2,2.3-49.2,2.3l-11.7-12.2c0,0-4-0.2-3.9-1.5
	c0.2-1.8,8.5-10.4,8.5-10.4s-9.4,12.1-13,12.1c-1.1,0-4.1-1.3-2.6-3.3c2.4-3.2,2.3-3.3,2.3-3.3l5.5-8.7c0,0-7.8,14-10.1,12.1
	c-2.3-2-1.8-3.1-1.1-4.7c0.9-2.2,2.1-5.1,2.1-5.1l2.1-5.6c0,0-3.6,10.8-6.2,9.8c-2.6-1-2.1-2.3-2.1-3.6c0-1.3,2-7.7,2-7.7l-1-1.1
	l-1.3-1.2l6.2-3.3c0,0,3.6-1,5.2-1c4.1,0,2.1,1.3,6.5,1c3.9-0.3,3.3,2.3,7.2,1.3c0.9-0.2,3,1.8,4.5,1.6c4.6-0.7,4.7,1.8,5.6,3.4
	c0.8,1.5-0.3,8.3-3.6,11.4c-1.3,1.3-10,7.5-9.1,7.5c1.8,0,24.3,0.3,26.4,0.2c9.1-0.3,35.9,0.9,37.5,0.7c3.5-0.5-0.3-43.3-0.3-43.3
	s-35.7,2.5-50.8,1.6c-17.1-1-25.9-2.6-27.5-2.6c0,0-4.3,10.4-4.4,10.8c-1.3,3.6-4.9,8.9-4.9,8.9l-10.9-12c0,0-2.7-3.1-3.7,0.4
	c-0.2,0.6,15.5,17.7,15.5,17.7s-2.7,3.2-1.1,5.5c1.6,2.3,4.6,5.9,3.3,6.2c-1.3,0.3-8.6,2.3-8.6,2.3s-5.7,1.8-6.7,2.1
	c-0.1,0,0.9,2.6,2.8,2.3c2.8-0.5,2.7-3.6,2.8-3.3c0.8,2.4,1.1,3.4-4.7,5.1c-3.4,0.9-21,9.4-35.7,9.8c-25.1,0.7-24-4.8-24.8-7.5
	c-2-7.3,1-12.7,1-12.7s2.9-7.8,12.1-9.8c9.1-2,16.3-3.9,11.1-2c-5.2,2-9.3,4.1-13.8,6.2c-4.7,2.2-7.8,10.1-2.4,12.4
	c0,0,15.6-17.9,18.9-17.9c3.3,0,9.8-2.6,4.9,0c-4.9,2.6-8.8,4.6-11.4,8.5c-2.6,3.9-3.2,9.8-2.6,8.5c2.9-6.5,8.8-11.4,10.8-12.4
	c2-1,6.8-3.9,6.2-2.9c-0.7,1-3.4,3.3-4.6,7.2c-2,6.5,0,11.7,1.3,14c1.3,2.3-1-12.3,3.3-17c2-2.2,2.3-2.1,2.3-2.1s3.9-2.4,9.1-2.4
	c5.2,0,6.8-1,9.8-1.3c2.9-0.3,4.9-1.6,2.6,2c-2.3,3.6,1,14.3,1,14.3s-1.3-8.8,0.7-11.4l2-2.6c0,0,6.5-7.2-3.9-4.6
	c-1.9,0.5-4.6,1-9.4,1.3c-4.9,0.3-7.8,3.3-10.4,1c-2.6-2.3-10.8-6.5-16.3-7.5l-5.5-1c0,0-14.7,9.1-7.5,7.2c7.2-2,9.9-3.8,16.5-3.8
	c6.5,0,11.6,0.9,14.5,1.9s6.5,2.9,7.2,1c0.7-2-5.2-5-5.2-5s-8.3-5.2-20.5-4.8c-2,0.1-6.2-0.3-3.6-2c2.6-1.6,7.5-7.5,8.8-9.8
	c1.3-2.3,2.3-3.5,2.3-3.5s2.4-2,5.5-0.7c11.1,4.6,9.8,17.7,13.7,21.5c1.2,1.1,2.6,1.3,2-3.3c-0.7-4.6-4.6-13.8-11.7-18.5
	c-2.9-1.9-7.6-2.1-6.4-3.1c5.2-4.2,11.3-16.1,12.5-19.4c2.4-6.5,5.1-11.6,6-13.2s2.9-3.4,5.9-4.4c2.9-1,3.4-1.3,5.9-2.1
	c3.7-1.3,9.3-3.4,9.6-2.3c2.6,9.8,5.4,15.6,2.4,29.6c-1.9,9.3-6.4,15.7-8.6,17c-2.3,1.3-1.3-8.9-3.1-15.2
	c-3.7-12.9-9.3-13.4-9.3-13.4s-2.9-0.3-1.3,2.6c1.6,2.9,6.4,5,8,11.5c1.6,6.2,1.8,12-0.5,8.7c-2.3-3.3-4.1-7.6-8.3-10.2
	c-2.9-1.8-8.9-3.6-4.4-0.2c7.5,5.6,9,12.6,9,12.6s1,6.4,2.1,8.1c1.5,2.3,2.4,1.1,2.4,1.1s2.4-2.3,3.4-2.3c1.6,0,1.8,1.5,1.8,3.4
	c0,2,2.8,11.2,5.7,7.7c2.9-3.6,4.6-13.4,5.9-16c1.3-2.6,5.9-2.2,5.9-2.2s3.9-13.4,4.9-18.6c0,0-2.3-7.8-4.6-13
	c-2.3-5.2-12.7-10.3-8.5-12.1c4.2-1.7,18.2-5.1,18.2-5.1s-1.3,2.2-2.3,4.2c-3.9,8.1-0.3,20.2-0.3,20.2s2.6-11.5,3.9-17
	c1.3-5.5,3.6-11.4,3.6-11.4l-2.9,2.3c0,0-2,1.4-2-4c0-5.4-2.3-15.2-2.3-15.2s-1-7.2-1-12.1s1.4-12.6,2.9-16.6
	c2-5.1,5.3-10.1,7.8-12.7s9.1-10.4,11.7-12.4c2.1-1.6-10.1,17.6-9.9,17.2c0.2-0.4-5.8,10.9-6.4,16.8c-1.1,11.7,5.5,25.8,5.2,24.1
	c-1.1-7.3-1.5-17.4-1.5-17.4s-1-7.5,2.1-17.8c0.4-1.2,1.3-2.4,1.3-5.3c0-2.9,11.3-19,15.5-22.1c9-6.5,23.3-3.3,26.6-1.7
	c3.3,1.6,10.4,5.5,14.7,11c2.3,3,5.6,5.9,7.2,9.2c1.6,3.3-0.1,10-1,6.2c-1.3-5.8-4.6-7.8-4.6-7.8l3.9,9.4c0,0-0.2,1.8-3.3,2.3
	c-1.5,0.2-2.8,0.9-7.5,0.1c-3.8-0.6-15.6-5-17.9-5c-2.3,0,3.9,3.3,4.6,6.2c0.7,2.9,0.5,4.6-2,6.4c-1.2,0.9-2,0.9-4.9,2
	c-3.7,1.3-5.6,3.7-6.8,5.7c-4.6,7.3-7.3,3.6-7.3,4.7c0.2-6-0.8-9.6-3.3-10.4c-1.6-0.5-3.7-0.9-5.4-0.2c-1.6,0.7-2.1,2.5-2.1,2.5
	s-0.6,1.7-0.8,3.3c-1,6.9,4.9,12.6,4.9,12.6s-1.7,3.7-4.9,8c-4.7,6.4-6.9,5.5-6.8,8.1c0.1,4.6-1.8,16.4-2.9,22.6
	c-2.3,12.1-7.8,34.8-7.8,34.8s2.9,1.2,12.3,2.2c9.5,1,9,0.5,12.9,0.7c7.2,0.3,9.8,0,10.3,0c2.3,0,2-0.2,2-0.2s-12.2-0.7-16.3-2.6
	c-8.4-3.8-16.6-10.3-16.3-11.7c0.3-1.3,0.8-4.7,0.8-4.7s4.5,6.3,10.1,9.8c5.9,3.6,16.4,7.7,29.2,3.1c7.8-2.9,12.7-10.6,12.7-10.6
	s-0.1-3.7-1-8.4c-1.6-8.4-2.3-12.5-2.3-12.5l-0.8-6.2c0,0-5-0.8-8.3-2.4c-7.3-3.6-14.7-9.9-16.3-16c-0.3-1.3-0.5-4-0.5-4
	s-0.5-7.9-1.1-9c-0.7-1.1-4.9-6.7-4.9-6.7s-0.6-0.2-1.1-2.4c-0.3-1.3-0.9-5.4,0.7-6.2c0.8-0.4,3.8,0.2,3.8,4.2s-1.5,7.9,0.8,9.9
	c2.2,2,2.4,5.5,2.8,6.4c0.3,1,2,7.9,5.2,12.4c2.4,3.3,12.7,10,17.1,11.5c2.8,0.9,3.7-0.4,3.7,1.9c0,2.3,3.9,22.9,6,28.4
	c1.6,4.3,2.6,7.7,3.7,12.7c0,0-2.3,1-10.3,2.1c-2.2,0.3-12.5,1.1-12.5,1.1s10.5-3.5,15-7.3c4.2-3.6,8.1-6.9,7.5-8.5
	c-0.7-1.6-7.8-30.5-7.8-30.5s2.8-0.3,3.9-4.8c1.1-4.6,5.5-10.4,5.5-10.4s3.6-3.7,4.6-6.8c1.7-5.4,2.3-13.4,2.3-13.4s3.9-3,4.2-4.9
	c1-5.2-0.2-10.2-0.2-10.2l0.5-9c0,0,0.7,3.3,1.4,7.2c1,4.7-0.1,17.9-4,25.4c-3.9,7.5-6.2,15.3-7.5,17.6c-2.7,4.9-4.9,4.5-4.9,4.5
	s1.1,1,1.6,2.9c0.7,2.2,1,3,0.5,6.6c-0.6,4.2-2.8,6.5-2.1,9.1c0.7,2.6,8.1,21.6,8.6,26.8c0.1,0.8,5.1-1.4,5.1-1.4s-3.6-8.8-6.2-14.7
	c-2.6-5.9-4-7.5-3.3-12.1c0.7-4,0-13.1-0.5-14.8c-0.3-1.1,5.1,0.8,11.6,2.7c6.5,2,17.6,7.8,19.9,12.7c2.3,4.9,2.9,8.5,4.6,15.3
	c1.6,6.8,2.6,17.6,2.6,24.8s1,22.5,1.3,24.8c0.3,2.3,2.7,8.1,2.7,8.1s1.9,2,1.9,4c0,2-0.8,5.5-0.8,5.5l0.6,3.3c0,0-0.5-2.3-3.4-5.2
	s-11.1-0.6-11.4-2.6c-0.5-3.2-0.3-5.9-3.3-6.9c-2.9-1-10.4-1.2-10.4-1.2s4.9-8.9,3.6-10.8c-1.3-2-4.2-10.1-4.2-10.1s2-2.9,0-8.5
	c-2-5.5-4.4-11.7-4.4-11.7s2.1,10.5,2.8,15c1,6.5,2.3,12.9,2,19.5c-0.2,5-1.3,5.5-2.9,6.1c-1.6,0.7-3.6,0.4-4.2,1.7
	c-0.7,1.3,0.7,5.2,0.7,5.2s1,4.6,2.9,4.6c4.6,0,3.9-5.9,3.9-5.9s2,2.3,1,4.2c-1,2-3.6,2.3-3.3,5.9c0.1,1,2.9,3.3,2.9,3.3
	s-4.6-0.3-5.2,1.9c-1,3.3,2.3,4.6,2.3,4.6l-0.3,0.3c0,0-2.5,1.3-2.9,3.3c-0.7,2.6,1.6,2.9,1.6,2.9s-2.4,2.3-1.6,4.2
	c0.7,1.6,2.9,1.3,2.9,1.3l3.3-1.3c0,0,8.5-3.3,11.4-14.3c0.6-2.2,2-8.9,2-3.6s-1.3,11.1-3.6,13.4c-2.3,2.3-4.2,3.3-3.9,4.2
	c0.3,1,2,2.3,6.2,3.6c4.2,1.3,4.6,1.3,11.1-1.3c5.9-2.4,5.3-4.3,5.3-8.2c0-3.9,0.6-7.8,0.6-7.8s7.5-0.1,10.8,0.1
	c7.2,0.3,14,0.7,15,0.7c1,0,10.4,0.7,10.4,0.7l-60.3,24.4c0,0-2.9,1.7-2.3,4.9c0.5,2.3,1,3.3,2.6,4.9c1.6,1.6,77.2,3.3,77.2,3.3
	l8.1-35.8c0,0-4.2,2.1-6.3,2c-2.1-0.1-42,21.5-40.3,21.5c2.3,0,14.7,0.3,14.7,0.3s32-18.9,30.5-20.2c-1.5-1.3-22.7-1.6-22.7-1.6
	s-45,19.9-43,20.5c2,0.7,9.1,0.3,11.7,0.3c2.7,0,40.4-21.8,40.4-21.8l7.8-0.3c0,0,7.5-2.7,7.5-4c0-1.3,0.6-1.6,0.6-1.6l5.6-28.3
	c0,0,0.9-7.1,4.9-8.8c3.9-1.6,35.4-14.8,40.1-14.3c3.3,0.3,3,1.6,2.6,3.9c-2.6,15.6-14.3,69.7-14.3,69.7S821.3,673.7,817,675"/>
		</g>
		</g>

	
		<g class="lay4A">
		<g id="lay4A">
	
	<path id="lay4" class="st0" d="M360.6,458.4l-9.3-62.3c0,0-0.5-3.4,2.3-5.1c1.9-1.2,5.6-1,5.6-1l76.4,4.6c0,0,5.4,0.2,7.9,2.3
	c2.1,1.7,2.9,5.3,2.9,5.3l8.1,61.9c0,0,2.9,1.5,0.7,2.7c-2.2,1.2-6.1,2.7-6.1,2.7l-79.8-8.2c0,0-3.8-0.9-4.3,0.6
	c-0.5,1.7,1,2.2,1,2.2l84.7,8.5c0,0,0.6-0.1,4.3-0.5s42.5-7.3,42.5-7.3s1.7-0.1,1.7-1.6c0-2.1-1.7-2.5-1.7-2.5l-13.3-1.5l-6.6,0.2
	l-7-0.2c0,0-7.5,3.8-9.1,3.8c-1.5,0-2.3-0.4-1.5-1.5c0.8-1.2,9.1-6.3,9.1-6.3s1.5-1.5-0.2-1.7c-0.8-0.1-1.7,0.8-1.7,0.8l-11,6.5
	l-0.8-5.4l5.8-4.6l-6,2.2l-0.6-4.6c0,0,3.1-2.1,6.6-2.9c3.5-0.8,6-1.2,6-1.2s6.4-0.5,11.8,1.4c5.4,1.9,7,3.1,9.3,5.8
	c2.3,2.7,5,4.6,7.3,6.2c2.3,1.5,3.7,1.9,6.6,2.7l2.8,0.8l4.5,0.8c0,0,1-3.2,0.6-5.3c-0.7-3.7-1.5-5.1-5.1-5.9
	c-3.6-0.8-8.6-1.5-11.7-4.6c-3.1-3.1-8.9-9.6-15.1-11.1c-3.6-0.9-4.6-5.5-4.6-5.5s-1.3-3.2-3.1-3.8c-3.3-1-2.4,2.7-1.9,4.1
	c0.4,1.2,1.3,2.2,1.9,2.8c3.7,3,10.1,7,7.7,8.1c-2.3,1.2-9.9,2.6-11.2,1.2c-7.9-8.2-11.6-23.2-12-25.2c-0.4-1.9-1.9-8.1-1.9-9.3
	c0-1.2,0-3.1,1.9-1.2c1.9,1.9,2.3,5.4,2.7,8.9c0.4,3.5,0,10.2-0.8,12.3c-0.8,2.1-3.5,9.7-3.5,9.7s-3.7-34-4.3-36
	c-1.4-5.4-3.5-6.6-5.2-7.6c-2.2-1.2-11-1.9-11-1.9s0.8-4.8,1.9-9.8c1.2-5,1.7-8.2,4.1-10.3c1.4-1.3,11.8-5.8,11.8-5.8l6.6-2.8
	c0,0-0.4,8.1-0.4,9.3c0.2,4.4,2.9,8.8,4.1,10.8c1.9,3.2,4,8,5.8,9.3c5.2,3.7,12.2,1.2,12.2,1.2s1.7-0.3,5-3.8
	c3.4-3.6,10.8-17.5,10.8-17.5h2.7c1.5,0,3.3-1.6,4.4-4.3c1.2-2.7,0.4-1.2,0.8-1.9c0.4-0.8,2.6-6.3,1.4-8.5c-1.5-2.8-3.3-3.9-4.9-2.3
	c-1.5,1.5-3.2,8.7-3.2,8.7l-2.7-1.3c0,0-0.7-4.4-1.2-5.4c-1-2.2-3.5-3.1-3.5-3.1s0.8-2.3,0.8-4.7s-0.8-3-0.8-3s-8.4,2-13.1,1.1
	c-2.5-0.5-3.7-1-5.6-1.8c-4.8-1.9-7.2-6.7-7.2-6.7s-3.5,3.9-3.5,6.2v2.3l-1.9,8.5c0,0-1.4-5.1-1.7-7.8c-0.4-2.7-0.4-6.5,0-9.3
	c0.4-2.8,1.9-6.6,4.4-8.3c3-2.1,5.2-2.5,5.2-2.5s2.3-3.3,4.6-4.1c7.9-2.5,19.8,1.1,23,2.6c2.3,1.1,5.8,3.6,7.7,7.9
	c1.2,2.7,1.5,8,1.5,11.1c0,3.1-0.4,6.6-0.8,8.1c-0.4,1.5-1.2,7.1-2.2,11.4c-0.9,4.1-4,13.4-5.7,17.6c-1.4,3.3-6,12.7-7.9,15.5
	c-1.9,2.8-5.2,6.3-7.9,5.7c-5.6-1.3-7.7-7.5-7.7-7.5s3.9,1.2,9.1,1.9c7.4,1,14.8-3.4,18-8.2c8.9-13.6,10.2-30.8,10.2-30.8
	s24.2,12.6,27.1,14.7c2.5,1.9,4.6,3.9,5.4,6.6c0.8,2.7,0.6,6.2,0.6,7c0,0-13.9,4.5-15.5,12.8c-0.4,2.3-0.6,5.8-0.2,8.9
	c0.4,3.1,1.2,7,1.2,8.1c0,1.2-0.7,5.4-0.8,6.2c-0.6,7.2,3.3,16.1,4.3,17.4c1.2,1.8,1.9,4.1,5.8,3.9c6-0.3,10.1-2.7,12.4-4.3
	c2.3-1.5,7-7.7,7-7.7s2.5,0.8,4.8-0.4c2.3-1.2,3.7-4.8,3.7-4.8s2.3-7,0.6-8.6c-1.4-1.3-3.2-0.1-4.4,1c-1.7,1.5-2.3,2.7-2.3,2.7
	l-1.5,3.1c0,0-0.8-3.5-1.9-5.4c-1.2-1.9-2.7-3.7-5.4-4.3c-1.9-0.4-12.3-2.3-16.8-5.2c-2.7-1.7-3.7-4.5-3.9-5.2
	c-0.6-2.5,0.6-6.4,0.6-6.4s0.9,4.9,3.5,6.4c4.3,2.5,8.9,3.1,12.4,3.9c3.5,0.8,5.4,1,9.1,2.5c2.8,1.2,4,2.2,5.8,4.3
	c2.7,3.1,3.3,11.3,3.3,11.3s4.1-2.7,5.4-4.1c2.1-2.3,9.1-12,4.8-23.6c-3.7-10.2-11-12.5-12.2-13.2c-4.6-2.5-13-2.5-13-2.5
	s-5.4,0-9.3,1.2c-3.9,1.2-9.3,4.4-11.6,6.6c-4.4,4.3-4.6,11.4-4.6,13.4c0,1.9,0.1,5.5,1,8.5c0.8,2.7,0.6,4.1,0.6,4.1s-1,4.3-1,7.4
	c0,3.1,0.2,3.9,1,7c0.8,3.1,3.7,8.1,3.7,9.3c0,1.2-4.8,3.7-7.3,4.8c-2.9,1.4-14.2-1.1-20-2.3c-1.1-0.2-5.2-1.9-5.2-1.9
	s5.2-0.6,9.5-4.3c2.7-2.3,3.7-5.7,4.4-10.2c0.8-4.5,2.9-7.2,4.6-12.1c1.2-3.4,1.5-8.3,1.5-9.5c0.2-3.3-0.6-6.5-3.3-4
	c-3.1,2.9-4.1,6.8-4.4,11c-0.4,4.3,0,6.3,0.8,10.4c0.8,4.1,2.7,10.1,5.6,13.6c2.3,2.8,2.9,3.5,3.3,6.2c0.4,2.7-0.8,6.2-1.5,8.9
	c-0.8,2.7-1.2,6.8-1.9,11.4c-0.4,2.3-1.5,5.6-3.5,7c-1.4,1-3.1-0.4-3.5-1.4c-1.1-2.7,0.4-3.9,2.7-3.9s6.5,2.7,8.7,3.3
	c8.3,2.3,20.9,2.9,26.3,2.1c5.8-0.8,7.2-1.2,9.7-1.9c5.1-1.6,11.6-5.4,16.6-10.8c3.4-3.6,11.6-15.5,11-25.7
	c-0.1-1.9-1.3-4.3-3.3-5.4c-2.3-1.4-6-1.5-9.3,1c-2.3,1.7-9.1,9.5-11.4,11.8s-4.6,4.5-7,6.4c-2.3,1.9-9.4,7-13.1,8.7
	c-2.3,1.1-5,2.5-8.5,3.3c-1.2,0.3-11.6,1.1-11.2-3.3c0.4-4.1,3.1-3.7,3.1-3.7s1.9,2.7,8.1,2c5.5-0.7,14.7-2.8,20.3-1.2
	c2.7,0.8,5.1,2.2,6,4.6c0.8,2.1-0.3,5.6-1.5,6.4c-1.2,0.8-4.1,1-5-2.3c-0.9-3.2,1.5-6,1.5-6s6.1-6.4,8.9-10.6
	c4.8-7.2,9.2-17.5,10.4-19.2c1.7-2.3,2.9-4.2,7.7-3.5c7,1,11.2,3.6,17,5c5.8,1.4,6.2,1.4,9.3,1.4s7.3,0.1,10.1,2.1c1,0.7,5,5,1.6,4
	c-3.5-1,2,5.6,3.5,10.5c1.4,4.5,1.4,9.2-1.5,13.9c-3.9,6.2-11.8,8.9-17.4,6.8c-3.3-1.2-6.6-4.3-6.6-4.3s-4.8-5.2-10.1-5.4
	c-3.7-0.1-4.8,2.1-5.8,3.9c-1.2,2.2-2.7,7.5-3.1,9.1c-0.4,1.5-2,3.4-3.9,2.5c-1.9-1,1.2-8.9,4.6-8.1c2.3,0.5,2.5,2.1,2.5,4.1
	s-0.8,4.1,1.5,3.7c1.2-0.2,2.7-4.3,2.7-4.3s-0.6,4.1,1.2,3.5c0,0,1.9,0.2,2.9-3.3c0.3-1.1-0.2,2.7,1,2.7c1.2,0,1.7-1,1.7-1l0.8-1.9
	c0,0,0.3,2.9,1.4,2.7c1.4-0.2,1.5-0.4,2.9-4.7c1-3.3,3.1-5.8,6.6-5.8c3.5,0,6,1.2,10.2,2.5c3.4,1.1,7.2,3.5,9.9,1
	c2-1.9,3.5-6.2,3.5-10.5c0-4.3-1-7.9-4.3-12c-6.4-7.9-20.1-7.2-21.7-9.7c-0.6-1,0-1.9,0-1.9s0.7-2.5,3.9-3.9
	c4.1-1.7,6.8-1.5,9.1-1.5c3.5,0,8.1,1.4,9.9,2.3c3.8,1.9,7.7,5,9.7,7c1.9,1.9,3.6,3.7,5.8,5c7.2,4.3,3.9-1.7,3.9-1.7s-1.7-3.5-7.7-7
	c-1.6-0.9-8.9-4.8-8.9-4.8s-2.2-6.6-2.5-7.4c-1.2-2.9-1.4-3.6-2.1-5c-2.9-6-6.6-10.5-6.6-10.5s0.7-1.7,5-3.5
	c2.9-1.2,7.3-2.1,7.3-2.1l3.9-0.6c0,0,3.5,0.2,1.2,1.9c-1.5,1.1-4.3,1-6.2,1.2c-2.5,0.2-6.4-0.4-6.4-0.4s-2.3-3.2-6-3.1
	c-5.8,0.2-5.6-3.7-5.6-3.7s-0.6-2.1,1-5.4c3.1-6.6,0.6-7.5,0.8-12.2c0.2-5.8,4.8-9.7,6.4-9.5c1,0.1,1.8,0.2,1.4,3.3
	c-1.2,7.8,2.3,14.3,4.6,17.8c2.3,3.5,5,7.4,4.3,10.8s-0.8,3.1-2.3,6.6c-1.5,3.5-4.4,9.4-5,10.8c-0.6,1.4-1,2.9-1,2.9
	s-0.7,3.4,1.2,5.2c1.2,1.2,2.9,1,4.8-0.6c1.9-1.5,4.1-2.7,7.5-3.9c3.5-1.2,1.5-0.4,4.6-1.5c3.1-1.2,7.5-5.4,8.7-9.3
	c0,0,1.4-5.2,5-4.8c2.3,0.2,2.9,1,4.1,2.1c1.2,1.2,3.1,2.4,5.8,1.9c6.8-1.2,12.4,1.4,12.4,1.4s4.3,1.9,1.5,3.7
	c-2.4,1.5-6.6,1.6-9.3,1.7c-3.5,0.2-8.5,1.2-11,3.1c-1.9,1.4-2.3,2.3-3.1,2.7c0,0,0.4,0.8-1.2-0.4c-1.5-1.2-3.1-3.7-3.1-3.7
	s-3.5-4.8-0.4-4.5c1.9,0.2,3.3,1.7,4.1,4.1c1,3.1,0.4,6.4-0.2,8.3c-2.1,6.4-6.5,7.7-7.7,6.2c-4.1-5-6.2-16.8-6.2-16.8l-2.7-11.9
	c0,0,18.2,34.3,20.1,40.7c1.1,3.8,1.7,4.9,1.7,8s-1.9,4.8-4.1,6.4c-0.5,0.4-1,0.7-1.6,1.1c-4.1,2.6-8.8,5.4-12.7,6.9
	c-4.1,1.5-10,3-9.5-1c0.2-1.4,3-5.1,7.3-7c4.4-1.9,9.7-1.9,12-0.8c2.9,1.5,14.7,7.3,14.7,7.3"/>
			
	</g>
	</g>
	
		<g class="lay3A">
		<g id="lay3A">
			
<path id="lay3" class="st0" d="M836.6,248.6c-3.7-3.1-7.8-4.4-13.3-5.7c-5.5-1.3-6,0-6,0v-2.6c0-1,0-5.7,0.8-9.1
	c0.8-3.4,1.2-6.2,1.2-6.2s0.5-3-1.6-2.8c-1.7,0.1-2.6,1.5-2.6,1.5l-3.5,3.2c0,0,1.4,2.1,1.8,3.2c1.1,3.2,0.4,4.9,0.7,5.6
	c-1.7-4.7-4.7-8-4.7-8l-7.2,0.5l2.7,1.7c0,0,4.8,3.3,6,7.4c0.9,3.1-0.1,2.1-1.7,0c-1.6-2.1-11.4-9.5-14.5-8.4
	c-3.1,1-3.8,2.3-3.8,2.3l-1.4,5.6c0,0,4.4,12.7,7.6,13.2c3.1,0.5,16.6-4.9,21.8-4.9c5.2,0,7.3,1.8,11,3.1c3.7,1.3,3.7,2.6,3.7,6.5
	c0,3.9-6.4-4.3-8.6-5.7c-2.2-1.4-1.9-1.7-7.8-0.9c-5.7,0.8-11.8,2.8-11.8,2.8s-8,1.9-10.6,1.2c-2.6-0.8-6.8-12.7-6.8-12.7
	s-3.3,6.6-4.8,11.8c-1.6,5.2-5.2,11.7-5.2,11.7s9.1,4.1,15.3,4c2.7-0.1,30.9-2,32.9-2.6c4.8-1.4,6.3-2.6,7.4-4
	c1.3-1.6,2.6-3.8,2.9-5.6c0.7-3.5,2.3-6.9-0.1-16.7c-0.9-3.8-5.2-39.1-8.2-43.8c-3.1-4.8-11.9-7.4-11.9-7.4l-7.4-9.6
	c0,0,2.1,1,3.1,1.6c1,0.5,3.6,1.5,6.8,6.2c1.6,2.3,3.1,6.2,3.1,6.2s0.5-3.6,0.5-5.7s-0.7-6-1.8-7.4c-0.7-0.8,2.7,2.3,3.9,6.6
	c0.9,3.4,1,5.6,1,5.6s1.6-5.3,0.5-9.5c-1-4.1-4-5.8-6.7-10.5c-2.6-4.7-5.5-7.5-5.5-7.5s1.6-7.1,2.1-9.4c1-4,1.7-7.9,0.1-15
	c-2.5-11.1-10.4-13.2-12.5-15.8c-2.1-2.6-6.5-7.5-13.1-9.6c-6.5-2.1-10.4-0.5-10.4-0.5s-11.2-2.6-18.5,1.8
	c-11.7,7.1-14.5,15.9-15.5,16.4c0,0-3.9,0.3-7.7,5.7c-5.5,7.7-3.1,22.3-3.1,22.3h4.2c1,0,6.8-0.5,6.8-0.5l7.8-2.6
	c0,0,5.7-6.7,9-11.9c3.3-5.2,8.2-5.4,8.2-5.4s-0.3,3.3-3.9,6.4c-3.6,3.1-8.1,9.3-8.1,9.3s8.1-5.2,11.5-7.3s6.3-8.3,6.3-8.3
	s-0.5,5.2-4.7,8.8c-4.2,3.6-1.3,3.6-9.3,7.8s-18.8,6.7-18.8,6.7s1.4,1.5,12.6-0.3c9-1.4,17.1-5.9,24.5-11.6
	c5.9-4.6,9.3-8.9,10.8-10.9c0.8-1,3.1,2.8,8.4,4.7c4.7,1.7,4.7,4.8,5.2,6.2c2.1,5.1,2.6,14.7,2.6,16c0,1.3-0.5,9.4-1.6,15.1
	c-0.5,2.6-1.1,5.8-2.4,8.2c-2.4,4.7-7.3,8-7.3,8s-3.7,4.1-5.2,4.9c-2.9,1.4-6.3,2.8-7.3,2.8s-5.7,0.8-10.2-0.5
	c-2-0.6-10.8-4.5-14.6-8.5c-5.5-5.7-7.3-17.6-7.3-17.6s-1.6,0.7-4.2-0.5c-1.2-0.6-2.9-3.4-2.9-3.4v6c0,0,0.3,4.7,1.3,7.8
	c0.7,2.2,1.6,5.4,1.6,5.4s-4.4-5.7-5.7-9.8c-2.1-6.5-1-17.8-1-17.8s-3.1,11.1-2.6,16.6c0.5,5.4,1.3,4.9,1.6,8.8
	c0.1,2.1-6.8-9.6-5.2-20.7c0.2-1.5,2.6-9.1,2.6-9.1l-3.4,0.3c0,0-3.4,4.9-4.4,9.3c-1,4.4-0.5,8,1,11.9c2,4.9,3.1,6.2,3.1,6.2
	s-2.9,7.6-4.4,11.7c-1.3,3.4-1.8,6-5,9.6c-3.1,3.6,2.3-1.2,3.7-3.1c3.1-4.2,6.8-16.1,6.8-16.1s7.8,11.4,17,12.4
	c1.1,0.1-6.5-8.2-6.5-8.2s-1,1.8,1.6,4.4c2.6,2.6,9.4,7.9,14.6,6c5-1.9,5.5,0.5,5.5,0.5s9.1,9.3,10.1,10.4c1,1-6.8,11.4-6.8,11.4
	s-1.5-4.7-3.4-8.6c-3.1-6.5-8.6-11.4-8.6-11.4s7.8,10.8,10.4,21c0.7,2.6-9.4,10.1-9.4,10.1s-0.7-18.5-2.1-22.1
	c-2.6-6.8-8.9-10.3-8.9-10.3s6.5,7.2,7.5,13.5c1.1,6.9,1.1,6.2,1.1,6.2s-3.9-2-10.2-5.4c-6.3-3.4-19.9-5.4-22.5-4.4
	c-2.6,1,2.6,4.7,2.6,4.7l0.5-7.8c0,0-2.6-0.3-6.3,1c-3.7,1.3,0.3,5.4,2.7,6.7c3.3,1.8,3,1.6,3,3.7c0,2.1,3.7,18.6,3.7,18.6
	s-4.7-5.5-10.1-7.7c-4-1.7-7.6-6.2-7.6-6.2s-1.2-1.6-2.2-3.5c-1-1.8-2.7-2.1-4.2-1.3c-1.6,0.9-2.1,4.7-2.1,7.8c0,3.1,0.8,8.8,1,10.4
	c0.3,1.6,2.9,0.7,2.9,0.7l5,11.2c0,0,0.6-3.7,1-5.2c1-3.6,2.6-7.9,8.8-8.4c3.5-0.3,4.3,1.6,4.3,1.6s-3.9-0.4-6.5,1.2
	c-2.1,1.3-3.7,3.1-4.6,5.6c-1.5,3.9-1.8,6.7-1.8,6.7l5.2,5.1c0,0,2.3,2.1,5.6,7.3c3.7,5.7,11.5,5.4,11.5,5.4s-2.2-5.6-2.5-10.8
	c-0.4-6.2,1.4-8.7,1.4-8.7l1,7c1,7,6.2,18.5,8.6,20.7c1.6,1.4,4.9,4.8,14-0.1c13.3-7.3,25.6-44.5,29.5-53.1c1.3-2.8,5.4-3.1,5.4-3.1
	s12.7-0.6,13.1-0.6c4.6-0.9,6.1-3.6,6.1-3.6l-6.1,0l6.9-1.3c0,0,1.1,0.1,4.2-0.4c3.1-0.5,5.1-4,5.1-4s-16.5-1.9-19.3-2.2
	c-1.8-0.2,0.3-3.2,0.3-3.2l36.8,3.8l9.7-15.9l-2.6,0.1l-8.6,13.5l-3.7-0.3l8.5-13.3h-2.7l-8.2,13.1l-3.4-0.3l8.2-13.1h-2.4
	l-8.2,12.8l-9.9-0.8l3.4-5.4c0,0,2.4-3.9,4.6-3.6c2.9,0.3,0.4,5.2-1.3,5.1c-1.7-0.1-0.1-2.1-0.1-2.3c-0.3-0.9-2.5,2.1-2,3.1
	c0.1,0.2,0.4,1.3,1.7,1.4c1.3,0.1,2.5-0.8,3.7-2.2c1.8-2.1,2-5.3,0.4-6.6c-3.3-2.6-7.7,3.5-7.7,3.5l-4.4,6.7l-4.8-0.5l6.5-10.1
	l2.6,0.1l1-1.4l-7.3-0.3l-1,1.4h2.5l-0.8,1.2l-5-0.3l1.4-2.6h-2l-1.3,2.1l-2.7-0.3l1-1.8l-4,0.1l-3.8,5.3l-4-0.3l3.5-4.7
	c0,0,0.7-1,1.4-1.7c0.7-0.6,2.2-0.6,2.2-0.6l8.4-0.3l0.5-1.8c0,0,0.9-1.3,2.6-0.4l1.8,1.9l0.3-2.1c0,0,0.5-1.6,1.8-1.6
	c1.3,0,1.1,0.3,2.1,0.8c1,0.5,2.9,3.7,2.9,3.7s29,0.2,31.1,0.2c2.1,0,2.7,0.7,2.2,2.8c-0.4,1.8-8.1,14.9-8.1,14.9s-1.3,1.8-2.7,2.5
	c-1,0.4-2.5,0.4-2.5,0.4s-36.4-5.2-40.9-4.3c-4.2,0.9-8.4,2.6-8.4,2.6s-3.1,0.5,6.5-4.1c4.8-2.3,6.4-1,10.4-4
	c3.8-2.8-0.1-6.1-2.4-5.7c-2.6,0.5-0.7,0.2-7.7,2.2c-5.7,1.7-8.2,0.8-11.6,1.3c-3.4,0.5-5.2,3.6-6.8,7.3c-1.6,3.6-1,6.7-10.4,18.7
	c-9.4,11.9-12.5,15.1-16.7,18.1c-5.9,4.3-9.8,10-10.4,17.6c-0.5,5.8-5.7,5.7-5.7,5.7s0.7,1.7,2.4,3.8c2.8,3.4,11.4,8.3,18.9,8.5
	c2.8,0.1,11.1-1.8,11.1-1.8l38-10.4l7.3,4.5l-36,11l1.6,1.3l36.4-11l5,2.8l-35.5,11.9l1.8,1.4l35.9-12l7.6,4.5l-37,13.9l2,1.4
	l37.2-13.7l8.2,4l-40.2,15l2.1,1.4l40.5-15.3l14.1,7.4l-56.2,22.9l-19.5-16l-64.9-0.6c0,0-26.1,0.4-34.5,0.4
	c-8.4,0-8.3-1.4-17.6-3.2c-9.3-1.8-12.8,0.7-20.3,0.6c-7.8-0.2-9.7-3.5-9.5-6.6c0.6-7.7,7.7-6.4,8.6-6.9c0.9-0.4,7.5,1.2,9.9,0.9
	c6.8-0.9,6.8-3.8,9.9-4.6c3.1-0.9,8.4-1.3,15,0c6.6,1.3,8.8,2.2,10.8,5.8c1.6,2.8,0,6.2-2,8c-3.9,3.4-5.1,4.5-11.5,6.1
	c-7.7,1.9-10.2,1.3-15.5,0s-4.9-1.8-9.3-1.8c-4.4,0-4.4,0.8-11.5,0.4c-2.6-0.1-7.3-0.8-8.4-5.3c-1.7-6.7,2.4-10.4,7.1-13.1
	c4.9-2.9,14.6-4.9,17.7-5.3c3.1-0.4,7-2.3,9.3-4.6c3.1-3.1,3.9-8.3,3.5-11.4c-0.4-3.1-4.8-12.1-8.8-15.5c-5.9-5-20.3,0.9-24.3,2.7
	c-4,1.8-19.8,7.9-19.8,7.9s1.9,16.3,4.4,24.8c3.8,12.4,10.4,19.2,10.4,19.2s-14.8,0.4-22.8,0.4c-8,0-16.8,0.5-25.6,2.6
	c-8.8,2.1-23.6,1.1-26.7-4.9c-1.5-2.8-0.9-6.2,0.9-10.6c1.1-2.7,6.1-10,8.8-13.5c3.2-4.1,9.6-10.7,16.8-13.3
	c5.2-1.8,14.6,1.5,21.4,0.3c3.2-0.5,6.2-1.2,5.4-3.4s-13-3.5-15.5-5c-6.3-3.9-13-19.6-13-19.6s0.5-0.1,9.3-2.8
	c8.8-2.7,10.4-1.9,10.4-1.9s-3.8-9.5-6.7-21.8c-1.1-4.6-4.4-22.1-7.1-28.3c-2.7-6.2-10-4.4-11.6-3.3c-2.5,1.7-7.8,6.4-8.8,15
	c-2.2,17.7,5.2,46.2,5.2,46.2l6-2.2l6.2,10.7c0,0,5.7,8.3,6.9,9.2c1.7,1.2,0,4.8,0,4.8s-1.1,1.9-3.4,4.6c-3.5,4.1-3.8,3.8-9.5,8.2
	c-5.7,4.4-28.2,10.7-29.2,21.5c-0.2,2.6,4.2,2.7,8.6,1.3c4.4-1.3,7.2-4.7,9.5-5.3c4.9-1.3,15.6,1.3,19.2,1.6
	c6.2,0.6,9.1,0.1,15.3-0.3c6.2-0.4,16.5-3.3,14.4-2.9c8.2-1.5,8.8-1.8,13.3-1.5c0.8,0,10.3-0.3,15.4-1.5c5.7-1.3,3.2-0.5,7.6-2.7
	c4.4-2.2,8.6-3.3,13.3-3.1c2.7,0.1,6.2,0.9,6.2,0.9s1.3-7.9,1.3-12.3c0-4.4-1.8-8.8-3.5-12.8c-1.8-4-5.3-9.7-5.3-9.7
	s12.2,2.3,13.9,2.3c1.8,0,9.7,0.4,9.7,0.4s3.3-0.1,4.2-1.9c0.9-1.8,0.5-3.9,0.5-3.9s1.3-0.6,2.2-2.3c0.9-1.8-0.6-2.7-0.6-2.7
	s0.6-0.3,1.5-1.7c0.9-1.3,0-2.7-0.9-4.9c-0.9-2.2,0.9-1.8,1.3-4c0.4-2.2-2.2-2.7-2.2-2.7l17.3-36.2c0,0,3.5-7.5,4.2-9.5
	c1.9-5.6-2.8-5.1-2.8-5.1s-14.4,1.8-20.3,3.1c-4.1,0.9-6,7.1-6,7.1l-15.7,37.9l4-1.6c0,0,14-34.9,15.2-36.9c1.5-2.7,2.9-3.1,2.9-3.1
	l16.6-2.4c0,0,3.5-0.4,2,2.7c-0.7,1.3-1.8,3.8-1.8,3.8L691,228.7c0,0-1.4,1.2-2.7,1.2c-1.3,0-4-0.9-4-0.9s5.3-2.7,6.4-3.5
	c1.1-0.9,1.8-2.1-0.2-2.7c-1.7-0.6-3.1,0-8,1.9c-1.3,0.5-5.3,2.7-9.7,4.4c-4.4,1.8-7.5,4.4-9.3,5.8c-1.8,1.3-16.8,3.8-22.2,4.7
	c-5.4,0.9-30,2.2-30,2.2s-2.2,0-3.1-1.8c-1-2-6.6-17.2-8.4-24.5c-1.2-4.9-4.9-23.4-5.3-25.5c-1.6-8.4-5.1-10.9-5.1-10.9
	s0.9-1.8,3-1.8s4.3,2.5,6.5,4.7c1.3,1.3,4,4,5.7,4c3.6,0,4.6-1.6,5.5-2.9c0.9-1.3,2.2-1.8,2.2-1.8l2.7-0.4c2.7-0.4,0.9-4,0.9-4
	l4,0.9c0,0,0.4-3.1,0.4-4.4c0-1.3,3.1,0.4,6.2,0.4c3.1,0,0.4-7.5,0.9-11.1c0.4-3.5,7.1-8,10.2-11.5c3.1-3.5,2.2-4.9,2.2-4.9l1.8,2.2
	c1.8,2.2,2,5,2,5s1.9-8,1.9-12.5c0-4.4,0.7-18.3-8.6-29.4c-5.7-6.8-7.5-8.4-17.2-13.7c-7.5-4.1-18.1-4.5-24.3-3.2
	c-8.2,1.7-19.9,7.9-19.4,25.2c0.7,26.1-4.3,29.6-4.3,29.6s1.5,2.6,3.1,3.1c9.6,2.7,12.1-1.9,14.4-5.2c3.7-5.3,6.2-5.8,6.2-5.8
	c-0.3,0.1,6.2-1.8,6.2,5.3c0,2.7-1.8,5.8-1.8,5.8l6.6,3.5c0,0,1.3-6.2,2.2-7.5c1.2-1.8,1.4-3.6,4-4.9c3.5-1.8,5.3,0.9,9.7-0.9
	c4.4-1.8,5-3.7,6.8-5c4.3-3,11,3.1,11,3.1s-0.6-9.2-2.8-15.4c-3.3-9.3-8-14.6-8-14.6s1.3,2.2,2.2,8.4v6.6c0,0-3.3-10.8-8.8-17.3
	c-2.7-3.1-6.6-6.6-16.6-8c-5-0.7-13.1-0.3-18.7,5.8c-6,6.6-6.7,15-7.3,19.8c-1,8.5-1.9,24-8.6,30.2c-4,3.8-8.7,6.6-8.7,6.6
	s8,1.3,12.8,4c7.3,4.1,10.2,8.8,10.2,8.8s-12.1-6.9-16.3-8.2c-10.3-3.2-16.2-1.7-20.3,0.7c-6.8,4.1-12.5,11.6-16.8,19.9
	c-14,27.4-10.3,66.9-6.2,81.4c3.2,11.2,13.3,28.8,16.3,30.8c3.1,2,5.7,0.6,5.7,0.6l7.1,4.9"/>
	</g>
	</g>
	
		<g class="lay2A">
		<g id="lay2A">
			
<path id="lay2" class="st0" d="M771.1,489.4c0,0-3.8-2.3-5.1-5.9c-1.5-4.3-0.8-13.2,0-14.8c1.6-3.3,0-3,0-3s-1.6,1.3-2.5,8.2
	c-0.4,2.8-4.5-3.3-5.3-10.2c-0.6-5.3,0-11.5,4.1-12.8c3-1,0-2.9-3.5-0.6c0,0-3.1,2.6-3.5,10.8c-0.1,2-0.1,4.3,1.6,8.5
	c1.6,3.9,4.7,4.9,1.6,4.9c-3.2,0-11.9-2.3-15.1-6.2c-4.7-5.9-4.1-12-3.1-12.5c1.9-1,3.8-0.6,5.3-0.3c5.6,1.2,10.4-5.4,9.7-6.9
	c-1.9-4.3-11.3,7.6-11,4.9c0.3-2.6,9.7-9.9,5-9.5c-3.8,0.3-4.7,6.2-6.9,8.2c-1,0.9-3.1,3.6-3.8-4.9c-0.3-3.4-0.3-7.9,0.6-13.8
	c1.6-10.1,7.2-9.9,14.1-9.9c6.9,0,8.5,0.5,11.3,0.5c2.8,0,2.8,1.5-0.9,2.8c-3.8,1.3-6.3,0.3-9.4,4.9c-1.5,2.2-1.6,4.6-6.3,2
	c-4.7-2.6-6.9-5.9-7.2-7.2c-0.7-3-0.9-11.5,4.7-8.9c8.7,4,22-1.1,22-1.1s-2.8-16.3-3.5-22.3c-0.6-5.9,0-20.4,0.3-24.3
	c0.3-3.9,5.4-7.2,3.5-14.1c-3.5-12.7-12.6-9.3-12.6-2.4c0,4,1.3,8.2,4.7,10c3.6,1.8,6.3-0.5,7.2-3.7c1.6-5.5-1-7.9,0.6-12.7
	c4.7-13.8,1.7-17.7,1.9-20c0.3-3.3,1.3-4.3,0.6-5.9c-1.4-3.8-4.4-1-5-2.6c-0.5-1.4-2.5-1.3-2.5-1.3l-1.6,0.7c0,0-1-1.5-2.5-1
	c-1.9,0.6-2.2,1.6-2.2,1.6s-3.1-0.5-3.8,0.7c-1.3,2.3-2.5,0.6-3.5,2.6c-1.6,3.3-0.6,7.2,0.6,18.1c0.5,4.3,1.6,11.2,1.9,13.8
	c0.3,2.6-0.1,5.4-1.3,9.2c-0.9,3,0.6,3.6-0.3,13.1c-0.6,5.6-6,38.1-6,38.1s1.6-0.3,10.4,1c8.8,1.3,12.6,2.3,13.2,4.6
	c0.6,2.3,0.6,6.2,0.6,6.2s1.2-2,5.3-2.6c4.1-0.7,2.9-2,5.2-1.7c1.6,0.2,2.5,1.3,1.7,2.3c-0.7,0.9-2.8,2-3.8,1
	c-1.4-1.5,4.3-4.9,7.2-4.9c2.9,0,4.4,1.7,4.4,1.7s-4.7,0.7-10,6.2c-5.3,5.6-6.6,8.9-6.6,8.9s-3.7-2.6-2.1-6.6
	c1.4-3.6,4.1-5.3,4.1-5.3s6.2-4.3,8.8-4.6c2.6-0.3,5.3-2.6,5.3-2.6s-0.9,5.5,0,7.9c0.9,2.3,1.9,4.6,1.9,4.6s-3.5,3.5-4.6,7.2
	c-2.6,8.2-7.8,17.6-9.8,19.9c-1.9,2.3-4.1,4.8-6.3,9c-2,3.9-1.6,6.6-1.3,9.5c0.4,3.6,1.3,8.4,1.3,3.6c0-6.4,0-9.8,4.1-14.5
	c5.6-6.4,9.6-9.9,13.2-13.3c6.6-6.2,7.5-7.9,11-11.8c3.1-3.6,7.5-11,12.6-13.3c5-2.3,6.6-1.6,8.8-1.6c2.2,0,5,1,4.4-1.6
	c-0.4-1.9-1.9-1.9-6-3.2c-4.1-1.3-5.5-2-9.1-3.7c-3.5-1.6-5.6-2.8-8.8-2.6c-2.7,0.2-6.3,1.5-8,6.1c-1.2,3.3-1,11.3-0.6,10.2
	c1.4-3.9,3.8-3.6,3.8-3.6c1.3,0.2,1.9,1.8,1.9,1.8s2.2-3.8,3.8-3.4c1.6,0.3-1.5,0.9,0.2,3.4c0.6,1,5.4,1.4,9.7-0.4
	c0.8-0.3,4.9-2.1,8.8-0.5c1.6,0.7,3.3,1.1,5.2,2c2.6,1.1,3,2.1,2.4,3.5c-0.8,1.8-3.3,2.6-7.4,1.6c-4.1-1-4.1-1-4.9,0
	c-1.1,1.3,6.7,7.2,11.3,8.5c4.3,1.2,8.2,1.2,9.7,2.1c1.9,1.1,1.4,3.2-2.4,3.9c-2.5,0.5-3.6,0.8-8.3,0.2c-4.7-0.7-11.6-3.3-11.6-3.3
	s-0.5,1,2.7,2.1c1.6,0.6,6,2.8,13.3,3.1c1.1,0,2.5-0.2,3.3-0.2c0.6,0,1.3,0.1,0.6,1.5c-0.6,1.3-3.3,2.6-6.4,2.6
	c-3.1,0-2.4-0.2-6-0.7c-3.4-0.5-9.4-1.6-9.4-1.6s-0.3,0.9,4.4,2c6.3,1.5,13.9,2.3,10.7,4.6c-3.3,2.3-14.4-1-14.4-1l-10.2-3.4
	c0,0-4.1-1-5.8-0.2c-4,1.9-3.5,5.6-1.3,6.2c6.1,1.8,6.6,3,6.6,3s3.1-6.7,1.6-6.7c-3.4,0-4.4,6.9-4.9,9c-1.6,7.6-6.5,18-9.1,21.4
	c-2.5,3.3-8.5,6.3-13.3,5c-3.2-0.9-2.2-1.6-2.2-1.6s3.1,0.9,6.7-0.2c6.9-2.1,9.1-8.2,9.1-8.2s6.6-15.8,10.8-14
	c3.6,1.5-9.1,16.4-2.8,18.1c6.3,1.6,9.7,4.3,18.5,4.3s13.2-1.6,24.5-1.6c11.3,0,26.7,3.3,33,0.3c6.3-3,7.8-8.5,11.3-8.5
	c3.5,0,5.7,1.5,10,5.6c3.5,3.3,7.3,6.9,12.9,9.9c4.4,2.3,8.8,3.7,13.8,2c5-1.7,11.1-14.5,6.9-24.8c-2.5-6.2-22.6-39.9-22.6-39.9
	s-5-5.3-9.1-6.9c-4.6-1.9-6.9-1.2-9.7-1.1c-14.1,0.2-10.4,5.4-7.5,6.4c2.8,1,8,0.7,9.4,1c2.2,0.5-2.8,7.1-10,8.5
	c-6.2,1.3-8.1-0.1-10,2.3c-1.9,2.3-0.4,4.9,1.9,4.9s5.3,0.3,5.3,0.3s-5.6,0.3-7.2,1.3c-0.8,0.5-0.3,4.6,4.4,4.8
	c2.2,0.1,1.9,0.5,1.9,0.5s-0.9,3.9,4.7,3.6c6.9-0.3,13.2-1.6,17.4-2.5c2.5-0.5,3.3,8.7,5.5,17.9c1.2,5.1,6.9,18.2,5,16.4
	c-10.7-9.9-14.3-31.5-16.8-31.2c-2.5,0.3-4.4,0.3-5,1.6c-0.6,1.3-2,3.3-4.6,3.6c-6.7,0.9-8.5-4.3-8.5-4.3s-4.7-10.8-6-10.5
	c-1.3,0.3-3.9,0.7-8.6,0.7c-2.7,0-6.3-0.5-9.1-1.1c-1.8-0.4-6.2-0.9-6.7-1.8c-0.9-1.5,1.3-7.1,1.3-7.1s1.3-1.6,4.4-1.8
	c3.1-0.2,16.3-1.3,16.3,1.6c0,2.6-1.6,5.3-1.6,5.3s-0.7,1.5-1.9,2c-1.1,0.5-5.3,1.6-5.3,1.6s-6,1.8-11.6,1.8c-5.6,0-8.6-1.1-8.6-1.1
	s2.6,0.1,3-2.8c0.3-2.3,0.5-4.4-2.5-4.8c-1.2-0.1-5-1-8.2-1.6c-3.1-0.7-8.5-3.3-7.2-3.6c1.3-0.3,8.2-3,8.2-3s-0.9-4.6,0.9-4.9
	c0.3,0,10.4,0,10.4,0s1.3,3.6,0.6,5.9c-0.6,2.3-3.8,3-5.7,3c-1.9,0-3.5-1.6-3.5-3.3c0-1.6-5-10-5-10s-1.6-3.6,0.6-3.8
	c1.6-0.1,7.2-1,9.1,0c1.9,1,3.1,4.3,4.7,4.6c1.6,0.3,26.4,0.7,26.4,0.7s1.9-1.6,4.7-3.5c1.7-1.1,6.9-0.8,8.5-0.8
	c1.6,0,3.8,1.3,3.8,1.3s2.2-1,3.8-2c1.6-1,1.6,0.3,1.6-4.3c0-4.6,0.3-7.2,0.6-11.8c0.3-4.6,0.9-2.3,0.3-7.6
	c-0.6-5.3-1.1-3.2-1.6-10.2c-0.3-5.3,1.3-11.2-0.3-17.7c-1.4-6-2.5-8.8-2.5-11.2c0-1.6,0.9-6.6-3.8-9.9c-5.6-3.9-10-0.7-11-0.7
	s0.6-5.6,6.9-4.3c6.3,1.3,9.2,0,6-1.3c-4.7-2-6.3-2-9.1-2c-2.8,0-6.6,2.6-7.8,4.9c-2.4,4.5-1.4,6.1-7.8,7.6
	c-7.2,1.6-14.4,12.8-16.3,17.1c-1.9,4.3-3.5,9.5-4.1,14.8c-0.5,4.2-1.3,10.9-1.3,14.5c0,3.6-0.3,8.8-1.9,11.5
	c-3,5.2-5.3,6.6-10.4,7.3c-5,0.7-14.8-3.8-18.1-5.3c-2.3-1-6.1-2.6-10.2-1.8c-3.1,0.6-8.2,3.4-8.2,3.4s0.6-17.4,0.3-24
	c-0.3-6.6-1-16.9-2.8-20.8c-1.8-3.9-1.9-5-2.5-10.8c-0.6-5.6-4.1-15.8-6.3-21.2c-0.5-1.3-2.5-4.6-2.5-6.9v-2.3c0,0-1-3.1,0-4.9
	c0.9-1.7,2.5-2,4.1-1.3c1.6,0.7,2.2,0.2,2.2,0.2s1.2-2.2,3.5-1c1.3,0.7,2.2,1,2.2,1c2.5-1.3,3.8,1.6,3.8,1.6s2-1,2.8,1
	c1.3,3,2.8-0.8,4.1,3.3c0.7,2.3,0.6,1.4,1.6,6.3c0.9,4.9-0.3,9.4,0.3,12.7c0.6,3,1.2,5,2.2,9.3c0.6,2.6-0.3,6.1-2.2,7.5
	c-1.9,1.3-6.6,2.3-9.7-1.3c-4.2-4.9-2.6-12.2,3.1-12.2c3.1,0,7.8,1.9,8.2,7.9c0.2,4.3,0.9,5.9,0.3,9.9c-0.6,3.9-1.3,3.6,0.3,13.2
	c0.9,5.4,6.6,28.9,6.6,28.9s2.9,2.4,6.6,3.3c4.2,1,8.8,1.4,11.1-1c4.7-4.8,5.7-20.3,4.2-21c-0.6-0.3-1.1,10.7-3.6,15.5
	c-2.1,4.1-3,4.9-8,3.2c-5-1.6-5.3,3.7-7.1-2.3c-0.6-2.2-1.1-5.6,3-9.9c4.1-4.3,6-3.9,9.6-9.8c2.1-3.4,3.5-5.6-2.4,0.6
	c-3.8,4-6.6,5.2-8.6,7.3c-1.4,1.5-4.2,5.6-3.9,6.9c0.3,1.3-3-7.1,2.7-13.3c5.6-6.2,7.1-6.6,9.7-12.5c5.8-12.9,5.1-12.1,9.5-18
	c4.4-5.9,15.3-14,19.3-17.7c6.7-6.2,19.9-10.5,30.6-9.2c6.6,0.8,10.4,2.3,12.2,7.2c1.9,4.9-2.8,8.2-2.8,8.2s-3.9-7.8,2.8-3
	c8.8,6.2,1.8,30.6,0,34.8c-1.3,3-6,11.8-6,11.8s2.8-2,4.1,0.7c1.3,2.6-2,8.7-4.1,10.5c-3.5,3-5.3,3.3-6.3,3.3
	c-0.9,0-3.8-1.3-3.8-1.3s-2.7,2.9-7.2,5.6c-2.2,1.3-6.6,4.3-11,3.9c-1.9-0.1-6.5-2.2-9.7-3.6c-4.4-2-6-8.9-6-8.9l-2.5-9.9
	c0,0-5-3.3-1.3,6.9c3.1,8.4,4.6,10,8.8,14.1c4.7,4.6,11.8,5.3,13.8,5.3c3.5,0,11.3-2.6,15.1-4.6c3.8-2,13.5-8.5,16.6-17.4
	c1.2-3.3,2.5-8.9,3.8-13.8c1.3-4.9,2.2-12.2,1.9-17.4c-0.3-5.3,0-8.9,1.3-0.7c1.3,8.2-1.6,27.6,1.6,44.3c3.1,16.8,4.4,21,5,22"/>
	</g>
	</g>
	
	
		<line id="l1" class="st0" x1="462.4" y1="679.8" x2="637.5" y2="679.8"/>
<path id="l2" class="st0" d="M817,675c-2,0.6,48.4-0.2,48.4-0.2s26.4-0.9,47.3-7.6c13-4.1,45.7-19,47.6-42.7s-8.7-44.6-106.5-80.7
	c-26.8-9.9-76-20.9-110.2-28.5c-34.2-7.6,1.9-19.9,1.9-19.9l25.6-5.8"/>
<path id="l3" class="st0" d="M907,431.6c0.6,1,10.7,14.5,14.1,22c3.5,7.6,19.3,29.8,22,34s8,3.6,12.3,3.8c23.7,1,40.9,0,40.9,0
	s43.6-6.6,43.6-35.1c0-28.5-28.5-31.7-60.8-39.9c-32.3-8.2-60.8-13.3-60.8-31.3c0-11.8,3.3-23.5,31.3-40.8
	c32.3-19.9,119.7-26.6,108.3-54.1c-11.3-27.3-118.7-32.3-118.7-32.3s-91-3.2-92.6-3.2c-1.6,0-6.3-2.8-10-6"/>	
<path id="l4" class="st0" d="M555.3,306h-89.8c0,0-37.3-0.6-85.7,4.9c-41.5,4.7-60,19-70.4,39.9c-10.4,20.9,9.8,36.8,16.3,41.8
	c8.5,6.6,55.3,25.2,31.3,33.2c-17.1,5.7-28.4,1.1-35.1,6.6c-16,13.3,14.2,20.9,14.2,20.9l24.6,4.9"/>
	
	
	
	
</svg>
