<svg xmlns="http://www.w3.org/2000/svg" viewBox="0 0 28.47 33.13"><title>Apple</title><g id="Layer_2" data-name="Layer 2"><g id="Layer_1-2" data-name="Layer 1"><path d="M28.47,24.31a24,24,0,0,1-2.15,4c-1.4,2.13-3.37,4.78-5.81,4.8-2.17,0-2.73-1.42-5.67-1.39s-3.56,1.42-5.73,1.4c-2.44,0-4.31-2.41-5.7-4.54C-.5,22.64-.92,15.66,1.5,11.94a8.65,8.65,0,0,1,7-4.18c2.59,0,4.21,1.42,6.35,1.42s3.34-1.43,6.33-1.43a8.45,8.45,0,0,1,6.37,3.36A7.28,7.28,0,0,0,28.47,24.31ZM18.87,5.38A7.26,7.26,0,0,0,20.48,0a7.86,7.86,0,0,0-5.07,2.72A6.75,6.75,0,0,0,13.76,8,6.6,6.6,0,0,0,18.87,5.38Z"/></g></g></svg>