<svg xmlns="http://www.w3.org/2000/svg" viewBox="0 0 86 86"><defs><style>.cls-1{fill:#3be3ff;stroke:#1d1d1b;stroke-miterlimit:10;stroke-width:2.02px;}</style></defs><title>gameplay</title><g id="Layer_2" data-name="Layer 2"><g id="Layer_1-2" data-name="Layer 1"><path d="M0,5.24V55.59a5.25,5.25,0,0,0,5.24,5.24h4.2a1,1,0,0,0,0-2.1H5.24A3.15,3.15,0,0,1,2.1,55.59V5.24A3.15,3.15,0,0,1,5.24,2.1H80.76A3.15,3.15,0,0,1,83.9,5.24V55.59a3.15,3.15,0,0,1-3.15,3.15H51.39a1,1,0,0,0,0,2.1H80.76A5.25,5.25,0,0,0,86,55.59V5.24A5.25,5.25,0,0,0,80.76,0H5.24A5.25,5.25,0,0,0,0,5.24Z"/><path d="M18.88,55.59a1,1,0,0,0-1-1H10.49V6.29h65V54.54H51.39a1,1,0,0,0,0,2.1H76.56a1,1,0,0,0,1-1V5.24a1,1,0,0,0-1-1H9.44a1,1,0,0,0-1,1V55.59a1,1,0,0,0,1,1h8.39A1,1,0,0,0,18.88,55.59Z"/><path d="M80.76,25.17a1,1,0,0,0-1,1v8.39a1,1,0,0,0,2.1,0V26.22A1,1,0,0,0,80.76,25.17Z"/><path d="M56.41,65.35l-8.18,8.17V36.71a3.11,3.11,0,0,0-3.15-3.15h-4.2a3.11,3.11,0,0,0-3.15,3.15V50.52a3.13,3.13,0,0,0-1-.17h-4.2a3.15,3.15,0,0,0-3.15,3.15v1.23a3.11,3.11,0,0,0-1-.18h-4.2A3.15,3.15,0,0,0,21,57.68v1.23a3.11,3.11,0,0,0-1-.18h-4.2a3.15,3.15,0,0,0-3.15,3.15V72.37c0,8.54,2.12,12.87,2.21,13.05a1,1,0,0,0,1.88-.93s-2-4.13-2-12.12V61.88a1.05,1.05,0,0,1,1-1h4.2a1.05,1.05,0,0,1,1,1V72.37a1,1,0,1,0,2.1,0V57.68a1.05,1.05,0,0,1,1-1h4.2a1.05,1.05,0,0,1,1,1V68.17a1,1,0,1,0,2.1,0V53.49a1.05,1.05,0,0,1,1-1h4.2a1,1,0,0,1,1,.87V68.17a1,1,0,1,0,2.1,0V36.71a1,1,0,0,1,1-1h4.2a1,1,0,0,1,1,1V76.06a1,1,0,0,0,1,1,1.06,1.06,0,0,0,.74-.31l10-10a1,1,0,0,1,1.48,0l3,3a1,1,0,0,1,0,1.48L49.41,84.21a1,1,0,0,0,1.48,1.48L63.82,72.77a3.11,3.11,0,0,0,0-4.45l-3-3A3.11,3.11,0,0,0,56.41,65.35Z"/><path class="cls-1" d="M42.16,17.13a15.28,15.28,0,0,0-3.53,30.16V36.81a2.54,2.54,0,0,1,2.54-2.54h3.32A2.54,2.54,0,0,1,47,36.81v10.1a15.28,15.28,0,0,0-4.87-29.77Z"/></g></g></svg>