<svg xmlns="http://www.w3.org/2000/svg" viewBox="0 0 108.3 107.88"><defs><style>.cls-1{fill:#3be3ff;}.cls-2,.cls-3,.cls-4,.cls-5{fill:none;}.cls-2,.cls-3,.cls-4{stroke:#333;}.cls-2,.cls-4,.cls-5{stroke-linecap:round;stroke-linejoin:round;}.cls-2,.cls-3{stroke-width:1.04px;}.cls-3{stroke-miterlimit:10;}.cls-4,.cls-5{stroke-width:2.08px;}.cls-5{stroke:#fff;}</style></defs><title>gifts</title><g id="Layer_2" data-name="Layer 2"><g id="Layer_1-2" data-name="Layer 1"><g id="_Group_" data-name="&lt;Group&gt;"><circle id="_Path_" data-name="&lt;Path&gt;" class="cls-1" cx="72.62" cy="10.37" r="3.94"/><circle id="_Path_2" data-name="&lt;Path&gt;" class="cls-1" cx="87.4" cy="15.05" r="2.7"/><circle id="_Path_3" data-name="&lt;Path&gt;" class="cls-1" cx="10.59" cy="51.68" r="2.7"/><circle id="_Path_4" data-name="&lt;Path&gt;" class="cls-1" cx="57.53" cy="15.65" r="4.49"/><path id="_Path_5" data-name="&lt;Path&gt;" class="cls-2" d="M73.41,9.06a4.57,4.57,0,1,1,2.3-4"/><path id="_Path_6" data-name="&lt;Path&gt;" class="cls-3" d="M43.25,10.7c0-.62-2.89-1.13-6.66-1.22-.09-3.77-.6-6.66-1.22-6.66s-1.13,2.89-1.22,6.66c-3.77.09-6.66.6-6.66,1.22s2.89,1.13,6.66,1.22c.09,3.77.6,6.66,1.22,6.66s1.13-2.89,1.22-6.66C40.36,11.83,43.25,11.32,43.25,10.7Z"/><g id="_Group_2" data-name="&lt;Group&gt;"><path id="_Path_7" data-name="&lt;Path&gt;" class="cls-1" d="M44.2,40.53a7,7,0,0,1,2-8.23c2.44-2.06,8.4-2.2,11.46-1,0,0-9.38-10-19.61-3.83,0,0-7.52,5.46-1,13Z"/><path id="_Path_8" data-name="&lt;Path&gt;" class="cls-1" d="M85.15,39.62a7.2,7.2,0,0,0-1.93-8.23c-2.36-2.06-8.14-2.2-11.1-1,0,0,9.09-10,19-3.83,0,0,7.29,5.46,1,13Z"/><rect id="_Rectangle_" data-name="&lt;Rectangle&gt;" class="cls-1" x="56.18" y="40.38" width="11.84" height="67.5"/><g id="_Group_3" data-name="&lt;Group&gt;"><rect id="_Path_9" data-name="&lt;Path&gt;" class="cls-4" x="32.86" y="61.58" width="23.32" height="43.88"/><rect id="_Path_10" data-name="&lt;Path&gt;" class="cls-4" x="68.02" y="61.58" width="23.32" height="43.88"/><rect id="_Rectangle_2" data-name="&lt;Rectangle&gt;" class="cls-4" x="28.62" y="40.38" width="27.56" height="21.2"/><rect id="_Rectangle_3" data-name="&lt;Rectangle&gt;" class="cls-4" x="68.02" y="40.38" width="27.56" height="21.2"/><rect id="_Rectangle_4" data-name="&lt;Rectangle&gt;" class="cls-4" x="56.18" y="40.38" width="11.84" height="65.08"/><g id="_Group_4" data-name="&lt;Group&gt;"><path id="_Path_11" data-name="&lt;Path&gt;" class="cls-4" d="M62.1,39.51a62.74,62.74,0,0,0-6-8.39,21.66,21.66,0,0,0-8.33-6.06,13.53,13.53,0,0,0-10.24.05,9.17,9.17,0,0,0-5.55,8,10.19,10.19,0,0,0,3.33,7"/><path id="_Path_12" data-name="&lt;Path&gt;" class="cls-4" d="M55.23,30.13c-3.06-1.25-9-1.11-11.46,1a7,7,0,0,0-2,8.23"/></g><g id="_Group_5" data-name="&lt;Group&gt;"><path id="_Path_13" data-name="&lt;Path&gt;" class="cls-4" d="M62.1,39.51a62.74,62.74,0,0,1,6-8.39,21.66,21.66,0,0,1,8.33-6.06,13.53,13.53,0,0,1,10.24.05,9.17,9.17,0,0,1,5.55,8,10.19,10.19,0,0,1-3.33,7"/><path id="_Path_14" data-name="&lt;Path&gt;" class="cls-4" d="M69,30.13c3.06-1.25,9-1.11,11.46,1a7,7,0,0,1,2,8.23"/></g></g><g id="_Group_6" data-name="&lt;Group&gt;"><line id="_Path_15" data-name="&lt;Path&gt;" class="cls-5" x1="90.46" y1="46.21" x2="89.63" y2="46.21"/><line id="_Path_16" data-name="&lt;Path&gt;" class="cls-5" x1="84.36" y1="46.21" x2="78.86" y2="46.21"/></g></g><path id="_Path_17" data-name="&lt;Path&gt;" class="cls-1" d="M12.63,28c0-.5-2.32-.9-5.34-1-.07-3-.48-5.34-1-5.34S5.41,24,5.34,27c-3,.07-5.34.48-5.34,1s2.32.9,5.34,1c.07,3,.48,5.34,1,5.34s.9-2.32,1-5.34C10.31,28.87,12.63,28.47,12.63,28Z"/><path id="_Path_18" data-name="&lt;Path&gt;" class="cls-1" d="M108.3,23.27c0-.5-2.32-.9-5.34-1-.07-3-.48-5.34-1-5.34s-.9,2.32-1,5.34c-3,.07-5.34.48-5.34,1s2.32.9,5.34,1c.07,3,.48,5.34,1,5.34s.9-2.32,1-5.34C106,24.17,108.3,23.76,108.3,23.27Z"/></g></g></g></svg>