<svg xmlns="http://www.w3.org/2000/svg" viewBox="0 0 81 97.09"><defs><style>.cls-1{fill:#3be3ff;}.cls-2{fill:#333;}</style></defs><title>leaderboard</title><g id="Layer_2" data-name="Layer 2"><g id="Layer_1-2" data-name="Layer 1"><polygon class="cls-1" points="60.7 8.56 60.7 24.63 53.09 32.24 54.78 33.09 79.31 32.24 71.7 21.25 79.31 9.41 60.7 8.56"/><polygon class="cls-1" points="52.24 31.4 52.24 24.63 60.7 24.63 52.24 31.4"/><path class="cls-2" d="M80,61.12H65.2V54.21a1,1,0,0,0-1-1H41.49V25.68h9.88V32.6a1,1,0,0,0,1,1H80A1,1,0,0,0,80.81,32L72.54,20.74,80.81,9.47A1,1,0,0,0,80,7.9H61.24V1a1,1,0,0,0-1-1H40.5a1,1,0,0,0-1,1V53.22H16.79a1,1,0,0,0-1,1v6.91H1a1,1,0,0,0-1,1V70a1,1,0,0,0,1,1H80a1,1,0,0,0,1-1v-7.9A1,1,0,0,0,80,61.12ZM61,25.39l0,0a1,1,0,0,0,.25-.65V9.88H78.06L70.52,20.16a1,1,0,0,0,0,1.17l7.54,10.28H54.74Zm-7.61,4.82V25.68h4.53ZM41.49,2H59.27V23.71H41.49ZM17.78,55.2H63.22v5.93H17.78ZM79,69H2V63.1H79Z"/><circle class="cls-1" cx="14.93" cy="86.6" r="5.66"/><path d="M14.93,97.09A10.46,10.46,0,1,1,25.39,86.63,10.47,10.47,0,0,1,14.93,97.09Zm0-19.06a8.59,8.59,0,1,0,8.59,8.59A8.6,8.6,0,0,0,14.93,78Z"/><polygon points="15.86 90.27 13.99 90.27 13.99 84.14 12.82 84.95 11.76 83.41 15.86 80.57 15.86 90.27"/><circle class="cls-1" cx="40.55" cy="86" r="5.66"/><path d="M40.55,96.5A10.46,10.46,0,1,1,51,86,10.47,10.47,0,0,1,40.55,96.5Zm0-19.06A8.59,8.59,0,1,0,49.14,86,8.6,8.6,0,0,0,40.55,77.44Z"/><path d="M36.5,89.4l4-4.75a4.53,4.53,0,0,0,.61-.89,1.79,1.79,0,0,0,.21-.8,1.33,1.33,0,0,0-.38-1,1.34,1.34,0,0,0-1-.38,1.38,1.38,0,0,0-1.11.47,1.87,1.87,0,0,0-.38,1.18H36.59A3.15,3.15,0,0,1,37.47,81a3.36,3.36,0,0,1,2.45-.88,3.59,3.59,0,0,1,2.43.78A2.56,2.56,0,0,1,43.24,83,2.85,2.85,0,0,1,43,84.18a5.67,5.67,0,0,1-1,1.35L39.94,87.8h3.21V89.4Z"/><circle class="cls-1" cx="66.54" cy="86.2" r="5.66"/><path d="M66.54,96.69A10.46,10.46,0,1,1,77,86.23,10.47,10.47,0,0,1,66.54,96.69Zm0-19.06a8.59,8.59,0,1,0,8.59,8.59A8.6,8.6,0,0,0,66.54,77.64Z"/><path d="M66.37,91.62a4.42,4.42,0,0,1-3.09-1,3.56,3.56,0,0,1-1.12-2.68h2.49a1.89,1.89,0,0,0,.43,1.28,1.61,1.61,0,0,0,1.25.48,1.81,1.81,0,0,0,1.31-.45,1.71,1.71,0,0,0,.47-1.28,1.77,1.77,0,0,0-.5-1.38,22.5,22.5,0,0,0-2.35-1.27,17.12,17.12,0,0,0,2.07-1,1.49,1.49,0,0,0,.53-1.22A1.38,1.38,0,0,0,67.39,82a1.57,1.57,0,0,0-1.1-.4,1.54,1.54,0,0,0-1.12.4,1.44,1.44,0,0,0-.41.86H62.4a2.87,2.87,0,0,1,1.05-2.12,4.64,4.64,0,0,1,3-.86,4.24,4.24,0,0,1,2.68.76,2.42,2.42,0,0,1,.94,2,3,3,0,0,1-1.65,2.66,2.48,2.48,0,0,1,1.56.87A2.77,2.77,0,0,1,70.52,88a3.26,3.26,0,0,1-1.13,2.6A4.42,4.42,0,0,1,66.37,91.62Z"/></g></g></svg>