<svg xmlns="http://www.w3.org/2000/svg" viewBox="0 0 77 96.72"><defs><style>.cls-1{fill:#3be3ff;}.cls-2{fill:none;stroke:#000;stroke-miterlimit:10;stroke-width:2.66px;}</style></defs><title>SocialShare</title><g id="Layer_2" data-name="Layer 2"><g id="Layer_1-2" data-name="Layer 1"><circle class="cls-1" cx="55.28" cy="28.41" r="2.32"/><polygon class="cls-1" points="41.46 22.28 37.83 20.52 34.32 22.51 34.88 18.51 31.9 15.79 35.87 15.09 37.54 11.41 39.44 14.97 43.45 15.43 40.65 18.33 41.46 22.28"/><path d="M57.9,50.58H17.79A.78.78,0,0,1,17,49.8a5.24,5.24,0,0,1,5.24-5.24H53.44a5.24,5.24,0,0,1,5.24,5.17s0,0,0,.06A.78.78,0,0,1,57.9,50.58ZM18.65,49H57a3.68,3.68,0,0,0-3.59-2.9H22.24A3.68,3.68,0,0,0,18.65,49Z"/><path d="M50.1,46.12H25.59a.78.78,0,0,1-.78-.78A5.24,5.24,0,0,1,30,40.11a1.45,1.45,0,0,0,1.45-1.45V36.43a.78.78,0,0,1,.78-.78H43.41a.78.78,0,0,1,.78.78v2.23a1.45,1.45,0,0,0,1.45,1.45,5.24,5.24,0,0,1,5.24,5.24A.78.78,0,0,1,50.1,46.12ZM26.45,44.56H49.23a3.68,3.68,0,0,0-3.59-2.9,3,3,0,0,1-3-3V37.21H33v1.45a3,3,0,0,1-3,3A3.68,3.68,0,0,0,26.45,44.56Z"/><path d="M43.41,37.21H32.27a3,3,0,1,1,0-6H43.41a3,3,0,0,1,0,6ZM32.27,32.75a1.45,1.45,0,1,0,0,2.9H43.41a1.45,1.45,0,0,0,0-2.9Z"/><path d="M37.84,32.75a12.16,12.16,0,0,1-12-10.63v0L23.7.86A.78.78,0,0,1,24.47,0H51.21A.78.78,0,0,1,52,.86L49.89,22.1v0A12.16,12.16,0,0,1,37.84,32.75ZM27.34,21.94a10.58,10.58,0,0,0,21,0l2-20.38h-25Z"/><path d="M26.7,23.84a.78.78,0,0,1-.21,0A13.47,13.47,0,0,1,16.9,12.94l-1-6.47a.78.78,0,0,1,.77-.9h7.8a.78.78,0,0,1,0,1.56H17.58l.86,5.57a11.91,11.91,0,0,0,8.48,9.61.78.78,0,0,1-.21,1.53Z"/><path d="M49,23.84a.78.78,0,0,1-.21-1.53,11.91,11.91,0,0,0,8.48-9.61l.86-5.57H33.38a.78.78,0,0,1,0-1.56H59a.78.78,0,0,1,.77.9l-1,6.47A13.47,13.47,0,0,1,49.2,23.81.78.78,0,0,1,49,23.84Z"/><path d="M18.34,38.32a2.45,2.45,0,1,1,2.45-2.45A2.45,2.45,0,0,1,18.34,38.32Zm0-3.34a.89.89,0,1,0,.89.89A.89.89,0,0,0,18.34,35Z"/><path d="M58.45,43.9a2.45,2.45,0,1,1,2.45-2.45A2.45,2.45,0,0,1,58.45,43.9Zm0-3.34a.89.89,0,1,0,.89.89A.89.89,0,0,0,58.45,40.55Z"/><path d="M55.11,31.64a3.57,3.57,0,1,1,3.57-3.57A3.57,3.57,0,0,1,55.11,31.64Zm0-5.57a2,2,0,1,0,2,2A2,2,0,0,0,55.11,26.07Z"/><path d="M42,24a.78.78,0,0,1-.46-.15l-3.68-2.68-3.68,2.68A.78.78,0,0,1,33,23l1.41-4.33-3.68-2.68a.78.78,0,0,1,.46-1.41h4.55L37.1,10.2a.78.78,0,0,1,1.48,0L40,14.53h4.55A.78.78,0,0,1,45,15.94l-3.68,2.68L42.72,23A.78.78,0,0,1,42,24ZM37.84,19.4a.78.78,0,0,1,.46.15l2.2,1.6-.84-2.59a.78.78,0,0,1,.28-.87l2.2-1.6H39.42a.78.78,0,0,1-.74-.54L37.84,13,37,15.55a.78.78,0,0,1-.74.54H33.54l2.2,1.6a.78.78,0,0,1,.28.87l-.84,2.59,2.2-1.6A.78.78,0,0,1,37.84,19.4Z"/><path d="M30,7.13a.78.78,0,1,1,.55-.23A.79.79,0,0,1,30,7.13Z"/><path d="M57.89,11.59H51.21a.78.78,0,0,1,0-1.56h6.68a.78.78,0,1,1,0,1.56Z"/><path d="M24.47,11.59H17.79a.78.78,0,1,1,0-1.56h6.68a.78.78,0,0,1,0,1.56Z"/><path d="M45.64,41.67h-7.8a.78.78,0,0,1,0-1.56h7.8a.78.78,0,0,1,0,1.56Z"/><path d="M11.51,83.85a11.5,11.5,0,0,0,8.61-19.13l-.06-.06h0l7.74-7.74H23.72l-5.85,5.85h0l-.2-.15a11.5,11.5,0,1,0-6.17,21.21Zm0-22.17a10.61,10.61,0,0,1,5.71,1.67,10.65,10.65,0,1,1-5.71-1.67Z"/><path d="M40.1,73.83l-.16,0V56.94H37.06V73.81l-.16,0a11.51,11.51,0,1,0,3.2,0Zm-1.6-.12.69,0-.69,0-.69,0Zm0,22.17A10.65,10.65,0,0,1,37,74.67a9.47,9.47,0,0,1,3,0,10.65,10.65,0,0,1-1.48,21.2Z"/><path d="M65.49,82a9.63,9.63,0,1,0-9.64-9.64A9.65,9.65,0,0,0,65.49,82Z"/><circle class="cls-1" cx="65.49" cy="70.07" r="3.25"/><path class="cls-1" d="M69,77.88h-7.1a.88.88,0,0,1-.88-.88s.19-1.82.22-2.43a.9.9,0,0,1,.88-.88h6.65a.9.9,0,0,1,.88.88c0,.61.22,2.43.22,2.43A.88.88,0,0,1,69,77.88Z"/><path d="M11.51,82a9.64,9.64,0,1,0-9.64-9.64A9.65,9.65,0,0,0,11.51,82Z"/><circle class="cls-1" cx="11.43" cy="70.07" r="3.25"/><path class="cls-1" d="M15,77.88H7.88A.88.88,0,0,1,7,77s.19-1.82.22-2.43a.9.9,0,0,1,.88-.88h6.65a.9.9,0,0,1,.88.88c0,.61.22,2.43.22,2.43A.88.88,0,0,1,15,77.88Z"/><path d="M39.84,75.68a8.41,8.41,0,0,0-2.68,0,9.64,9.64,0,1,0,2.68,0Z"/><circle class="cls-1" cx="38.5" cy="82.93" r="3.25"/><path class="cls-1" d="M34.29,87.44a.9.9,0,0,1,.88-.88h6.66a.9.9,0,0,1,.88.88c0,.61.22,2.43.22,2.43a.88.88,0,0,1-.88.88H35a.88.88,0,0,1-.88-.88S34.26,88,34.29,87.44Z"/><path d="M53.28,56.94H49.2l7.74,7.74,0,0-.07.07a11.52,11.52,0,1,0,2.44-2.08l-.2.15h0Zm6.51,6.42a10.69,10.69,0,1,1-2.26,1.93A10.78,10.78,0,0,1,59.79,63.35Z"/><rect x="23.87" y="56.97" width="29.26" height="3.55"/><line class="cls-2" x1="38.5" y1="57.86" x2="38.5" y2="50.76"/></g></g></svg>