<svg xmlns="http://www.w3.org/2000/svg" width="14.789" height="14.787" viewBox="0 0 14.789 14.787">
  <g id="Group_984" data-name="Group 984" transform="translate(-321.658 -2265.753)">
    <path id="Icon_ionic-ios-call" data-name="Icon ionic-ios-call" d="M18.851,16.081a12.421,12.421,0,0,0-2.595-1.736c-.778-.373-1.063-.366-1.613.031-.458.331-.755.639-1.282.524a7.648,7.648,0,0,1-2.576-1.906A7.593,7.593,0,0,1,8.88,10.418c-.112-.531.2-.824.524-1.282.4-.551.408-.835.031-1.613A12.176,12.176,0,0,0,7.7,4.928c-.566-.566-.693-.443-1-.331a5.718,5.718,0,0,0-.92.489,2.776,2.776,0,0,0-1.1,1.166c-.219.474-.474,1.355.82,3.657A20.407,20.407,0,0,0,9.077,14.7h0l0,0,0,0h0a20.487,20.487,0,0,0,4.785,3.588c2.3,1.294,3.184,1.039,3.657.82a2.728,2.728,0,0,0,1.166-1.1,5.718,5.718,0,0,0,.489-.92C19.294,16.774,19.421,16.647,18.851,16.081Z" transform="translate(317.169 2261.251)" fill="#0090ff"/>
  </g>
</svg>
