<svg xmlns="http://www.w3.org/2000/svg" width="22" height="22" viewBox="0 0 22 22">
  <g id="Group_983" data-name="Group 983" transform="translate(-316 -2260)">
    <circle id="Ellipse_94" data-name="Ellipse 94" cx="11" cy="11" r="11" transform="translate(316 2260)" fill="#0090ff"/>
    <path id="Icon_ionic-ios-call" data-name="Icon ionic-ios-call" d="M15.07,13.032a9.151,9.151,0,0,0-1.912-1.279c-.573-.275-.783-.269-1.188.023-.337.244-.556.471-.944.386a5.634,5.634,0,0,1-1.9-1.4,5.593,5.593,0,0,1-1.4-1.9c-.082-.391.145-.607.386-.944.292-.406.3-.615.023-1.188A8.97,8.97,0,0,0,6.854,4.816c-.417-.417-.51-.326-.74-.244a4.212,4.212,0,0,0-.678.36,2.045,2.045,0,0,0-.814.859c-.162.349-.349,1,.6,2.694a15.034,15.034,0,0,0,2.643,3.525h0l0,0,0,0h0A15.093,15.093,0,0,0,11.4,14.66c1.7.953,2.345.766,2.694.6a2.01,2.01,0,0,0,.859-.814,4.212,4.212,0,0,0,.36-.678C15.4,13.543,15.49,13.449,15.07,13.032Z" transform="translate(317.169 2261.251)" fill="#fff"/>
  </g>
</svg>
