<svg xmlns="http://www.w3.org/2000/svg" width="369.948" height="250.4" viewBox="0 0 369.948 250.4"><g transform="translate(14 -33.6)"><g transform="translate(-14 33.6)"><path d="M240.669,424.507s-49.945-67.219-25.536-136.421c15.91-45.107,75.594-69.824,109.276-45.107,14.346,10.527,54.492-3.487,84.945-43.228,50.5-65.906,208.533,7.321,159.791,139.109-22.271,60.216,15.817,52.505,6.267,86.677Z" transform="translate(-208.414 -175.137)" fill="#50b748" opacity="0.14"/><g transform="translate(262.872 56.485)"><g transform="translate(0)"><rect width="6.447" height="178.713" transform="translate(0.331 14.558)" fill="#ccddfc"/><rect width="47.692" height="4.137" transform="translate(0 14.389)" fill="#ccddfc"/><g transform="translate(39.592)"><rect width="1.477" height="10.01" transform="translate(3.257 4.379)" fill="#ccddfc"/><path d="M2196.8,583.571c0-.506,1.813-.917,4.05-.917s4.05.411,4.05.917-1.813.917-4.05.917S2196.8,584.078,2196.8,583.571Z" transform="translate(-2196.799 -577.15)" fill="#ccddfc"/><path d="M2196.8,571.51c0-.507,1.813-.917,4.05-.917s4.05.411,4.05.917-1.813.917-4.05.917S2196.8,572.017,2196.8,571.51Z" transform="translate(-2196.799 -566.924)" fill="#ccddfc"/><path d="M2196.8,559.449c0-.507,1.813-.917,4.05-.917s4.05.411,4.05.917-1.813.917-4.05.917S2196.8,559.956,2196.8,559.449Z" transform="translate(-2196.799 -556.697)" fill="#ccddfc"/><path d="M2196.8,547.387c0-.507,1.813-.917,4.05-.917s4.05.411,4.05.917-1.813.917-4.05.917S2196.8,547.894,2196.8,547.387Z" transform="translate(-2196.799 -546.47)" fill="#ccddfc"/><rect width="4.914" height="6.243" transform="translate(1.539 0.504)" fill="#ccddfc"/></g></g></g><g transform="translate(139.171 15.068)"><path d="M1200.33,633.832c-.274-1.078-.429-1.181-.429-1.181s-10.721.6-11.73.611-14.766-3.7-14.766-3.7l-7.073,7.555s19.355,1.921,21.909,1.84c4.22-.134,12.069-3.557,12.069-3.557A3.087,3.087,0,0,0,1200.33,633.832Z" transform="translate(-1159.789 -575.502)" fill="#77a4e5"/><path d="M1368.909,1062.955s-.2,4.327.673,4.7,10.958-.325,10.958-.325-.07-1.263-1.824-1.448a8.242,8.242,0,0,1-5.508-3.308C1371.358,1059.857,1368.909,1062.955,1368.909,1062.955Z" transform="translate(-1331.534 -941.704)" fill="#2c3a64"/><path d="M1167.514,822.592s14.1,12.137,15.915,16.054,7.413,21.569,7.413,21.569a10.939,10.939,0,0,1-4.692,1.1,4.716,4.716,0,0,1-2.394-.5s-8.166-16.017-8.88-17.562-18.867-7.566-23.854-16.691Z" transform="translate(-1146.808 -739.173)" fill="#1d3f77"/><g transform="translate(38.715 0)"><rect width="8.311" height="216.488" transform="translate(0.31 17.946)" fill="#adc8fe"/><rect width="58.274" height="5.453" transform="translate(0 17.454)" fill="#adc8fe"/><g transform="translate(48.445)"><rect width="1.793" height="12.142" transform="translate(3.953 5.312)" fill="#adc8fe"/><path d="M1696.3,319.2c0-.615,2.2-1.113,4.915-1.113s4.915.5,4.915,1.113-2.2,1.113-4.915,1.113S1696.3,319.815,1696.3,319.2Z" transform="translate(-1696.299 -311.412)" fill="#adc8fe"/><path d="M1696.3,304.571c0-.615,2.2-1.113,4.915-1.113s4.915.5,4.915,1.113-2.2,1.113-4.915,1.113S1696.3,305.185,1696.3,304.571Z" transform="translate(-1696.299 -299.007)" fill="#adc8fe"/><path d="M1696.3,289.94c0-.615,2.2-1.113,4.915-1.113s4.915.5,4.915,1.113-2.2,1.113-4.915,1.113S1696.3,290.554,1696.3,289.94Z" transform="translate(-1696.299 -286.602)" fill="#adc8fe"/><path d="M1696.3,275.31c0-.615,2.2-1.113,4.915-1.113s4.915.5,4.915,1.113-2.2,1.113-4.915,1.113S1696.3,275.924,1696.3,275.31Z" transform="translate(-1696.299 -274.197)" fill="#adc8fe"/><rect width="5.963" height="7.572" transform="translate(1.868 0.611)" fill="#adc8fe"/></g></g><rect width="22.23" height="27.231" transform="translate(32.128 34.6)" fill="#2a4e96"/><g transform="translate(19.456 80.661)"><path d="M1253.686,804.591a.848.848,0,0,0-.249-.066l-.575-.062a.9.9,0,0,0-.784.314l-.862,1.021,1.2,1.674,1.384-.88a.827.827,0,0,0,.38-.609.559.559,0,0,0,.008-.1v-.53A.833.833,0,0,0,1253.686,804.591Zm-.091,1.682-1.078.687-.821-1.142.672-.8a.52.52,0,0,1,.452-.18l.577.062a.458.458,0,0,1,.41.456v.53a.419.419,0,0,1-.042.187A.433.433,0,0,1,1253.6,806.273Z" transform="translate(-1251.216 -804.457)" fill="#1d3f77"/></g><path d="M1288.04,751.581V753.6s-21.174,6.623-24.916,7.553c-.179.044-.317.076-.412.093l0,0a.418.418,0,0,0,.042-.187v-.53a.458.458,0,0,0-.41-.456l-.577-.062.866-.248C1266.635,758.6,1283.365,753.741,1288.04,751.581Z" transform="translate(-1240.704 -678.964)" fill="#f99746"/><path d="M1324.88,1087.667s-.911,4.235-.117,4.748,10.862,1.484,10.862,1.484.14-1.257-1.559-1.728a8.23,8.23,0,0,1-4.883-4.17C1327.81,1085.016,1324.88,1087.667,1324.88,1087.667Z" transform="translate(-1293.844 -963.005)" fill="#2c3a64"/><path d="M1169.73,576.617s4.79,5.386,8.4,4.707c0,0-.987-1.15-2.086-2.178-.328-.307-.23-1.032-.111-1.464q.1-.365.182-.69a21.453,21.453,0,0,0,.46-2.229l-2.432-2.48-1.65-1.683a7.389,7.389,0,0,1-.424,2.207A13.883,13.883,0,0,1,1169.73,576.617Z" transform="translate(-1162.67 -525.512)" fill="#ffb27d"/><path d="M1185.1,582.186a6.77,6.77,0,0,0,4.046,4.185,21.461,21.461,0,0,0,.46-2.229l-2.431-2.48A6.958,6.958,0,0,0,1185.1,582.186Z" transform="translate(-1175.704 -534.892)" fill="#ed975d"/><path d="M1187.644,543.653s-5.859.267-5.97-3.37-.941-6.053,2.8-6.377,4.506,1.042,4.839,2.247S1189.165,543.49,1187.644,543.653Z" transform="translate(-1172.665 -494.359)" fill="#ffb27d"/><path d="M1142.67,628.875c-.022-.36-.039-.725-.052-1.1a32.992,32.992,0,0,0-.663-5.56,25.2,25.2,0,0,0-1.1-3.838,12.2,12.2,0,0,0-2.38-3.98c-.007-.008-1.576-1.608-1.584-1.613-3.775.391-6.519-2.624-6.519-2.624s-9.022,7.794-6.669,24.561c0,0,.226,1.212.625,2.956.087.378.182.782.285,1.205C1125.311,641.755,1142.957,633.679,1142.67,628.875Z" transform="translate(-1123.316 -559.057)" fill="#afcdfb"/><path d="M1158.391,521.9c-.065-.053-.2-.082-.482-.048a1.14,1.14,0,0,1,.495-.241,1.439,1.439,0,0,1,.708-1.421.857.857,0,0,0-.3.683c.63-.941,2.182-1.819,6.836-2.265,6.133-.588,4.839,3.682,4.139,4.288s-2.9-.326-4.336.05-1.335,2.557-1.777,2.937-.34-.172-1.064-.359-.588.946-.264,1.641-.425,1.821-.425,1.821l-1.11-.848c-1.11-.848-2.752-4.983-2.492-5.972C1158.345,522.081,1158.367,521.993,1158.391,521.9Z" transform="translate(-1152.647 -481.386)" fill="#2b478b"/><path d="M1148,706.31s2.532,8.517,5.4,9.9,2.7-5.913,2.7-5.913Z" transform="translate(-1144.242 -640.579)" fill="#77a4e5"/><path d="M1151.668,691.18c-4.549-2.017-3.045-11.7-3.333-16.5-.022-.36-.039-.726-.052-1.1a32.993,32.993,0,0,0-.662-5.56,25.2,25.2,0,0,0-1.1-3.838l-6.289,1.022a2.418,2.418,0,0,0-2.033,2.474c.114,3.127-.171,8.93-3.479,11.891a58.764,58.764,0,0,1-4.727,3.914c.087.378.182.782.285,1.205.694,2.871,1.468,6.525,3.119,8.616C1134.674,694.915,1152.153,691.4,1151.668,691.18Z" transform="translate(-1128.981 -604.859)" fill="#2a4e96"/><path d="M1162.162,614.186s1.735.65,4,3.644a17.173,17.173,0,0,1,2.638,4.98l-1.043.232a15.561,15.561,0,0,0-6.229-8.141S1161.544,614.8,1162.162,614.186Z" transform="translate(-1155.719 -562.468)" fill="#2a4e96"/><path d="M1345.357,619.3a28.969,28.969,0,0,1,1.372-2.8,9.048,9.048,0,0,1,1.929-1.442c.113.058.156.506-.118.766-.194.185-.422.353-.3.371s.66-.835,1.088-.554,1.438,1.528.789,2.508-3.123,2.021-3.255,2.169C1345.741,621.577,1345.357,619.3,1345.357,619.3Z" transform="translate(-1311.581 -563.206)" fill="#ffb27d"/><path d="M1170.235,642.976s-11.314,10-12.384,10.119c-1.708.188-11.247-8.489-11.247-8.489a3.193,3.193,0,0,0-4.061-1.1c-2.431.923-3.49,3.841-3.49,3.841s-.823,2.876.605,4.594c3.164,3.808,15.246,7.638,18.849,7.179,4.647-.592,13.255-13.241,13.255-13.241a2.129,2.129,0,0,0-.025-1.886A3.573,3.573,0,0,0,1170.235,642.976Z" transform="translate(-1136.459 -586.879)" fill="#afcdfb"/><path d="M1175.628,856.461a10.949,10.949,0,0,1-4.81.316,4.713,4.713,0,0,1-2.278-.883s-.488-1.551-1.183-3.764c-.106-.342-.218-.7-.336-1.068-.152-.484-.309-.991-.473-1.511q-.165-.528-.334-1.071c-1.521-4.856-3.27-10.462-3.517-11.367-.448-1.642-17.351-10.57-20.754-20.391l16.861-3.388s11.955,16.474,13.094,20.635c.608,2.221,1.629,8.48,2.449,13.831q.083.53.16,1.046c.08.524.156,1.035.231,1.526.053.359.1.708.156,1.044C1175.332,854.359,1175.628,856.461,1175.628,856.461Z" transform="translate(-1139.109 -731.322)" fill="#2a4e96"/><path d="M1163.938,813.337a33.032,33.032,0,0,1-15.941,5.99,6.991,6.991,0,0,0,2.516,3.148s10.143-1.531,14.436-7.73Z" transform="translate(-1144.242 -731.326)" fill="#f99746"/><g transform="translate(27.689 128.638)"><path d="M1319.436,1122.587a.461.461,0,0,1-.062,0l-13.616-1.782a.473.473,0,1,1,.124-.938l13.51,1.768,5.454-1.749a.473.473,0,1,1,.291.9l-5.556,1.782A.477.477,0,0,1,1319.436,1122.587Z" transform="translate(-1305.345 -1119.859)" fill="#19243f"/></g><g transform="translate(27.104 116.477)"><path d="M1309.79,1040.958a22.447,22.447,0,0,1-6.044.766c-.8,0-1.46-.034-1.916-.062q-.165-.528-.334-1.071c.04,0,.086.006.139.01a23.684,23.684,0,0,0,8-.689C1309.686,1040.266,1309.739,1040.614,1309.79,1040.958Z" transform="translate(-1301.496 -1039.912)" fill="#fff"/></g><g transform="translate(27.911 119.05)"><path d="M1314.675,1057.868a22.444,22.444,0,0,1-5.991.753c-.6,0-1.128-.019-1.547-.04q-.16-.514-.336-1.069a23.424,23.424,0,0,0,7.719-.688C1314.573,1057.183,1314.624,1057.531,1314.675,1057.868Z" transform="translate(-1306.801 -1056.824)" fill="#fff"/></g><rect width="17.124" height="27.231" transform="translate(37.233 34.6)" fill="#233862"/></g><g transform="translate(322.117 115.017)"><g transform="translate(0 0)"><rect width="4.781" height="125.534" transform="translate(0.069 9.849)" fill="#d8e6fb"/><rect width="33.415" height="2.964" transform="translate(0 10.079)" fill="#d8e6fb"/><g transform="translate(27.76)"><rect width="1.031" height="7.012" transform="translate(2.274 3.067)" fill="#d8e6fb"/><path d="M2508.5,957.241c0-.355,1.266-.643,2.828-.643s2.827.288,2.827.643-1.266.643-2.827.643S2508.5,957.6,2508.5,957.241Z" transform="translate(-2508.496 -952.742)" fill="#d8e6fb"/><path d="M2508.5,948.792c0-.355,1.266-.643,2.828-.643s2.827.288,2.827.643-1.266.643-2.827.643S2508.5,949.147,2508.5,948.792Z" transform="translate(-2508.496 -945.579)" fill="#d8e6fb"/><path d="M2508.5,940.343c0-.355,1.266-.643,2.828-.643s2.827.288,2.827.643-1.266.643-2.827.643S2508.5,940.7,2508.5,940.343Z" transform="translate(-2508.496 -938.415)" fill="#d8e6fb"/><path d="M2508.5,931.895c0-.355,1.266-.643,2.828-.643s2.827.288,2.827.643-1.266.643-2.827.643S2508.5,932.25,2508.5,931.895Z" transform="translate(-2508.496 -931.252)" fill="#d8e6fb"/><rect width="3.43" height="4.373" transform="translate(1.074 0.353)" fill="#d8e6fb"/></g></g></g><g transform="translate(127.174 153.767)"><rect width="37.356" height="90.292" transform="translate(29.901 5.198)" fill="#adc8fe"/><rect width="14.207" height="90.292" transform="translate(53.05 5.198)" fill="#8cb4f4"/><rect width="7.563" height="13.425" transform="translate(41.975 8.316)" fill="#4786d1"/><rect width="7.563" height="13.425" transform="translate(40.06 8.316)" fill="#699ae2"/><g transform="translate(32.374 25.788)"><path d="M1257.322,1368.541l-.047-.184c.024-.006,2.381-.656,2.749-4.524.306-3.211.827-4.889,1.744-5.611a1.9,1.9,0,0,1,1.5-.363,4.416,4.416,0,0,1,2.132,1.536c1.349,1.378,3.027,3.093,6,2.29,4.552-1.232,6.452-6.111,6.471-6.16l.177.068c-.019.05-1.954,5.019-6.6,6.276-3.075.831-4.8-.927-6.18-2.34a4.323,4.323,0,0,0-2.023-1.481,1.69,1.69,0,0,0-1.353.324c-.86.677-1.376,2.367-1.672,5.48a6.042,6.042,0,0,1-1.58,3.858A3.162,3.162,0,0,1,1257.322,1368.541Z" transform="translate(-1257.275 -1355.525)" fill="#ebf3fa"/></g><g transform="translate(41.88 21.741)"><path d="M1330.936,1348.837h-11.171v-19.915h.19v19.726h10.981Z" transform="translate(-1319.765 -1328.922)" fill="#ebf3fa"/></g><g transform="translate(43.747 21.741)"><path d="M1341.343,1346.675h-9.3v-17.753h.19v17.563h9.114Z" transform="translate(-1332.039 -1328.922)" fill="#ebf3fa"/></g><g transform="translate(46.326 21.741)"><path d="M1355.719,1344.183h-6.725v-15.261h.19v15.071h6.535Z" transform="translate(-1348.994 -1328.922)" fill="#ebf3fa"/></g><g transform="translate(36.452 52.77)"><path d="M1300.682,1553.327h-16.6v-20.422h16.6v.19h-16.408v20.042h16.408Z" transform="translate(-1284.084 -1532.905)" fill="#ebf3fa"/></g><g transform="translate(39.072 54.48)"><path d="M1315.285,1560.578h-13.979v-16.432h13.979v.19H1301.5v16.053h13.789Z" transform="translate(-1301.307 -1544.146)" fill="#ebf3fa"/></g><g transform="translate(41.88 57.044)"><path d="M1330.936,1571.867h-11.171V1561h11.171v.19h-10.981v10.482h10.981Z" transform="translate(-1319.765 -1561.005)" fill="#ebf3fa"/></g><rect width="18.116" height="11.223" transform="translate(34.935 79.24)" fill="#699ae2"/><g transform="translate(37.496 75.662)"><path d="M1291.14,1686.972h-.19v-3.578H1306.5v.19H1291.14Z" transform="translate(-1290.95 -1683.394)" fill="#699ae2"/></g><g transform="translate(41.579 77.403)"><path d="M1317.977,1696.679h-.19v-1.836h11.472v.19h-11.282Z" transform="translate(-1317.787 -1694.843)" fill="#699ae2"/></g><g transform="translate(44.142 9.219)"><path d="M1335.232,1246.9a.3.3,0,1,1-.3-.3A.3.3,0,0,1,1335.232,1246.9Z" transform="translate(-1334.639 -1246.601)" fill="#adc8fe"/><path d="M1342.488,1246.9a.3.3,0,1,1-.3-.3A.3.3,0,0,1,1342.488,1246.9Z" transform="translate(-1340.791 -1246.601)" fill="#f99746"/><path d="M1349.042,1246.9a.3.3,0,1,1-.3-.3A.3.3,0,0,1,1349.042,1246.9Z" transform="translate(-1346.347 -1246.601)" fill="#fff"/></g><rect width="5.839" height="3.197" transform="translate(41.294 10.216)" fill="#4786d1"/><g transform="translate(0)"><path d="M1293.357,1258.042a10.866,10.866,0,0,1,1.841-2.768,4.38,4.38,0,0,1,3.111-.328c.262.519-1.767,1.329-2,1.805s.738.429-.008,1.257a8.023,8.023,0,0,1-2.14,1.367Z" transform="translate(-1255.494 -1244.332)" fill="#ffb27d"/><path d="M1145.072,1269.66c-.534-.832-.694-.875-.694-.875s-8.84,3.528-9.683,3.822-13.456,1.036-13.456,1.036l-3.806,8.37s16.807-3.835,18.93-4.623c3.508-1.3,9.135-6.4,9.135-6.4A2.759,2.759,0,0,0,1145.072,1269.66Z" transform="translate(-1106.331 -1256.192)" fill="#afcdfb"/><path d="M1154.766,1781.961s.193,3.1.769,3.835h8.867a1.578,1.578,0,0,0-1.416-1.268c-1.4-.244-3.746-1.229-4.594-3.081C1157.5,1779.5,1154.766,1781.961,1154.766,1781.961Z" transform="translate(-1137.985 -1690.233)" fill="#163560"/><path d="M1050.051,1777.3s-.559,4.708.2,4.778c.1.009,3.652,0,4.618.147a24.189,24.189,0,0,0,4.207.03.417.417,0,0,0,.377-.627,1.681,1.681,0,0,0-1.2-.773c-1.4-.269-3.723-1.295-4.539-3.162C1052.852,1775.733,1050.051,1777.3,1050.051,1777.3Z" transform="translate(-1049.031 -1686.853)" fill="#163560"/><path d="M1065.4,1474.775s-2.229,7.8-8.619,21.357a97.787,97.787,0,0,0-4.428,10.859c-.121.365-.235.716-.34,1.053q-.256.818-.458,1.534-.154.55-.281,1.042a20.922,20.922,0,0,0-.82,4.745,7.811,7.811,0,0,1-3.184.374,14.87,14.87,0,0,1-2.82-.917s.209-2.186.63-5.275q.071-.51.148-1.05c.068-.482.142-.982.22-1.492.053-.344.108-.693.165-1.044.742-4.6,1.844-9.946,3.313-13.278,3.019-6.839,3.634-25.558,3.634-25.558Z" transform="translate(-1044.45 -1424.363)" fill="#233862"/><path d="M1124.7,1475.99a202.58,202.58,0,0,1-1.9,24.191c-.722,5.125-1.111,9.232-1.31,12.413q-.034.561-.061,1.082c-.03.56-.053,1.088-.072,1.582-.013.374-.025.729-.032,1.067a41.687,41.687,0,0,0,.093,5,2.469,2.469,0,0,1-.391.177h0a7.347,7.347,0,0,1-2.567.4,6.119,6.119,0,0,1-1.458-.173,4.381,4.381,0,0,1-1.081-.4s-.336-1.977-.718-4.844c-.048-.344-.093-.7-.141-1.067-.063-.486-.124-.991-.186-1.513-.04-.349-.082-.7-.121-1.063a69.212,69.212,0,0,1-.475-13.622,17.6,17.6,0,0,0,.1-1.933v0a67.785,67.785,0,0,0-1.475-11.854s0-.011-.008-.034c-.832-4.251-1.8-8.178-2.33-10.212-.238-.921-.384-1.452-.384-1.452l.443-.015h0l3.494-.112,9.53-.309.587-.019.474-.015S1124.729,1474.24,1124.7,1475.99Z" transform="translate(-1100.185 -1429.56)" fill="#2a4e96"/><path d="M1140.77,1254.018l2.361,1.75,3.412-.719c-.047-.311-.273-1.6-.478-2.77-.012-.069-.025-.138-.036-.205-.176-.994-.327-1.849-.327-1.849l-3.187-1.589-1.188-.592c0,.021.092,1.1.1,1.262A10.213,10.213,0,0,1,1140.77,1254.018Z" transform="translate(-1126.118 -1238.605)" fill="#ffb27d"/><path d="M1144.113,1274.665c-.075-.031-4.641-1.38-5.138-1.216s-.79,1.124-.79,1.124l7.051,2.01S1145.067,1275.067,1144.113,1274.665Z" transform="translate(-1123.927 -1260.135)" fill="#77a4e5"/><path d="M1095.245,1311.444c.773,3.533,16.912-7.553,16.7-9.709-.024-.237-.047-.475-.071-.712-.3-3-.583-5.939-.6-7.857a27.044,27.044,0,0,0-.55-4.907c-.28-1.426-.625-2.72-.925-3.728a4.116,4.116,0,0,0-2.415-2.647,3.569,3.569,0,0,0-.4-.14c-1.944-.564-4.633-1.262-5.363-1.049-1.976.582-3.442,4.06-4.481,8.494C1095.19,1297.489,1094.741,1309.142,1095.245,1311.444Z" transform="translate(-1087.356 -1266.256)" fill="#77a4e5"/><path d="M1146.181,1252.654c.7,1.34,3.308,2.5,4.4,2.924-.012-.069-.025-.138-.036-.205-.176-.994-.328-1.849-.328-1.849l-3.187-1.589C1146.321,1251.924,1145.892,1252.1,1146.181,1252.654Z" transform="translate(-1130.629 -1241.905)" fill="#fca56b"/><path d="M1138.679,1208.385s-5.75,1.795-6.812-1.805-2.519-5.792,1.107-7.09,4.748-.136,5.394.979S1140.147,1207.825,1138.679,1208.385Z" transform="translate(-1117.547 -1196.952)" fill="#ffb27d"/><path d="M1124.156,1189.168s-.367,4.189-1.232,4.007-1.651-.317-1.524.946.167,2.781-2.5,3-5.345-6.722-4.611-8.025C1116.4,1185.338,1127.213,1184.579,1124.156,1189.168Z" transform="translate(-1103.559 -1185.997)" fill="#163560"/><path d="M1149.74,1390.943c-1.6.578.028-1.589,0-2.041-.124-1.987.655-4.5.416-6.888l-9.762-5.838S1138.078,1390.85,1149.74,1390.943Z" transform="translate(-1125.641 -1347.247)" fill="#77a4e5"/><path d="M1093.775,1359.006c4.167,7.727,4.831,10.678,4.831,10.678,3.627-.414,9.842-7.548,11.813-9.452,0,0,.268-8.779.053-10.935l-3.012-.087s-5.445,1.381-6.857-.493-.8-11.072-.8-11.072l-4.138-.9C1093.72,1345.051,1092.656,1356.932,1093.775,1359.006Z" transform="translate(-1085.886 -1313.818)" fill="#2a4e96"/><path d="M1257.648,1376.573a25.872,25.872,0,0,1,2.36-1.46,4.958,4.958,0,0,1,1.667-.147c.057.1.226.395.011.5s-.484.065-.4.136.892-.316,1.079.1.352,1.831-.6,2.261-3.3.042-3.469.091C1256.855,1378.466,1257.648,1376.573,1257.648,1376.573Z" transform="translate(-1225.032 -1346.193)" fill="#ffb27d"/><path d="M1154.646,1315.9s-9.682,1.647-10.539,1.229c-1.369-.667.531-10.495.531-10.495a2.827,2.827,0,0,0-2.519-2.753,6.257,6.257,0,0,0-4.44,1.237s-1.983,1.775-1.729,3.744c.562,4.364,1.435,13.241,4.353,14.6,3.763,1.755,14.653-4.866,14.653-4.866a1.906,1.906,0,0,0,.311-1.27A2.956,2.956,0,0,0,1154.646,1315.9Z" transform="translate(-1122.013 -1285.887)" fill="#afcdfb"/><path d="M1130.658,1296.758l.8.174s1.7-7.344,7.393-7.379a4.074,4.074,0,0,0-1.287-.821C1135.478,1289.292,1131.853,1291.077,1130.658,1296.758Z" transform="translate(-1117.544 -1273.105)" fill="#2a4e96"/><path d="M1309.409,1266.533l.969-1.25s-.242-.309-.736.06c-.288.214-1.06.712-1.06.712Z" transform="translate(-1268.404 -1253.12)" fill="#ffb27d"/><g transform="translate(0.999 81.6)" opacity="0.5"><path d="M1057.921,1723.463q-.182.547-.34,1.054a22.893,22.893,0,0,1-5.673-.79c-.323-.083-.623-.169-.891-.249.053-.344.108-.693.165-1.044A22.43,22.43,0,0,0,1057.921,1723.463Z" transform="translate(-1051.017 -1722.434)" fill="#fff"/></g><g transform="translate(0.631 84.137)" opacity="0.5"><path d="M1055.07,1740.191q-.154.55-.281,1.042a23.49,23.49,0,0,1-5.155-.78c-.384-.1-.731-.2-1.039-.292q.071-.51.148-1.05A23.349,23.349,0,0,0,1055.07,1740.191Z" transform="translate(-1048.595 -1739.111)" fill="#fff"/></g></g><g transform="translate(14.57 83.034)"><path d="M1146.967,1731.858c-.023.374-.044.735-.061,1.082a23.159,23.159,0,0,1-5.362.309c-.444-.023-.845-.053-1.193-.085-.04-.349-.082-.7-.122-1.063A23.294,23.294,0,0,0,1146.967,1731.858Z" transform="translate(-1140.23 -1731.858)" fill="#fff"/><g transform="translate(0.308 2.664)"><path d="M1148.549,1749.372c-.013.374-.025.729-.033,1.067a23.6,23.6,0,0,1-4.946.237c-.439-.023-.834-.051-1.177-.082-.048-.344-.093-.7-.141-1.067A23.973,23.973,0,0,0,1148.549,1749.372Z" transform="translate(-1142.252 -1749.372)" fill="#fff"/></g></g></g><g transform="translate(231.184 21.698)"><path d="M1849.676,413.73c-4.984-.742-10.517-4.132-16.445-10.074a120.417,120.417,0,0,1-14.858-18.958,242.959,242.959,0,0,1-14.9-26.514c-6.073.152-13.8-1.861-22.97-5.987a183.5,183.5,0,0,1-24.639-13.873,324.849,324.849,0,0,1-27.661-20.4l.122-.145a324.572,324.572,0,0,0,27.645,20.389,183.306,183.306,0,0,0,24.612,13.858c9.17,4.128,16.894,6.136,22.948,5.968l.063,0,.026.056a242.431,242.431,0,0,0,14.911,26.549,120.235,120.235,0,0,0,14.833,18.927c5.9,5.912,11.4,9.283,16.338,10.019Z" transform="translate(-1728.206 -317.778)" fill="#adc8fe"/></g></g></g></svg>