<?xml version="1.0" encoding="utf-8"?>
<!-- Generator: Adobe Illustrator 21.0.0, SVG Export Plug-In . SVG Version: 6.00 Build 0)  -->
<svg version="1.1" id="Layer_1" xmlns="http://www.w3.org/2000/svg" xmlns:xlink="http://www.w3.org/1999/xlink" x="0px" y="0px"
	 viewBox="0 0 175 99" style="enable-background:new 0 0 175 99;" xml:space="preserve">
<style type="text/css">
	.st0{enable-background:new    ;}
	.st1{fill:#00B1FF;}
</style>
<g class="st0">
	<path class="st1" d="M42.2,18.4c1.8-0.2,3.1,0,3.7,0.6c0.7,0.6,1,1.2,0.9,1.8c0.1,0.7,0,1.4-0.1,2.1c-0.2,0.7-0.4,1.4-0.7,2.1
		c-1,2-2.1,4.1-3.3,6.5c-1.2,2.3-2.5,4.8-3.8,7.4c-1.4,2.6-2.8,5.3-4.2,8c-1.4,2.8-2.9,5.5-4.3,8.3c2.5-0.4,5.1-0.8,7.7-1
		s5.4-0.4,8.4-0.5c1.3-3,2.7-6.1,4.2-9.3s2.9-6.3,4.3-9.3c1.4-3,2.7-5.9,4-8.7c1.3-2.7,2.4-5.2,3.5-7.3c1.2,0.1,2.2,0.4,2.9,1
		c0.7,0.5,1.2,1.2,1.5,2s0.4,1.6,0.3,2.4c-0.1,0.9-0.3,1.7-0.6,2.4c-1,2.8-2.2,5.8-3.6,9.2c-1.3,3.4-2.7,6.9-4.2,10.5
		s-3,7.3-4.5,10.9c-1.5,3.7-2.9,7.1-4.3,10.4c-1.4,3.3-2.6,6.3-3.8,9c-1.1,2.7-2,5-2.7,6.8c-1.3-0.3-2.5-0.7-3.6-1.2
		s-1.9-1.2-2.5-2.1s-0.9-2-0.9-3.3s0.5-2.9,1.4-4.8c0.7-1.4,1.6-3.3,2.6-5.6c1-2.3,2.2-4.9,3.6-7.8c-3.1,0.4-6.1,1-9,1.8
		c-3,0.7-5.9,1.6-8.8,2.5c-2.4,4.6-4.6,8.9-6.7,12.7c-2,3.8-3.6,6.8-4.8,9c-1.3-0.3-2.5-0.7-3.5-1.2s-1.7-1.2-2.2-2.1
		s-0.6-2-0.4-3.3c0.2-1.3,0.9-2.9,2-4.8c0.4-0.7,1-1.6,1.6-2.7s1.3-2.2,2-3.5c-2.4,0.8-4.7,1.7-7,2.4c-2.3,0.8-4.6,1.5-6.8,2.2
		c0.5-1.5,1-2.8,1.6-4s1.3-2.3,2.3-3.4c0.9-1,2-2,3.4-2.8s3-1.5,5.1-2.2c1.2-0.4,2.3-0.8,3.5-1.1c1.1-0.3,2.2-0.6,3.3-0.9
		c1.6-2.9,3.3-6,5.1-9.2c1.8-3.2,3.6-6.4,5.3-9.5c1.8-3.2,3.5-6.2,5.3-9.2c1.7-3,3.3-5.6,4.8-8.1c-3.1,0.7-5.8,1.8-8.2,3.2
		c-2.3,1.4-4.4,3-6.1,4.8s-3.1,3.7-4.2,5.8c-1.1,2.1-1.9,4.1-2.5,6.1s-0.9,3.9-1,5.7s0,3.3,0.3,4.6c-2.3-0.2-4.2-0.8-5.6-1.8
		s-2.4-2.2-2.9-3.7s-0.6-3.2-0.3-5s1.1-3.7,2.2-5.6c1.4-2.3,3.1-4.5,5.2-6.4c2.1-2,4.5-3.7,7.1-5.2c2.6-1.5,5.4-2.8,8.5-3.8
		C35.6,19.5,38.8,18.8,42.2,18.4z"/>
	<path class="st1" d="M64.2,79.2c-0.7,0.4-1.6,0.8-2.8,1s-2.3,0.2-3.4-0.1c-1.1-0.3-2.1-1-2.9-2c-0.8-1.1-1.3-2.7-1.4-4.8
		c-0.1-1.9,0.2-4,0.8-6.4c0.6-2.3,1.5-4.6,2.6-7c1.1-2.3,2.4-4.5,4-6.7c1.6-2.1,3.2-3.9,5-5.5c1.8-1.5,3.6-2.7,5.6-3.4
		c1.9-0.8,3.8-0.9,5.7-0.6c0.9,0.2,1.6,0.5,2.1,1s0.9,1,1.1,1.6s0.3,1.1,0.4,1.7c0,0.6,0,1,0,1.4c-0.2,2.2-1.1,4.3-2.5,6.4
		c-1.4,2.1-3.1,3.9-5.1,5.4c-1.9,1.5-3.9,2.7-6,3.4c-2,0.7-3.8,0.8-5.2,0.2c-1,2.8-1.6,5.2-1.7,7.1c0,1.7,0.3,2.8,1,3.4
		c0.7,0.5,1.6,0.6,2.7,0.2s2.5-1.2,4-2.4c1.5-1.2,3-2.6,4.6-4.2c1.4-1.5,2.9-3.4,4.4-5.5s3.1-4.2,4.7-6.3c0,0,0,0.2,0.1,0.6
		c0.1,0.3,0.1,0.7,0.1,1.2S82,60,81.8,60.6c-0.2,0.6-0.6,1.3-1.2,2.1c-1.5,2-3,3.8-4.3,5.4c-1.4,1.6-2.7,3.1-4,4.4s-2.6,2.5-3.9,3.6
		C67,77.3,65.7,78.3,64.2,79.2z M74.4,46.4c-0.9,0.3-1.8,1-2.8,2.1s-2,2.3-3,3.8s-2,3.1-2.9,4.9c-0.9,1.8-1.8,3.5-2.5,5.3
		c1.3-0.5,2.6-1.3,4-2.3c1.4-1.1,2.7-2.2,4-3.5c1.2-1.3,2.3-2.6,3.2-4c0.9-1.4,1.4-2.7,1.6-3.8c0-0.3,0.1-0.6,0.1-1c0-0.3,0-0.7,0-1
		c-0.1-0.3-0.2-0.5-0.5-0.6C75.2,46.2,74.9,46.2,74.4,46.4z"/>
	<path class="st1" d="M82.6,70.2c-0.6,1.6-0.9,2.6-0.9,3s0.3,0.5,0.8,0.1s1.2-1.1,2.1-2.1c0.9-1.1,1.9-2.3,3-3.8s2.3-3.1,3.6-4.8
		c1.3-1.8,2.6-3.5,3.8-5.2c0,0.1,0.1,0.3,0.2,0.6s0.1,0.7,0.1,1.2s-0.1,1-0.3,1.7c-0.2,0.6-0.6,1.3-1.1,2c-1.5,2-2.9,3.8-4,5.3
		c-1.2,1.5-2.3,2.9-3.3,4.1s-2.1,2.4-3.1,3.4c-1,1.1-2.2,2.1-3.4,3.2c-0.7,0.6-1.4,1-2.2,1.1c-0.8,0.1-1.5,0-2.1-0.3
		s-1.1-0.9-1.4-1.6s-0.3-1.6-0.1-2.6c0.5-1.9,1.2-3.9,1.9-6c0.7-2,1.6-4.2,2.6-6.5c1.2-3,2.5-6.1,3.8-9.3s2.6-6.2,3.8-9
		c1.2-2.9,2.4-5.5,3.4-8c1.1-2.4,2-4.5,2.9-6.1c0.5-0.9,1.1-1.6,1.9-1.9s1.5-0.5,2.2-0.5s1.3,0.2,1.7,0.5c0.5,0.3,0.6,0.7,0.5,1
		L82.6,70.2z"/>
	<path class="st1" d="M95.9,70.2c-0.6,1.6-0.9,2.6-0.9,3s0.3,0.5,0.8,0.1s1.2-1.1,2.1-2.1c0.9-1.1,1.9-2.3,3-3.8s2.3-3.1,3.6-4.8
		c1.3-1.8,2.6-3.5,3.8-5.2c0,0.1,0.1,0.3,0.2,0.6s0.1,0.7,0.1,1.2s-0.1,1-0.3,1.7c-0.2,0.6-0.6,1.3-1.1,2c-1.5,2-2.9,3.8-4,5.3
		c-1.2,1.5-2.3,2.9-3.3,4.1s-2.1,2.4-3.1,3.4c-1,1.1-2.2,2.1-3.4,3.2c-0.7,0.6-1.4,1-2.2,1.1c-0.8,0.1-1.5,0-2.1-0.3
		s-1.1-0.9-1.4-1.6s-0.3-1.6-0.1-2.6c0.5-1.9,1.2-3.9,1.9-6c0.7-2,1.6-4.2,2.6-6.5c1.2-3,2.5-6.1,3.8-9.3s2.6-6.2,3.8-9
		c1.2-2.9,2.4-5.5,3.4-8c1.1-2.4,2-4.5,2.9-6.1c0.5-0.9,1.1-1.6,1.9-1.9s1.5-0.5,2.2-0.5s1.3,0.2,1.7,0.5c0.5,0.3,0.6,0.7,0.5,1
		L95.9,70.2z"/>
	<path class="st1" d="M108,80.3c-1.7,0-2.9-0.5-3.7-1.6c-0.8-1.1-1.3-2.5-1.4-4.2s0-3.7,0.5-5.9c0.5-2.2,1.2-4.4,2.2-6.7
		s2.2-4.5,3.6-6.7s2.9-4.2,4.6-5.9s3.5-3.1,5.4-4.1s3.8-1.6,5.8-1.6s3.4,0.8,4.1,2.3c0.7,1.5,0.9,3.5,0.6,5.9c-0.3,2.4-1,5-2.1,7.9
		s-2.5,5.6-4.2,8.3c0.8,0,1.7-0.5,2.7-1.4s2-1.9,2.9-3s1.9-2.3,2.7-3.5s1.5-2.1,2.1-2.8c0,0,0,0.2,0.1,0.5s0.1,0.7,0.1,1.2
		s-0.1,1.1-0.3,1.7c-0.2,0.7-0.6,1.4-1.1,2.1c-0.6,0.9-1.2,1.7-1.8,2.4c-0.9,1.1-1.8,2.1-2.6,3c-0.9,0.9-1.6,1.6-2.3,2
		c-1.9,1.4-3.7,2-5.4,1.9c-1.9,2.4-3.9,4.3-6,5.8C112.2,79.5,110.1,80.3,108,80.3z M110.1,76c0.8,0,1.7-0.7,2.8-2
		c1.1-1.3,2.2-2.9,3.3-4.8c-0.5-1.2-0.7-2.7-0.7-4.6c0-1,0.3-2,0.7-2.8c0.4-0.8,0.9-1.4,1.5-1.9c0.6-0.4,1.2-0.7,1.7-0.7
		c0.6,0,1,0.2,1.4,0.7c0.8-1.8,1.5-3.5,2.1-5.2s1-3.2,1.4-4.5c0.3-1.3,0.5-2.4,0.5-3.1c0-0.8-0.2-1.2-0.7-1.2c-1,0-2.2,0.7-3.6,2.2
		c-1.3,1.5-2.7,3.3-4,5.6c-1.4,2.2-2.6,4.7-3.8,7.3s-2.1,5-2.8,7.2c-0.7,2.2-1.1,4.1-1.1,5.6C108.7,75.3,109.2,76.1,110.1,76z"/>
</g>
<g class="st0">
	<path class="st1" d="M134.5,80.8c-1.1,0-2.1-0.4-2.8-1.2s-1.2-1.7-1.2-2.9c0-1.1,0.4-2.1,1.2-2.9s1.7-1.2,2.8-1.2s2.1,0.4,2.9,1.2
		c0.8,0.8,1.2,1.8,1.2,2.9s-0.4,2.1-1.2,2.9S135.7,80.8,134.5,80.8z"/>
	<path class="st1" d="M150.6,80.8c-1.1,0-2.1-0.4-2.8-1.2s-1.2-1.7-1.2-2.9c0-1.1,0.4-2.1,1.2-2.9s1.7-1.2,2.8-1.2s2.1,0.4,2.9,1.2
		c0.8,0.8,1.2,1.8,1.2,2.9s-0.4,2.1-1.2,2.9S151.7,80.8,150.6,80.8z"/>
	<path class="st1" d="M170.7,76.7c0-1.1-0.4-2.1-1.2-2.9s-1.8-1.2-2.9-1.2c-1.1,0-2,0.4-2.8,1.2c-0.8,0.8-1.2,1.8-1.2,2.9
		c0,1.2,0.5,2.1,1.2,2.9c0.2,0.2,0.3,0.3,0.5,0.5c-0.6,2.7-3.1,5.7-3.1,5.7s7-2.7,8.8-6.8C170.5,78.3,170.7,77.5,170.7,76.7z"/>
</g>
</svg>
