<svg xmlns="http://www.w3.org/2000/svg" width="16.84" height="16.261" viewBox="0 0 16.84 16.261">
  <g id="huawei-logo" transform="translate(-446.207 -3405)">
    <g id="Group_988" data-name="Group 988" transform="translate(446.207 3405)">
      <path id="Path_706" data-name="Path 706" d="M341.334,518.671a.958.958,0,0,0-.089-.06c-.861-.568-1.748-1.091-2.64-1.608-1.215-.705-2.445-1.384-3.68-2.054-.106-.058-.152-.045-.181.076a3.1,3.1,0,0,0-.054,1.28,3.053,3.053,0,0,0,3,2.527c.574,0,1.149,0,1.724,0h.908c.318,0,.636,0,.954,0,.058,0,.141.027.163-.045S341.376,518.706,341.334,518.671Z" transform="translate(-334.647 -508.359)" fill="#0090ff"/>
      <path id="Path_707" data-name="Path 707" d="M364.35,437.134a37.311,37.311,0,0,0-2.329-4.1c-.611-.937-1.254-1.851-1.945-2.731-.116-.148-.127-.15-.255-.019a4.718,4.718,0,0,0-.623.78,3.1,3.1,0,0,0-.6,1.6,2.369,2.369,0,0,0,.681,1.762,8.269,8.269,0,0,0,1.206,1,28.438,28.438,0,0,0,2.955,1.768c.33.177.665.345,1,.515.048.025.11.079.154.038s-.015-.111-.036-.162C364.494,437.429,364.421,437.281,364.35,437.134Z" transform="translate(-357.384 -427.93)" fill="#0090ff"/>
      <path id="Path_708" data-name="Path 708" d="M508.564,390.358a5.009,5.009,0,0,0,.465-2.05,2.127,2.127,0,0,0-.709-1.708,2.815,2.815,0,0,0-1.763-.7c-.125-.015-.185.059-.234.158a6.826,6.826,0,0,0-.551,1.74,19.833,19.833,0,0,0-.316,3.438c-.016.82.038,1.638.085,2.457.027.46.074.918.108,1.378,0,.066-.013.174.059.192s.115-.085.156-.145c.385-.557.748-1.129,1.1-1.707A21.305,21.305,0,0,0,508.564,390.358Z" transform="translate(-496.78 -385.889)" fill="#0090ff"/>
      <path id="Path_709" data-name="Path 709" d="M529.007,434.623a2.506,2.506,0,0,0,.9-1.834,1.865,1.865,0,0,0-.092-.637,4.4,4.4,0,0,0-1.07-1.827c-.188-.209-.191-.2-.365.019a39.315,39.315,0,0,0-2.344,3.371,36.571,36.571,0,0,0-2.1,3.847c-.024.051-.09.111-.027.165s.106-.014.154-.038q.853-.426,1.685-.893A18.148,18.148,0,0,0,529.007,434.623Z" transform="translate(-514.276 -427.92)" fill="#0090ff"/>
      <path id="Path_710" data-name="Path 710" d="M427.8,388.217a7.917,7.917,0,0,0-.606-2.186c-.1-.217-.16-.252-.4-.209q-.287.052-.571.119a2.235,2.235,0,0,0-1.146.656,2.519,2.519,0,0,0-.582,2.334,8.821,8.821,0,0,0,.761,2.105,28.146,28.146,0,0,0,1.424,2.551c.316.51.654,1.006.982,1.508.024.037.045.094.1.085s.047-.072.06-.114a.283.283,0,0,0,.01-.061c.032-.347.073-.693.092-1.04.047-.849.1-1.7.1-2.495A20.47,20.47,0,0,0,427.8,388.217Z" transform="translate(-419.873 -385.806)" fill="#0090ff"/>
      <path id="Path_711" data-name="Path 711" d="M370.847,600.546c-.595,0-1.188.033-1.782.056-.942.038-1.885.061-2.827.091,0,0,0,0,0,.007-.087,0-.175,0-.262,0-.142,0-.157.03-.082.153a3.5,3.5,0,0,0,.687.824,1.811,1.811,0,0,0,2.208.318,21.415,21.415,0,0,0,2.11-1.324c.033-.023.085-.044.07-.09S370.891,600.546,370.847,600.546Z" transform="translate(-364.265 -589.637)" fill="#0090ff"/>
      <path id="Path_712" data-name="Path 712" d="M538.977,514.752c-.029-.113-.073-.143-.181-.079-.149.09-.306.168-.458.252-1.146.629-2.288,1.264-3.417,1.923-.859.5-1.71,1.016-2.542,1.561-.045.03-.121.055-.1.118s.1.041.149.041c.569,0,1.139,0,1.708,0h0c.539,0,1.077.008,1.616,0a3.847,3.847,0,0,0,1.259-.162,2.963,2.963,0,0,0,2.019-2.355A2.911,2.911,0,0,0,538.977,514.752Z" transform="translate(-522.235 -508.098)" fill="#0090ff"/>
      <path id="Path_713" data-name="Path 713" d="M538.934,600.745c-.538,0-1.075-.036-1.613-.057-.988-.039-1.977-.062-2.965-.092a.042.042,0,0,1,0-.006c-.092,0-.185,0-.277,0-.034,0-.08-.012-.1.029s.028.071.06.093a19.143,19.143,0,0,0,2.276,1.4,1.627,1.627,0,0,0,1.507-.018,3.074,3.074,0,0,0,1.213-1.169C539.144,600.767,539.13,600.745,538.934,600.745Z" transform="translate(-523.855 -589.682)" fill="#0090ff"/>
    </g>
    <g id="Group_989" data-name="Group 989" transform="translate(446.65 3418.663)">
      <path id="Path_715" data-name="Path 715" d="M675.807,676.351c.282,0,.224-.006.226.34,0,.679,0,1.357,0,2.036,0,.159-.006.164-.161.166-.293,0-.293,0-.293-.291v-.98h-.007c0-.394,0-.787,0-1.181,0-.058.016-.088.075-.089h.161" transform="translate(-660.589 -676.342)" fill="#0090ff"/>
      <path id="Path_716" data-name="Path 716" d="M316.178,677.234c0-.256,0-.511,0-.767,0-.1.036-.141.139-.139.4.008.333-.047.337.33,0,.318,0,.637,0,.955,0,.373,0,.746,0,1.119,0,.119-.037.165-.159.162-.363-.008-.315.032-.317-.315,0-.205,0-.41,0-.616,0-.1-.041-.147-.141-.147q-.477,0-.955,0c-.109,0-.145.054-.143.157,0,.26,0,.519,0,.779,0,.1-.038.142-.14.14h-.127c-.256,0-.206,0-.207-.329,0-.683,0-1.366,0-2.049,0-.184,0-.186.179-.185h.091c.24,0,.2,0,.2.293,0,.2,0,.4,0,.6,0,.109.033.162.151.16.314,0,.628,0,.943,0h0c.107,0,.144-.048.143-.152" transform="translate(-314.463 -676.32)" fill="#0090ff"/>
      <path id="Path_717" data-name="Path 717" d="M387.446,678.622a.926.926,0,0,1-.265-.635c-.01-.507,0-1.014-.005-1.52,0-.1.038-.141.141-.139h.131c.251,0,.2,0,.2.328,0,.4.006.8,0,1.194a.612.612,0,0,0,.9.562.628.628,0,0,0,.333-.652c.006-.435,0-.871,0-1.307,0-.094.025-.131.118-.126s.168,0,.251,0,.1.033.1.109c-.005.259,0,.519,0,.779h-.005c0,.243,0,.486,0,.729a.894.894,0,0,1-.7.914,2.332,2.332,0,0,1-.466.056.962.962,0,0,1-.733-.3" transform="translate(-384.159 -676.32)" fill="#0090ff"/>
      <path id="Path_718" data-name="Path 718" d="M613.412,678.7c0-.377,0-.754,0-1.132s0-.738,0-1.107c0-.116.03-.164.155-.162.52.006,1.04,0,1.559,0,.107,0,.151.032.149.144-.005.289.018.287-.2.284h-.087c-.315,0-.629,0-.943,0-.121,0-.169.044-.161.163.005.079,0,.159,0,.239,0,.169.012.181.177.182.218,0,.436,0,.654,0,.1,0,.153.026.129.137a.543.543,0,0,0,0,.126c.005.161.005.161-.151.162-.218,0-.436,0-.654,0-.115,0-.158.045-.154.157s0,.243,0,.365c0,.16.024.184.181.184h1.069c.181,0,.183,0,.184.182a.551.551,0,0,0,0,.063c.014.117-.031.164-.155.162-.536-.005-1.073,0-1.61,0h0c-.106,0-.145-.036-.144-.145" transform="translate(-601.008 -676.293)" fill="#0090ff"/>
      <path id="Path_719" data-name="Path 719" d="M510.875,677.878c.168-.509.337-1.017.5-1.527a.137.137,0,0,1,.141-.112c.277-.012.283-.016.373.244.158.459.309.921.462,1.382.013.038.01.094.067.09s.057-.053.07-.093c.161-.5.323-1.005.483-1.508a.137.137,0,0,1,.154-.113c.084,0,.168,0,.252,0s.116.029.084.121c-.19.537-.374,1.076-.561,1.614-.077.222-.157.442-.229.666a.17.17,0,0,1-.19.139c-.317-.009-.254.036-.354-.252-.153-.443-.319-.882-.454-1.331-.01-.033-.024-.067-.065-.067-.056,0-.061.05-.074.088-.162.467-.328.933-.482,1.4a.2.2,0,0,1-.224.161c-.241-.008-.239,0-.317-.225q-.375-1.073-.753-2.146a.624.624,0,0,0-.023-.072c-.042-.085,0-.1.075-.1.05,0,.1,0,.151,0a.633.633,0,0,0,.1,0c.122-.019.171.048.2.152.154.5.311.99.468,1.485.012.036.022.077.069.078s.058-.04.07-.077" transform="translate(-501.62 -676.23)" fill="#0090ff"/>
      <path id="Path_721" data-name="Path 721" d="M316.653,678.732c0,.118-.037.165-.159.162-.363-.008-.315.032-.317-.315,0-.205,0-.41,0-.616,0-.1-.041-.147-.141-.147q-.477,0-.955,0c-.109,0-.145.054-.143.157,0,.26,0,.519,0,.779,0,.1-.038.142-.14.14-.4-.007-.333.047-.334-.33,0-.683,0-1.366,0-2.049,0-.184,0-.186.179-.185.339,0,.292-.037.3.293,0,.2,0,.4,0,.6,0,.109.033.162.151.16.314,0,.628,0,.943,0,.11,0,.148-.047.146-.152,0-.255,0-.511,0-.767,0-.1.036-.141.139-.139.4.008.333-.047.337.33,0,.318,0,.637,0,.955,0,.373,0,.746,0,1.119" transform="translate(-314.463 -676.32)" fill="#0090ff"/>
      <path id="Path_722" data-name="Path 722" d="M389.347,677.218h-.006c0,.243,0,.486,0,.729a.894.894,0,0,1-.7.914,1.194,1.194,0,0,1-1.2-.239.927.927,0,0,1-.265-.635c-.01-.507,0-1.014-.006-1.52,0-.1.039-.141.141-.139.4.008.331-.047.335.33,0,.4.005.8,0,1.193a.612.612,0,0,0,.9.562.628.628,0,0,0,.333-.652c.006-.435,0-.871,0-1.307,0-.094.025-.131.118-.126s.168,0,.251,0,.1.033.1.109c-.005.26,0,.519,0,.779" transform="translate(-384.158 -676.32)" fill="#0090ff"/>
      <path id="Path_723" data-name="Path 723" d="M615.168,678.846q-.8-.008-1.61,0c-.108,0-.148-.034-.147-.145,0-.377,0-.754,0-1.132s0-.738,0-1.107c0-.116.03-.164.155-.162.52.006,1.04,0,1.559,0,.107,0,.151.032.149.144-.006.324.024.282-.283.284s-.629,0-.943,0c-.121,0-.169.044-.161.163.005.079,0,.159,0,.239,0,.169.012.181.177.182.218,0,.436,0,.654,0,.1,0,.153.026.129.137a.536.536,0,0,0,0,.126c.005.161.005.161-.151.162-.218,0-.436,0-.654,0-.115,0-.158.045-.154.157s0,.243,0,.365c0,.16.024.184.181.184h1.069c.181,0,.183,0,.184.182a.581.581,0,0,0,0,.063c.014.117-.031.164-.155.162" transform="translate(-601.008 -676.293)" fill="#0090ff"/>
      <path id="Path_724" data-name="Path 724" d="M676.033,676.69c0,.679,0,1.357,0,2.036,0,.159-.006.164-.161.165-.294,0-.294,0-.293-.291v-.98h-.007c0-.394,0-.787,0-1.181,0-.058.016-.088.075-.089h.025c.435,0,.359-.053.361.34" transform="translate(-660.589 -676.341)" fill="#0090ff"/>
      <path id="Path_725" data-name="Path 725" d="M450.7,678.569c-.321-.719-.648-1.435-.948-2.162a.349.349,0,0,0-.418-.261.2.2,0,0,0-.2.135c-.2.465-.406.928-.611,1.391-.137.31-.276.62-.412.93-.013.03-.053.086.006.091a2.85,2.85,0,0,0,.412,0c.042,0,.056-.058.072-.1.047-.107.1-.214.138-.324a.19.19,0,0,1,.2-.131c.243,0,.486,0,.729,0,.391,0,.319-.057.476.319.117.28.1.229.342.234.042,0,.084,0,.125,0,.1.006.126-.023.081-.124m-.994-.836c-.1,0-.2,0-.3,0h-.289c-.091,0-.124-.044-.088-.13q.155-.364.313-.727c.013-.03.027-.065.069-.063s.056.033.07.064q.157.357.313.713c.038.087.013.139-.087.141" transform="translate(-442.543 -676.141)" fill="#0090ff"/>
      <path id="Path_726" data-name="Path 726" d="M513.464,676.362c-.19.537-.374,1.076-.561,1.614-.077.222-.157.442-.229.666a.17.17,0,0,1-.19.139c-.317-.009-.254.036-.354-.252-.153-.443-.319-.882-.454-1.331-.01-.033-.024-.067-.065-.067-.056,0-.061.05-.074.088-.162.467-.327.933-.482,1.4a.2.2,0,0,1-.224.161c-.241-.008-.239,0-.317-.225q-.376-1.073-.753-2.146a.608.608,0,0,0-.023-.072c-.042-.085,0-.1.076-.1.05,0,.1,0,.151,0a.633.633,0,0,0,.1,0c.122-.019.171.048.2.152.154.5.311.99.468,1.485.012.036.022.077.069.077s.058-.04.07-.077c.168-.509.337-1.018.5-1.527a.137.137,0,0,1,.141-.112c.277-.012.283-.016.373.244.158.459.309.921.462,1.382.013.038.01.094.068.09s.057-.053.069-.093c.161-.5.324-1,.483-1.508a.137.137,0,0,1,.154-.113c.084,0,.168,0,.252,0s.116.029.084.121" transform="translate(-501.621 -676.23)" fill="#0090ff"/>
    </g>
  </g>
</svg>
