<svg xmlns="http://www.w3.org/2000/svg" width="16.133" height="16.132" viewBox="0 0 16.133 16.132">
  <g id="Huawei-app" transform="translate(-191.912 -191.934)">
    <path id="Path_727" data-name="Path 727" d="M208.045,196.235a7.238,7.238,0,0,0-.2-1.735,3.755,3.755,0,0,0-.307-.831,2.787,2.787,0,0,0-1.441-1.324,4.851,4.851,0,0,0-1.2-.318,7.239,7.239,0,0,0-1.026-.088q-2.51-.006-5.02,0h-2.11a12.516,12.516,0,0,0-1.453.06,5.266,5.266,0,0,0-1.39.329,2.789,2.789,0,0,0-1.365,1.127,3.813,3.813,0,0,0-.472,1.229,7.183,7.183,0,0,0-.154,1.51q0,3.718,0,7.436a8.438,8.438,0,0,0,.094,1.389,4.865,4.865,0,0,0,.3,1.1,2.861,2.861,0,0,0,1.833,1.658,6.494,6.494,0,0,0,1.632.283c1.4.007,2.8,0,4.206,0v0c1.217,0,2.434,0,3.65,0a8.141,8.141,0,0,0,1.365-.093,4.809,4.809,0,0,0,1.147-.323,2.8,2.8,0,0,0,1.508-1.533,4.639,4.639,0,0,0,.3-1.113,7.725,7.725,0,0,0,.092-1.167Q208.041,200.036,208.045,196.235Zm-11.794-2.55a2.582,2.582,0,0,1-.18-.277.186.186,0,1,0-.318.191c.058.1.12.2.18.3a.471.471,0,0,1-.532-.4.491.491,0,0,1,.373-.514.468.468,0,0,1,.545.321A.4.4,0,0,1,196.25,193.685Zm7.821.236c-.036.006-.067-.014-.1-.018.064-.108.13-.216.192-.325a.172.172,0,0,0-.01-.194.176.176,0,0,0-.178-.078.2.2,0,0,0-.146.11,1.89,1.89,0,0,1-.179.268.164.164,0,0,1-.073-.12.47.47,0,1,1,.925-.122A.484.484,0,0,1,204.072,193.921Z" transform="translate(0)" fill="#277fff"/>
    <path id="Path_728" data-name="Path 728" d="M345.536,244.93c-.081.128-.16.258-.242.384a4.884,4.884,0,0,1-2.328,1.97,3.9,3.9,0,0,1-2.1.219,4.314,4.314,0,0,1-2.07-.978,4.709,4.709,0,0,1-.831-.888,5.9,5.9,0,0,1-.413-.629c-.015-.028-.025-.066-.056-.079-.06-.126-.122-.25-.18-.377a.261.261,0,0,1,.063-.338c.09-.064.193-.023.256.1a3.352,3.352,0,0,0,.18.343,3.872,3.872,0,0,0,.414.655,4.375,4.375,0,0,0,2.158,1.607,3.578,3.578,0,0,0,1.643.139,4.2,4.2,0,0,0,2.773-1.746,5.073,5.073,0,0,0,.383-.588c.012-.021.031-.037.028-.068a2.446,2.446,0,0,0,.179-.332.21.21,0,0,1,.146-.136.165.165,0,0,1,.178.1.255.255,0,0,1,.01.241c-.062.135-.128.268-.192.4" transform="translate(-141.565 -50.883)" fill="#fefefe"/>
  </g>
</svg>
