<svg xmlns="http://www.w3.org/2000/svg" width="17.508" height="12.311" viewBox="0 0 17.508 12.311">
  <path id="Icon_awesome-youtube" data-name="Icon awesome-youtube" d="M18.192,6.426a2.2,2.2,0,0,0-1.548-1.558A51.989,51.989,0,0,0,9.8,4.5a51.989,51.989,0,0,0-6.84.368A2.2,2.2,0,0,0,1.416,6.426a23.078,23.078,0,0,0-.366,4.242,23.078,23.078,0,0,0,.366,4.242,2.167,2.167,0,0,0,1.548,1.533,51.99,51.99,0,0,0,6.84.368,51.99,51.99,0,0,0,6.84-.368,2.167,2.167,0,0,0,1.548-1.533,23.078,23.078,0,0,0,.366-4.242,23.078,23.078,0,0,0-.366-4.242ZM8.014,13.271V8.064l4.576,2.6-4.576,2.6Z" transform="translate(-1.05 -4.5)" fill="#0090ff"/>
</svg>
