<svg xmlns="http://www.w3.org/2000/svg" width="17.225" height="13.998" viewBox="0 0 17.225 13.998">
  <path id="Icon_metro-twitter" data-name="Icon metro-twitter" d="M19.8,6.474a7.066,7.066,0,0,1-2.03.556A3.545,3.545,0,0,0,19.32,5.076a7.075,7.075,0,0,1-2.244.858,3.537,3.537,0,0,0-6.022,3.223A10.033,10.033,0,0,1,3.77,5.464a3.538,3.538,0,0,0,1.094,4.718,3.519,3.519,0,0,1-1.6-.442c0,.015,0,.03,0,.044A3.536,3.536,0,0,0,6.1,13.25a3.54,3.54,0,0,1-1.6.061,3.537,3.537,0,0,0,3.3,2.454,7.09,7.09,0,0,1-4.389,1.513,7.168,7.168,0,0,1-.843-.049A10.05,10.05,0,0,0,18.043,8.761q0-.23-.01-.457A7.179,7.179,0,0,0,19.8,6.474Z" transform="translate(-2.571 -4.817)" fill="#0090ff"/>
</svg>
