<svg xmlns="http://www.w3.org/2000/svg" width="16.499" height="11.137" viewBox="0 0 16.499 11.137">
  <path id="Icon_zocial-email" data-name="Icon zocial-email" d="M.072,14.219V5.054q0-.016.048-.3L5.513,9.366.136,14.537a1.348,1.348,0,0,1-.064-.318Zm.716-10.1a.686.686,0,0,1,.27-.048H15.584a.9.9,0,0,1,.286.048l-5.409,4.63-.716.573L8.329,10.48,6.913,9.318,6.2,8.746ZM.8,15.157l5.425-5.2,2.1,1.7,2.1-1.7,5.425,5.2a.764.764,0,0,1-.27.048H1.058A.721.721,0,0,1,.8,15.157ZM11.145,9.366l5.378-4.614a.95.95,0,0,1,.048.3v9.164a1.219,1.219,0,0,1-.048.318Z" transform="translate(-0.072 -4.068)" fill="#0090ff"/>
</svg>
