<svg xmlns="http://www.w3.org/2000/svg" width="13.664" height="16.26" viewBox="0 0 13.664 16.26">
  <path id="Icon_awesome-apple" data-name="Icon awesome-apple" d="M11.706,10.843a3.389,3.389,0,0,1,1.815-3.078,3.9,3.9,0,0,0-3.075-1.619c-1.289-.1-2.7.751-3.213.751-.545,0-1.793-.715-2.774-.715C2.434,6.214.281,7.8.281,11.017A9.048,9.048,0,0,0,.8,13.965c.465,1.332,2.142,4.6,3.892,4.545.915-.022,1.561-.65,2.752-.65,1.154,0,1.753.65,2.774.65,1.764-.025,3.282-2.995,3.725-4.331a3.6,3.6,0,0,1-2.24-3.336ZM9.651,4.882a3.419,3.419,0,0,0,.871-2.632A3.849,3.849,0,0,0,8.057,3.517a3.473,3.473,0,0,0-.929,2.61A3.049,3.049,0,0,0,9.651,4.882Z" transform="translate(-0.281 -2.25)" fill="#0090ff"/>
</svg>
