<svg xmlns="http://www.w3.org/2000/svg" width="11.825" height="13.796" viewBox="0 0 11.825 13.796">
  <path id="Icon-metro-file-pdf" d="M13.872,5.129a1.791,1.791,0,0,1,.37.585,1.777,1.777,0,0,1,.154.677V15.26a.736.736,0,0,1-.739.739H3.31a.736.736,0,0,1-.739-.739V2.943A.736.736,0,0,1,3.31,2.2h6.9a1.777,1.777,0,0,1,.677.154,1.791,1.791,0,0,1,.585.37ZM10.454,3.251V6.145h2.895a.841.841,0,0,0-.169-.316L10.77,3.42a.841.841,0,0,0-.316-.169ZM13.41,15.014V7.131h-3.2a.736.736,0,0,1-.739-.739v-3.2H3.556V15.014H13.41ZM9.453,10.449a5.858,5.858,0,0,0,.647.431,7.639,7.639,0,0,1,.9-.054q1.132,0,1.363.377a.372.372,0,0,1,.015.4.022.022,0,0,1-.008.015l-.015.015v.008q-.046.293-.547.293a3.176,3.176,0,0,1-.885-.154,5.614,5.614,0,0,1-1-.408,13.863,13.863,0,0,0-3.018.639q-1.178,2.017-1.863,2.017a.448.448,0,0,1-.216-.054l-.185-.092L4.6,13.844a.318.318,0,0,1-.046-.277,1.672,1.672,0,0,1,.431-.7A3.721,3.721,0,0,1,6,12.119a.112.112,0,0,1,.177.046.044.044,0,0,1,.015.031q.4-.654.824-1.517a11.75,11.75,0,0,0,.8-2.017,6.223,6.223,0,0,1-.235-1.228,2.993,2.993,0,0,1,.05-.982q.085-.308.323-.308h.169a.325.325,0,0,1,.269.115.615.615,0,0,1,.069.524.167.167,0,0,1-.031.062.2.2,0,0,1,.008.062v.231a10.081,10.081,0,0,1-.108,1.478,3.9,3.9,0,0,0,1.124,1.832ZM5.019,13.613A3.4,3.4,0,0,0,6.074,12.4a4.389,4.389,0,0,0-.674.647A2.559,2.559,0,0,0,5.019,13.613ZM8.083,6.53a2.289,2.289,0,0,0-.015,1.016q.008-.054.054-.339,0-.023.054-.331a.173.173,0,0,1,.031-.062A.022.022,0,0,1,8.2,6.8a.016.016,0,0,0,0-.012.016.016,0,0,1,0-.012.443.443,0,0,0-.1-.277.022.022,0,0,1-.008.015V6.53Zm-.955,5.089A11.292,11.292,0,0,1,9.315,11a1.161,1.161,0,0,1-.1-.073,1.379,1.379,0,0,1-.123-.1,4.078,4.078,0,0,1-.978-1.355,10.288,10.288,0,0,1-.639,1.517q-.231.431-.346.639ZM12.1,11.5a1.842,1.842,0,0,0-1.078-.185,2.912,2.912,0,0,0,.955.216.747.747,0,0,0,.139-.008q0-.008-.015-.023Z" transform="translate(-2.571 -2.203)" fill="#0090ff"/>
</svg>
