<svg xmlns="http://www.w3.org/2000/svg" width="18.521" height="18.521" viewBox="0 0 18.521 18.521">
  <g id="Icon_feather-instagram" data-name="Icon feather-instagram" transform="translate(-2.25 -2.25)">
    <path id="Path_691" data-name="Path 691" d="M7.255,3h8.51a4.255,4.255,0,0,1,4.255,4.255v8.51a4.255,4.255,0,0,1-4.255,4.255H7.255A4.255,4.255,0,0,1,3,15.766V7.255A4.255,4.255,0,0,1,7.255,3Z" fill="none" stroke="#0090ff" stroke-linecap="round" stroke-linejoin="round" stroke-width="1.5"/>
    <path id="Path_692" data-name="Path 692" d="M18.836,14.84a3.4,3.4,0,1,1-2.868-2.868,3.4,3.4,0,0,1,2.868,2.868Z" transform="translate(-3.922 -3.866)" fill="none" stroke="#0090ff" stroke-linecap="round" stroke-linejoin="round" stroke-width="1.5"/>
    <path id="Path_693" data-name="Path 693" d="M26.25,9.75h0" transform="translate(-10.059 -2.92)" fill="none" stroke="#0090ff" stroke-linecap="round" stroke-linejoin="round" stroke-width="1.5"/>
  </g>
</svg>
