<svg xmlns="http://www.w3.org/2000/svg" width="9.241" height="13.101" viewBox="0 0 9.241 13.101">
  <path id="Icon-awesome-lightbulb" d="M2.317,10.96a.772.772,0,0,0,.129.427l.412.62a.772.772,0,0,0,.643.344H4.99a.772.772,0,0,0,.643-.344l.412-.62a.772.772,0,0,0,.129-.427v-.925H2.316v.925ZM0,4.245A4.222,4.222,0,0,0,1.051,7.038,6.932,6.932,0,0,1,2.31,9.244l0,.019H6.178l0-.019A6.932,6.932,0,0,1,7.44,7.038,4.245,4.245,0,1,0,0,4.245Zm4.245-1.93a1.932,1.932,0,0,0-1.93,1.93.386.386,0,1,1-.772,0,2.7,2.7,0,0,1,2.7-2.7.386.386,0,1,1,0,.772Z" transform="translate(0.375 0.375)" fill="none" stroke="#000" stroke-width="0.75" opacity="0.57"/>
</svg>
