<?xml version="1.0" encoding="utf-8"?>
<!-- Generator: Adobe Illustrator 21.0.0, SVG Export Plug-In . SVG Version: 6.00 Build 0)  -->
<svg version="1.1" id="Layer_1" xmlns="http://www.w3.org/2000/svg" xmlns:xlink="http://www.w3.org/1999/xlink" x="0px" y="0px"
	 viewBox="0 0 78 273.7" style="enable-background:new 0 0 78 273.7;" xml:space="preserve">
<style type="text/css">
	.st0{opacity:0.71;}
	.st1{fill:#40B9FF;}
	.st2{fill:#3275C7;}
	.st3{fill:#BDE6FF;}
	.st4{fill:#FFFFFF;}
	.st5{fill:#004EB5;}
	.st6{fill:#0071CC;}
	.st7{fill:#155AB0;}
	.st8{fill:#508CD6;}
	.st9{opacity:0.1;enable-background:new    ;}
	.st10{fill:#2166BA;}
	.st11{fill:#656692;}
	.st12{fill:#DEF3FF;}
	.st13{fill:#191B4F;}
	.st14{fill:#D4E6FF;}
	.st15{fill:#ADD0FF;}
</style>
<g class="st0">
	<g transform="translate(51.038 105.747)">
		<g transform="translate(0)">
			<rect x="2.7" y="0" class="st1" width="5.3" height="16.3"/>
			<path class="st2" d="M2.7,0L0,7v2.3l2.7,7V0z"/>
			<path class="st3" d="M8,0L8,0c0.9,0,1.7,0.8,1.7,1.7l0,0v13c0,0.9-0.8,1.7-1.7,1.7l0,0l0,0V0L8,0z"/>
		</g>
		<path class="st4" d="M8,2.5C8,2.4,8,2.4,8,2.5c-0.1-0.1-0.1,0-0.1,0c0,2.9,0,5.7,0.1,8.6c0,0,0,0.1,0.1,0.1c0,0,0.1,0,0.1-0.1
			C8,8.2,8,5.3,8,2.5z"/>
		<path class="st4" d="M6.5,4.1v3.1c0,0,0,0.1,0.1,0.1c0,0,0.1,0,0.1-0.1V4.1C6.6,4.1,6.6,4,6.5,4.1C6.5,4,6.5,4.1,6.5,4.1z"/>
	</g>
	<g transform="translate(9.236 16.885)">
		<g transform="translate(32.408 0)">
			<path class="st5" d="M0.9,38.9c-0.4,0-0.7-0.3-0.7-0.7L0,0.7C0,0.3,0.3,0,0.7,0c0,0,0,0,0,0h2.6C3.6,0,4,0.3,4,0.7c0,0,0,0,0,0
				L3.8,38.3c0,0.4-0.3,0.7-0.7,0.7l0,0c-0.4,0-0.7-0.3-0.7-0.7l0,0L2.6,1.4H1.4l0.2,36.9C1.6,38.6,1.3,38.9,0.9,38.9L0.9,38.9
				L0.9,38.9z"/>
		</g>
		<g transform="translate(0 36.492)">
			<g transform="translate(3.619 184.094)">
				<path class="st5" d="M7.2,34H0L9.9,6l2-6h14.7l-3.2,7.5L7.2,34z M2.9,32H6L21.6,6.5l1.9-4.4h-10l-1.6,4.6L2.9,32z"/>
			</g>
			<g transform="translate(8.773 189.777)">
				<path class="st5" d="M9,15.6H0.7c-0.4,0-0.7-0.3-0.7-0.7c0-0.4,0.3-0.7,0.7-0.7h7.5L5.1,0.8C5,0.5,5.2,0.1,5.6,0
					s0.7,0.1,0.8,0.5l0,0l3.3,14.2c0.1,0.4-0.1,0.7-0.5,0.8C9.1,15.6,9.1,15.6,9,15.6L9,15.6z"/>
			</g>
			<path class="st6" d="M14.1,220.3H0l2.5-2.3h9.1L14.1,220.3z"/>
			<g transform="translate(38.55 184.094)">
				<path class="st5" d="M26.6,34h-7.2L3.1,7.4L0,0h14.7l2.1,6L26.6,34z M20.6,32h3.1L14.8,6.7l-1.6-4.6H3.1L5,6.5L20.6,32z"/>
				<g transform="translate(11.753 5.683)">
					<path class="st5" d="M9,15.6H0.7c-0.4,0-0.7-0.3-0.7-0.7c0-0.1,0-0.1,0-0.2L3.3,0.5C3.4,0.2,3.8-0.1,4.1,0s0.6,0.5,0.5,0.8
						L1.6,14.2H9c0.4,0,0.7,0.3,0.7,0.7C9.7,15.3,9.4,15.6,9,15.6L9,15.6L9,15.6z"/>
				</g>
				<path class="st6" d="M16.2,36.2h14l-2.5-2.3h-9.1L16.2,36.2z"/>
			</g>
			<g transform="translate(15.15)">
				<path class="st5" d="M38.5,186.2H0l11-94.4V15.7l6.2-14.3c0.5-1.1,1.8-1.7,2.9-1.2c0.5,0.2,0.9,0.6,1.2,1.2l6.2,14.3v76.1
					L38.5,186.2z M2.3,184.1h33.8L25.4,91.9V16.1l-6-14c0-0.1-0.1-0.1-0.2-0.1c0,0-0.1,0-0.1,0.1l-6,14v75.8l0,0.1L2.3,184.1z"/>
			</g>
			<g transform="translate(19.971 153.379)">
				<rect x="0" y="0" class="st5" width="28.8" height="2.1"/>
			</g>
			<g transform="translate(23.557 122.087)">
				<rect x="0" y="0" class="st5" width="21.6" height="2.1"/>
			</g>
			<g transform="translate(27.162 90.794)">
				<rect x="0" y="0" class="st5" width="14.4" height="2.1"/>
			</g>
			<g transform="translate(27.212 59.502)">
				<rect x="0" y="0" class="st5" width="14.4" height="2.1"/>
			</g>
			<g transform="translate(27.212 28.21)">
				<rect x="0" y="0" class="st5" width="14.4" height="2.1"/>
			</g>
			<g transform="translate(19.281 15.222)">
				<path class="st5" d="M33.2,170.6c-0.2,0-0.3-0.1-0.5-0.2L0.2,139.7c-0.3-0.2-0.3-0.7-0.1-0.9l24.9-30.9L7.3,77
					c-0.1-0.2-0.1-0.4,0-0.6l14.2-31l-14.2-31c-0.1-0.3-0.1-0.6,0.2-0.8L21.8,0.2c0.3-0.3,0.7-0.3,1,0c0.3,0.3,0.3,0.7,0,1
					c0,0,0,0,0,0l-14,13L22.9,45c0.1,0.2,0.1,0.4,0,0.6l-14.2,31l17.8,31c0.1,0.2,0.1,0.6-0.1,0.8L1.6,139.1l32,30.3
					c0.3,0.3,0.3,0.7,0,1C33.6,170.5,33.4,170.6,33.2,170.6L33.2,170.6z"/>
			</g>
			<g transform="translate(15.623 15.222)">
				<path class="st5" d="M0.7,170.6c-0.4,0-0.7-0.3-0.7-0.7c0-0.2,0.1-0.4,0.2-0.5l32-30.3L7.4,108.3c-0.2-0.2-0.2-0.5-0.1-0.8
					l17.8-31L11,45.6c-0.1-0.2-0.1-0.4,0-0.6l14.2-30.8l-14-13c-0.3-0.3-0.3-0.7,0-1c0.3-0.3,0.7-0.3,1,0l14.4,13.3
					c0.2,0.2,0.3,0.5,0.2,0.8l-14.2,31l14.2,31c0.1,0.2,0.1,0.4,0,0.6L8.8,107.8l24.9,30.9c0.2,0.3,0.2,0.7-0.1,0.9L1.2,170.4
					C1,170.5,0.9,170.6,0.7,170.6z"/>
			</g>
		</g>
	</g>
	<g transform="translate(0 46.4)">
		<path class="st7" d="M41.8,24.1c0,13.3-11.3,24.1-22.2,24.1S0,37.5,0,24.1S8.8,0,19.6,0S41.8,10.8,41.8,24.1z"/>
		<ellipse class="st2" cx="19.6" cy="24.1" rx="19.6" ry="24.1"/>
		<path class="st8" d="M37.6,14.4c0-0.1-0.1-0.2-0.1-0.3c-2.8,3.8-6.3,7-10.4,9.4c3.4-6.3,4.1-13.7,2-20.6c-0.1-0.1-0.2-0.1-0.3-0.2
			c2.3,7,1.5,14.6-2.1,21l-0.1,0c-0.1-10-5.1-18.7-12.3-22.9c-0.1,0-0.2,0.1-0.3,0.1c7.2,4.1,12.2,12.6,12.3,22.5
			c-0.3-0.6-0.7-1.1-1-1.6c-3.6-5.6-9.1-9.7-15.5-11.5C8,9.8,6,9.5,4.1,9.4C4,9.5,4,9.6,3.9,9.7c2,0,4,0.3,5.9,0.9
			c6.3,1.9,11.8,5.9,15.4,11.4c0.4,0.7,0.8,1.3,1.2,2L26.3,24c-3.6-2-7.5-3.5-11.6-4.5c-4.6-1.2-9.4-1.6-14.1-1.3c0,0.1,0,0.2,0,0.2
			c1-0.1,2-0.1,3-0.1c7.9,0,15.6,2,22.5,5.8c-3.6,2-7.4,3.5-11.4,4.4c-4.6,1.2-9.4,1.6-14.1,1.3c0,0.1,0,0.2,0,0.2
			c1,0.1,2,0.1,3,0.1c7.9,0,15.8-2.1,22.7-5.9l0.1,0.1v0c-0.4,0.7-0.8,1.3-1.2,2c-3.6,5.5-9.1,9.6-15.4,11.4
			c-1.9,0.5-3.9,0.8-5.9,0.9c0,0.1,0.1,0.1,0.1,0.2c2,0,3.9-0.3,5.8-0.9c6.4-1.9,11.9-6,15.5-11.5c0.4-0.5,0.7-1.1,1-1.6
			c-0.3,9.9-5.4,18.4-12.6,22.4c0.1,0,0.2,0.1,0.3,0.1c7.3-4.1,12.4-12.8,12.6-22.8l0.1,0.1c3.6,6.4,4.3,14,2.1,21
			c0.1-0.1,0.2-0.1,0.3-0.2c2.1-6.8,1.4-14.3-2-20.6c4.1,2.4,7.7,5.5,10.4,9.4c0-0.1,0.1-0.2,0.1-0.3c-2.9-3.9-6.5-7.1-10.7-9.5
			c0-0.1-0.1-0.1-0.1-0.2c0-0.1,0.1-0.1,0.1-0.2C31.1,21.6,34.8,18.3,37.6,14.4z"/>
		<path class="st7" d="M29.2,24c-0.2,1.5-1.6,2.5-3.1,2.2c-1.5-0.2-2.5-1.6-2.2-3.1c0.2-1.3,1.3-2.3,2.6-2.3
			C28.1,21,29.3,22.4,29.2,24z"/>
		<path class="st9" d="M7.3,31.2c0-13.3,8.8-24.1,19.6-24.1c2.9,0,5.7,0.8,8.2,2.2C31.6,3.6,25.9,0,19.6,0C8.8,0,0,10.8,0,24.1
			c0,9.7,4.7,18.1,11.4,21.9C8.6,41.6,7.2,36.5,7.3,31.2z"/>
		<path class="st4" d="M35.7,30.7c-1.1,6.5-7,11.4-13.1,13.2c-2.1,0.7-4.4,0.7-6.6,0.1c-0.1,0-0.1,0.1,0,0.1
			c3.6,1.2,7.6-0.1,10.7-1.8c2.9-1.5,5.4-3.8,7.2-6.6c1-1.5,1.6-3.2,1.9-5C35.9,30.6,35.7,30.6,35.7,30.7z"/>
		<path class="st4" d="M31.7,36.3c-0.8,1.1-1.7,2.1-2.8,3c-0.1,0.1,0,0.2,0.1,0.1c1.1-0.8,2-1.9,2.8-3
			C31.9,36.3,31.8,36.2,31.7,36.3z"/>
	</g>
	<g transform="translate(49.371 57.324)">
		<g transform="translate(0 0)">
			<path class="st10" d="M0,12c0,6.6,5.7,12,10.7,12s9-5.4,9-12s-4-12-9-12S0,5.4,0,12z"/>
			<ellipse class="st11" cx="10.7" cy="12" rx="9" ry="12"/>
			<rect x="10.7" y="0" class="st11" width="2.5" height="23.9"/>
			<ellipse class="st2" cx="10.7" cy="12" rx="9" ry="12"/>
			<rect x="10.7" y="0" class="st2" width="2.5" height="23.9"/>
			<ellipse class="st12" cx="13.2" cy="12" rx="9" ry="12"/>
			<ellipse class="st3" cx="13.4" cy="12" rx="8.6" ry="11.4"/>
		</g>
		<path class="st4" d="M19.2,10.2c0-0.1-0.2-0.1-0.1,0c0.2,2.6-0.3,5.2-1.4,7.5c-0.5,1.1-1.3,2-2.4,2.5c-1,0.5-2.2,0.7-3.3,0.4
			c-0.1,0-0.1,0.1,0,0.1c1.7,0.4,3.4-0.1,4.7-1.3c0.7-0.7,1.2-1.6,1.6-2.6c0.4-1,0.7-2,0.9-3.1C19.2,12.7,19.3,11.5,19.2,10.2z"/>
		<path class="st4" d="M17.6,13.7c0,1.3-0.4,2.5-1.2,3.6c-0.1,0.1,0.1,0.2,0.1,0.1c0.7-1.1,1.1-2.4,1.2-3.7
			C17.7,13.7,17.7,13.6,17.6,13.7C17.6,13.6,17.6,13.7,17.6,13.7z"/>
	</g>
	<g transform="translate(27.048 107.534)">
		<g transform="translate(0)">
			<ellipse class="st1" cx="7.8" cy="7.6" rx="7" ry="7.6"/>
			<rect x="7.1" y="0" class="st11" width="0.6" height="15.2"/>
			<ellipse class="st3" cx="7" cy="7.6" rx="7" ry="7.6"/>
			<ellipse class="st12" cx="6.8" cy="7.6" rx="6.6" ry="7.2"/>
		</g>
		<path class="st4" d="M4.2,2.1c-2.2,2-2.9,5.2-1.8,8c0,0.1,0.2,0,0.1-0.1C1.4,7.3,2.1,4.2,4.3,2.2C4.4,2.2,4.3,2.1,4.2,2.1z"/>
		<path class="st4" d="M4.3,4.1c-0.6,0.8-1,1.7-1,2.7c0,0.1,0.1,0.1,0.1,0c0-0.9,0.4-1.8,1-2.6C4.5,4.1,4.4,4,4.3,4.1z"/>
	</g>
	<g transform="translate(37.12)">
		<g transform="translate(0)">
			<path class="st13" d="M3.4,10.3L3.4,10.3c1.2,0,2.1,0.9,2.1,2.1v11.3c0,1.2-0.9,2.1-2.1,2.1l0,0c-1.2,0-2.1-0.9-2.1-2.1V12.4
				C1.2,11.3,2.2,10.3,3.4,10.3z"/>
			<path class="st14" d="M2.4,36.2L2.4,36.2c-1.3,0-2.4-1.1-2.4-2.4V2.4C0,1.1,1.1,0,2.4,0l0,0c1.3,0,2.4,1.1,2.4,2.4c0,0,0,0,0,0
				v31.3C4.9,35.1,3.8,36.2,2.4,36.2C2.4,36.2,2.4,36.2,2.4,36.2z"/>
			<g transform="translate(0 9.228)">
				<rect x="0" y="0" class="st15" width="4.9" height="0.5"/>
				<rect x="0" y="17.2" class="st15" width="4.9" height="0.5"/>
			</g>
			<path class="st15" d="M3.6,20.5L3.6,20.5c-0.3,0-0.5-0.2-0.5-0.5v-5c0-0.3,0.2-0.5,0.5-0.5l0,0c0.3,0,0.5,0.2,0.5,0.5v5
				C4,20.3,3.8,20.5,3.6,20.5z"/>
			<path class="st15" d="M0.7,20.5L0.7,20.5c-0.2,0-0.3-0.1-0.3-0.3c0,0,0,0,0,0v-5.4c0-0.2,0.1-0.3,0.3-0.3c0,0,0,0,0,0l0,0
				c0.2,0,0.3,0.1,0.3,0.3v0v5.4C1,20.4,0.9,20.5,0.7,20.5z"/>
		</g>
		<g transform="translate(7.534)">
			<path class="st13" d="M2.1,25.9L2.1,25.9c-1.2,0-2.1-0.9-2.1-2.1V12.4c0-1.2,0.9-2.1,2.1-2.1l0,0c1.2,0,2.1,0.9,2.1,2.1v11.3
				C4.2,24.9,3.3,25.9,2.1,25.9z"/>
			<path class="st14" d="M3.1,36.2L3.1,36.2c1.3,0,2.4-1.1,2.4-2.4V2.4C5.5,1.1,4.4,0,3.1,0l0,0C1.7,0,0.6,1.1,0.6,2.4c0,0,0,0,0,0
				v31.3C0.6,35.1,1.7,36.2,3.1,36.2z"/>
			<g transform="translate(0.612 9.228)">
				<rect x="0" y="0" class="st15" width="4.9" height="0.5"/>
				<rect x="0" y="17.2" class="st15" width="4.9" height="0.5"/>
			</g>
			<path class="st15" d="M1.9,20.5L1.9,20.5c0.3,0,0.5-0.2,0.5-0.5v-5c0-0.3-0.2-0.5-0.5-0.5l0,0c-0.3,0-0.5,0.2-0.5,0.5
				c0,0,0,0,0,0v5C1.4,20.3,1.6,20.5,1.9,20.5z"/>
			<path class="st15" d="M4.8,20.5L4.8,20.5c0.2,0,0.3-0.1,0.3-0.3v0v-5.4c0-0.2-0.1-0.3-0.3-0.3h0l0,0c-0.2,0-0.3,0.1-0.3,0.3
				c0,0,0,0,0,0v5.4C4.5,20.4,4.6,20.5,4.8,20.5z"/>
		</g>
		<path class="st4" d="M1.2,2.6L1.2,13.4c0,0,0,0.1,0.1,0.1c0,0,0.1,0,0.1-0.1L1.4,2.6C1.4,2.6,1.4,2.6,1.2,2.6
			C1.3,2.6,1.2,2.6,1.2,2.6z"/>
		<path class="st4" d="M1.9,7.4c0,1.4-0.1,2.7-0.1,4.1c0,0,0,0.1,0.1,0.1c0,0,0.1,0,0.1-0.1C2,10.2,2,8.8,2.1,7.4
			C2.1,7.4,2,7.3,1.9,7.4C2,7.3,1.9,7.4,1.9,7.4z"/>
		<path class="st4" d="M11.7,5.3c0-0.1-0.1-0.1-0.1,0c0.1,2.6,0.1,5.2,0.2,7.7c0,0,0,0.1,0.1,0.1c0,0,0.1,0,0.1-0.1
			C11.9,10.4,11.8,7.9,11.7,5.3z"/>
		<path class="st4" d="M11.2,10.6c0-0.1-0.1-0.1-0.1,0c0,0.8,0,1.6,0.1,2.5c0,0.1,0.2,0.1,0.1,0C11.2,12.3,11.2,11.4,11.2,10.6z"/>
		<path class="st4" d="M2.2,34.6c-1.1-0.1-1.3-1.3-1.3-2.2c0-1,0.1-2,0.1-2.9c0-2,0-3.9-0.1-5.9c0-0.1-0.2-0.1-0.1,0
			c0.1,2.3,0.2,4.5,0.1,6.8c0,0.6,0,1.1-0.1,1.7c0,0.4,0,0.9,0,1.3c0.1,0.7,0.6,1.2,1.3,1.3C2.3,34.8,2.3,34.6,2.2,34.6z"/>
		<path class="st4" d="M12,22.5C12,22.4,12,22.4,12,22.5c-0.1-0.1-0.1,0-0.1,0c0,2.7,0.1,5.4,0.1,8.1c0,0,0,0.1,0.1,0.1
			c0,0,0.1,0,0.1-0.1C12.1,27.9,12,25.2,12,22.5z"/>
		<path class="st4" d="M11.5,24.9c0-0.1-0.2-0.1-0.1,0l0.1,2.6c0,0.1,0.2,0.1,0.1,0C11.6,26.6,11.5,25.7,11.5,24.9z"/>
	</g>
</g>
</svg>
