<svg xmlns="http://www.w3.org/2000/svg" width="376.259" height="130.261" viewBox="0 0 376.259 130.261"><g transform="translate(270.21)"><path d="M2168.212,1443.855a141.031,141.031,0,0,0,5.161-14.907c4.2-15.694,3.183-27.133,3.026-32.634-.021-.726,1.167-.926,1.27-.176a59.986,59.986,0,0,1,.454,7.809,96.874,96.874,0,0,1-.817,13.2c3.078.788,5.99-.392,8.372-2.51,4.106-3.652,5.572-8.518,6.217-13.91.066-.551.087-1.072.543-1.391a.319.319,0,0,1,.626.052c.651.657.336,1.976.235,2.825-1.355,11.482-8.46,17.048-14.181,17a8.348,8.348,0,0,1-2.072-.222q-.619,4.12-1.591,8.173a117.42,117.42,0,0,1-4.877,15.021c-6.523,16.811-8.6,25.4-10.458,30.264a.777.777,0,0,1-1.5-.422C2158.716,1471.678,2163.806,1455.116,2168.212,1443.855Z" transform="translate(-2094.402 -1342.939)" fill="#29446d"/><path d="M2074.856,1404.965c.062-.362.277-.6.359-.94.108-.447.85-.491.928,0,.044.281.2.454.265.742.2.929-.282,6.159.974,14.165a34.637,34.637,0,0,0,1.423,6.274,21.956,21.956,0,0,0,5.932,9.057,134.67,134.67,0,0,1,.942-14.03q.514-4.182,1.3-8.32.384-2.015.83-4.016a15.113,15.113,0,0,1,1.288-4.011.434.434,0,0,1,.806.223,16.4,16.4,0,0,1-.514,3.6q-.394,1.8-.738,3.618a133,133,0,0,0-2.329,25.9,53.719,53.719,0,0,0,7.058-11.668,53.055,53.055,0,0,0,4.258-15.492q.256-2.241.307-4.5.025-1.168.049-2.335c.008-.4.164-1.609.852-1.255.632.326.572,1.052.625,1.687.058.692.063,1.382.053,2.077q-.025,1.994-.215,3.981a55.509,55.509,0,0,1-10.193,26.836,27.962,27.962,0,0,1-2.772,3.486c.239,15.349,2.559,34.737,2.6,36.286a5.949,5.949,0,0,1-.121,1.03c-.106.7-1.037.535-1.228,0-.36-1.011-.323-1.405-.859-7-.957-9.985-2.029-32.859-2.025-33.786a21.848,21.848,0,0,1-7.219-9.728,28.9,28.9,0,0,1-1.655-6.191A72.34,72.34,0,0,1,2074.856,1404.965Z" transform="translate(-2023.159 -1348.244)" fill="#29446d"/><path d="M2185.916,1215.328a31.012,31.012,0,0,1-.191-3.449c0-13.066,8.119-23.658,18.135-23.658s18.135,10.592,18.135,23.658a30.952,30.952,0,0,1-.192,3.449Z" transform="translate(-2117.453 -1166.68)" fill="#184655"/><path d="M2089.917,1083.149q-.189-2.382-.191-4.864c0-18.426,8.119-33.364,18.135-33.364S2126,1059.858,2126,1078.285q0,2.478-.191,4.864Z" transform="translate(-2035.885 -1044.921)" fill="#3c8f7c"/><path d="M1975.061,1219.152a48.513,48.513,0,0,0,.243-4.864c0-18.426-10.293-33.364-22.99-33.364s-22.99,14.937-22.99,33.364a48.659,48.659,0,0,0,.243,4.864Z" transform="translate(-1899.597 -1160.48)" fill="#184655"/><path d="M2002.821,1180.925c6.959,0,13.177,4.739,17.28,12.171a21.247,21.247,0,0,1,6.611-1.05c12.356,0,22.373,10.592,22.373,23.658a25.236,25.236,0,0,1-.236,3.449h-68.164q-.233-2.382-.236-4.864C1980.448,1195.862,1990.465,1180.925,2002.821,1180.925Z" transform="translate(-1943.035 -1160.48)" fill="#3c8f7c"/><path d="M1867.916,1614.153l2.417-3.088a5.118,5.118,0,0,0-.8-7.187h0c-5.513-4.146-13.552-2.76-17.957,3.1l-3.22,4.281a6.164,6.164,0,0,1-5.707,2.473,5.445,5.445,0,0,0-5.01,2.21l-1.7,2.257a10.292,10.292,0,0,0-1.83,8.416,6.244,6.244,0,0,1-1.144,5.1l-2.4,3.2a7.781,7.781,0,0,0,1.211,10.927l3.32-3.244c3.326,2.5,6.755,6.337,9.412,2.8h0c2.811-4.874,6.071-6.454,8.7-6.778a14.671,14.671,0,0,0,9.9-5.753l.34-.452a14.568,14.568,0,0,0,2.634-11.711C1865.716,1618.928,1866,1616.7,1867.916,1614.153Z" transform="translate(-1814.252 -1517.823)" fill="#327765"/><path d="M1731.569,1767.373s12.466-16.558,20.31-19.1,1.713,6.209,1.713,6.209,12.654-13.879,17.76-12.507c4.681,1.258,0,10.689,0,10.689s5.272-5.223,11.666-5.223-4.942,19.557-4.942,19.557Z" transform="translate(-1731.569 -1637.112)" fill="#50bfa5"/><path d="M1996.216,1780.36s10.141-25.527,20.694-22.892c8.551,2.135,4.023,11.58,4.545,11.059s1.936-3.542,9.357-3.542-.132,9.233-.132,9.233,13.665-3.668,14.9,1.517c1.027,4.3-4.719,4.625-4.719,4.625Z" transform="translate(-1956.433 -1650.192)" fill="#96d9c9"/></g><g transform="translate(0 13.432)"><path d="M180.186,1442.6c.012-.4.565-.711.859-.356s.28.115.565.88a24.817,24.817,0,0,0,3.419,6.176,25.807,25.807,0,0,0,8.348,7.128,23.841,23.841,0,0,1-2.179-8.776,7,7,0,0,1,.452-3.236.379.379,0,0,1,.686.09c.253,1.551-.12,2.72.384,5.5,1.2,6.623,5.952,13.648,10.535,18.568-.879-8.328-1.3-17.793.267-26.193.258-1.378.668-2.688,1.049-4.034a.252.252,0,0,1,.485.134c-.079.448-.828,6.228-.873,6.627a102.909,102.909,0,0,0-.016,19.947,39.914,39.914,0,0,0,7.048-16.29c.329-1.734.417-3.525.878-5.227.064-.235.452-.26.5,0,.474,2.55-.475,7.061-1.166,9.512a39.12,39.12,0,0,1-6.706,13.4c-.119.155,4.92,39.024,4.785,39.516-.229.83-1.678,1.413-1.9-.06-.092-.6-2.861-24.234-4.11-35.181-.472-.26-.776-.721-1.99-2.083a52.424,52.424,0,0,1-7.448-10.775c-1.115-.063-9.165-3.971-13.158-12.871-.115-.257-.634-1.461-.708-1.73A2.058,2.058,0,0,1,180.186,1442.6Z" transform="translate(-169.701 -1392.478)" fill="#29446d"/><path d="M351.547,1221.056q-.138-1.794-.139-3.665c0-13.883,5.905-25.138,13.19-25.138s13.19,11.255,13.19,25.138q0,1.867-.139,3.665Z" transform="translate(-315.208 -1183.538)" fill="#184655"/><path d="M252.243,1165.613q-.138-2.531-.139-5.168c0-19.579,5.905-26.172,13.19-26.172s13.19,6.593,13.19,26.172q0,2.633-.14,5.168Z" transform="translate(-230.832 -1134.273)" fill="#3c8f7c"/><path d="M136.837,1324.47q.138-1.795.139-3.665c0-13.883-5.905-25.138-13.19-25.138s-13.19,11.254-13.19,25.138q0,1.867.139,3.665Z" transform="translate(-110.596 -1271.406)" fill="#3c8f7c"/><path d="M237.561,1257.679q.175-2.531.177-5.168c0-19.579-7.486-35.451-16.721-35.451s-16.721,15.872-16.721,35.451q0,2.633.177,5.168Z" transform="translate(-190.21 -1204.615)" fill="#184655"/><path d="M256.316,1217.06c4.615,0,8.739,5.035,11.46,12.932a9.391,9.391,0,0,1,4.384-1.115c8.194,0,14.837,11.255,14.837,25.138q0,1.867-.157,3.665H241.636q-.155-2.531-.157-5.168C241.479,1232.932,248.122,1217.06,256.316,1217.06Z" transform="translate(-221.804 -1204.615)" fill="#3c8f7c"/></g><path d="M357.594,1777.127s-11.548-15.339-18.815-17.692-1.587,5.753-1.587,5.753-11.722-12.858-16.453-11.587c-4.337,1.165,0,9.9,0,9.9s-4.884-4.839-10.807-4.839,4.578,18.118,4.578,18.118Z" transform="translate(-278.426 -1646.994)" fill="#50bfa5"/><path d="M186.982,1795.212s-8-22.57-17.78-20.129c-7.922,1.979-2.18,14.06-2.663,13.577s-4.732-7.693-11.607-7.693,2.11,9.73,2.11,9.73-14.648-4.575-15.8.229c-.952,3.987,4.372,4.285,4.372,4.285Z" transform="translate(-136.542 -1665.165)" fill="#3c8f7c"/></svg>