<?xml version="1.0" encoding="utf-8"?>
<!-- Generator: Adobe Illustrator 21.0.0, SVG Export Plug-In . SVG Version: 6.00 Build 0)  -->
<svg version="1.1" id="Layer_1" xmlns="http://www.w3.org/2000/svg" xmlns:xlink="http://www.w3.org/1999/xlink" x="0px" y="0px"
	 viewBox="0 0 678.6 193.7" style="enable-background:new 0 0 678.6 193.7;" xml:space="preserve">
<style type="text/css">
	.st0{opacity:0.26;}
	.st1{fill:#4DD3D6;}
	.st2{opacity:0.24;}
</style>
<g>
	<g class="st0">
		<path class="st1" d="M550.4,165.5c-20.5-10.8-19.8-32.3-55.6-13.6c-31.6,16.5-24.3-15.6-44.9-10c-9.3,2.5-41.3,38.8-41.5,39
			c-24.7,58-27.2,53,102.9,39.4c35.1,0.4,106.3-8,106.3-8C609.9,204.2,562.6,171.9,550.4,165.5z"/>
		<g>
			<g>
				<path class="st1" d="M540.1,110.8c0.9-2.6,3.9-3.6,5.3-5.9c1.8-2.6,1.1-6.3-0.8-8.8c-0.1-0.2-8.8-17.3-17.9-9.8
					c-2.6,2.2-3.9,10.1-4.2,13.7c-0.5,5.4-1,10.9-1.5,16.3c-0.7,7.1,5.2,12.5,11.7,10.9c2.7-0.7,7-2.9,8.1-6
					C542.2,117.7,538.9,114.4,540.1,110.8z"/>
				<g>
					
						<rect x="519.9" y="138" transform="matrix(2.222194e-02 -0.9998 0.9998 2.222194e-02 381.0217 666.4199)" class="st1" width="22.7" height="0.8"/>
				</g>
				<g>
					
						<rect x="519.5" y="114.4" transform="matrix(2.222194e-02 -0.9998 0.9998 2.222194e-02 405.2152 643.9392)" class="st1" width="24.6" height="0.8"/>
				</g>
				<g>
					<polygon class="st1" points="532,108.4 525.6,104.5 526,103.8 531.8,107.3 538.2,101.1 538.8,101.7 					"/>
				</g>
				<g>
					<polygon class="st1" points="531.6,117.6 525,115 525.3,114.2 531.7,116.7 539.1,114.8 539.3,115.6 					"/>
				</g>
				<g>
					
						<rect x="533.2" y="113.8" transform="matrix(0.3621 -0.9321 0.9321 0.3621 235.166 572.0259)" class="st1" width="4.7" height="0.8"/>
				</g>
				<g>
					
						<rect x="527.8" y="101.4" transform="matrix(0.9999 -1.101989e-02 1.101989e-02 0.9999 -1.1084 5.8268)" class="st1" width="0.8" height="4.2"/>
				</g>
			</g>
			<g>
				<path class="st1" d="M519.4,114.2c0.1-2.4,0.2-4.9-1.2-6.7c-1.2-1.6-3.5-2.4-5.4-1.8c-1.9,0.5-3.5,2.3-3.9,4.3
					c-0.3,1.8,0.3,3.6,0.5,5.4c0.5,4.2-0.9,8.6,0.8,12.4c0.9,2.1,3.2,3.9,5.4,3.2c2.4-0.8,3.2-3.9,3.2-6
					C519.1,121.4,519.2,117.8,519.4,114.2z"/>
				<g>
					
						<rect x="514.1" y="131.1" transform="matrix(0.9995 -3.082311e-02 3.082311e-02 0.9995 -4.0522 15.9243)" class="st1" width="0.8" height="16.6"/>
				</g>
				<g>
					
						<rect x="513.6" y="115.4" transform="matrix(0.9995 -3.081374e-02 3.081374e-02 0.9995 -3.5552 15.8964)" class="st1" width="0.8" height="15.8"/>
				</g>
				<g>
					<polygon class="st1" points="514,121 510.7,118.3 511.2,117.7 513.9,119.8 517,116.4 517.6,117 					"/>
				</g>
				<g>
					
						<rect x="512.4" y="123.7" transform="matrix(0.3679 -0.9299 0.9299 0.3679 207.7281 556.0051)" class="st1" width="0.8" height="3"/>
				</g>
			</g>
		</g>
	</g>
	<g class="st0">
		<path class="st1" d="M509.1,158.6c-25.2-13.2-24.3-39.7-68.2-16.7c-38.8,20.2-29.8-19.2-55.2-12.3c-11.4,3.2-85.3,97.5-85.5,97.8
			c0,0,6.3-5.3,158.1-3.3c43.1,0.6,151.9-1.7,151.9-1.7C591.9,212,524.1,166.4,509.1,158.6z"/>
		<path class="st1" d="M357.1,140.2c-25.2-13.2-24.3-39.7-68.2-16.7c-38.8,20.2-29.8-19.2-55.2-12.3c-11.4,3.2-85.3,97.5-85.5,97.8
			c0,0,6.3-5.3,158.1-3.3c43.1,0.6,151.9-1.7,151.9-1.7C439.9,193.6,372.1,148,357.1,140.2z"/>
		<g>
			<g>
				<path class="st1" d="M496.5,91.6c1.1-3.2,4.7-4.4,6.6-7.2c2.1-3.2,1.3-7.8-1-10.8c-0.2-0.2-10.8-21.2-22-12
					c-3.2,2.6-4.7,12.4-5.2,16.7c-0.6,6.7-1.2,13.3-1.8,20c-0.8,8.8,6.3,15.3,14.4,13.3c3.3-0.9,8.7-3.6,10-7.3
					C499.1,100,495,95.9,496.5,91.6z"/>
				<g>
					
						<rect x="471.6" y="124.9" transform="matrix(2.222194e-02 -0.9998 0.9998 2.222194e-02 349.422 608.0622)" class="st1" width="27.9" height="1"/>
				</g>
				<g>
					
						<rect x="471.2" y="95.9" transform="matrix(2.222194e-02 -0.9998 0.9998 2.222194e-02 379.0861 580.3787)" class="st1" width="30.2" height="1"/>
				</g>
				<g>
					<polygon class="st1" points="486.5,88.5 478.7,83.7 479.3,82.9 486.4,87.2 494.2,79.6 494.9,80.3 					"/>
				</g>
				<g>
					<polygon class="st1" points="486.2,99.8 478,96.7 478.4,95.8 486.3,98.7 495.3,96.3 495.6,97.2 					"/>
				</g>
				<g>
					
						<rect x="488" y="95.1" transform="matrix(0.3621 -0.9321 0.9321 0.3621 224.0878 518.655)" class="st1" width="5.9" height="1"/>
				</g>
				<g>
					
						<rect x="481.4" y="80" transform="matrix(0.9999 -1.101989e-02 1.101989e-02 0.9999 -0.8804 5.3153)" class="st1" width="1" height="5.1"/>
				</g>
			</g>
			<g>
				<path class="st1" d="M471.1,95.7c0.2-2.9,0.3-6-1.5-8.3c-1.5-1.9-4.3-2.9-6.7-2.2c-2.4,0.7-4.3,2.8-4.6,5.3
					c-0.4,2.2,0.4,4.4,0.6,6.7c0.6,5.1-1.1,10.6,1,15.3c1.1,2.6,3.9,4.8,6.6,3.9c2.9-1,3.9-4.7,4-7.4
					C470.8,104.5,470.9,100.1,471.1,95.7z"/>
				<g>
					
						<rect x="464.6" y="116.5" transform="matrix(0.9995 -3.082311e-02 3.082311e-02 0.9995 -3.6842 14.3957)" class="st1" width="1" height="20.4"/>
				</g>
				<g>
					
						<rect x="464" y="97.2" transform="matrix(0.9995 -3.081374e-02 3.081374e-02 0.9995 -3.0733 14.3634)" class="st1" width="1" height="19.4"/>
				</g>
				<g>
					<polygon class="st1" points="464.5,104 460.5,100.7 461.1,99.9 464.4,102.6 468.2,98.4 468.9,99 					"/>
				</g>
				<g>
					
						<rect x="462.5" y="107.4" transform="matrix(0.3679 -0.9299 0.9299 0.3679 191.0947 499.5802)" class="st1" width="1" height="3.6"/>
				</g>
			</g>
		</g>
	</g>
	<g class="st2">
		<path class="st1" d="M427.3,82c-2.4-0.9-5-0.5-7.4,0c-2.7,0.5-5.7,1.1-8.1-0.2c-1.9-1.1-3.1-3.1-4.6-4.6c-1.5-1.6-4-2.8-5.9-1.7
			c-2.2,1.3-2.1,4.8-4.3,6c-1.5,0.9-3.4,0.3-4.9-0.5c-2.2-1.2-4.3-3-7-2.1c-2.3,0.8-3.5,2.9-3.7,5.3c0,0.2,0,0.4,0,0.4h49.1
			C429.8,83.5,428.6,82.5,427.3,82z"/>
		<path class="st1" d="M413.6,78.9c1.8-2.6,3.2-4.4,8.1-4.4c3,0,7.7,3.7,10.6,3.3c2.1-0.3,4-1.8,6-1.2c1,0.4,1.6,1.2,1.8,2.3
			C440.1,78.9,413.6,78.9,413.6,78.9z"/>
	</g>
</g>
</svg>
