<svg xmlns="http://www.w3.org/2000/svg" width="26" height="26" viewBox="0 0 26 26"><g transform="translate(-6158 -786)"><g transform="translate(6161.649 789.427)"><path d="M10.394,18.351H7.957a.718.718,0,0,1-.717-.717v-1.07a7.572,7.572,0,0,1-1.92-.8l-.757.757a.718.718,0,0,1-1.014,0L1.826,14.8a.718.718,0,0,1,0-1.014l.757-.757a7.572,7.572,0,0,1-.8-1.92H.717A.718.718,0,0,1,0,10.394V7.957A.718.718,0,0,1,.717,7.24H1.785a7.572,7.572,0,0,1,.8-1.923l-.754-.754a.718.718,0,0,1,0-1.014L3.549,1.826a.718.718,0,0,1,1.014,0l.751.752a7.572,7.572,0,0,1,1.926-.8V.717A.718.718,0,0,1,7.957,0h2.437a.718.718,0,0,1,.717.717V1.775a7.576,7.576,0,0,1,1.929.8l.748-.748a.718.718,0,0,1,1.014,0l1.724,1.724a.718.718,0,0,1,0,1.014l-.748.748a7.576,7.576,0,0,1,.8,1.929h1.059a.718.718,0,0,1,.717.717v2.437a.718.718,0,0,1-.717.717H16.574a7.577,7.577,0,0,1-.8,1.926l.751.752a.718.718,0,0,1,0,1.014L14.8,16.526a.718.718,0,0,1-1.014,0l-.754-.754a7.576,7.576,0,0,1-1.923.8v1.068a.718.718,0,0,1-.717.717ZM5.267,14.957a.358.358,0,0,1,.193.056,6.863,6.863,0,0,0,2.217.919.358.358,0,0,1,.281.35v1.352h2.437v-1.35a.358.358,0,0,1,.281-.35,6.868,6.868,0,0,0,2.22-.918.358.358,0,0,1,.446.049l.953.953L16.019,14.3l-.951-.951a.358.358,0,0,1-.048-.447,6.868,6.868,0,0,0,.923-2.222.358.358,0,0,1,.35-.281h1.343V7.957H16.294a.358.358,0,0,1-.35-.281,6.864,6.864,0,0,0-.921-2.225A.359.359,0,0,1,15.071,5l.948-.948L14.3,2.333l-.948.948a.359.359,0,0,1-.446.049,6.867,6.867,0,0,0-2.225-.921.358.358,0,0,1-.281-.35V.717H7.957V2.06a.358.358,0,0,1-.281.35,6.867,6.867,0,0,0-2.222.923.358.358,0,0,1-.446-.048l-.952-.951L2.333,4.056l.953.954a.358.358,0,0,1,.049.446,6.868,6.868,0,0,0-.918,2.22.358.358,0,0,1-.35.281H.717v2.437H2.069a.359.359,0,0,1,.35.281,6.865,6.865,0,0,0,.919,2.217.358.358,0,0,1-.049.446l-.957.957,1.723,1.724.957-.957a.358.358,0,0,1,.254-.105Zm0,0" transform="translate(0 0)" fill="#151cc9"/><path d="M115.3,120.482a5.232,5.232,0,1,1,2.558-9.8.358.358,0,1,1-.351.625,4.516,4.516,0,1,0,1.834,1.923.358.358,0,1,1,.641-.32,5.231,5.231,0,0,1-4.683,7.569Zm0,0" transform="translate(-106.122 -106.076)" fill="#151cc9"/><path d="M344.71,152.729a.359.359,0,1,1,.253-.105A.361.361,0,0,1,344.71,152.729Zm0,0" transform="translate(-332.009 -146.564)" fill="#151cc9"/><path d="M171.274,187.613a.359.359,0,0,1-.253-.1l-2.267-2.267a.358.358,0,0,1,0-.507l1.286-1.286a.359.359,0,0,1,.507,0l.728.728,1.739-1.739a.358.358,0,0,1,.507,0l1.286,1.286a.359.359,0,0,1,0,.507l-3.278,3.278A.359.359,0,0,1,171.274,187.613Zm-1.76-2.625,1.76,1.76,2.771-2.771-.779-.779-1.739,1.739a.359.359,0,0,1-.507,0l-.728-.728Zm0,0" transform="translate(-162.604 -175.797)" fill="#151cc9"/></g><rect width="26" height="26" transform="translate(6158 786)" fill="none"/></g></svg>