<?xml version="1.0" encoding="utf-8"?>
<!-- Generator: Adobe Illustrator 17.0.0, SVG Export Plug-In . SVG Version: 6.00 Build 0)  -->
<!DOCTYPE svg PUBLIC "-//W3C//DTD SVG 1.1//EN" "http://www.w3.org/Graphics/SVG/1.1/DTD/svg11.dtd">
<svg version="1.1" id="Capa_1" xmlns="http://www.w3.org/2000/svg" xmlns:xlink="http://www.w3.org/1999/xlink" x="0px" y="0px"
	 width="50px" height="50px" viewBox="0 0 50 50" enable-background="new 0 0 50 50" xml:space="preserve">
<g>
	<path fill="#FFFFFF" d="M26.594,42.015V24.194h5.336l1.209-3.994h-6.545v-5.54c0-0.888,0.72-1.608,1.608-1.608h4.064V7.984h-5.641
		c-3.224,0-5.837,2.613-5.837,5.837V20.2h-3.927v3.994h3.893v17.821H26.594z"/>
	<path fill="#143374" d="M0,0L0,0v50v0h50v0V0v0H0z M16.861,24.194V20.2h3.927v-6.379c0-3.224,2.613-5.837,5.837-5.837h5.641v5.068
		h-4.064c-0.888,0-1.608,0.72-1.608,1.608v5.54h6.545l-1.209,3.994h-5.336v17.821h-5.84V24.194H16.861z"/>
</g>
</svg>
