<?xml version="1.0" encoding="utf-8"?>
<!-- Generator: Adobe Illustrator 17.0.0, SVG Export Plug-In . SVG Version: 6.00 Build 0)  -->
<!DOCTYPE svg PUBLIC "-//W3C//DTD SVG 1.1//EN" "http://www.w3.org/Graphics/SVG/1.1/DTD/svg11.dtd">
<svg version="1.1" id="Layer_1" xmlns="http://www.w3.org/2000/svg" xmlns:xlink="http://www.w3.org/1999/xlink" x="0px" y="0px"
	 width="50px" height="50px" viewBox="0 0 50 50" enable-background="new 0 0 50 50" xml:space="preserve">
<path fill="#0054A3" d="M43.743,31.072l5.848-17.336c0.293-0.833,0.071-1.334-0.165-1.665c-0.606-0.847-1.852-0.855-2.095-0.855
	L14.285,11.21l-0.882-4.145c-0.238-0.978-0.942-1.911-2.361-1.911H1.756C0.794,5.154,0.27,5.6,0.27,6.491v2.393
	c0,0.862,0.521,1.087,1.52,1.087h7.84l6.001,25.239c-0.953,1-1.472,2.458-1.472,3.818c0,2.994,2.406,5.752,5.479,5.752
	c2.902,0,5.077-2.693,5.43-4.299h11.688c0.353,1.606,2.115,4.363,5.428,4.363c3.021,0,5.476-2.592,5.476-5.579
	c0-2.972-1.824-5.608-5.446-5.608c-1.505,0-3.293,0.803-4.122,2.007H23.731c-1.042-1.606-2.465-2.103-3.906-2.159l-0.196-1.052
	H41.48C43.127,32.454,43.451,31.859,43.743,31.072L43.743,31.072z M17.511,39.2c0-1.139,0.936-2.066,2.085-2.066
	c1.146,0,2.08,0.927,2.08,2.066c0,1.138-0.934,2.065-2.08,2.065C18.446,41.262,17.511,40.339,17.511,39.2z M42.228,41.237
	c-1.135,0-2.06-0.913-2.06-2.038c0-1.125,0.923-2.039,2.06-2.039c1.136,0,2.058,0.914,2.058,2.039
	C44.286,40.325,43.363,41.237,42.228,41.237z"/>
</svg>
