<?xml version="1.0" encoding="utf-8"?>
<!-- Generator: Adobe Illustrator 17.0.0, SVG Export Plug-In . SVG Version: 6.00 Build 0)  -->
<!DOCTYPE svg PUBLIC "-//W3C//DTD SVG 1.1//EN" "http://www.w3.org/Graphics/SVG/1.1/DTD/svg11.dtd">
<svg version="1.1" id="Capa_1" xmlns="http://www.w3.org/2000/svg" xmlns:xlink="http://www.w3.org/1999/xlink" x="0px" y="0px"
	 width="50px" height="50px" viewBox="0 0 50 50" enable-background="new 0 0 50 50" xml:space="preserve">
<g>
	<path fill="#949191" d="M0,0v50h50V0H0z M11.5,21.023c0.458,0.52,0.984,0.981,1.578,1.384c2.213,1.531,4.015,2.791,5.414,3.786
		L11.5,33.312V21.023z M37,36.2H14c-0.629,0-1.175-0.211-1.639-0.63l7.934-8.079c0.199,0.145,0.382,0.28,0.548,0.404
		c0.594,0.445,1.076,0.793,1.446,1.042c0.369,0.249,0.861,0.503,1.476,0.763s1.188,0.39,1.719,0.39H25.5h0.015
		c0.531,0,1.104-0.13,1.719-0.39c0.614-0.259,1.106-0.514,1.476-0.763c0.37-0.249,0.852-0.597,1.446-1.042
		c0.175-0.128,0.359-0.263,0.55-0.401l7.933,8.077C38.175,35.989,37.629,36.2,37,36.2z M39.5,33.312l-6.989-7.117
		c1.49-1.059,3.298-2.321,5.427-3.788c0.593-0.414,1.114-0.875,1.562-1.384V33.312z M38.735,18.746
		c-0.51,0.764-1.146,1.416-1.906,1.957c-2.528,1.787-4.435,3.135-5.731,4.052c-0.712,0.503-1.241,0.878-1.581,1.119
		c-0.051,0.036-0.129,0.093-0.234,0.169c-0.113,0.082-0.256,0.187-0.431,0.316c-0.339,0.25-0.62,0.451-0.844,0.605
		s-0.494,0.326-0.812,0.517c-0.318,0.191-0.618,0.335-0.899,0.43c-0.281,0.095-0.541,0.143-0.781,0.143H25.5h-0.016
		c-0.239,0-0.5-0.048-0.781-0.143c-0.281-0.096-0.58-0.239-0.898-0.43c-0.318-0.191-0.589-0.363-0.813-0.517
		s-0.506-0.356-0.844-0.605c-0.176-0.129-0.318-0.233-0.431-0.316c-0.104-0.075-0.183-0.133-0.233-0.169
		c-0.436-0.312-0.964-0.688-1.577-1.123c-0.718-0.51-1.554-1.102-2.516-1.78c-1.781-1.257-2.849-2.012-3.203-2.267
		c-0.646-0.445-1.256-1.057-1.829-1.837c-0.572-0.78-0.859-1.504-0.859-2.172c0-0.827,0.215-1.516,0.648-2.068
		C12.581,14.076,13.198,13.8,14,13.8h23c0.677,0,1.263,0.249,1.758,0.746c0.494,0.499,0.742,1.098,0.742,1.798
		C39.5,17.182,39.245,17.983,38.735,18.746z"/>
	<path fill="#FFFFFF" d="M30.156,27.895c-0.594,0.445-1.076,0.793-1.446,1.042c-0.37,0.249-0.862,0.504-1.476,0.763
		c-0.615,0.26-1.188,0.39-1.719,0.39H25.5h-0.016c-0.531,0-1.104-0.13-1.719-0.39s-1.107-0.514-1.476-0.763
		c-0.37-0.249-0.852-0.597-1.446-1.042c-0.166-0.124-0.349-0.259-0.548-0.404l-7.934,8.079c0.464,0.419,1.01,0.63,1.639,0.63h23
		c0.629,0,1.175-0.211,1.639-0.629l-7.933-8.077C30.515,27.632,30.331,27.767,30.156,27.895z"/>
	<path fill="#FFFFFF" d="M13.078,22.407c-0.594-0.403-1.12-0.864-1.578-1.384v12.289l6.992-7.119
		C17.093,25.198,15.291,23.938,13.078,22.407z"/>
	<path fill="#FFFFFF" d="M37.938,22.407c-2.129,1.467-3.937,2.729-5.427,3.788l6.989,7.117V21.023
		C39.052,21.532,38.531,21.993,37.938,22.407z"/>
	<path fill="#FFFFFF" d="M37,13.8H14c-0.802,0-1.419,0.276-1.852,0.827c-0.433,0.552-0.648,1.241-0.648,2.068
		c0,0.668,0.287,1.392,0.859,2.172c0.573,0.78,1.183,1.392,1.829,1.837c0.354,0.255,1.422,1.01,3.203,2.267
		c0.962,0.678,1.798,1.27,2.516,1.78c0.613,0.435,1.141,0.811,1.577,1.123c0.05,0.036,0.129,0.094,0.233,0.169
		c0.113,0.083,0.255,0.187,0.431,0.316c0.338,0.249,0.62,0.451,0.844,0.605s0.495,0.326,0.813,0.517
		c0.318,0.191,0.617,0.334,0.898,0.43c0.281,0.095,0.542,0.143,0.781,0.143H25.5h0.016c0.24,0,0.5-0.048,0.781-0.143
		c0.281-0.095,0.581-0.239,0.899-0.43c0.318-0.191,0.588-0.363,0.812-0.517s0.505-0.355,0.844-0.605
		c0.175-0.129,0.318-0.234,0.431-0.316c0.105-0.076,0.183-0.133,0.234-0.169c0.34-0.241,0.869-0.616,1.581-1.119
		c1.296-0.917,3.203-2.265,5.731-4.052c0.76-0.541,1.396-1.193,1.906-1.957c0.51-0.763,0.765-1.564,0.765-2.402
		c0-0.7-0.248-1.299-0.742-1.798C38.263,14.049,37.677,13.8,37,13.8z"/>
</g>
</svg>
