<?xml version="1.0" encoding="utf-8"?>
<!-- Generator: Adobe Illustrator 17.0.0, SVG Export Plug-In . SVG Version: 6.00 Build 0)  -->
<!DOCTYPE svg PUBLIC "-//W3C//DTD SVG 1.1//EN" "http://www.w3.org/Graphics/SVG/1.1/DTD/svg11.dtd">
<svg version="1.1" id="Capa_1" xmlns="http://www.w3.org/2000/svg" xmlns:xlink="http://www.w3.org/1999/xlink" x="0px" y="0px"
	 width="50px" height="50px" viewBox="0 0 50 50" enable-background="new 0 0 50 50" xml:space="preserve">
<g>
	<path fill="#761306" d="M16.167,39.083h16.667V24.5H16.167V39.083z M18.25,26.583h8.333v2.083H18.25V26.583z M18.25,30.75h12.5
		v2.083h-12.5V30.75z M18.25,34.917h12.5V37h-12.5V34.917z"/>
	<circle fill="#761306" cx="37" cy="20.333" r="2.083"/>
	<path fill="#761306" d="M0,0v50h50V0H0z M14.083,9.917c0-1.15,0.934-2.083,2.083-2.083h16.667c1.152,0,2.083,0.934,2.083,2.083
		v4.167h-2.083V9.917H16.167v4.167h-2.083V9.917z M41.167,28.667c0,1.152-0.932,2.083-2.083,2.083h-4.167v8.333
		c0,1.152-0.932,2.083-2.083,2.083H16.167c-1.15,0-2.083-0.932-2.083-2.083V30.75H9.917c-1.15,0-2.083-0.932-2.083-2.083V18.25
		c0-1.15,0.934-2.083,2.083-2.083h29.167c1.152,0,2.083,0.934,2.083,2.083V28.667z"/>
	<path fill="#FFFFFF" d="M16.167,9.917h16.667v4.167h2.083V9.917c0-1.15-0.932-2.083-2.083-2.083H16.167
		c-1.15,0-2.083,0.934-2.083,2.083v4.167h2.083V9.917z"/>
	<path fill="#FFFFFF" d="M39.083,16.167H9.917c-1.15,0-2.083,0.934-2.083,2.083v10.417c0,1.152,0.934,2.083,2.083,2.083h4.167v8.333
		c0,1.152,0.934,2.083,2.083,2.083h16.667c1.152,0,2.083-0.932,2.083-2.083V30.75h4.167c1.152,0,2.083-0.932,2.083-2.083V18.25
		C41.167,17.1,40.235,16.167,39.083,16.167z M32.833,39.083H16.167V24.5h16.667V39.083z M37,22.417
		c-1.152,0-2.083-0.932-2.083-2.083c0-1.15,0.932-2.083,2.083-2.083s2.083,0.934,2.083,2.083C39.083,21.485,38.152,22.417,37,22.417
		z"/>
	<rect x="18.25" y="26.583" fill="#FFFFFF" width="8.333" height="2.083"/>
	<rect x="18.25" y="30.75" fill="#FFFFFF" width="12.5" height="2.083"/>
	<rect x="18.25" y="34.917" fill="#FFFFFF" width="12.5" height="2.083"/>
</g>
</svg>
