<?xml version="1.0" encoding="utf-8"?>
<!-- Generator: Adobe Illustrator 17.0.0, SVG Export Plug-In . SVG Version: 6.00 Build 0)  -->
<!DOCTYPE svg PUBLIC "-//W3C//DTD SVG 1.1//EN" "http://www.w3.org/Graphics/SVG/1.1/DTD/svg11.dtd">
<svg version="1.1" id="Layer_1" xmlns="http://www.w3.org/2000/svg" xmlns:xlink="http://www.w3.org/1999/xlink" x="0px" y="0px"
	 width="50px" height="50px" viewBox="0 0 50 50" enable-background="new 0 0 50 50" xml:space="preserve">
<path fill="#025BAC" d="M49.25,44.881l-5.912-5.993l-4.708-4.772c2.422-3.453,3.861-7.662,3.861-12.213
	c0-11.664-9.363-21.153-20.871-21.153S0.75,10.24,0.75,21.903s9.361,21.153,20.87,21.153c4.807,0,9.227-1.672,12.759-4.451
	l8.092,8.202c0.1,0.102,0.211,0.181,0.319,0.264l2.148,2.178L49.25,44.881z M21.536,35.393c-7.641-0.001-13.857-6.218-13.857-13.857
	c0-7.641,6.217-13.857,13.857-13.857s13.857,6.216,13.857,13.857c0,3.179-1.086,6.103-2.895,8.444
	c-0.597,0.772-1.268,1.486-2.014,2.118C28.068,34.148,24.946,35.393,21.536,35.393z"/>
</svg>
