<?xml version="1.0" encoding="utf-8"?>
<!-- Generator: Adobe Illustrator 17.0.0, SVG Export Plug-In . SVG Version: 6.00 Build 0)  -->
<!DOCTYPE svg PUBLIC "-//W3C//DTD SVG 1.1//EN" "http://www.w3.org/Graphics/SVG/1.1/DTD/svg11.dtd">
<svg version="1.1" id="Capa_1" xmlns="http://www.w3.org/2000/svg" xmlns:xlink="http://www.w3.org/1999/xlink" x="0px" y="0px"
	 width="50px" height="50px" viewBox="281 371 50 50" enable-background="new 281 371 50 50" xml:space="preserve">
<g>
	<rect x="281" y="371" fill="#50ABF1" width="50" height="50"/>
	<path fill="#FFFFFF" d="M287.624,408.064c3.328,2.11,7.275,3.332,11.506,3.332c11.887,0,21.524-9.637,21.524-21.524
		c0-0.297-0.006-0.591-0.018-0.885c0.43-0.338,3.089-2.47,3.741-3.84c0,0-2.159,0.897-4.273,1.109c-0.004,0-0.009,0.001-0.013,0.001
		c0,0,0.004-0.002,0.011-0.007c0.195-0.13,2.917-1.984,3.286-4.192c0,0-1.527,0.815-3.666,1.529
		c-0.354,0.118-0.725,0.233-1.107,0.34c-1.379-1.471-3.338-2.39-5.513-2.39c-4.172,0-7.553,3.38-7.553,7.549
		c0,0.588,0.068,1.161,0.196,1.711c-0.583-0.024-9.461-0.522-15.501-7.836c0,0-3.61,4.928,2.151,9.995c0,0-1.751-0.07-3.262-0.973
		c0,0-0.555,5.97,5.969,7.497c0,0-1.284,0.486-3.332,0.14c0,0,1.145,4.824,6.942,5.275c0,0-4.584,4.141-11.09,3.169L287.624,408.064
		z"/>
</g>
</svg>
