<?xml version="1.0" encoding="iso-8859-1"?>
<!-- Generator: Adobe Illustrator 21.0.0, SVG Export Plug-In . SVG Version: 6.00 Build 0)  -->
<svg version="1.1" id="Layer_1" xmlns="http://www.w3.org/2000/svg" xmlns:xlink="http://www.w3.org/1999/xlink" x="0px" y="0px"
	 viewBox="0 0 18 18" style="enable-background:new 0 0 18 18;" xml:space="preserve">
<g>
	<path style="fill:#666666;" d="M15.329,2.636C13.629,0.936,11.369,0,8.965,0S4.301,0.936,2.601,2.636
		c-1.7,1.7-2.636,3.96-2.636,6.364s0.936,4.664,2.636,6.364c1.7,1.7,3.96,2.636,6.364,2.636s4.664-0.936,6.364-2.636
		c1.7-1.7,2.636-3.96,2.636-6.364S17.029,4.336,15.329,2.636L15.329,2.636z M8.965,16.487c-4.128,0-7.487-3.359-7.487-7.487
		s3.359-7.487,7.487-7.487S16.452,4.872,16.452,9S13.093,16.487,8.965,16.487L8.965,16.487z M8.965,16.487"/>
	<path style="fill:#666666;" d="M12.779,9.426L9.592,9.208L9.274,4.54C9.263,4.379,9.129,4.254,8.968,4.254
		c-0.161,0-0.294,0.125-0.305,0.285L8.35,9.123L7.84,9.089C7.772,9.084,7.705,9.108,7.655,9.154c-0.05,0.047-0.078,0.112-0.078,0.18
		v0.674c0,0.068,0.028,0.133,0.078,0.18c0.046,0.043,0.106,0.066,0.168,0.066c0.006,0,0.011,0,0.017-0.001l0.435-0.03l-0.031,0.459
		c-0.006,0.085,0.024,0.168,0.082,0.23c0.058,0.062,0.139,0.097,0.224,0.097h0.839c0.169,0,0.306-0.137,0.306-0.306
		c0-0.015-0.039-0.574-0.039-0.574l3.125-0.213c0.129-0.009,0.229-0.116,0.229-0.246C13.009,9.542,12.909,9.434,12.779,9.426
		L12.779,9.426z M12.779,9.426"/>
</g>
<g>
</g>
<g>
</g>
<g>
</g>
<g>
</g>
<g>
</g>
<g>
</g>
<g>
</g>
<g>
</g>
<g>
</g>
<g>
</g>
<g>
</g>
<g>
</g>
<g>
</g>
<g>
</g>
<g>
</g>
</svg>
