<?xml version="1.0" encoding="iso-8859-1"?>
<!-- Generator: Adobe Illustrator 21.0.0, SVG Export Plug-In . SVG Version: 6.00 Build 0)  -->
<svg version="1.1" id="Layer_1" xmlns="http://www.w3.org/2000/svg" xmlns:xlink="http://www.w3.org/1999/xlink" x="0px" y="0px"
	 viewBox="0 0 120 52.727" style="enable-background:new 0 0 120 52.727;" xml:space="preserve">
<g>
	<path style="fill:#78B9EB;" d="M32.982,37.655c-0.021,0.157-0.034,0.314-0.036,0.473c-0.032,1.95,1.479,3.578,3.426,3.69
		c1.948,0.113,3.636-1.331,3.828-3.271c1.559-12.086,11.464-21.373,23.625-22.149c12.162-0.775,23.167,7.177,26.248,18.967
		c-7.436,0.163-23.6,0.618-25.836,1.145c-1.987,0.347-3.62,1.763-4.245,3.68c-0.626,1.918-0.143,4.024,1.256,5.477
		c1.399,1.452,3.485,2.015,5.425,1.461c2.255-0.509,16.982-7.2,23.746-10.29c0.127,0.563,0.218,1.127,0.291,1.709
		c0.246,1.993,2.061,3.409,4.055,3.163c1.993-0.246,3.409-2.062,3.163-4.055c-2.1-16.334-16.005-28.565-32.473-28.565
		S35.082,21.321,32.982,37.655L32.982,37.655z M32.982,37.655"/>
	<path style="fill:#1A6FB0;" d="M107.273,41.818C107.273,18.722,88.55,0,65.455,0S23.636,18.722,23.636,41.818
		c-0.001,2.439,0.214,4.872,0.642,7.273H10.909v3.636H120v-3.636h-13.369C107.059,46.69,107.274,44.257,107.273,41.818
		L107.273,41.818z M27.273,41.818c0-21.088,17.094-38.182,38.182-38.182s38.182,17.094,38.182,38.182
		c-0.004,2.441-0.243,4.878-0.716,7.273H65.455c0.55,0.001,1.099-0.06,1.636-0.182c2.215-0.51,14.521-6.051,21.966-9.454
		c0.46,1.973,1.984,3.525,3.95,4.02c1.965,0.494,4.043-0.153,5.381-1.674c1.056-1.199,1.546-2.791,1.348-4.375
		C97.512,20.173,82.814,7.26,65.419,7.28c-17.395,0.02-32.065,12.964-34.248,30.222c-0.352,2.993,1.79,5.703,4.782,6.055
		c2.993,0.352,5.703-1.79,6.055-4.782c1.407-10.773,9.977-19.2,20.772-20.425C73.574,17.125,83.815,23.416,87.6,33.6
		c-8.193,0.21-21.577,0.624-23.78,1.133c-3.605,0.821-6.021,4.218-5.613,7.893c0.408,3.675,3.51,6.46,7.207,6.47H27.989
		C27.516,46.699,27.276,44.261,27.273,41.818L27.273,41.818z M63.527,44.91c-1.247-0.78-1.9-2.234-1.657-3.684
		c0.243-1.45,1.335-2.611,2.767-2.941c1.488-0.345,11.242-0.715,20.352-0.968c-8.296,3.764-17.226,7.71-18.716,8.051
		C65.333,45.59,64.344,45.424,63.527,44.91L63.527,44.91z M95.571,34.873c-0.205-0.832-0.953-1.415-1.809-1.412l-2.363,0.053
		c-3.891-12.168-15.709-20.004-28.432-18.85C50.243,15.82,40.028,25.654,38.391,38.324c-0.051,1.004-0.905,1.777-1.91,1.727
		c-1.004-0.05-1.778-0.905-1.727-1.909c0.002-0.081,0.009-0.162,0.021-0.241c1.984-15.425,15.117-26.977,30.669-26.977
		S94.13,22.475,96.114,37.9c0.068,0.546-0.099,1.095-0.462,1.51c-0.342,0.381-0.832,0.596-1.343,0.59
		c-0.939-0.021-1.713-0.745-1.797-1.68c-0.018-0.142-0.051-0.279-0.071-0.418l2.122-0.978c0.78-0.361,1.201-1.221,1.008-2.059
		V34.873z M95.571,34.873"/>
	<g>
		<defs>
			<line id="SVGID_5_" x1="10.909" y1="52.727" x2="120" y2="52.727"/>
		</defs>
		<clipPath id="SVGID_1_">
			<use xlink:href="#SVGID_5_"  style="overflow:visible;"/>
		</clipPath>
	</g>
	<g>
		<defs>
			<line id="SVGID_7_" x1="10.909" y1="52.727" x2="120" y2="52.727"/>
		</defs>
		<clipPath id="SVGID_2_">
			<use xlink:href="#SVGID_7_"  style="overflow:visible;"/>
		</clipPath>
	</g>
</g>
<path id="J" style="fill:#78B9EB;" d="M9.431,46.609c0.913,0,1.722-0.432,2.243-1.1l6.337-6.338c1.111-1.11,1.111-2.911,0-4.021
	c-1.11-1.11-2.91-1.11-4.02,0l-1.717,1.717V25.964c0-1.57-1.273-2.843-2.843-2.843c-1.571,0-2.844,1.273-2.844,2.843v10.92
	L4.854,35.15c-1.111-1.11-2.911-1.11-4.022,0c-1.11,1.111-1.11,2.911,0,4.021l6.415,6.414C7.768,46.21,8.553,46.609,9.431,46.609z"
	/>
<g>
</g>
<g>
</g>
<g>
</g>
<g>
</g>
<g>
</g>
<g>
</g>
<g>
</g>
<g>
</g>
<g>
</g>
<g>
</g>
<g>
</g>
<g>
</g>
<g>
</g>
<g>
</g>
<g>
</g>
</svg>
