<svg xmlns="http://www.w3.org/2000/svg" width="7.445" height="7.445" viewBox="0 0 7.445 7.445">
  <path id="ico-info-gray" d="M3.723,0A3.723,3.723,0,1,0,7.445,3.723,3.727,3.727,0,0,0,3.723,0Zm.242,5.931c-.177.029-.529.1-.707.118a.436.436,0,0,1-.381-.2.465.465,0,0,1-.056-.426l.7-1.935H2.792a.875.875,0,0,1,.689-.813,2.694,2.694,0,0,1,.707-.117.561.561,0,0,1,.381.2.465.465,0,0,1,.056.426l-.7,1.935h.731a.824.824,0,0,1-.688.813Zm.223-3.6a.465.465,0,1,1,.465-.465.465.465,0,0,1-.465.465Z" opacity="0.4"/>
</svg>
