<svg xmlns="http://www.w3.org/2000/svg" width="13.676" height="13.676" viewBox="0 0 13.676 13.676">
  <g id="ico-filter-blue" transform="translate(-0.004)">
    <g id="Group_82" data-name="Group 82" transform="translate(0.004)">
      <path id="Path_40" data-name="Path 40" d="M13.191,0H.492A.488.488,0,0,0,0,.488V2.931a.488.488,0,0,0,.162.363l4.723,4.25v5.644a.488.488,0,0,0,.707.437l2.931-1.465a.488.488,0,0,0,.27-.437V7.544l4.723-4.249a.488.488,0,0,0,.162-.364V.488A.488.488,0,0,0,13.191,0ZM12.7,2.713,7.98,6.962a.488.488,0,0,0-.162.364V11.42L5.865,12.4V7.326A.488.488,0,0,0,5.7,6.963L.981,2.713V.977H12.7Z" transform="translate(-0.004)" fill="#1b2a7f"/>
    </g>
  </g>
</svg>
