<?xml version="1.0" encoding="iso-8859-1"?>
<!-- Generator: Adobe Illustrator 21.0.0, SVG Export Plug-In . SVG Version: 6.00 Build 0)  -->
<svg version="1.1" id="Layer_1" xmlns="http://www.w3.org/2000/svg" xmlns:xlink="http://www.w3.org/1999/xlink" x="0px" y="0px"
	 viewBox="0 0 120 52.727" style="enable-background:new 0 0 120 52.727;" xml:space="preserve">
<g>
	<path style="fill:#78B9EB;" d="M35.234,37.183c-0.02,0.144-0.031,0.288-0.033,0.434c-0.029,1.787,1.356,3.28,3.14,3.382
		c1.785,0.103,3.333-1.22,3.509-2.999c1.429-11.079,10.509-19.592,21.656-20.303c11.148-0.71,21.236,6.579,24.061,17.386
		c-6.816,0.15-21.633,0.566-23.683,1.05c-1.821,0.318-3.318,1.616-3.892,3.373c-0.574,1.758-0.131,3.689,1.151,5.02
		c1.283,1.331,3.195,1.847,4.973,1.339c2.067-0.466,15.566-6.6,21.767-9.433C88,36.95,88.084,37.466,88.15,38
		c0.225,1.827,1.89,3.125,3.717,2.9c1.827-0.225,3.125-1.89,2.9-3.717C92.842,22.211,80.095,10.998,65,10.998
		S37.158,22.211,35.234,37.183L35.234,37.183z M35.234,37.183"/>
	<path style="fill:#1A6FB0;" d="M103.333,41c0-21.171-17.162-38.333-38.333-38.333S26.667,19.829,26.667,41
		c-0.001,2.235,0.196,4.466,0.588,6.667H15V51h100v-3.333h-12.255C103.137,45.466,103.334,43.235,103.333,41L103.333,41z M30,41
		C30,21.67,45.67,6,65,6s35,15.67,35,35c-0.003,2.238-0.223,4.471-0.657,6.667H65c0.505,0.001,1.007-0.055,1.5-0.167
		c2.03-0.468,13.311-5.547,20.135-8.666c0.421,1.809,1.819,3.231,3.621,3.685c1.802,0.452,3.706-0.14,4.932-1.535
		c0.968-1.099,1.417-2.559,1.235-4.01C94.386,21.159,80.913,9.322,64.967,9.34C49.022,9.358,35.575,21.224,33.573,37.043
		c-0.322,2.743,1.641,5.228,4.383,5.55c2.743,0.322,5.228-1.641,5.55-4.383c1.29-9.875,9.145-17.6,19.041-18.723
		c9.896-1.123,19.283,4.644,22.753,13.98c-7.51,0.192-19.779,0.572-21.798,1.038c-3.305,0.753-5.519,3.866-5.145,7.236
		c0.374,3.369,3.217,5.921,6.606,5.931H30.657C30.223,45.474,30.003,43.24,30,41L30,41z M63.233,43.834
		c-1.143-0.715-1.742-2.048-1.519-3.377c0.223-1.329,1.224-2.394,2.537-2.696c1.364-0.316,10.305-0.655,18.656-0.887
		c-7.605,3.451-15.79,7.067-17.156,7.38C64.889,44.457,63.982,44.306,63.233,43.834L63.233,43.834z M92.607,34.634
		c-0.188-0.763-0.873-1.297-1.659-1.294l-2.166,0.049c-3.567-11.154-14.4-18.337-26.063-17.279
		c-11.663,1.059-21.026,10.073-22.527,21.687c-0.046,0.92-0.83,1.629-1.75,1.583c-0.92-0.046-1.629-0.829-1.583-1.75
		c0.002-0.074,0.008-0.148,0.02-0.221c1.819-14.14,13.857-24.729,28.114-24.729s26.294,10.589,28.113,24.729
		c0.063,0.5-0.091,1.004-0.423,1.384c-0.313,0.349-0.762,0.546-1.231,0.54c-0.861-0.02-1.57-0.683-1.647-1.54
		c-0.016-0.13-0.046-0.255-0.065-0.383l1.945-0.897c0.715-0.331,1.101-1.119,0.924-1.887V34.634z M92.607,34.634"/>
	<g>
		<defs>
			<line id="SVGID_2_" x1="15" y1="51" x2="115" y2="51"/>
		</defs>
		<clipPath id="SVGID_3_">
			<use xlink:href="#SVGID_2_"  style="overflow:visible;"/>
		</clipPath>
	</g>
	<g>
		<defs>
			<line id="SVGID_1_" x1="15" y1="51" x2="115" y2="51"/>
		</defs>
		<clipPath id="SVGID_4_">
			<use xlink:href="#SVGID_1_"  style="overflow:visible;"/>
		</clipPath>
	</g>
</g>
<path id="J_1_" style="fill:#78B9EB;" d="M13.629,20.861c-0.837,0-1.579,0.396-2.056,1.008l-5.809,5.81
	c-1.018,1.018-1.018,2.668,0,3.686c1.018,1.018,2.668,1.018,3.685,0l1.574-1.574v9.994c0,1.44,1.167,2.606,2.606,2.606
	c1.44,0,2.607-1.167,2.607-2.606v-10.01l1.589,1.59c1.019,1.018,2.668,1.018,3.687,0c1.017-1.018,1.017-2.669,0-3.686l-5.88-5.879
	C15.153,21.226,14.434,20.861,13.629,20.861z"/>
<g>
</g>
<g>
</g>
<g>
</g>
<g>
</g>
<g>
</g>
<g>
</g>
<g>
</g>
<g>
</g>
<g>
</g>
<g>
</g>
<g>
</g>
<g>
</g>
<g>
</g>
<g>
</g>
<g>
</g>
</svg>
