<?xml version="1.0" encoding="utf-8"?>
<!-- Generator: Adobe Illustrator 22.0.1, SVG Export Plug-In . SVG Version: 6.00 Build 0)  -->
<svg version="1.1" id="Layer_1" xmlns="http://www.w3.org/2000/svg" xmlns:xlink="http://www.w3.org/1999/xlink" x="0px" y="0px"
	 viewBox="0 0 1300 700" style="enable-background:new 0 0 1300 700;" xml:space="preserve">
	
	
<style type="text/css">
	
				<defs>
<style type="text/css">
@import url('https://fonts.googleapis.com/css?family=Montserrat');

</style> 
	
		</defs>
	.circle01,.circle02{fill:#004F9E}.brain,.brain2{-webkit-animation-fill-mode:forwards;-webkit-animation-timing-function:linear}.brain,.plug_in{-webkit-animation-delay:0s}.circle02{stroke:#fff;stroke-width:.5}.brain,.brain2{fill:none;stroke:#004F9E;stroke-width:6;stroke-miterlimit:10}.brain_light{fill:none;stroke:#9bf;stroke-width:2;stroke-miterlimit:10}.st2{fill:#004F9E}.st3{fill:none;stroke:#004F9E;stroke-miterlimit:10}.st4{fill:#FFF}.st5{font-family:Montserrat}.st6{font-size:30px}.st7{fill:#1D1D1B}.brain{animation-fill-mode:forwards;-webkit-animation-iteration-count:1;animation-iteration-count:1;-webkit-animation-name:draw;animation-name:draw;animation-timing-function:linear;stroke-dasharray:4268;stroke-dashoffset:4220;-webkit-animation-duration:6s;animation-duration:6s;animation-delay:0s}.brain2,.plug_in{-webkit-animation-iteration-count:1}.brain2{animation-fill-mode:forwards;animation-iteration-count:1;-webkit-animation-name:draw2;animation-name:draw2;animation-timing-function:linear;stroke-dasharray:4400;stroke-dashoffset:4400;-webkit-animation-duration:6s;animation-duration:6s;-webkit-animation-delay:.8s;animation-delay:.8s}.brain_light,.plug_in{-webkit-animation-fill-mode:forwards}@-webkit-keyframes draw{0%{stroke-dashoffset:4400}100%{stroke-dashoffset:0}}@keyframes draw{0%{stroke-dashoffset:4400}100%{stroke-dashoffset:0}}.brain_light{opacity:0;animation-fill-mode:forwards;-webkit-animation-iteration-count:1000000;animation-iteration-count:1000000;-webkit-animation-name:draw2;animation-name:draw2;-webkit-animation-timing-function:linear;animation-timing-function:linear;stroke-dasharray:2;stroke-dashoffset:-2;-webkit-animation-duration:.2s;animation-duration:.2s;-webkit-animation-delay:6.99s;animation-delay:6.99s}@-webkit-keyframes draw2{to{opacity:1;stroke-dashoffset:0}}@keyframes draw2{to{opacity:1;stroke-dashoffset:0}}@-webkit-keyframes plug{0%,27%{-webkit-transform:rotateZ(-5deg);transform:rotateZ(-5deg);opacity:1}65%{-webkit-transform:rotateZ(65deg);transform:rotateZ(65deg);opacity:1}100%{-webkit-transform:rotateZ(65deg);transform:rotateZ(65deg);opacity:0}}@keyframes plug{0%,27%{-webkit-transform:rotateZ(-5deg);transform:rotateZ(-5deg);opacity:1}65%{-webkit-transform:rotateZ(65deg);transform:rotateZ(65deg);opacity:1}100%{-webkit-transform:rotateZ(65deg);transform:rotateZ(65deg);opacity:0}}.plug{opacity:0;-webkit-transform:rotateZ(-20deg);-ms-transform:rotate(-20deg);transform:rotateZ(-20deg);-webkit-animation:plug 2s;animation:plug 2s;-webkit-animation-iteration-count:1;animation-iteration-count:1;-webkit-transform-origin:348px 375px;-ms-transform-origin:348px 375px;transform-origin:348px 375px;-webkit-animation-delay:6s;animation-delay:6s}.mask,.plug_in{-webkit-animation-timing-function:linear}@-webkit-keyframes plug_in{0%,99%{opacity:0}100%{opacity:1}}@keyframes plug_in{0%,99%{opacity:0}100%{opacity:1}}.plug_in{opacity:0;animation-fill-mode:forwards;animation-iteration-count:1;-webkit-animation-name:plug_in;animation-name:plug_in;animation-timing-function:linear;-webkit-animation-duration:6.8s;animation-duration:6.8s;animation-delay:0s}.mask,.pug_box{-webkit-animation-fill-mode:forwards;-webkit-animation-iteration-count:1}@-webkit-keyframes mask{0%,50%{opacity:1}100%{opacity:0}}@keyframes mask{0%,50%{opacity:1}100%{opacity:0}}.mask{fill:#fff;opacity:0;animation-fill-mode:forwards;animation-iteration-count:1;-webkit-animation-name:mask;animation-name:mask;animation-timing-function:linear;-webkit-animation-duration:5s;animation-duration:5s;-webkit-animation-delay:0s;animation-delay:0s}.pug_box{-webkit-transform:translateX(-600px);-ms-transform:translateX(-600px);transform:translateX(-600px);animation-fill-mode:forwards;animation-iteration-count:1;-webkit-animation-name:pug_box;animation-name:pug_box;-webkit-animation-duration:.75s;animation-duration:.75s;-webkit-animation-delay:5s;animation-delay:5s}@-webkit-keyframes pug_box{0%{opacity:0;-webkit-transform:translateX(-600px);transform:translateX(-600px)}40%{opacity:1;-webkit-transform:translateX(20px);transform:translateX(20px)}60%{-webkit-transform:translateX(-40px);transform:translateX(-40px)}100%{-webkit-transform:translateX(0);transform:translateX(0)}}@keyframes pug_box{0%{opacity:0;-webkit-transform:translateX(-600px);transform:translateX(-600px)}40%{opacity:1;-webkit-transform:translateX(20px);transform:translateX(20px)}60%{-webkit-transform:translateX(-40px);transform:translateX(-40px)}100%{-webkit-transform:translateX(0);transform:translateX(0)}}@-webkit-keyframes pin{0%,99%{opacity:1}100%{opacity:0}}@keyframes pin{0%,99%{opacity:1}100%{opacity:0}}.pin{-webkit-animation-fill-mode:forwards;animation-fill-mode:forwards;-webkit-animation-iteration-count:1;animation-iteration-count:1;-webkit-animation-name:pin;animation-name:pin;-webkit-animation-timing-function:linear;animation-timing-function:linear;-webkit-animation-duration:7s;animation-duration:7s}
	
</style>
	
	
	
<g class="pug_box">
	<path class="st2" d="M0,343.5c0,0-5.7,0-5.7,5.7v84c0,0,0,5.7,5.7,5.7h290.7c0,0,5.7,0,5.7-5.7v-84c0,0,0-5.7-5.7-5.7H0z"/>
	<path class="st3" d="M0,343.5c0,0-5.7,0-5.7,5.7v84c0,0,0,5.7,5.7,5.7h290.7c0,0,5.7,0,5.7-5.7v-84c0,0,0-5.7-5.7-5.7H0z"/>
	<text transform="matrix(1 0 0 1 62.125 383.5308)" class="st4 st5 st6">DIGITALLY</text>
	<text transform="matrix(1 0 0 1 62.125 418.5405)" class="st4 st5 st6">BEING</text>
	<path class="st7" d="M257.9,391.2c0,6.3,5,11.4,11.1,11.4c6.2,0,11.3-5,11.3-11.4c0-6.3-5-11.5-11.1-11.5
		C263,379.7,258,384.8,257.9,391.2 M256.1,406.4c-1.2,0-1.9-0.7-1.9-1.9c0-8.9,0-17.8,0-26.6c0-1.2,0.7-1.9,1.9-1.9
		c8.7,0,17.3,0,26,0c1.4,0,2,0.7,2,2.1c0,8.8,0,17.5,0,26.3c0,0.3,0,0.6-0.1,0.9c-0.2,0.7-0.8,1.2-1.5,1.2
		C282,406.4,259.3,406.4,256.1,406.4"/>
	<path class="st4" d="M259.7,391.1c0,5.3,4.2,9.6,9.4,9.7c5.2,0,9.5-4.3,9.5-9.5c0-5.4-4.2-9.7-9.4-9.7
		C264,381.5,259.7,385.8,259.7,391.1 M257.9,391.2c0-6.4,5.1-11.4,11.3-11.4c6.2,0,11.1,5.2,11.1,11.5c0,6.3-5.1,11.4-11.3,11.4
		C262.9,402.6,257.9,397.4,257.9,391.2"/>
	<path class="st7" d="M275.4,391.2c0-1.1-0.8-1.9-1.8-2c-1,0-1.9,0.8-1.9,1.8c0,1.1,0.8,2,1.8,2
		C274.5,393.1,275.4,392.3,275.4,391.2 M266.7,391.2c0-1.1-0.8-1.9-1.9-1.9c-1,0-1.8,0.8-1.9,1.9c0,1.1,0.8,1.9,1.9,1.9
		C265.8,393.1,266.7,392.2,266.7,391.2 M259.7,391.1c0-5.3,4.3-9.6,9.5-9.6c5.2,0,9.4,4.4,9.4,9.7c0,5.3-4.3,9.6-9.5,9.5
		C263.9,400.8,259.7,396.5,259.7,391.1"/>
	<path class="st4" d="M266.7,391.2c0,1-0.9,1.9-1.9,1.9c-1,0-1.9-0.9-1.9-1.9c0-1,0.8-1.9,1.9-1.9
		C265.8,389.3,266.7,390.1,266.7,391.2"/>
	<path class="st4" d="M275.4,391.2c0,1-0.9,1.9-1.9,1.8c-1,0-1.9-0.9-1.8-2c0-1,0.9-1.9,1.9-1.8
		C274.6,389.3,275.4,390.2,275.4,391.2"/>
	<path class="st2" d="M265.7,406.5"/>
	<path class="st2" d="M265.7,406.5"/>
</g>
	
	
	<g class="plug_in">
<circle class="circle01" cx="269.2" cy="391.2" r="9.5"/>
<circle class="circle02" cx="269.2" cy="391.2" r="6.5"/>
	
	</g>
	
	
	
<path class="brain" d="M802.9,316c-32.3-7.6-58.4-36.8-62.5-69.9c-1.1-9-0.6-18.5,3.7-26.4c7.6-13.9,25-19.2,40.7-19.3
	c10.6-0.1,21.8,1.9,29.5,9.2c7.7,7.3,9.9,21,2.2,28.4c-5.8,5.5-14.7,5.7-22.7,5.5c-13.2-0.4-27.3-1.2-37.8-9.2
	c-6.3-4.8-10.6-11.9-13.2-19.4c-7.5-21.9,0.9-48.2,19.6-61.6c18.7-13.4,46.2-12.8,64.3,1.4c7.7,6,14,15.6,11.8,25.1
	c-2.6,11.1-16.6,16.7-27.2,12.6c-10.6-4-17.2-15.2-18.8-26.5c-3.1-21.9,10.4-43.4,28.2-56.5c12.6-9.3,28-15.5,43.6-15.2
	c12.6,0.2,26.9,6.9,28.8,19.4c1.8,11.6-7.7,21.4-15.1,30.5c-7.3,9.1-12.6,23.7-3.9,31.5c4.9,4.5,12.4,4.5,19,3.5
	c5.2-0.8,10.9-2.5,13.5-7.2c3.2-5.8-0.3-13.1-5.2-17.5s-11.2-7-15.9-11.6c-11.6-11.2-10.3-31.6-0.3-44.3
	c10-12.7,26.3-18.8,42.3-20.9c7.9-1,16-1.2,23.6,1.3c13.9,4.7,23.8,19.2,23.2,33.9c-0.6,14.7-9.7,28.5-24,32
	c-2.9,0.7-7.4,1.2-10.5-0.9c-1.4-0.9-2.3-2.5-3-4c-8.7-18.2,5.1-41,23.8-48.4c18.7-7.4,41.7-6.7,61-0.9c23,6.8,43.9,19.6,61.8,35.6
	c17.9,16,30.5,39.4,29.1,63.5c-0.3,5.8-1.7,12.1-6.3,15.6c-7.1,5.5-18.2,1.2-22.9-6.5c-4.8-7.6-5.9-13.6-6.3-19.4
	c-0.3-4.2,0.5-9.5,3.2-12.7c1.7-2.1,4.2-5.3,10.5-5.3c18.5,0,33.3,8.8,43.9,24.1c10.6,15.3,14,34.7,13.1,53.3
	c-0.3,7.2-1.6,15-6.7,20c-8.3,8.3-22.1,5.5-33,1.3c-28.3-11.2-53.9-28.9-82.6-38.9c-23.2-8-47.9-10.7-72.4-11.3
	c-20.1-0.5-40.6,0.4-59.8,6.5c-19.2,6.2-37.1,18.2-47.2,35.7c-3.5,6.2-6,14.1-2.4,20.2c3.6,6.1,11.6,7.8,18.6,7
	c17.8-2,32.1-16.1,40.9-31.7c8.8-15.6,13.6-33.2,21.4-49.4c12.1-25.2,31.7-46.7,55.5-61.1c8.9-5.3,18.6-9.8,29-10
	c10.3-0.1,21.2,4.9,25.6,14.4c5.4,11.8-1.3,26.4-11.9,34c-10.5,7.6-23.9,9.9-36.7,12l-76.3,12.5c-27.4,4.5-56.9,10.1-75.9,30.5
	c-19.3,20.7-20.9,58,0.9,76.1c14.5,12,34.9,13.5,53.6,11.3c18.6-2.2,37-7.5,55.8-6.9c50.2,1.6,94.7,44.6,144.4,37.2
	c9.8-1.4,19.6-5.1,26.5-12.2c15.2-15.9,9.6-44.5-7.4-58.5c-17-14-41.2-15.8-62.7-11.5c-15,3-29.8,8.8-41,19.3
	c-11.2,10.4-18.3,26-16.2,41.2c3.2,22.5,24.1,37.3,37.5,55.7c14.9,20.4,60.8,95.9-34.8,192.1c-95.6,96.1,112,61,49-26
	c-49.4-68.2-134,85-295,18c-74.6-31.1-167-148-235-160c-48.5-8.6-75.2,13.3-109,31c-42,22-73,13-73,13c-21-4-38-20-59-59"/>
	
	
	<path class="brain2" d="M802.9,316c-32.3-7.6-58.4-36.8-62.5-69.9c-1.1-9-0.6-18.5,3.7-26.4c7.6-13.9,25-19.2,40.7-19.3
	c10.6-0.1,21.8,1.9,29.5,9.2c7.7,7.3,9.9,21,2.2,28.4c-5.8,5.5-14.7,5.7-22.7,5.5c-13.2-0.4-27.3-1.2-37.8-9.2
	c-6.3-4.8-10.6-11.9-13.2-19.4c-7.5-21.9,0.9-48.2,19.6-61.6c18.7-13.4,46.2-12.8,64.3,1.4c7.7,6,14,15.6,11.8,25.1
	c-2.6,11.1-16.6,16.7-27.2,12.6c-10.6-4-17.2-15.2-18.8-26.5c-3.1-21.9,10.4-43.4,28.2-56.5c12.6-9.3,28-15.5,43.6-15.2
	c12.6,0.2,26.9,6.9,28.8,19.4c1.8,11.6-7.7,21.4-15.1,30.5c-7.3,9.1-12.6,23.7-3.9,31.5c4.9,4.5,12.4,4.5,19,3.5
	c5.2-0.8,10.9-2.5,13.5-7.2c3.2-5.8-0.3-13.1-5.2-17.5s-11.2-7-15.9-11.6c-11.6-11.2-10.3-31.6-0.3-44.3
	c10-12.7,26.3-18.8,42.3-20.9c7.9-1,16-1.2,23.6,1.3c13.9,4.7,23.8,19.2,23.2,33.9c-0.6,14.7-9.7,28.5-24,32
	c-2.9,0.7-7.4,1.2-10.5-0.9c-1.4-0.9-2.3-2.5-3-4c-8.7-18.2,5.1-41,23.8-48.4c18.7-7.4,41.7-6.7,61-0.9c23,6.8,43.9,19.6,61.8,35.6
	c17.9,16,30.5,39.4,29.1,63.5c-0.3,5.8-1.7,12.1-6.3,15.6c-7.1,5.5-18.2,1.2-22.9-6.5c-4.8-7.6-5.9-13.6-6.3-19.4
	c-0.3-4.2,0.5-9.5,3.2-12.7c1.7-2.1,4.2-5.3,10.5-5.3c18.5,0,33.3,8.8,43.9,24.1c10.6,15.3,14,34.7,13.1,53.3
	c-0.3,7.2-1.6,15-6.7,20c-8.3,8.3-22.1,5.5-33,1.3c-28.3-11.2-53.9-28.9-82.6-38.9c-23.2-8-47.9-10.7-72.4-11.3
	c-20.1-0.5-40.6,0.4-59.8,6.5c-19.2,6.2-37.1,18.2-47.2,35.7c-3.5,6.2-6,14.1-2.4,20.2c3.6,6.1,11.6,7.8,18.6,7
	c17.8-2,32.1-16.1,40.9-31.7c8.8-15.6,13.6-33.2,21.4-49.4c12.1-25.2,31.7-46.7,55.5-61.1c8.9-5.3,18.6-9.8,29-10
	c10.3-0.1,21.2,4.9,25.6,14.4c5.4,11.8-1.3,26.4-11.9,34c-10.5,7.6-23.9,9.9-36.7,12l-76.3,12.5c-27.4,4.5-56.9,10.1-75.9,30.5
	c-19.3,20.7-20.9,58,0.9,76.1c14.5,12,34.9,13.5,53.6,11.3c18.6-2.2,37-7.5,55.8-6.9c50.2,1.6,94.7,44.6,144.4,37.2
	c9.8-1.4,19.6-5.1,26.5-12.2c15.2-15.9,9.6-44.5-7.4-58.5c-17-14-41.2-15.8-62.7-11.5c-15,3-29.8,8.8-41,19.3
	c-11.2,10.4-18.3,26-16.2,41.2c3.2,22.5,24.1,37.3,37.5,55.7c14.9,20.4,60.8,95.9-34.8,192.1c-95.6,96.1,112,61,49-26
	c-49.4-68.2-134,85-295,18c-74.6-31.1-167-148-235-160c-48.5-8.6-75.2,13.3-109,31c-42,22-73,13-73,13c-21-4-38-20-59-59"/>
	
	
	<path class="brain_light" d="M802.9,316c-32.3-7.6-58.4-36.8-62.5-69.9c-1.1-9-0.6-18.5,3.7-26.4c7.6-13.9,25-19.2,40.7-19.3
	c10.6-0.1,21.8,1.9,29.5,9.2c7.7,7.3,9.9,21,2.2,28.4c-5.8,5.5-14.7,5.7-22.7,5.5c-13.2-0.4-27.3-1.2-37.8-9.2
	c-6.3-4.8-10.6-11.9-13.2-19.4c-7.5-21.9,0.9-48.2,19.6-61.6c18.7-13.4,46.2-12.8,64.3,1.4c7.7,6,14,15.6,11.8,25.1
	c-2.6,11.1-16.6,16.7-27.2,12.6c-10.6-4-17.2-15.2-18.8-26.5c-3.1-21.9,10.4-43.4,28.2-56.5c12.6-9.3,28-15.5,43.6-15.2
	c12.6,0.2,26.9,6.9,28.8,19.4c1.8,11.6-7.7,21.4-15.1,30.5c-7.3,9.1-12.6,23.7-3.9,31.5c4.9,4.5,12.4,4.5,19,3.5
	c5.2-0.8,10.9-2.5,13.5-7.2c3.2-5.8-0.3-13.1-5.2-17.5s-11.2-7-15.9-11.6c-11.6-11.2-10.3-31.6-0.3-44.3
	c10-12.7,26.3-18.8,42.3-20.9c7.9-1,16-1.2,23.6,1.3c13.9,4.7,23.8,19.2,23.2,33.9c-0.6,14.7-9.7,28.5-24,32
	c-2.9,0.7-7.4,1.2-10.5-0.9c-1.4-0.9-2.3-2.5-3-4c-8.7-18.2,5.1-41,23.8-48.4c18.7-7.4,41.7-6.7,61-0.9c23,6.8,43.9,19.6,61.8,35.6
	c17.9,16,30.5,39.4,29.1,63.5c-0.3,5.8-1.7,12.1-6.3,15.6c-7.1,5.5-18.2,1.2-22.9-6.5c-4.8-7.6-5.9-13.6-6.3-19.4
	c-0.3-4.2,0.5-9.5,3.2-12.7c1.7-2.1,4.2-5.3,10.5-5.3c18.5,0,33.3,8.8,43.9,24.1c10.6,15.3,14,34.7,13.1,53.3
	c-0.3,7.2-1.6,15-6.7,20c-8.3,8.3-22.1,5.5-33,1.3c-28.3-11.2-53.9-28.9-82.6-38.9c-23.2-8-47.9-10.7-72.4-11.3
	c-20.1-0.5-40.6,0.4-59.8,6.5c-19.2,6.2-37.1,18.2-47.2,35.7c-3.5,6.2-6,14.1-2.4,20.2c3.6,6.1,11.6,7.8,18.6,7
	c17.8-2,32.1-16.1,40.9-31.7c8.8-15.6,13.6-33.2,21.4-49.4c12.1-25.2,31.7-46.7,55.5-61.1c8.9-5.3,18.6-9.8,29-10
	c10.3-0.1,21.2,4.9,25.6,14.4c5.4,11.8-1.3,26.4-11.9,34c-10.5,7.6-23.9,9.9-36.7,12l-76.3,12.5c-27.4,4.5-56.9,10.1-75.9,30.5
	c-19.3,20.7-20.9,58,0.9,76.1c14.5,12,34.9,13.5,53.6,11.3c18.6-2.2,37-7.5,55.8-6.9c50.2,1.6,94.7,44.6,144.4,37.2
	c9.8-1.4,19.6-5.1,26.5-12.2c15.2-15.9,9.6-44.5-7.4-58.5c-17-14-41.2-15.8-62.7-11.5c-15,3-29.8,8.8-41,19.3
	c-11.2,10.4-18.3,26-16.2,41.2c3.2,22.5,24.1,37.3,37.5,55.7c14.9,20.4,60.8,95.9-34.8,192.1c-95.6,96.1,112,61,49-26
	c-49.4-68.2-134,85-295,18c-74.6-31.1-167-148-235-160c-48.5-8.6-75.2,13.3-109,31c-42,22-73,13-73,13c-21-4-38-20-59-59"/>
	
	
	
	
	
	

	
	
	
<g class="plug">
	<path class="st2" d="M335.2,439.3c1.1,0.2,2.1,0.5,3.1,1c2,0.9,3.6,2.2,4.9,4c0.8,1.1,1.4,2.4,1.8,3.7c0.7,2.5,0.4,4.9-0.6,7.3
		c-0.8,1.7-1.9,3.1-3.4,4.2c-2.2,1.7-4.7,2.6-7.4,2.8c-0.1,0-0.3,0-0.4,0C333.9,454.6,334.5,447,335.2,439.3"/>
	<path class="st3" d="M335.2,439.3c1.1,0.2,2.1,0.5,3.1,1c2,0.9,3.6,2.2,4.9,4c0.8,1.1,1.4,2.4,1.8,3.7c0.7,2.5,0.4,4.9-0.6,7.3
		c-0.8,1.7-1.9,3.1-3.4,4.2c-2.2,1.7-4.7,2.6-7.4,2.8c-0.1,0-0.3,0-0.4,0C333.9,454.6,334.5,447,335.2,439.3z"/>
	<path class="st2" d="M333.8,438.1c0.2,0.3,0.3,0.6,0.3,1c-0.2,2.5-0.4,4.9-0.7,7.4c-0.3,3.2-0.6,6.5-0.9,9.7
		c-0.2,2.1-0.4,4.1-0.6,6.2c-0.1,0.6-0.4,0.9-0.9,1.2c-0.8,0.3-1.5,0.3-2.2-0.1c-0.5-0.3-0.8-0.8-0.7-1.4c0.4-4.2,0.8-8.3,1.1-12.5
		c0.3-3.6,0.7-7.2,1-10.8c0-0.5,0.3-0.8,0.8-1C332,437.2,333.2,437.4,333.8,438.1"/>
	<path class="st3" d="M333.8,438.1c0.2,0.3,0.3,0.6,0.3,1c-0.2,2.5-0.4,4.9-0.7,7.4c-0.3,3.2-0.6,6.5-0.9,9.7
		c-0.2,2.1-0.4,4.1-0.6,6.2c-0.1,0.6-0.4,0.9-0.9,1.2c-0.8,0.3-1.5,0.3-2.2-0.1c-0.5-0.3-0.8-0.8-0.7-1.4c0.4-4.2,0.8-8.3,1.1-12.5
		c0.3-3.6,0.7-7.2,1-10.8c0-0.5,0.3-0.8,0.8-1C332,437.2,333.2,437.4,333.8,438.1z"/>
	
	
	
	<path class="st2 pin" d="M329,440.9c-0.1,1.5-0.2,2.9-0.4,4.4c-0.8-0.1-1.7-0.2-2.5-0.2c-2.6-0.2-5.2-0.5-7.9-0.7
		c-0.8-0.1-1.3-0.4-1.5-1.2c-0.3-1-0.1-1.9,0.5-2.7c0.3-0.3,0.6-0.5,1.1-0.5c3.1,0.3,6.2,0.5,9.2,0.8
		C328.1,440.9,328.5,440.9,329,440.9"/>
	<path class="st3 pin" d="M329,440.9c-0.1,1.5-0.2,2.9-0.4,4.4c-0.8-0.1-1.7-0.2-2.5-0.2c-2.6-0.2-5.2-0.5-7.9-0.7
		c-0.8-0.1-1.3-0.4-1.5-1.2c-0.3-1-0.1-1.9,0.5-2.7c0.3-0.3,0.6-0.5,1.1-0.5c3.1,0.3,6.2,0.5,9.2,0.8
		C328.1,440.9,328.5,440.9,329,440.9z"/>
	
	
	
	<path class="st2 pin" d="M327.7,455.4c-0.1,1.5-0.3,2.9-0.4,4.4c-0.7-0.1-1.4-0.1-2.1-0.2c-2.8-0.2-5.6-0.5-8.4-0.7
		c-0.5,0-0.8-0.3-1.1-0.7c-0.6-0.9-0.4-2.5,0.4-3.3c0.3-0.3,0.6-0.4,1-0.4c1.9,0.2,3.8,0.3,5.7,0.5
		C324.5,455.1,326.1,455.2,327.7,455.4"/>
		
	<path class="st3 pin" d="M327.7,455.4c-0.1,1.5-0.3,2.9-0.4,4.4c-0.7-0.1-1.4-0.1-2.1-0.2c-2.8-0.2-5.6-0.5-8.4-0.7
		c-0.5,0-0.8-0.3-1.1-0.7c-0.6-0.9-0.4-2.5,0.4-3.3c0.3-0.3,0.6-0.4,1-0.4c1.9,0.2,3.8,0.3,5.7,0.5
		C324.5,455.1,326.1,455.2,327.7,455.4z"/>
	
	
	
	
	
	<path class="st2" d="M357.7,452.8c-3.9,0.5-9.6,1.2-12.9,0.9c0.1-1.3,0.3-3.3,0.4-4.6c3.3,0.3,8.4,1.2,11.7,1.5"/>
	<path class="st3" d="M357.7,452.8c-3.9,0.5-9.6,1.2-12.9,0.9c0.1-1.3,0.3-3.3,0.4-4.6c3.3,0.3,8.4,1.2,11.7,1.5"/>
</g>
	
	
	
	
	
	
	<rect x="219.6" y="278.1" class="mask" width="274.5" height="256.5"/>
</svg>
