<svg xmlns="http://www.w3.org/2000/svg" xmlns:xlink="http://www.w3.org/1999/xlink" width="56.106" height="52.25" viewBox="0 0 56.106 52.25">
  <defs>
    <clipPath id="clip-path">
      <rect width="25.337" height="24.999" fill="none"/>
    </clipPath>
  </defs>
  <g id="telephine-icon" transform="translate(-182.525 -840)">
    <g id="Rectangle_210" data-name="Rectangle 210" transform="translate(202.278 840)" fill="none" stroke="#fff" stroke-width="1.5">
      <rect width="36.353" height="51.225" rx="5" stroke="none"/>
      <rect x="0.75" y="0.75" width="34.853" height="49.725" rx="4.25" fill="none"/>
    </g>
    <g id="Rectangle_211" data-name="Rectangle 211" transform="translate(207.235 844.957)" fill="none" stroke="#fff" stroke-width="1.5">
      <rect width="26.438" height="7.711" rx="3" stroke="none"/>
      <rect x="0.75" y="0.75" width="24.938" height="6.211" rx="2.25" fill="none"/>
    </g>
    <g id="Repeat_Grid_13" data-name="Repeat Grid 13" transform="translate(208.337 859.278)" clip-path="url(#clip-path)">
      <g transform="translate(-226 -843)">
        <g id="Ellipse_77" data-name="Ellipse 77" transform="translate(226 843)" fill="none" stroke="#fff" stroke-width="1.5">
          <circle cx="3.5" cy="3.5" r="3.5" stroke="none"/>
          <circle cx="3.5" cy="3.5" r="2.75" fill="none"/>
        </g>
      </g>
      <g transform="translate(-217 -843)">
        <g id="Ellipse_77-2" data-name="Ellipse 77" transform="translate(226 843)" fill="none" stroke="#fff" stroke-width="1.5">
          <circle cx="3.5" cy="3.5" r="3.5" stroke="none"/>
          <circle cx="3.5" cy="3.5" r="2.75" fill="none"/>
        </g>
      </g>
      <g transform="translate(-208 -843)">
        <g id="Ellipse_77-3" data-name="Ellipse 77" transform="translate(226 843)" fill="none" stroke="#fff" stroke-width="1.5">
          <circle cx="3.5" cy="3.5" r="3.5" stroke="none"/>
          <circle cx="3.5" cy="3.5" r="2.75" fill="none"/>
        </g>
      </g>
      <g transform="translate(-226 -834)">
        <g id="Ellipse_77-4" data-name="Ellipse 77" transform="translate(226 843)" fill="none" stroke="#fff" stroke-width="1.5">
          <circle cx="3.5" cy="3.5" r="3.5" stroke="none"/>
          <circle cx="3.5" cy="3.5" r="2.75" fill="none"/>
        </g>
      </g>
      <g transform="translate(-217 -834)">
        <g id="Ellipse_77-5" data-name="Ellipse 77" transform="translate(226 843)" fill="none" stroke="#fff" stroke-width="1.5">
          <circle cx="3.5" cy="3.5" r="3.5" stroke="none"/>
          <circle cx="3.5" cy="3.5" r="2.75" fill="none"/>
        </g>
      </g>
      <g transform="translate(-208 -834)">
        <g id="Ellipse_77-6" data-name="Ellipse 77" transform="translate(226 843)" fill="none" stroke="#fff" stroke-width="1.5">
          <circle cx="3.5" cy="3.5" r="3.5" stroke="none"/>
          <circle cx="3.5" cy="3.5" r="2.75" fill="none"/>
        </g>
      </g>
      <g transform="translate(-226 -825)">
        <g id="Ellipse_77-7" data-name="Ellipse 77" transform="translate(226 843)" fill="none" stroke="#fff" stroke-width="1.5">
          <circle cx="3.5" cy="3.5" r="3.5" stroke="none"/>
          <circle cx="3.5" cy="3.5" r="2.75" fill="none"/>
        </g>
      </g>
      <g transform="translate(-217 -825)">
        <g id="Ellipse_77-8" data-name="Ellipse 77" transform="translate(226 843)" fill="none" stroke="#fff" stroke-width="1.5">
          <circle cx="3.5" cy="3.5" r="3.5" stroke="none"/>
          <circle cx="3.5" cy="3.5" r="2.75" fill="none"/>
        </g>
      </g>
      <g transform="translate(-208 -825)">
        <g id="Ellipse_77-9" data-name="Ellipse 77" transform="translate(226 843)" fill="none" stroke="#fff" stroke-width="1.5">
          <circle cx="3.5" cy="3.5" r="3.5" stroke="none"/>
          <circle cx="3.5" cy="3.5" r="2.75" fill="none"/>
        </g>
      </g>
    </g>
    <g id="Rectangle_212" data-name="Rectangle 212" transform="translate(183 840)" fill="none" stroke="#fff" stroke-width="1.5">
      <rect width="15.973" height="46.267" rx="4" stroke="none"/>
      <rect x="0.75" y="0.75" width="14.473" height="44.767" rx="3.25" fill="none"/>
    </g>
    <line id="Line_62" data-name="Line 62" x1="15.973" transform="translate(183.275 891.5)" fill="none" stroke="#fff" stroke-linecap="round" stroke-width="1.5"/>
  </g>
</svg>
